<svg xmlns="http://www.w3.org/2000/svg" viewBox="0 0 114.66 66.96"><title>icon-money</title><g id="レイヤー_2" data-name="レイヤー 2"><g id="レイヤー_5" data-name="レイヤー 5"><path d="M112.16,13.83h-93V64.46h93Z" style="fill:#231815;stroke:#231815;stroke-linecap:round;stroke-linejoin:round;stroke-width:5px"/><path d="M112.16,13.83h-93V64.46h93Z" style="fill:#fff"/><path d="M45.47,39.14A20.15,20.15,0,0,1,53,23.41H26.62V54.88H53A20.15,20.15,0,0,1,45.47,39.14Z" style="fill:#231815"/><path d="M78.3,54.88h26.4V23.41H78.3a20.17,20.17,0,0,1,0,31.47Z" style="fill:#231815"/><polygon points="58.55 38.66 58.55 42.36 62.79 42.36 62.79 43.85 58.55 43.85 58.55 47.52 62.79 47.52 62.79 50.89 68.31 50.89 68.31 47.52 72.53 47.52 72.53 43.85 68.31 43.85 68.31 42.36 72.53 42.36 72.53 38.66 69.33 38.66 76.05 27.4 70.24 27.4 65.77 35.82 61.41 27.4 55.28 27.4 61.74 38.66 58.55 38.66" style="fill:#231815"/><path d="M95.49,2.5H2.5V53.12h93Z" style="fill:#231815;stroke:#231815;stroke-linecap:round;stroke-linejoin:round;stroke-width:5px"/><path d="M95.49,2.5H2.5V53.12h93Z" style="fill:#fff"/><path d="M28.8,27.81a20.15,20.15,0,0,1,7.55-15.74H10V43.55h26.4A20.15,20.15,0,0,1,28.8,27.81Z" style="fill:#231815"/><path d="M61.63,43.55H88V12.07H61.63a20.17,20.17,0,0,1,0,31.47Z" style="fill:#231815"/><polygon points="41.88 27.32 41.88 31.02 46.13 31.02 46.13 32.52 41.88 32.52 41.88 36.18 46.13 36.18 46.13 39.56 51.65 39.56 51.65 36.18 55.86 36.18 55.86 32.52 51.65 32.52 51.65 31.02 55.86 31.02 55.86 27.32 52.66 27.32 59.38 16.06 53.57 16.06 49.11 24.49 44.75 16.06 38.61 16.06 45.08 27.32 41.88 27.32" style="fill:#231815"/></g></g></svg>