<svg xmlns="http://www.w3.org/2000/svg" viewBox="0 0 46.35 46.35"><title>icon-1</title><g id="レイヤー_2" data-name="レイヤー 2"><g id="レイヤー_5" data-name="レイヤー 5"><path d="M23.2,42.35a19.18,19.18,0,1,1,19.16-19.2A19.2,19.2,0,0,1,23.2,42.35ZM15.92,15.52a23.53,23.53,0,0,1,3.72-.24H21V32a38.3,38.3,0,0,1-.24,4.64H27A38.29,38.29,0,0,1,26.8,32V15.4A48.6,48.6,0,0,1,27,10.24a31.13,31.13,0,0,1-3.76.16H19.6c-.64,0-1.08,0-1.32,0a16.31,16.31,0,0,1-2.36-.16Z" style="fill:#231815;stroke:#231815;stroke-miterlimit:10;stroke-width:8px"/><path d="M23.2,42.35a19.18,19.18,0,1,1,19.16-19.2A19.2,19.2,0,0,1,23.2,42.35ZM15.92,15.52a23.53,23.53,0,0,1,3.72-.24H21V32a38.3,38.3,0,0,1-.24,4.64H27A38.29,38.29,0,0,1,26.8,32V15.4A48.6,48.6,0,0,1,27,10.24a31.13,31.13,0,0,1-3.76.16H19.6c-.64,0-1.08,0-1.32,0a16.31,16.31,0,0,1-2.36-.16Z" style="fill:#fff"/></g></g></svg>