<svg xmlns="http://www.w3.org/2000/svg" viewBox="0 0 86.81 88.77"><title>icon-present</title><g id="レイヤー_2" data-name="レイヤー 2"><g id="レイヤー_5" data-name="レイヤー 5"><polygon points="14.91 34.51 50.42 47.43 50.42 87.14 36.4 82.04 14.91 74.22 14.91 34.51" style="fill:#fff;stroke:#000;stroke-linecap:round;stroke-linejoin:round;stroke-width:3.25040307641029px"/><polygon points="36.4 42.33 25.94 38.52 25.94 78.23 36.4 82.04 36.4 42.33" style="fill:#dcdddd;stroke:#000;stroke-linecap:round;stroke-linejoin:round;stroke-width:3.25040307641029px"/><polygon points="79.01 27.41 50.42 47.43 50.42 87.14 60.19 80.3 79.01 67.12 79.01 27.41" style="fill:#fff;stroke:#000;stroke-linecap:round;stroke-linejoin:round;stroke-width:3.25040307641029px"/><polygon points="70.54 33.34 60.19 40.59 60.19 80.3 70.54 73.05 70.54 33.34" style="fill:#dcdddd;stroke:#000;stroke-linecap:round;stroke-linejoin:round;stroke-width:3.25040307641029px"/><polygon points="12.18 28.27 50.71 42.3 50.71 53.09 12.18 39.06 12.18 28.27" style="fill:#fff;stroke:#000;stroke-linecap:round;stroke-linejoin:round;stroke-width:3.25040307641029px"/><polygon points="81.75 20.57 50.71 42.3 50.71 53.09 81.75 31.36 81.75 20.57" style="fill:#fff;stroke:#000;stroke-linecap:round;stroke-linejoin:round;stroke-width:3.25040307641029px"/><polygon points="81.75 20.57 50.71 42.3 12.18 28.27 43.21 6.54 81.75 20.57" style="fill:#fff;stroke:#000;stroke-linecap:round;stroke-linejoin:round;stroke-width:3.25040307641029px"/><polygon points="71.37 27.84 32.83 13.81 22.48 21.06 61.02 35.09 71.37 27.84" style="fill:#fff;stroke:#000;stroke-linecap:round;stroke-linejoin:round;stroke-width:3.25040307641029px"/><polygon points="66.3 14.95 35.27 36.68 24.8 32.88 55.84 11.14 66.3 14.95" style="fill:#dcdddd;stroke:#000;stroke-linecap:round;stroke-linejoin:round;stroke-width:3.25040307641029px"/><polygon points="71.37 27.84 61.02 35.09 61.02 46.29 71.37 39.04 71.37 27.84" style="fill:#fff;stroke:#000;stroke-linecap:round;stroke-linejoin:round;stroke-width:3.25040307641029px"/><polygon points="35.27 36.68 24.8 32.88 24.8 43.72 35.27 47.52 35.27 36.68" style="fill:#dcdddd;stroke:#000;stroke-linecap:round;stroke-linejoin:round;stroke-width:3.25040307641029px"/><path d="M43.87,29.16C33.52,26.92,23.48,39.8,13.14,56.7c-.73-1.54-2.51-6.91-3.24-8.72-2.76,1.52-5.51,3-8.27,4.22C12,35.48,22.31,24.38,32.66,23.62A115.67,115.67,0,0,0,43.87,29.16Z" style="fill:#fff;stroke:#000;stroke-linecap:round;stroke-linejoin:round;stroke-width:3.25040307641029px"/><path d="M40.13,27.38c10.57-.47,18.29,15.37,25.64,33.77,1-1.39,3.08-6.76,3.86-9.14,2.46,2,5.9,3.34,8.4,5.05-7.38-18.23-15.71-30.91-25.78-33.4A119.32,119.32,0,0,1,40.13,27.38Z" style="fill:#fff;stroke:#000;stroke-linecap:round;stroke-linejoin:round;stroke-width:3.25040307641029px"/><path d="M36.57,25.21l7.18-7.6C27.58-.88,20.23,1.76,20.23,1.76L10,7.27Z" style="fill:#fff;stroke:#000;stroke-linecap:round;stroke-linejoin:round;stroke-width:3.25040307641029px"/><path d="M36,26.66C23.14,22.61,4.51,12.58,9.51,7.69S36.57,23.54,36.57,23.54" style="fill:#fff;stroke:#000;stroke-linecap:round;stroke-linejoin:round;stroke-width:3.25040307641029px"/><path d="M47.37,27.2l-4-6.14,13.32-.42c13-.42,29.35-5.41,28.41,4.48-.15,1.61-10.51,7.39-10.51,7.39Z" style="fill:#fff;stroke:#000;stroke-linecap:round;stroke-linejoin:round;stroke-width:3.25040307641029px"/><path d="M47.57,26.06c13-.42,28.41-3.43,28.41,3.54,0,7.49-19.32,4-29.87-.56" style="fill:#fff;stroke:#000;stroke-linecap:round;stroke-linejoin:round;stroke-width:3.25040307641029px"/><path d="M45.53,16.24C34.18,15.82,34.18,26,34.18,26l10.51,3.64s5-10.3,11.24-10.1C55.94,19.57,48.75,16.36,45.53,16.24Z" style="fill:#fff;stroke:#000;stroke-linecap:round;stroke-linejoin:round;stroke-width:3.25040307641029px"/></g></g></svg>