<svg xmlns="http://www.w3.org/2000/svg" viewBox="0 0 125.27 85.81"><title>icon-card</title><g id="レイヤー_2" data-name="レイヤー 2"><g id="レイヤー_5" data-name="レイヤー 5"><path d="M111.2,4H14.07A10.08,10.08,0,0,0,4,14.07V71.74A10.08,10.08,0,0,0,14.07,81.81H111.2a10.08,10.08,0,0,0,10.07-10.07V14.07A10.08,10.08,0,0,0,111.2,4Z" style="fill:#fff;stroke:#231815;stroke-miterlimit:10;stroke-width:8px"/><path d="M111.2,4H14.07A10.08,10.08,0,0,0,4,14.07V71.74A10.08,10.08,0,0,0,14.07,81.81H111.2a10.08,10.08,0,0,0,10.07-10.07V14.07A10.08,10.08,0,0,0,111.2,4Z" style="fill:#fff"/><rect x="17.61" y="37.21" width="16.19" height="16.02" style="fill:#231815"/><polygon points="106.34 13.67 106.34 27.18 106.33 27.15 95.22 13.43 95.22 31.18 96.71 31.18 96.71 17.63 107.83 31.37 107.83 13.67 106.34 13.67" style="fill:#231815"/><path d="M81.65,13.34a9.1,9.1,0,1,0,9.09,9.1,9.1,9.1,0,0,0-9.09-9.1m0,16.7a7.61,7.61,0,1,1,7.61-7.61A7.61,7.61,0,0,1,81.65,30" style="fill:#231815"/><path d="M81.65,18.93a3.51,3.51,0,1,0,3.51,3.51,3.51,3.51,0,0,0-3.51-3.51m0,5.53a2,2,0,1,1,2-2,2,2,0,0,1-2,2" style="fill:#231815"/><path d="M25.16,22.16c-1.16-.34-2.48-.67-3.5-1a3.07,3.07,0,0,1-2-2.88,3,3,0,0,1,.55-1.73,3.56,3.56,0,0,1,4-1.41,4.47,4.47,0,0,1,2.25,2l1.25-.53a5,5,0,0,0-6.64-2.72,4.8,4.8,0,0,0-3,4.44,4.63,4.63,0,0,0,2.5,4,18.53,18.53,0,0,0,3.35,1,3.31,3.31,0,0,1,3,3.1v.05c0,2.44-2.75,3.89-5,3.48a4.8,4.8,0,0,1-3.48-3L17,27.55a5.89,5.89,0,0,0,4.07,3.8,6.17,6.17,0,0,0,5.49-1.2,4.61,4.61,0,0,0,1.76-3.62,4.79,4.79,0,0,0-3.2-4.36" style="fill:#231815"/><path d="M65.38,22.16c-1.15-.34-2.48-.67-3.5-1a3.07,3.07,0,0,1-2-2.88,3,3,0,0,1,.55-1.73,3.56,3.56,0,0,1,4-1.41,4.45,4.45,0,0,1,2.25,2l1.24-.53a5,5,0,0,0-6.63-2.72,4.8,4.8,0,0,0-3,4.44,4.63,4.63,0,0,0,2.49,4,18.23,18.23,0,0,0,3.35,1,3.31,3.31,0,0,1,3,3.1v.05c0,2.44-2.75,3.89-5,3.48a4.81,4.81,0,0,1-3.48-3l-1.36.53a5.91,5.91,0,0,0,4.08,3.8,6.15,6.15,0,0,0,5.49-1.2,4.61,4.61,0,0,0,1.76-3.62,4.8,4.8,0,0,0-3.19-4.36" style="fill:#231815"/><rect x="49.94" y="13.7" width="1.48" height="17.41" style="fill:#231815"/><path d="M38.4,12.77,31,31.14h1.61L35,25.23h6.87l2.38,5.9h1.6Zm-2.83,11,2.83-7,2.83,7Z" style="fill:#231815"/></g></g></svg>