<svg xmlns="http://www.w3.org/2000/svg" viewBox="0 0 46.35 46.35"><title>icon-3</title><g id="レイヤー_2" data-name="レイヤー 2"><g id="レイヤー_5" data-name="レイヤー 5"><path d="M23.2,42.35a19.18,19.18,0,1,1,19.16-19.2A19.2,19.2,0,0,1,23.2,42.35Zm-11-12.68a9.6,9.6,0,0,0,1.88,4C16,35.87,19,37,23.16,37c6.52,0,10.48-2.88,10.48-7.6a5.91,5.91,0,0,0-2.52-5.16,8.68,8.68,0,0,0-4.28-1.36A8.26,8.26,0,0,0,31,21.2a6.06,6.06,0,0,0,2-4.8c0-4.24-3.72-7-9.56-7-3.92,0-6.76,1.08-8.64,3.24a9.39,9.39,0,0,0-1.92,3.72l6.28.92a3.56,3.56,0,0,1,1.08-2.12,4.14,4.14,0,0,1,2.92-1c2.24,0,3.68,1.2,3.68,3.08a2.94,2.94,0,0,1-1.52,2.64,8.29,8.29,0,0,1-3.44.6c-.92,0-2.12-.08-3-.16v5c1.36-.12,2.6-.2,4-.2,3.24,0,4.76,1.16,4.76,3.6,0,2-1.84,3.44-4.44,3.44A5.11,5.11,0,0,1,19.2,30.6a3.73,3.73,0,0,1-.92-2Z" style="fill:#231815;stroke:#231815;stroke-miterlimit:10;stroke-width:8px"/><path d="M23.2,42.35a19.18,19.18,0,1,1,19.16-19.2A19.2,19.2,0,0,1,23.2,42.35Zm-11-12.68a9.6,9.6,0,0,0,1.88,4C16,35.87,19,37,23.16,37c6.52,0,10.48-2.88,10.48-7.6a5.91,5.91,0,0,0-2.52-5.16,8.68,8.68,0,0,0-4.28-1.36A8.26,8.26,0,0,0,31,21.2a6.06,6.06,0,0,0,2-4.8c0-4.24-3.72-7-9.56-7-3.92,0-6.76,1.08-8.64,3.24a9.39,9.39,0,0,0-1.92,3.72l6.28.92a3.56,3.56,0,0,1,1.08-2.12,4.14,4.14,0,0,1,2.92-1c2.24,0,3.68,1.2,3.68,3.08a2.94,2.94,0,0,1-1.52,2.64,8.29,8.29,0,0,1-3.44.6c-.92,0-2.12-.08-3-.16v5c1.36-.12,2.6-.2,4-.2,3.24,0,4.76,1.16,4.76,3.6,0,2-1.84,3.44-4.44,3.44A5.11,5.11,0,0,1,19.2,30.6a3.73,3.73,0,0,1-.92-2Z" style="fill:#fff"/></g></g></svg>