<svg xmlns="http://www.w3.org/2000/svg" viewBox="0 0 46.35 46.39"><title>icon-2</title><g id="レイヤー_2" data-name="レイヤー 2"><g id="レイヤー_5" data-name="レイヤー 5"><path d="M23.2,42.39A19.2,19.2,0,1,1,42.35,23.16,19.21,19.21,0,0,1,23.2,42.39ZM18.8,18.6a5,5,0,0,1,1-3,4.14,4.14,0,0,1,3.44-1.44c2.36,0,3.8,1.12,3.8,2.92A3.43,3.43,0,0,1,25.4,20c-.64.52-1,.76-3.76,2.68A23.69,23.69,0,0,0,16,27.84a16.93,16.93,0,0,0-2.92,6.28,13.25,13.25,0,0,0-.32,2.2,42,42,0,0,1,4.6-.16h11c1.68,0,3.24.08,5.12.24V30.88a32,32,0,0,1-4.8.24H20.8c.76-2,2.4-3.6,6.36-6.08.76-.48,1.88-1.24,2.88-2a7.53,7.53,0,0,0,3.12-6.16c0-4.68-3.84-7.6-9.88-7.6-3.84,0-6.76,1.24-8.52,3.64a10.78,10.78,0,0,0-1.92,5Z" style="fill:#231815;stroke:#231815;stroke-miterlimit:10;stroke-width:8px"/><path d="M23.2,42.39A19.2,19.2,0,1,1,42.35,23.16,19.21,19.21,0,0,1,23.2,42.39ZM18.8,18.6a5,5,0,0,1,1-3,4.14,4.14,0,0,1,3.44-1.44c2.36,0,3.8,1.12,3.8,2.92A3.43,3.43,0,0,1,25.4,20c-.64.52-1,.76-3.76,2.68A23.69,23.69,0,0,0,16,27.84a16.93,16.93,0,0,0-2.92,6.28,13.25,13.25,0,0,0-.32,2.2,42,42,0,0,1,4.6-.16h11c1.68,0,3.24.08,5.12.24V30.88a32,32,0,0,1-4.8.24H20.8c.76-2,2.4-3.6,6.36-6.08.76-.48,1.88-1.24,2.88-2a7.53,7.53,0,0,0,3.12-6.16c0-4.68-3.84-7.6-9.88-7.6-3.84,0-6.76,1.24-8.52,3.64a10.78,10.78,0,0,0-1.92,5Z" style="fill:#fff"/></g></g></svg>