<svg xmlns="http://www.w3.org/2000/svg" viewBox="0 0 90 90"><title>merit2</title><g id="レイヤー_2" data-name="レイヤー 2"><g id="レイヤー_5" data-name="レイヤー 5"><path d="M27.8,17.47a8,8,0,0,0,.65-2.09,8.28,8.28,0,0,1,2.14,1.07.35.35,0,0,1,.17.29.5.5,0,0,1-.19.37,3.73,3.73,0,0,0-.77,1.14,33.34,33.34,0,0,1-1.94,3.37,19.76,19.76,0,0,1,2.5,2.31.37.37,0,0,1,.1.24.45.45,0,0,1-.08.22c-.34.44-.68.82-1,1.21a.26.26,0,0,1-.2.12c-.08,0-.15-.05-.24-.15a17.34,17.34,0,0,0-2.23-2.24,22.32,22.32,0,0,1-5.81,5.3.77.77,0,0,1-.39.14.48.48,0,0,1-.32-.12,4.94,4.94,0,0,0-1.53-.94A20.76,20.76,0,0,0,25,22.12a18.66,18.66,0,0,0-3.31-2c.49-.63.9-1.16,1.12-1.39a.23.23,0,0,1,.17-.08.48.48,0,0,1,.2.07,25.47,25.47,0,0,1,3,1.78A20.06,20.06,0,0,0,27.8,17.47Z" style="fill:#3e3a39"/><path d="M35.4,17.84a11.64,11.64,0,0,0-.19-2.48,12.47,12.47,0,0,1,2.11.36c.2.05.29.15.29.27a.7.7,0,0,1-.07.25,3.91,3.91,0,0,0-.19,1.62v3.43c0,.88,0,1.55.05,2.14,0,.25-.1.34-.37.34H35.68c-.24,0-.34-.09-.32-.29,0-.6.05-1.58.05-2.31Zm8,3.18c0,2.52-.37,4.2-1.38,5.54a8.76,8.76,0,0,1-3.74,2.67,1.09,1.09,0,0,1-.36.08.55.55,0,0,1-.41-.2,5.52,5.52,0,0,0-1.44-1,8.3,8.3,0,0,0,4.15-2.48c.78-1,1.14-2.38,1.14-4.54V17.84a12.46,12.46,0,0,0-.19-2.77,10.64,10.64,0,0,1,2.21.37.29.29,0,0,1,.24.29.54.54,0,0,1-.07.27,5.11,5.11,0,0,0-.15,1.85Z" style="fill:#3e3a39"/><path d="M48.63,19.8a.31.31,0,0,1,.44.12,9.12,9.12,0,0,1,1.46,2.52,1.15,1.15,0,0,1,.07.26c0,.1-.07.15-.2.24a7.09,7.09,0,0,1-1.09.53c-.24.08-.34,0-.42-.24a10.07,10.07,0,0,0-1.6-2.74C47.86,20.15,48.27,20,48.63,19.8ZM58,20c.14.1.22.19.22.29s-.05.19-.19.31a2.33,2.33,0,0,0-.51.87A20.72,20.72,0,0,1,54.92,26a13.61,13.61,0,0,1-3.5,3.28.73.73,0,0,1-.41.19.38.38,0,0,1-.27-.12,3.83,3.83,0,0,0-1.45-.71,14.8,14.8,0,0,0,4.08-3.54A17.61,17.61,0,0,0,55.67,21a6.14,6.14,0,0,0,.39-1.8A8.14,8.14,0,0,1,58,20Zm-5.9-1a.3.3,0,0,1,.44.14,9.81,9.81,0,0,1,1.31,2.48c.08.25.05.34-.17.46a7,7,0,0,1-1.17.53c-.19.07-.25,0-.34-.25a11.58,11.58,0,0,0-1.43-2.72C51.38,19.29,51.77,19.1,52.06,19Z" style="fill:#3e3a39"/><path d="M65.29,19.74a24,24,0,0,1,5.41,2.31c.19.1.27.22.19.44A9.93,9.93,0,0,1,70.15,24c-.07.12-.14.19-.22.19a.26.26,0,0,1-.19-.08,18.81,18.81,0,0,0-4.47-2.18v3.76c0,1.1,0,2.11.07,3.33,0,.2-.07.25-.31.25a11.19,11.19,0,0,1-1.51,0c-.24,0-.32-.05-.32-.25.05-1.26.07-2.26.07-3.35V17.28a13,13,0,0,0-.17-2.52,12.66,12.66,0,0,1,2.12.27c.24.05.32.15.32.29a.9.9,0,0,1-.14.39,4.42,4.42,0,0,0-.12,1.6Z" style="fill:#3e3a39"/><path d="M36.08,52.47c.88-5.33,4.41-8.15,9.12-8.15,5,0,8.53,2.94,8.53,7.94,0,3.36-1.26,5.88-6.34,10.33-4.54,4-6.68,6.72-8.07,9.79H53.76v2.9H35.82v-2.6c1.72-4.08,4.41-7.69,9-11.93,4.33-4,5.29-5.8,5.29-8.49a4.7,4.7,0,0,0-5-5c-3.07,0-5.08,2-5.63,6Z" style="fill:#3e3a39"/><path d="M87.83,2.17V87.83H2.17V2.17H87.83M90,0H0V90H90V0Z" style="fill:#3e3a39"/></g></g></svg>