<svg xmlns="http://www.w3.org/2000/svg" viewBox="0 0 90 90"><title>merit1</title><g id="レイヤー_2" data-name="レイヤー 2"><g id="レイヤー_5" data-name="レイヤー 5"><path d="M27.8,17.47a8,8,0,0,0,.65-2.09,8.31,8.31,0,0,1,2.14,1.07.35.35,0,0,1,.17.29.5.5,0,0,1-.19.37,3.72,3.72,0,0,0-.77,1.14,33.34,33.34,0,0,1-1.94,3.37,19.76,19.76,0,0,1,2.5,2.31.37.37,0,0,1,.1.24.46.46,0,0,1-.08.22c-.34.44-.68.82-1,1.21a.26.26,0,0,1-.2.12c-.08,0-.15-.05-.24-.15a17.35,17.35,0,0,0-2.23-2.24,22.31,22.31,0,0,1-5.81,5.3.78.78,0,0,1-.39.14.48.48,0,0,1-.32-.12,5,5,0,0,0-1.53-.93A20.77,20.77,0,0,0,25,22.13a18.72,18.72,0,0,0-3.31-2c.49-.63.9-1.16,1.12-1.39a.24.24,0,0,1,.17-.08.49.49,0,0,1,.2.07,25.34,25.34,0,0,1,3,1.78A20.06,20.06,0,0,0,27.8,17.47Z" style="fill:#3e3a39"/><path d="M35.4,17.84a11.65,11.65,0,0,0-.19-2.48,12.56,12.56,0,0,1,2.11.36c.2.05.29.15.29.27a.71.71,0,0,1-.07.25,3.91,3.91,0,0,0-.19,1.62v3.43c0,.88,0,1.55.05,2.14,0,.25-.1.34-.37.34H35.68c-.24,0-.34-.08-.32-.29,0-.59.05-1.58.05-2.31Zm8,3.18c0,2.52-.37,4.2-1.38,5.54a8.78,8.78,0,0,1-3.74,2.67,1.09,1.09,0,0,1-.36.08.56.56,0,0,1-.41-.2,5.5,5.5,0,0,0-1.44-1,8.3,8.3,0,0,0,4.15-2.48c.78-1,1.14-2.38,1.14-4.54V17.84a12.47,12.47,0,0,0-.19-2.77,10.7,10.7,0,0,1,2.21.37.29.29,0,0,1,.24.29.54.54,0,0,1-.07.27,5.11,5.11,0,0,0-.15,1.85Z" style="fill:#3e3a39"/><path d="M48.63,19.8a.31.31,0,0,1,.44.12,9.12,9.12,0,0,1,1.46,2.52,1.15,1.15,0,0,1,.07.25c0,.1-.07.15-.2.24a7.09,7.09,0,0,1-1.09.53c-.24.08-.34,0-.42-.24a10.05,10.05,0,0,0-1.6-2.74C47.86,20.15,48.27,20,48.63,19.8ZM58,20c.14.1.22.19.22.29s-.05.19-.19.31a2.34,2.34,0,0,0-.51.87A20.67,20.67,0,0,1,54.92,26a13.6,13.6,0,0,1-3.5,3.28.74.74,0,0,1-.41.19.38.38,0,0,1-.27-.12,3.85,3.85,0,0,0-1.45-.71,14.78,14.78,0,0,0,4.08-3.54A17.61,17.61,0,0,0,55.67,21a6.14,6.14,0,0,0,.39-1.8A8.1,8.1,0,0,1,58,20Zm-5.9-1a.3.3,0,0,1,.44.14,9.8,9.8,0,0,1,1.31,2.48c.08.25.05.34-.17.46a6.92,6.92,0,0,1-1.17.53c-.19.07-.25,0-.34-.25a11.56,11.56,0,0,0-1.43-2.72C51.38,19.29,51.77,19.1,52.06,19Z" style="fill:#3e3a39"/><path d="M65.29,19.75a24,24,0,0,1,5.41,2.31c.19.1.27.22.19.44A9.93,9.93,0,0,1,70.15,24c-.07.12-.14.19-.22.19a.26.26,0,0,1-.19-.08,18.81,18.81,0,0,0-4.47-2.18v3.76c0,1.11,0,2.11.07,3.33,0,.2-.07.25-.31.25a11.19,11.19,0,0,1-1.51,0c-.24,0-.32-.05-.32-.25.05-1.26.07-2.26.07-3.35V17.28a13,13,0,0,0-.17-2.52,12.56,12.56,0,0,1,2.12.27c.24.05.32.15.32.29a.9.9,0,0,1-.14.39,4.42,4.42,0,0,0-.12,1.6Z" style="fill:#3e3a39"/><path d="M47.25,72.46H53v2.81H37.8V72.46h6.09V48.18a29,29,0,0,1-6,3l-.59-3.07a28.53,28.53,0,0,0,7.14-3.61h2.86Z" style="fill:#3e3a39"/><path d="M87.83,2.17V87.83H2.17V2.17H87.83M90,0H0V90H90V0Z" style="fill:#3e3a39"/></g></g></svg>