<svg xmlns="http://www.w3.org/2000/svg" viewBox="0 0 83.04 83.04"><title>point3</title><g id="レイヤー_2" data-name="レイヤー 2"><g id="レイヤー_5" data-name="レイヤー 5"><circle cx="41.52" cy="41.52" r="40.02" style="fill:none;stroke:#009447;stroke-miterlimit:10;stroke-width:3px"/><path d="M21.78,31.47a13.46,13.46,0,0,0,.12-2V21.51a15,15,0,0,0-.12-2c.66,0,1.14,0,2,0h3.13a4.46,4.46,0,0,1,3.3,1.1,3.66,3.66,0,0,1,1,2.64,3.87,3.87,0,0,1-1,2.83,4.36,4.36,0,0,1-3.26,1.13H24.31v2.17a13.76,13.76,0,0,0,.12,2.05Zm5-6.3a1.67,1.67,0,0,0,1.86-1.82,1.74,1.74,0,0,0-.44-1.26,1.8,1.8,0,0,0-1.42-.48H24.31v3.57Z" style="fill:#009447"/><path d="M32.08,27.13a4.31,4.31,0,0,1,4.6-4.64,4.29,4.29,0,0,1,4.58,4.61,4.36,4.36,0,0,1-4.59,4.67A4.3,4.3,0,0,1,32.08,27.13Zm2.33,0c0,1.73.85,2.79,2.26,2.79s2.25-1,2.25-2.75-.82-2.8-2.23-2.8S34.42,25.38,34.42,27.1Z" style="fill:#009447"/><path d="M45.19,22.78a12.66,12.66,0,0,0-.12,2.07V29.4a14,14,0,0,0,.12,2.07h-2.6a14.81,14.81,0,0,0,.12-2.05V24.84a13.39,13.39,0,0,0-.12-2.06Zm0-3.24v2H42.62v-2Z" style="fill:#009447"/><path d="M46.88,31.47A14.27,14.27,0,0,0,47,29.42V24.84a12.68,12.68,0,0,0-.12-2.06H49.3v.59c0,.12,0,.31,0,.59a4,4,0,0,1,3.08-1.35,2.78,2.78,0,0,1,3,3.11v3.7a13.39,13.39,0,0,0,.12,2.05H52.94a14.65,14.65,0,0,0,.12-2.05V26.28c0-.76-.12-1.1-.47-1.37a1.44,1.44,0,0,0-.87-.25,3.07,3.07,0,0,0-2.41,1.78v3a15.37,15.37,0,0,0,.12,2.05Z" style="fill:#009447"/><path d="M60.72,20.51a14.74,14.74,0,0,0-.12,1.89v.38h.57a10.26,10.26,0,0,0,1.47-.07v2.06a7.83,7.83,0,0,0-1.39-.09H60.6v4.14c0,.69.25.94.94.94a2,2,0,0,0,1.07-.29l.23,1.92a5.26,5.26,0,0,1-1.88.29c-1.89,0-2.66-.65-2.66-2.28V24.68h-.57a7,7,0,0,0-1.29.09V22.69a6.94,6.94,0,0,0,1.32.09h.54V22.4a13.15,13.15,0,0,0-.12-1.89Z" style="fill:#009447"/><path d="M37.52,59a3.18,3.18,0,0,0,1,2,4.63,4.63,0,0,0,3.31,1.18c2.47,0,4-1.26,4-3.25s-1.43-3.19-4.23-3.19a30,30,0,0,0-3.39.14V51.82a20.85,20.85,0,0,0,2.66.17A5.87,5.87,0,0,0,44,51.34a2.69,2.69,0,0,0,1.29-2.41c0-1.82-1.18-2.72-3.5-2.72a3.61,3.61,0,0,0-2.94,1.23,3.78,3.78,0,0,0-.7,1.54l-5-.78a7.63,7.63,0,0,1,2-3.5c1.6-1.6,3.89-2.41,6.89-2.41s5.18.78,6.64,2.24A5.68,5.68,0,0,1,49,52c-.76.9-1.48,1.29-3.39,1.85a6.37,6.37,0,0,1,3.95,1.93,5.54,5.54,0,0,1,1.32,3.87,5.85,5.85,0,0,1-1.71,4.12c-1.6,1.57-4.12,2.38-7.37,2.38-3.42,0-6-1-7.59-2.83a8,8,0,0,1-1.62-3.36Z" style="fill:#009447"/></g></g></svg>