<svg xmlns="http://www.w3.org/2000/svg" viewBox="0 0 83.04 83.04"><title>poinnt6</title><g id="レイヤー_2" data-name="レイヤー 2"><g id="レイヤー_5" data-name="レイヤー 5"><circle cx="41.52" cy="41.52" r="40.02" style="fill:none;stroke:#009447;stroke-miterlimit:10;stroke-width:3px"/><path d="M21.78,31.47a13.46,13.46,0,0,0,.12-2V21.51a15,15,0,0,0-.12-2c.66,0,1.14,0,2,0h3.13a4.46,4.46,0,0,1,3.3,1.1,3.66,3.66,0,0,1,1,2.64,3.87,3.87,0,0,1-1,2.83,4.36,4.36,0,0,1-3.26,1.13H24.31v2.17a13.75,13.75,0,0,0,.12,2.05Zm5-6.3a1.67,1.67,0,0,0,1.86-1.82,1.74,1.74,0,0,0-.44-1.26,1.81,1.81,0,0,0-1.42-.48H24.31v3.57Z" style="fill:#009447"/><path d="M32.08,27.13a4.31,4.31,0,0,1,4.6-4.64,4.29,4.29,0,0,1,4.58,4.61,4.36,4.36,0,0,1-4.59,4.67A4.3,4.3,0,0,1,32.08,27.13Zm2.33,0c0,1.73.85,2.79,2.26,2.79s2.25-1,2.25-2.75-.82-2.8-2.23-2.8S34.42,25.38,34.42,27.1Z" style="fill:#009447"/><path d="M45.19,22.78a12.65,12.65,0,0,0-.12,2.07V29.4a14,14,0,0,0,.12,2.07h-2.6a14.8,14.8,0,0,0,.12-2.05V24.84a13.38,13.38,0,0,0-.12-2.05Zm0-3.24v2H42.62v-2Z" style="fill:#009447"/><path d="M46.88,31.47A14.26,14.26,0,0,0,47,29.42V24.84a12.67,12.67,0,0,0-.12-2.05H49.3v.59c0,.12,0,.31,0,.59a4,4,0,0,1,3.08-1.35,2.78,2.78,0,0,1,3,3.11v3.7a13.38,13.38,0,0,0,.12,2.05H52.94a14.64,14.64,0,0,0,.12-2.05V26.28c0-.76-.12-1.1-.47-1.37a1.44,1.44,0,0,0-.87-.25,3.07,3.07,0,0,0-2.41,1.78v3a15.36,15.36,0,0,0,.12,2.05Z" style="fill:#009447"/><path d="M60.72,20.51a14.75,14.75,0,0,0-.12,1.89v.38h.57a10.26,10.26,0,0,0,1.47-.07v2.05a7.88,7.88,0,0,0-1.39-.09H60.6v4.14c0,.69.25.94.94.94a1.94,1.94,0,0,0,1.07-.29l.23,1.92a5.25,5.25,0,0,1-1.88.29c-1.89,0-2.66-.65-2.66-2.28V24.68h-.57a7.07,7.07,0,0,0-1.29.09V22.69a6.94,6.94,0,0,0,1.32.09h.54V22.4a13.16,13.16,0,0,0-.12-1.89Z" style="fill:#009447"/><path d="M45.95,48.68a3.26,3.26,0,0,0-3.53-2.58,4.34,4.34,0,0,0-4.09,2.77,10.2,10.2,0,0,0-1,4,5.46,5.46,0,0,1,1.88-1.51,8,8,0,0,1,3.81-.81c4.93,0,8,2.91,8,7.68a8,8,0,0,1-2.19,5.46,9.19,9.19,0,0,1-6.55,2.41,8.42,8.42,0,0,1-6.75-2.83c-1.68-2-2.58-5-2.58-8.71a16.56,16.56,0,0,1,1.88-8,8.5,8.5,0,0,1,7.59-4.17,9,9,0,0,1,5.43,1.54,7.43,7.43,0,0,1,2.66,3.73Zm-3.7,5.6c-2.58,0-4.37,1.65-4.37,4a4.08,4.08,0,0,0,4.34,4.06,4.27,4.27,0,0,0,3.67-1.85,4.15,4.15,0,0,0,.56-2.24C46.45,55.71,44.94,54.28,42.25,54.28Z" style="fill:#009447"/></g></g></svg>