<svg xmlns="http://www.w3.org/2000/svg" viewBox="0 0 83.04 83.04"><title>point2</title><g id="レイヤー_2" data-name="レイヤー 2"><g id="レイヤー_5" data-name="レイヤー 5"><circle cx="41.52" cy="41.52" r="40.02" style="fill:none;stroke:#009447;stroke-miterlimit:10;stroke-width:3px"/><path d="M21.78,31.47a13.46,13.46,0,0,0,.12-2V21.51a15,15,0,0,0-.12-2c.66,0,1.14,0,2,0h3.13a4.46,4.46,0,0,1,3.3,1.1,3.66,3.66,0,0,1,1,2.64,3.87,3.87,0,0,1-1,2.83,4.36,4.36,0,0,1-3.26,1.13H24.31v2.17a13.76,13.76,0,0,0,.12,2.05Zm5-6.3a1.67,1.67,0,0,0,1.86-1.82,1.74,1.74,0,0,0-.44-1.26,1.8,1.8,0,0,0-1.42-.48H24.31v3.57Z" style="fill:#009447"/><path d="M32.08,27.13a4.31,4.31,0,0,1,4.6-4.64,4.29,4.29,0,0,1,4.58,4.61,4.36,4.36,0,0,1-4.59,4.67A4.3,4.3,0,0,1,32.08,27.13Zm2.33,0c0,1.73.85,2.79,2.26,2.79s2.25-1,2.25-2.75-.82-2.8-2.23-2.8S34.42,25.38,34.42,27.1Z" style="fill:#009447"/><path d="M45.19,22.78a12.66,12.66,0,0,0-.12,2.07V29.4a14,14,0,0,0,.12,2.07h-2.6a14.81,14.81,0,0,0,.12-2.05V24.84a13.39,13.39,0,0,0-.12-2.06Zm0-3.24v2H42.62v-2Z" style="fill:#009447"/><path d="M46.88,31.47A14.27,14.27,0,0,0,47,29.42V24.84a12.68,12.68,0,0,0-.12-2.06H49.3v.59c0,.12,0,.31,0,.59a4,4,0,0,1,3.08-1.35,2.78,2.78,0,0,1,3,3.11v3.7a13.39,13.39,0,0,0,.12,2.05H52.94a14.65,14.65,0,0,0,.12-2.05V26.28c0-.76-.12-1.1-.47-1.37a1.44,1.44,0,0,0-.87-.25,3.07,3.07,0,0,0-2.41,1.78v3a15.37,15.37,0,0,0,.12,2.05Z" style="fill:#009447"/><path d="M60.72,20.51a14.74,14.74,0,0,0-.12,1.89v.38h.57a10.26,10.26,0,0,0,1.47-.07v2.06a7.83,7.83,0,0,0-1.39-.09H60.6v4.14c0,.69.25.94.94.94a2,2,0,0,0,1.07-.29l.23,1.92a5.26,5.26,0,0,1-1.88.29c-1.89,0-2.66-.65-2.66-2.28V24.68h-.57a7,7,0,0,0-1.29.09V22.69a6.94,6.94,0,0,0,1.32.09h.54V22.4a13.15,13.15,0,0,0-.12-1.89Z" style="fill:#009447"/><path d="M36.82,65.6a31.7,31.7,0,0,0-3.89.11,13.22,13.22,0,0,1,.67-3.45,13.73,13.73,0,0,1,3.89-5.83,38.51,38.51,0,0,1,4.79-3.56c2.58-1.74,3.19-2.52,3.19-4s-1.4-2.61-3.42-2.61a3.73,3.73,0,0,0-3.25,1.51A5.24,5.24,0,0,0,38,50.3l-5-.56a9.12,9.12,0,0,1,2-4.73c1.51-1.74,3.87-2.66,6.89-2.66,5.15,0,8.43,2.49,8.43,6.42a6.68,6.68,0,0,1-2.47,5,35.84,35.84,0,0,1-4.2,3.08,24.71,24.71,0,0,0-3.08,2.58,5.93,5.93,0,0,0-1.32,2.07h7.09a28,28,0,0,0,4.29-.22V65.8a43.09,43.09,0,0,0-4.51-.2Z" style="fill:#009447"/></g></g></svg>