<svg xmlns="http://www.w3.org/2000/svg" viewBox="0 0 192.17 345.05"><defs><style>.cls-1,.cls-6{fill:#fff;}.cls-2{fill:#9b7760;}.cls-3{fill:#f99;}.cls-4,.cls-7,.cls-9{fill:none;}.cls-4,.cls-6,.cls-7,.cls-9{stroke:#000;stroke-linecap:round;stroke-linejoin:round;}.cls-4{stroke-width:2.19px;}.cls-5{fill:#f3cabe;}.cls-6{stroke-width:1.98px;}.cls-7{stroke-width:2.53px;}.cls-8{fill:#f9c;}.cls-9{stroke-width:2.07px;}</style></defs><title>chara-good</title><g id="レイヤー_2" data-name="レイヤー 2"><g id="レイヤー_2-2" data-name="レイヤー 2"><path class="cls-1" d="M97.48,148.32s-21.33,26-34.84,38.22S44.54,196.2,39,184.16c-4.06-8.85-8.15-32.93-8.15-32.93l-.2-1.6-.3-3.2s6.93-3.8,8-6.77-.26-8.18-2.73-8.44-2.35,2.62-2.54,3.77-2.77,4.23-5.65,1.89S23.12,130,25,127.52a4.34,4.34,0,0,1,7.15.41c1.58,2.52,2.09,2.72,3.16,2.54,2.64-.45,2.48-3.06.93-5.14s-3.88-5.25-9.12-4.88a8.38,8.38,0,0,0-7.05,4.38s-4.2-8.94-5.18-12.84c-.73-2.93-2.24-3.52-2.92-3.21S8.8,111,11.16,117a40.58,40.58,0,0,0,4.32,8.7,16.26,16.26,0,0,1-5.41-7.07c-1.54-4.36-1.83-6.09-4-5.94S4.78,117,6,119.93s3.1,8.15,5.45,10.44a10.78,10.78,0,0,1-3.24-3.17c-1.47-2.17-3.73-7.69-5.6-6.94s-1.35,4.5,0,7,7.19,9.89,7.19,9.89,2.43,7,8,10.17c0,0,4.19,3.21,4.56,4.75l.48,1s1.31,22.15,8.85,39.92C38.5,209.3,54.85,209,66.77,196.83s21.94-22.65,21.94-22.65Z" transform="translate(-0.19)"/><path class="cls-1" d="M118.33,180.69c13,63.12,38.21,86.95,38.21,86.95l1.52,1.6c2.78,3.55,3.23,13.07,5.83,12.93s3-6.16,3-6.16l11.2,4.41c11.2,4.41,20-2.9,7.85-5.3-6.91-1.37-19.2-7.68-19.2-7.68s-3.19-3.14-3.45-4.3c-31.83-40-43-115.05-43-115.05Z" transform="translate(-0.19)"/><path class="cls-1" d="M63.9,338.51s39.64,11.8,73,1c0,0-6.22-32.74-11.91-67.88,0,0-8.17-46-5.13-122.3l-5.44-3,1.38-9.6-8.58.61L106,146.49l-8.76,3.14S70.35,212.36,63.9,338.51Z" transform="translate(-0.19)"/><polygon class="cls-1" points="55.81 3.79 65.39 4.3 62.78 22.08 55.81 3.79"/><path d="M55.72,3.89,57,3.65c.59-.1.76,0,.7.19a1.84,1.84,0,0,0-.13.41,2.26,2.26,0,0,0,.31,1.08c0,.06.13.09.18.14s.2.09.19.17a3.68,3.68,0,0,0,.35,1.86c.12.43.41.79.56,1.21.08.22-.13.54,0,.73a8.08,8.08,0,0,1,.95,2.39c.09.24.17.5.24.75a1,1,0,0,0,.38.66c.2.14.09.41.11.62a2.17,2.17,0,0,0,0,.47.39.39,0,0,0,.23.29c.18,0,.18.26.16.69,0,.2.11,0,.12.17,0,.35.13.83.26.8s.22.51.33.37.12.12.17,0a2.43,2.43,0,0,0,.09-.69c0-.05,0,.11.06.31l0,.11c0,.24.07.2,0-.31s0,.05.09.13.07.36,0,.21c-.12-.87-.09-.75,0-.49a2.36,2.36,0,0,0,.23.65s.24.49.17,0a3.09,3.09,0,0,1,0-.67c0-.13,0-.13.21.18s.18.13.07-.24a1.38,1.38,0,0,1-.09-.53,4.12,4.12,0,0,0-.14-.54,1,1,0,0,1,0-.15c0-.27,0-.52,0-.75s-.2-.19-.07-.28.31-.33.32-.52a1.18,1.18,0,0,0,0-.36.72.72,0,0,1,.45-.93c.08,0,0-.11.06-.17l.36-.47c0-.05.06-.11,0-.17-.19-.27,0-.48.15-.7a1.1,1.1,0,0,0,.1-.92A4.57,4.57,0,0,1,64.38,7l.12-.45a1.78,1.78,0,0,0,.06-.31c0-.1-.12-.18-.15-.25s.2-.3.3-.49a1,1,0,0,0,.17-.64,1.75,1.75,0,0,0-.33.1,2.19,2.19,0,0,1-1,.2c-.2,0-.28-.19-.61,0-.64.28-1.25-.06-1.88,0s-1,0-1.52.1a3.26,3.26,0,0,0-.79.37.23.23,0,0,1-.15,0c-.29,0-.58.18-.87.29a1.65,1.65,0,0,1-1,0c-.19,0-.36-.32-.5-.85S56.08,4.39,56,4c.08-1.11.09-1.11.26-1.24a1.09,1.09,0,0,1,1-.15c.2,0,.41,0,.62,0a5.38,5.38,0,0,0,1.57-.25h0l1.22-.19c.21,0,.43-.11.64-.13a1,1,0,0,1,.4.07c.14.05.28.29.42.19a.85.85,0,0,1,.66-.12l.32.05a1.94,1.94,0,0,0,.42,0c.46,0,1.06-.24,1.39.12a3.88,3.88,0,0,1,1.52-.07,7.19,7.19,0,0,0,1.42.1,1.49,1.49,0,0,0,0,.2,9.69,9.69,0,0,1-.27,2.77,8,8,0,0,1-.31,1.07c-.06.16-.13.36-.17.47a2,2,0,0,0-.12.26,2.62,2.62,0,0,0-.2,1c0,.31.21.65.24,1a2.77,2.77,0,0,1-.1.86c-.17.72-.34,1.43-.55,2.14-.1.35-.22.7-.34,1.06l-.18.53-.09.26c0,.09-.07.29-.11.42a2.84,2.84,0,0,0-.23,1.4,3.24,3.24,0,0,1,0,1.1,3.3,3.3,0,0,0,.07,1.32c0,.09,0,.12,0,.17-.29,2-.52,4.35-.91,6-.2.81-.48,1-.63,1.77a8.72,8.72,0,0,0-.25,1.46l0,.34c-.2-.27-.4-.34-.64-.61a.41.41,0,0,1-.06-.15,21.83,21.83,0,0,0-.9-2.47c-.18-.6-.42-.25-.57-1.61-.27-.07-.53-.77-.76-1.5a15.83,15.83,0,0,0-.7-2c-.1-.21-.31-.19-.38-.53-.12-.6-.47-.82-.51-1.51a6.61,6.61,0,0,0-.57-2L58.38,15c0-.1,0-.17-.06-.21l0-.15c-.05-.2-.11-.39-.18-.59A4.55,4.55,0,0,0,57.55,13c-.77-1.09-.81-2.46-1.36-3.63-.06-.14-.22-.24-.27-.39s.1-.26.06-.36a8.52,8.52,0,0,0-.7-1.76A2.17,2.17,0,0,1,54.81,5c0-.13-.07-.21-.14-.3S54.66,4.43,55.72,3.89Z" transform="translate(-0.19)"/><polygon class="cls-1" points="33.07 11.08 24.93 18.23 43.79 31.78 33.07 11.08"/><path d="M33,11.22l1.26-.34c.59-.14.78,0,.76.19a2.23,2.23,0,0,0,0,.49,3.32,3.32,0,0,0,.55,1.25c0,.07.15.11.22.16s.23.09.23.19a5.33,5.33,0,0,0,.75,2.17c.21.5.59.91.83,1.39.12.25,0,.64.17.85a12,12,0,0,1,1.47,2.77c.15.28.27.57.4.87a1.43,1.43,0,0,0,.53.75c.24.15.17.48.24.73s.07.27.12.4a3.1,3.1,0,0,0,.17.44,4.6,4.6,0,0,0,.64,1A3.2,3.2,0,0,1,42,26.14c0,.19.35.5.43.72a7.09,7.09,0,0,0,1,1.94c.69,1,.86,1.59,1.59,2.69.53.8.77,1.32,1.25,2.09l2,3.09-.06,0a9.55,9.55,0,0,1-1-.85c-.57-.51-.93-.79-1-.7s-.92-.73-1.4-1.15c-.08-.07-.35-.4-.33-.33.16.42-.27.05-.75-.43s-1-1.11-1.35-1.36S41.15,30.63,41,30.68s-.49-.21-.77-.38a2.43,2.43,0,0,1-.78-.84c-.3-.46-.49-.6-.63-.49s-.38-.13-.59-.22-.45-.15-.7-.24a1.24,1.24,0,0,1-.27-.12L36,27.56c-.34-.23-.56-.36-.86-.54s-.53-.1-.66-.34a1.5,1.5,0,0,0-.41-.6,1.75,1.75,0,0,0-.38-.22,1,1,0,0,1-.8-1c0-.1-.11-.08-.15-.15l-.34-.6c0-.06-.09-.12-.17-.12-.37,0-.5-.29-.67-.55a1.6,1.6,0,0,0-.93-.63,6.7,6.7,0,0,1-2.46-1.5,9.14,9.14,0,0,0-.87-.72c-.17-.11-.35-.08-.59-.2s-.47-.53-.67-.76a3.4,3.4,0,0,0-1.52-1,6.32,6.32,0,0,1-.81-.38,13.43,13.43,0,0,1,1-1c.42-.4,1-.68,1.31-1.14a3.86,3.86,0,0,1,.5-.62,3.66,3.66,0,0,1,.43-.38,5.62,5.62,0,0,0,.87-.74c.41-.47.88-.87,1.27-1.35a4.33,4.33,0,0,0,.43-.93.32.32,0,0,1,.11-.14c.29-.21.39-.62.56-.94a2.41,2.41,0,0,1,.82-.85c.19-.13.54-.07,1,.18s.72.34,1.06.49c.72.85.71.86.65,1.1a1.56,1.56,0,0,1-.74.92c-.21.14-.35.35-.55.51a7.79,7.79,0,0,0-1.2,1.49l0,0-.94,1.16c-.16.2-.3.44-.47.63a1.4,1.4,0,0,1-.41.29c-.16.08-.45,0-.5.22a1.19,1.19,0,0,1-.48.63s-.11,0-.09.06.3.13-.15.07c.21.07.2.06.11.09s-.07.06.1,0,.15-.12.23,0c.34.29.57.73.88,1.05a3.87,3.87,0,0,0,1,.75c.33.17.78.19,1.12.34a4.11,4.11,0,0,1,.88.59c.69.57,1.37,1.15,2,1.76s1.29,1.25,1.94,1.86c.25.23.43.58.82.61l.19,0,.12,0a.24.24,0,0,1,.08,0s.12,0,.18-.19c0,0,0,0,0,0a.78.78,0,0,0,.17.07c.05,0,.1.07.28.29a11.91,11.91,0,0,0,1,1.17c.13.12.42.42.38.32a2.38,2.38,0,0,0-.23-.34c-.27-.35-.57-.7-.8-1,0,0,0,0,0,0,.41.4-.13-.2,0-.11s-.67-.64,0-.07c-.49-.45-.47-.42-.41-.42s.17,0,.05-.07-.33-.15-.26-.13-.19-.05,0,0,.16-.06.14-.09l0,0s0,0,0-.12a8.54,8.54,0,0,0-1.38-2.64c-1-1.25-1.34-2.85-2.15-4.2-.09-.16-.28-.28-.36-.44s.05-.31,0-.42a12.55,12.55,0,0,0-1.09-2,3.14,3.14,0,0,1-.86-2.16c0-.15-.11-.24-.21-.34S32,11.9,33,11.22Z" transform="translate(-0.19)"/><polygon class="cls-1" points="33.32 49.98 17.05 41.45 15.41 49.77 33.32 49.98"/><path d="M33.51,49.69,33.28,51c-.12.58-.26.71-.41.59a1.76,1.76,0,0,0-.32-.27,2,2,0,0,0-1.06-.1c-.06,0-.13.08-.19.12s-.15.16-.22.11a3.34,3.34,0,0,0-1.77-.35c-.42,0-.84.09-1.26.08-.22,0-.43-.32-.65-.25a7.3,7.3,0,0,1-2.44,0c-.25,0-.5,0-.74-.05a.9.9,0,0,0-.71.11c-.19.14-.39-.07-.59-.13a1.79,1.79,0,0,0-1.28,0,1.15,1.15,0,0,1-1-.1c-.15-.08-.29.08-.43,0a2.46,2.46,0,0,0-1.24-.06,2.62,2.62,0,0,1-.73.08,5.9,5.9,0,0,0-1.06.08c-.54.1-1,.06-1.62.13s-1.08.15-1.69.22c0-.15,0-.3,0-.47a3.19,3.19,0,0,1,.25-.81,1.72,1.72,0,0,0,.17-1c-.07-.33.21-.77.34-1.12,0-.06.15-.12.11-.17a.6.6,0,0,1-.09-.45.89.89,0,0,1,.07-.22.54.54,0,0,1,.1-.13c.15-.15.36-.3.42-.47s.4-.43.31-.7a1.38,1.38,0,0,1,0-.61c0-.15.06-.28.31-.38s.26-.25.12-.42,0-.4-.05-.6-.05-.49-.07-.76a1.44,1.44,0,0,1,0-.29l.37-2.42c0-.24,0-.64,0-.89a.92.92,0,0,1,.23.16,5.27,5.27,0,0,0,.89.74,2,2,0,0,0,.44.18,1.68,1.68,0,0,1,1.27,1c.06.12.14.08.2.14s.35.41.51.59.1.11.18.09c.37-.06.44.17.61.38a1,1,0,0,0,.79.38,4.13,4.13,0,0,1,2.09.84,5.57,5.57,0,0,0,.75.47c.13.06.32,0,.47,0s.28.33.42.48a1.18,1.18,0,0,0,1,.45,2.47,2.47,0,0,1,1.18.33c.29.12.48.44.82.44.67,0,1.06.55,1.63.73s.88.38,1.36.51a3.05,3.05,0,0,0,.84,0,.21.21,0,0,1,.14,0c.23.16.58.07.88.08a1.49,1.49,0,0,1,.86.34c.15.11.17.43.08,1s-.12.76-.17,1.12c-.53,1-.54,1-.75,1a1,1,0,0,1-.89-.24c-.16-.12-.36-.15-.53-.26A4.87,4.87,0,0,0,30,49.89h0l-1.14-.31c-.2-.05-.42-.07-.61-.13a.86.86,0,0,1-.32-.22c-.1-.1-.12-.37-.28-.34-.52.11-.75-.35-1.16-.45-.24-.06-.56,0-.61-.38-.64.1-.89-.55-1.46-.58a2.62,2.62,0,0,1-1.3-.53c-.29-.2-.49-.56-.76-.78a2.37,2.37,0,0,0-.82-.49c-.28-.09-.65,0-.94-.07a2.49,2.49,0,0,1-.75-.36L19,44.67l-.09-.06v-.06l0-.1a2.32,2.32,0,0,0-.47-.65h0s-.2-.1-.06.2.08.22.07.27,0,.13.21.29c0,0,0,0,0,0a.39.39,0,0,0,0,.1l-.12.74a9.14,9.14,0,0,1-.38,1.51,3.53,3.53,0,0,1-.16.37c-.06.1-.14.29-.17.27a.46.46,0,0,0-.21.21c0,.09-.14.23-.1.3s.13.06.24,0l.27-.16s0,0,0,0c-.08.18.14,0,.16,0s.06-.05.08-.09,0,0,.1.14c.69-.44,1.37,0,2.06-.08.14,0,.28-.22.41-.16s.51-.14.76.07.66.11,1,.18a5.22,5.22,0,0,0,2.32,0c1.23-.32,2.45.14,3.68.07.15,0,.29-.11.44-.11s.19.19.29.19a7.65,7.65,0,0,0,1.8,0,2,2,0,0,1,1.81.25c.1.07.21,0,.31,0S33.4,48.51,33.51,49.69Z" transform="translate(-0.19)"/><path d="M88.54,174c-.26.78-.48,1.51-.76,2.27a9.09,9.09,0,0,1-2.48,3.24c-.8.72-1.62,1.42-2.39,2.17-2.54,2.46-5,5-7.45,7.58-.44.46-.83,1-1.25,1.43a20.66,20.66,0,0,1-1.44,1.61q-1.62,1.5-3.2,3.06c-1.06,1-2.06,2.1-3.2,3.12A30.88,30.88,0,0,1,59,203.78c-3.84,1.93-8.23,3.29-12.69,2.68-.57-.09-1.14-.16-1.7-.3L43,205.6a9.13,9.13,0,0,1-1.56-.69c-.5-.26-1-.47-1.52-.74a20.54,20.54,0,0,1-8.37-9.32l-.68-1.42L30.25,192c-.37-1-.77-1.91-1.08-2.89s-.68-1.94-1-2.92l-.9-2.94-1-3.61L25.42,176c-.51-2.33-1-4.65-1.52-7a51.28,51.28,0,0,1-.85-5.86c-.39-3.31-.71-6.6-1-10l.06.25-.5-1h0l0-.12a4.09,4.09,0,0,0-.83-1.14A38.57,38.57,0,0,0,17.22,148l.09.06a15.19,15.19,0,0,1-4.13-3.68,26.68,26.68,0,0,1-2.57-3.61,23.82,23.82,0,0,1-1.53-3.37l.19.28c-2.17-2-4.3-4.05-6.34-6.24A17.38,17.38,0,0,1,1.71,130a6.13,6.13,0,0,1-1-1.78,11.15,11.15,0,0,1-.57-3.85,7.51,7.51,0,0,1,1-3.91,2.12,2.12,0,0,1,.4-.47,2,2,0,0,1,.56-.4,2.05,2.05,0,0,1,.77-.2,2.47,2.47,0,0,1,.74.14,4.54,4.54,0,0,1,1.72,1.41,32.73,32.73,0,0,1,2.76,4.41,14.11,14.11,0,0,0,1.3,2A10.18,10.18,0,0,0,11.06,129a7.08,7.08,0,0,0,.81.55l-1.16,1.55a18.54,18.54,0,0,1-3.32-4.88c-.87-1.7-1.61-3.44-2.32-5.15a18.44,18.44,0,0,1-1.33-4.54,10.72,10.72,0,0,1-.12-1.77,3.87,3.87,0,0,1,.59-2.1,3.07,3.07,0,0,1,.5-.53,3.2,3.2,0,0,1,.67-.34,4.23,4.23,0,0,1,.66-.12c.17,0,.34,0,.52,0a3.83,3.83,0,0,1,2.1.72,7.29,7.29,0,0,1,2.23,3.25c.45,1.09.79,2.28,1.15,3.27a6.06,6.06,0,0,0,.34.94A34.35,34.35,0,0,0,16.13,125l-1.35,1.47A25.49,25.49,0,0,1,12.41,123a43.58,43.58,0,0,1-3.07-7,9.08,9.08,0,0,1-.52-3.19,5.77,5.77,0,0,1,1-3.24,4.66,4.66,0,0,1,.88-.93,4.54,4.54,0,0,1,.53-.37,2.66,2.66,0,0,1,.72-.32,2,2,0,0,1,1.59.39,3.18,3.18,0,0,1,.89,1,9.29,9.29,0,0,1,.87,2.19,10.47,10.47,0,0,0,.74,2c.64,1.3,1.17,2.6,1.82,3.88s1.45,2.68,2.22,4l.82,1.41,0,0-1.61-.09A6.75,6.75,0,0,1,21,121.3a11,11,0,0,1,1.84-.94,14.69,14.69,0,0,1,3.92-.89,11.38,11.38,0,0,1,4.09.3,9.67,9.67,0,0,1,3.67,2A17.12,17.12,0,0,1,36.68,124a7.31,7.31,0,0,1,1.61,2.77,4.58,4.58,0,0,1,.16,1.72,3.21,3.21,0,0,1-.73,1.78,3.34,3.34,0,0,1-1.58,1,3.86,3.86,0,0,1-1.82.14,2.55,2.55,0,0,1-1.14-.62,6.31,6.31,0,0,1-.68-.74c-.39-.49-.71-1-1-1.45a3.68,3.68,0,0,0-3.09-1.71,3.76,3.76,0,0,0-3.09,1.69,3.14,3.14,0,0,0-.38,1.33,7.38,7.38,0,0,0,.92,4.35,5.12,5.12,0,0,0,.9,1.25,5.82,5.82,0,0,0,2.48,1.67,3,3,0,0,0,2.66-.85,2.65,2.65,0,0,0,1-1.61,10.57,10.57,0,0,1,.4-2.23,2.75,2.75,0,0,1,.67-1.07,2,2,0,0,1,1.19-.55,3.28,3.28,0,0,1,.63,0,3.7,3.7,0,0,1,.64.15,3.14,3.14,0,0,1,1.05.7,6.13,6.13,0,0,1,1.34,2.15,9.6,9.6,0,0,1,.59,2.4,9.33,9.33,0,0,1,0,2.5A6.25,6.25,0,0,1,39,140c-.1.21-.19.42-.3.62l-.36.55a16.9,16.9,0,0,1-3.58,3.31,39.6,39.6,0,0,1-4,2.56l.34-.64c.11,1.21.19,2.43.32,3.63.13,1.44.43,2.86.67,4.31s.52,2.89.81,4.32.67,2.8,1,4.2c.46,1.95.71,3.91,1.1,5.83a70.4,70.4,0,0,0,2.77,10.26c.67,1.86,1.4,3.69,2.24,5.47a40,40,0,0,0,2.87,5.17,12.69,12.69,0,0,0,2.95,3.23,5.23,5.23,0,0,0,3.93.9c2.66-.5,5.17-2.11,7.51-3.8a62.9,62.9,0,0,0,6.7-5.72c3.42-3.32,6.75-6.77,10-10.32,1.63-1.81,3.12-3.71,4.66-5.59.29-.35.59-.7.89-1,1.85-2,3.48-4.16,5.18-6.27,1.9-2.37,3.91-4.7,5.91-7a22.25,22.25,0,0,1,3.81-3.5c1-.72,2-1.53,3-2.27.58.7.52.78-.41,2.08-1.76,2.44-3.7,4.75-5.7,7l-3.81,4.45-9.62,11.21-.18.21c-2.56,2.87-5.14,5.73-7.81,8.51-1.39,1.46-2.77,2.93-4.24,4.33-.94.89-1.9,1.77-2.91,2.6s-2.28,1.66-3.29,2.54a23.31,23.31,0,0,1-5.38,3.6,14.09,14.09,0,0,1-3.28,1.1,8.42,8.42,0,0,1-7.53-2.11,11.08,11.08,0,0,1-2.39-3.15,25.58,25.58,0,0,1-2.13-3.48A37.91,37.91,0,0,1,37,183.4c-1-2.55-1.68-5.09-2.47-7.59a136.27,136.27,0,0,1-3.32-13.7c-.67-3.42-1.14-6.86-1.69-10.3-.25-1.83-.34-3.51-.5-5.24a1.38,1.38,0,0,1,.7-1.33h0A34.72,34.72,0,0,0,33.25,143a16.14,16.14,0,0,0,2.94-2.7,5,5,0,0,0,.48-.7,1.13,1.13,0,0,0,.15-.31,1.24,1.24,0,0,0,.11-.32,5.83,5.83,0,0,0,.17-1.65,8.29,8.29,0,0,0-.71-3.24,2.94,2.94,0,0,0-.71-1,.4.4,0,0,0-.17-.1s-.11,0-.16,0h-.07c0-.06-.09-.17,0-.07s0,0,0,.1a2.14,2.14,0,0,0-.22.67c-.07.32-.1.69-.16,1.16l-.05.39a4,4,0,0,1-.17.64,4.93,4.93,0,0,1-.47.92,6,6,0,0,1-2.76,2.3,4.57,4.57,0,0,1-3.88-.19,8.24,8.24,0,0,1-2.49-2.12,11.22,11.22,0,0,1-1.6-2.6,9.78,9.78,0,0,1-.8-3,6.78,6.78,0,0,1,.46-3.32,5.82,5.82,0,0,1,2.28-2.64,5.69,5.69,0,0,1,3.36-.83,5.84,5.84,0,0,1,4.37,2.42l.24.35.17.27.33.52a9.5,9.5,0,0,0,.65.9,2.38,2.38,0,0,0,.26.27c.07,0,.06.06.05.06s0,0,.18,0,.27-.06.42-.08a1.19,1.19,0,0,0,.49-.27.76.76,0,0,0,.19-.45,2.32,2.32,0,0,0-.08-.81,4.05,4.05,0,0,0-.38-.92,8,8,0,0,0-.63-.95,12.39,12.39,0,0,0-2.46-2.7,6.05,6.05,0,0,0-3.14-1.25,12.27,12.27,0,0,0-2.26,0,15.8,15.8,0,0,0-2.31.38,8.75,8.75,0,0,0-2.1.82,6.06,6.06,0,0,0-.88.61,4,4,0,0,0-.36.34,1.25,1.25,0,0,0-.22.28L18.86,124l-.51-.76a7.69,7.69,0,0,1-.4-.73c-1.23-2.32-2.42-4.65-3.45-7.13-.26-.62-.5-1.25-.72-1.92-.12-.32-.21-.68-.31-1s-.15-.55-.24-.8a3.71,3.71,0,0,0-.64-1.19,1,1,0,0,0-.28-.24h0a2,2,0,0,0,.07-.28,1.1,1.1,0,0,0,0-.49l0-.05h0l.35.77h0l0,0-.12.07a2.74,2.74,0,0,0-.24.18,2.8,2.8,0,0,0-1,1.59,6.33,6.33,0,0,0,.16,3.06,23.67,23.67,0,0,0,1.27,3.38,32.54,32.54,0,0,0,1.7,3.28c.32.54.66,1.06,1,1.57a15,15,0,0,0,1.07,1.38l.1.11a1.42,1.42,0,0,1-2,2,17.47,17.47,0,0,1-2.1-2.4,20.28,20.28,0,0,1-1.65-2.64,20,20,0,0,1-1.22-2.87c-.31-.9-.63-1.8-1-2.63a7.88,7.88,0,0,0-1-1.69,1.55,1.55,0,0,0-1.12-.69,2.12,2.12,0,0,0-.36,0s-.08,0-.06,0,0,0-.1.21a4.41,4.41,0,0,0,0,1.75,25.74,25.74,0,0,0,2.06,5.75,42.32,42.32,0,0,0,2.8,5.51l.4.64a8.71,8.71,0,0,0,1.16,1.54l.07.07a1.45,1.45,0,0,1-1.8,2.24,12,12,0,0,1-2.37-1.95,13.19,13.19,0,0,1-1.8-2.35c-1-1.59-1.73-3.14-2.62-4.48a4.32,4.32,0,0,0-1-1.14s-.05,0-.06,0-.05.09,0-.17a.54.54,0,0,0,.08-.25.67.67,0,0,0,0-.11v0h0l.11.28a.54.54,0,0,0,.1.17s0,0,0,.07A4.08,4.08,0,0,0,2.65,123a15.92,15.92,0,0,0-.27,1.74,8.94,8.94,0,0,0,.73,3.18A7.45,7.45,0,0,0,4,129.21c.37.47.8.94,1.22,1.4,1.71,1.86,3.58,3.71,5.48,5.45a1.63,1.63,0,0,1,.42.63,19.86,19.86,0,0,0,2,4,25.79,25.79,0,0,0,2.41,2.88,11.52,11.52,0,0,0,3,2.36l.16.11,0,0a20.55,20.55,0,0,1,2.6,2.3c.4.44.81.88,1.21,1.37.2.26.4.51.6.82a4.25,4.25,0,0,1,.57,1.23l-.09-.27.47,1a1.55,1.55,0,0,1,.13.52c.12,1.75.32,3.54.5,5.32A120.29,120.29,0,0,0,29,180.94c.86,2.91,1.83,5.78,2.89,8.6a35.52,35.52,0,0,0,3.89,7.85,17,17,0,0,0,6.38,5.39,15.19,15.19,0,0,0,8.21,1.27,13,13,0,0,0,2-.37l2-.56c.85-.35,1.79-.49,2.63-.89a31,31,0,0,0,7.13-4.75L65.67,196c.53-.52,1-1.07,1.57-1.61q1.56-1.63,3.1-3.29c4.07-4.41,8.29-8.78,12.72-12.87.75-.69,1.45-1.49,2.15-2.26C86.53,174.54,87,174.23,88.54,174Z" transform="translate(-0.19)"/><path class="cls-1" d="M50.09,93.71c-10-32.82,18-63.55,46.83-67.52s40.56,4.6,40.56,4.6,28.43,9,33.65,33.65-6.9,33.24-6.9,33.24l-.84,2.93c-1.57,3.13-6.27,3.87-8.15,2.4Z" transform="translate(-0.19)"/><path class="cls-1" d="M68.49,65.08s-22.58,18-18.81,43.27,32.19,29.89,56,29.26,47.67-9.73,48.29-36.16c0,0-2.93-3.76-3.14-10.87,0,0-15.06-.21-15.47-34.91C135.37,55.67,96.71,73.86,68.49,65.08Z" transform="translate(-0.19)"/><path class="cls-1" d="M124.76,26.19s-6-11.8,6.29-20.73c9.39-6.79,25-3.25,32.75,3.59S178,28.34,155.72,41.7Z" transform="translate(-0.19)"/><path class="cls-2" d="M168.75,72.32a31,31,0,0,0-6.83-20.57,30.15,30.15,0,0,0-8.18-6.87c-11.8-12-28.74-16.58-47.06-15.52a45.73,45.73,0,0,0-22.61,5.07c-4,1.5-7.72,2.9-11.07,5.34-.83.39-2.53,2-3.34,2.45-4.27,2.47-6.3,5.15-8.71,9.4a73.57,73.57,0,0,0-12.27,24.7A2.82,2.82,0,0,0,49,78.75a3.1,3.1,0,0,0,.27,1.44,29.52,29.52,0,0,0-.77,3.52,3.33,3.33,0,0,0,0,.62C47,85.89,47.45,89,50.14,89A2.86,2.86,0,0,0,53,86.3a2.89,2.89,0,0,0,1.4-2.14c1.17-8,6.71-15.67,15-17.28a2.67,2.67,0,0,0,2.05-1.67c21.46,5.48,41.93.73,62-9.18,1.05,8.77,1.91,18,6.23,25.82a15.75,15.75,0,0,0,9.78,8v3.83a3,3,0,0,0,2.73,3.17,3,3,0,0,0,3.17-2.73V90.45a25.23,25.23,0,0,0,5.28-.87,10.28,10.28,0,0,1,2.12,2.23,2.33,2.33,0,0,0,1.58.92c.24,1,.14,1.84,1.52,1.84,1.9,0,2-1.58,2-3a7.28,7.28,0,0,0,1.19-3A48.18,48.18,0,0,0,168.75,72.32Z" transform="translate(-0.19)"/><path class="cls-2" d="M135,22.36c.37.7,2.93.74,4,.74,6.35,0,12.75,3.2,15.53,9.09l1.67,4.11a2.34,2.34,0,0,0,2.47,2.3,2.78,2.78,0,0,0,2.73-2c5.07-3.74,9.38-9.5,6.76-16.07a18.26,18.26,0,0,0-4.87-6.79A15.77,15.77,0,0,0,157.31,9c-5.92-4.93-14.79-5.8-22.81-3.45a3.22,3.22,0,0,0-.62.26,13.18,13.18,0,0,0-2.65,1.7c-.9-.61-2.08,2-3.08,3-2.89,3-4,3.73-3.82,8,0,1-.48,1.83.18,2.39,0,.44.08.89.14,1.34a2.75,2.75,0,0,0,.28.88l.08.17.07.12a2.31,2.31,0,0,0,2.09,1.09,2.75,2.75,0,0,0,1.84-.66Z" transform="translate(-0.19)"/><path class="cls-3" d="M156.77,36.11c-.15-.14-.31-.25-.46-.38a1.86,1.86,0,0,0-.17-.55c-2.37-4.41-4.19-6-9-7.09-.29-.07-3.05-1-3.31-.93-3.05-1.19-6.89-1-10.77-1-2.28,0-2.08,2.91.21,2.88a32.22,32.22,0,0,1,3.8.17,1.56,1.56,0,0,0,.86.63,45.88,45.88,0,0,1,11,4.79c.59.56,1.18,1.16,1.77,1.82a1.59,1.59,0,0,0,1.61.53c.59.47,1.17,1,1.73,1.47C155.78,40,158.47,37.66,156.77,36.11Z" transform="translate(-0.19)"/><path d="M81,106c-.06.41-.13.82-.21,1.19-.11.54-.19.65-.24.53a1.46,1.46,0,0,0-.1-.26.44.44,0,0,0-.43-.16s-.07.07-.1.1-.09.13-.11.09c-.18-.41-.44-.34-.67-.46s-.36,0-.53,0-.09-.33-.2-.29c-.41.15-.66-.19-1-.32a1.1,1.1,0,0,1-.28-.17c-.09-.06-.16-.14-.33,0s-.13-.13-.18-.22-.22-.36-.48-.31-.3-.13-.32-.35-.15,0-.19-.08-.16-.39-.39-.44-.31-.36-.57-.48-.22-.29-.36-.44a2.83,2.83,0,0,1-.5-.64.38.38,0,0,1,0-.29v0a.32.32,0,0,0,0-.37c-.13-.15.06-.29.14-.42s.12,0,.08-.05c-.42-.33.28-.4.39-.54s.38-.12.33-.3a.46.46,0,0,1,.07-.34c0-.08.11-.12.32,0s.23,0,.16-.13,0-.17,0-.25a2.31,2.31,0,0,0,0-.3s0-.07,0-.09c.16-.18.34-.33.51-.5s0-.27.16-.23.26.12.32.07.09,0,.11-.11.17-.28.49.06c.05.06,0,0,.08,0l.3.15s.06,0,.06,0c0-.23.14-.13.27-.07s.25,0,.31-.17a.77.77,0,0,1,.76-.52,1.12,1.12,0,0,0,.35-.06c.05,0,.07-.16.11-.22s.2.09.29.13.32.07.39-.17.25-.29.39-.37.28.09.36-.09c.15-.35.46-.13.66-.28s.35-.16.52-.3.13-.3.2-.45,0,0,0,0,.17-.24.26-.38a.31.31,0,0,1,.35-.17c.08,0,.2.25.35.71l.33,1c.17,1,.17,1,.14,1.17s-.17.28-.29.25-.13.06-.21.06-.32.26-.46.42h0c-.12.11-.24.21-.35.33a2.31,2.31,0,0,1-.17.21s-.09,0-.15,0-.16-.23-.18-.12c-.06.35-.28.11-.4.25s-.09.32-.26,0c-.08.4-.38,0-.49.31a.41.41,0,0,1-.43.27c-.12,0-.31-.16-.45-.18a.33.33,0,0,0-.33.07c-.08.08-.08.34-.15.44a.3.3,0,0,1-.24.13,6.92,6.92,0,0,1-.71.09c-.24,0-.5,0-.74,0s-.25-.08-.21.12-.21.07,0,.46c0,0,0,0,0,0a.75.75,0,0,0-.16.21s0,0-.11,0-.33,0-.37,0-.09.07,0,.11h0a.74.74,0,0,0,.4,0s0,0,0,0,.06.07,0,.15.29-.1,0,.13c.37-.18.16.19.33.22s.19-.13.18-.07.17,0,.1.15.09.17.14.27a.49.49,0,0,0,.6.29c.46-.15.68.37,1.11.4,0,0,.12-.08.17-.07s0,.19.06.19c.2,0,.37.23.6.1s.42-.11.57.31c0,.07.07,0,.1,0S81,104.91,81,106Z" transform="translate(-0.19)"/><ellipse cx="73.42" cy="92.41" rx="2.88" ry="2.02" transform="translate(-22.87 160.92) rotate(-87.02)"/><path d="M75.66,92.53l-1-.11c-.46,0-.56-.07-.47-.11a1,1,0,0,0,.2-.08.2.2,0,0,0,.06-.28s-.07,0-.1,0-.13,0-.1,0c.29-.2.16-.34.15-.49s-.14-.17-.19-.25.17-.21.1-.23c-.3-.05-.19-.23-.33-.35l-.1-.1s-.07-.09-.15,0-.05-.06-.08-.12a.31.31,0,0,0-.11-.13s-.1,0-.14.1-.11.07-.21,0,0,.09-.07.07-.21,0-.23.1-.11.15-.12.31,0,.17,0,.26a1.5,1.5,0,0,0,.09.37s-.06,0-.11.07-.11.06,0,.14-.07.09-.13.14-.1,0-.07,0c.35.17-.19.14-.24.25s-.26.11-.15.19.07.12.09.18,0,.08-.18.12-.16.09,0,.13.09.08.13.12a.62.62,0,0,0,.18.11s.05,0,.06,0a1.64,1.64,0,0,0,.15.36s.2,0,.13.1-.16.15-.14.19,0,.05.07.06.18.06-.11.32c0,0,0,0,0,.05a1.72,1.72,0,0,0-.11.23s0,0,0,0,.1.05.07.16.07.16.18.13a.81.81,0,0,1,.32,0,.89.89,0,0,1,.22.11l.13.08h.06s.06-.12.09-.16.1.13.15.17.21.07.22-.12a.35.35,0,0,1,.11-.32c0-.05.17,0,.13-.12s.16-.24.18-.4a2.15,2.15,0,0,0,0-.39c0-.07-.17-.19-.26-.27s0,0,0,0-.12-.16-.21-.23-.1-.14-.05-.2a2.1,2.1,0,0,1,.65-.05c.31,0,.58,0,.85-.05.87.05.87.06,1,.13a.28.28,0,0,1,.11.39c0,.08,0,.17,0,.25s0,.45.08.7h0c0,.19,0,.38,0,.58a1.43,1.43,0,0,1,0,.33.31.31,0,0,1-.14.15c-.07,0-.26,0-.23.1.11.34-.22.36-.34.59s-.08.41-.37.29c-.11.44-.57.36-.82.59a1.18,1.18,0,0,1-.41.27,1.44,1.44,0,0,1-.47,0,1.1,1.1,0,0,1-.37-.1,2,2,0,0,0-.28-.18,2.55,2.55,0,0,0-.55-.18c-.17,0-.41.06-.62,0a1,1,0,0,1-.46-.31,2.5,2.5,0,0,1-.45-.56,2.16,2.16,0,0,1-.26-.56A3.5,3.5,0,0,1,70.42,94c0-.13.08-.28-.08-.36s0-.34-.38-.46c0,0,0,0,0,0A2.88,2.88,0,0,1,70,91.68c.08-.24.36-.42.44-.64a1.75,1.75,0,0,0,.16-.38c0-.2,0-.45,0-.69a0,0,0,0,1,0,0c.24-.11.22-.38.4-.53s0-.39.36-.33a.62.62,0,0,1,.44-.52c.21-.09.42-.15.61-.24s.11-.22.21-.21.3-.22.49-.06.36.08.53.07l.09,0c.23.11.46.16.67.25a2.57,2.57,0,0,0,.69.21,1.58,1.58,0,0,1,.9.77c.2.31.25.62.43.88,0,.06.15.1.17.17s-.11.14-.09.19c.13.27.06.58.23.83a.55.55,0,0,1-.11.84c-.06,0,0,.09,0,.14S76.58,92.52,75.66,92.53Z" transform="translate(-0.19)"/><path d="M68.41,65.33c.62-.26,1.18-.53,1.76-.76a3,3,0,0,1,1.34-.17,5,5,0,0,1,1.43.28,16,16,0,0,0,2.07.66l1.75.36c.59.09,1.18.17,1.77.24,1.18.17,2.38.2,3.57.27.43,0,.86,0,1.28-.07a8.51,8.51,0,0,1,1.45-.06,54.61,54.61,0,0,0,12-.42c2.84-.31,5.64-.94,8.44-1.5,1.45-.29,3-.33,4.38-.74,5.34-1.57,10.72-2.95,16-4.85,1.59-.57,3.18-1.16,4.76-1.77l1.13-.44.56-.23.69-.29c1.07-.46,2.15-1,3.36-1.65l.23-.12a23.85,23.85,0,0,1,.13,2.89c0,.83,0,1.68,0,2.51v2.19c0,.73.11,1.45.17,2.18s.14,1.45.23,2.17c0,.36.09.73.15,1.08l.24,1.07c.26,1.11.48,2.24.65,3.38s.49,2.24.69,3.36a5.58,5.58,0,0,0,.44,1.39c.18.44.37.88.51,1.34a30.15,30.15,0,0,0,1.54,3.85,18.23,18.23,0,0,0,2.28,3.41,17,17,0,0,0,3.46,3.18l1,.6,1,.47.54.17.27.08c.08,0,.28.06.41.09l.9.17.45.07.22,0,.11,0v.11l.27,2.4a12.55,12.55,0,0,0,.25,1.64,18.06,18.06,0,0,0,.85,3.19A15.55,15.55,0,0,0,154,99a9.64,9.64,0,0,0,.5.88l.13.21.17.24.52.72,0,2.47c0,.69-.09,1.39-.14,2.08a21.08,21.08,0,0,1-.59,3.15c-.21.72-.4,1.43-.58,2.15s-.41,1.43-.59,2.17a19.08,19.08,0,0,1-2.08,4.42,4.59,4.59,0,0,0-.43.63c-.91,2.53-3,4.23-4.79,6-1.23,1.27-2.76,2.21-4,3.37a25.41,25.41,0,0,1-3.41,2.47,10.23,10.23,0,0,1-2.75,1.28,10.89,10.89,0,0,0-2.76,1.28,16.45,16.45,0,0,1-2.75,1.27c-1,.43-2,.84-3,1.24-.36.13-.72.27-1.08.38a78.33,78.33,0,0,1-10.25,2.34,29.21,29.21,0,0,1-3.91.62c-1.24,0-2.47,0-3.71.11-.78.07-1.56.1-2.34.19a20.6,20.6,0,0,1-6.51-.11c-.35-.07-.76,0-1.13,0-1.13-.09-2.24-.22-3.36-.35a6.55,6.55,0,0,0-1.12,0,19.12,19.12,0,0,1-4.66-.38c-2-.33-4-.53-6-.75A45.93,45.93,0,0,1,63,130c-.86-.52-1.74-1-2.59-1.6a20,20,0,0,1-3-2.92,53.51,53.51,0,0,1-4.59-5.91,24.12,24.12,0,0,1-3.36-7.77,27.81,27.81,0,0,1-.61-3.25c-.09-1.1-.27-2.17-.38-3.25A26.35,26.35,0,0,1,48.39,99a60.4,60.4,0,0,1,1.07-6.18,49.85,49.85,0,0,1,3.34-9.54c.72-1.55,1.34-3.16,2.14-4.68a8.16,8.16,0,0,1,.48-.84c1.07-1.61,2-3.29,3.06-4.89a35.56,35.56,0,0,1,4.16-5,8.41,8.41,0,0,1,3.11-2c.87-.31,1.74-.67,2.59-.94.56.9.52.91-.2,1.72-1.34,1.52-2.77,3-4.17,4.43-.91.95-1.7,2-2.54,3a46.15,46.15,0,0,0-5.24,8.39l-.09.16a47.23,47.23,0,0,0-2.89,7.07c-.18.64-.37,1.27-.53,1.91l-.45,1.92c-.15.83-.41,1.64-.57,2.46-.09.44-.23.87-.36,1.31a6,6,0,0,0-.18,1.31,59,59,0,0,0,.14,8.08c.12.78.27,1.55.45,2.31.08.38.15.76.2,1.15A10.51,10.51,0,0,1,52,111.3c.56,1.6,1.15,3.16,1.78,4.72a18.3,18.3,0,0,0,2.53,4.31,36.35,36.35,0,0,0,6.41,6.25,37.43,37.43,0,0,0,5.67,3.72,33.24,33.24,0,0,0,5.85,2.37A52.79,52.79,0,0,0,80,133.83c1.8.35,3.62.66,5.43,1a105.94,105.94,0,0,0,14,1.17,114.15,114.15,0,0,0,14.06-.5,29,29,0,0,0,5.32-.82c2.41-.72,5-1,7.2-2.13a3.19,3.19,0,0,1,.52-.16,42.82,42.82,0,0,0,17.53-10.09A27.18,27.18,0,0,0,150,114a27.53,27.53,0,0,0,1.83-5.67,29.09,29.09,0,0,0,.42-3.48c0-.58.09-1.16.07-1.75V102a.8.8,0,0,0,0-.09l-.06-.05s0,0-.12-.16-.3-.48-.45-.73a3.29,3.29,0,0,1-.29-.56,31.8,31.8,0,0,1-1.52-4.53c-.19-.77-.31-1.54-.46-2.32a10.94,10.94,0,0,1-.12-1.17v-.27c0-.12-.07-.1-.16-.1H149L148.8,92l-.81-.24a12.92,12.92,0,0,1-1.51-.67,12,12,0,0,1-1.31-1,15.5,15.5,0,0,1-5.33-5.58l-.94-1.65-.76-1.71c-.24-.57-.54-1.13-.73-1.71l-.63-1.74c-.17-.46-.38-.91-.59-1.36a9.11,9.11,0,0,1-.41-1.39c-.17-.89-.43-1.76-.67-2.64a16.8,16.8,0,0,1-.4-2.64c-.2-2.34-.51-4.62-.71-6.93-.12-1.19-.07-2.37-.12-3.55v-.75a3.27,3.27,0,0,0,0-.38l-2,.87-4.18,1.74A127.4,127.4,0,0,1,103,67.51c-1,.2-2,.44-3,.61-.68.11-1.39,0-2.06.12a119.46,119.46,0,0,1-12.58.89,38.23,38.23,0,0,1-12.63-1.48,19.7,19.7,0,0,0-2.16-.46C69.24,66.88,68.89,66.62,68.41,65.33Z" transform="translate(-0.19)"/><path d="M164.38,97.91a12.47,12.47,0,0,0,0-1.59,2.07,2.07,0,0,1,.22-1,3,3,0,0,1,.63-.75,7.3,7.3,0,0,0,1.09-1,14.63,14.63,0,0,0,1.42-2,19.67,19.67,0,0,0,1.05-2.25c.1-.28.15-.58.23-.86a7.42,7.42,0,0,1,.26-1c1.3-2.48,1.62-5.35,1.94-8.12.06-1,.13-2,.1-3s-.12-2-.14-3a30.92,30.92,0,0,0-.07-3.14c-.14-1-.35-1.93-.54-2.9s-.33-1.94-.53-2.9a33.21,33.21,0,0,0-1.64-5.58c-.2-.56-.46-1.09-.69-1.63s-.48-1.08-.75-1.61a13.5,13.5,0,0,0-1.79-2.89,21.17,21.17,0,0,1-1.52-2.38,21.16,21.16,0,0,0-4-4.69c-1.23-1.06-2.41-2.21-3.55-3.38-.51-.5-1.12-.82-1.66-1.26a29.58,29.58,0,0,0-4.9-3.44,65.12,65.12,0,0,0-6.23-3.24c-1.51-.62-3-1.3-4.53-1.82l-.84-.27-1-.29-.35-.22-.21-.11c-.13-.08-.29-.15-.43-.22s-.59-.28-.9-.41c-.6-.28-1.24-.5-1.86-.74s-1.29-.57-2-.82c-.46-.19-.92-.37-1.39-.52a13.57,13.57,0,0,0-1.46-.32,29.62,29.62,0,0,1-3.14-.85c-.17,0-.33-.17-.49-.17a6.92,6.92,0,0,1-2.59-.36c-.84-.21-1.68-.48-2.55-.61a19.93,19.93,0,0,0-3.58-.44c-1,0-1.94,0-2.91,0a7.42,7.42,0,0,1-2.1-.25,4.37,4.37,0,0,0-2.12,0,12.85,12.85,0,0,1-2.1.21c-.74.1-1.48.24-2.22.36-.26,0-.53.09-.79.12-1.22.08-2.43.23-3.64.39s-2.43.28-3.62.5c-.89.18-1.77.48-2.65.58a14.14,14.14,0,0,0-2.54.36c-.52.16-1,.29-1.55.48-.72.25-1.41.56-2.14.76a10.42,10.42,0,0,1-1.1.26,8.1,8.1,0,0,1-1.13.18,4.61,4.61,0,0,0-.75.26c-.77.2-1.52.44-2.27.69a2.82,2.82,0,0,0-.72.33,13,13,0,0,1-3,1.44A17.72,17.72,0,0,0,75.11,35c-2.89,2.21-5.75,4.4-8.48,6.79-.53.48-1.07.94-1.59,1.43l-1.5,1.52a19.36,19.36,0,0,0-1.28,1.67c-.61.75-1.37,1.35-2,2.07l-.86,1c-.27.34-.53.68-.78,1a13.4,13.4,0,0,0-1.37,2.21c-.42.87-.93,1.7-1.37,2.56s-1,1.69-1.37,2.57a28,28,0,0,0-1.92,4.07c-.8,2.76-1.93,5.39-2.48,8.2a45.25,45.25,0,0,0-.79,6.84c0,.58,0,1.16.06,1.74l.23,1.73a4.37,4.37,0,0,1,0,.65,9.8,9.8,0,0,0,.2,1.92c.12.63.21,1.26.38,1.89s.29,1.41.4,2.12L51,89.12a5.8,5.8,0,0,1-.18,2.54c-.2.65-.35,1.33-.51,2-1,.22-1,.18-1.37-.55A17.38,17.38,0,0,1,48.16,91c-.18-.73-.31-1.48-.44-2.23-.19-1-.35-1.92-.47-2.9-.31-2.44-.59-4.9-.67-7.39v-.14l.07-2.91.24-2.91c.14-1,.25-2,.41-3,.14-.64.33-1.27.53-1.89.1-.33.25-.65.38-1a3.59,3.59,0,0,0,.33-1,12.59,12.59,0,0,1,.86-3c.38-1,.79-1.93,1.19-2.89.22-.56.4-1.15.64-1.71a6,6,0,0,1,1-1.55A17.45,17.45,0,0,1,54,53c.76-1.08,1.47-2.19,2.17-3.3a24.84,24.84,0,0,1,2-2.92,33.51,33.51,0,0,1,2.31-2.68,21.91,21.91,0,0,1,1.9-1.81l1-.87,1-.84c1.19-1.07,2.44-2.06,3.63-3.13s2.11-2,3.29-2.91a33,33,0,0,1,3.47-2.32,57.85,57.85,0,0,1,9.57-4.5,53.81,53.81,0,0,1,10.17-2.55l2-.24a12.57,12.57,0,0,0,1.94-.31c1.81-.47,3.69-.38,5.49-.9a1.77,1.77,0,0,1,.41,0,75.22,75.22,0,0,1,15.51.2c1.29.21,2.59.39,3.86.72l1.92.43c.63.17,1.27.33,1.91.48s1.47.4,2.21.62,1.46.45,2.19.67a32.24,32.24,0,0,1,6.22,2.42c.08,0,0,0,0,0h0a2,2,0,0,0,.28.13l.38.16.76.31,1.51.6c1,.4,2,.81,3,1.3a15.56,15.56,0,0,1,3.68,1.94c3.23,1.3,5.91,3.58,8.69,5.63a15.17,15.17,0,0,1,1.7,1.18A26.91,26.91,0,0,1,161,43.09c1,1.38,2.28,2.47,3.29,3.82A58.06,58.06,0,0,1,170.54,57a29.8,29.8,0,0,1,2.67,9l.36,2.29c.12.76.15,1.54.23,2.31L174,72.9l.07,2.34a18.54,18.54,0,0,1,.11,2.22c0,.5-.23,1-.25,1.5l-.06,1.15c0,.38-.1.76-.15,1.14-.12.76-.22,1.52-.36,2.28l-.51,2.26c-.15.76-.41,1.5-.59,2.26a17.69,17.69,0,0,1-4.58,8.18c-.39.37-.7.84-1.07,1.26C166,98.27,165.56,98.39,164.38,97.91Z" transform="translate(-0.19)"/><path d="M155.06,103.23c.3-.3.58-.61.83-.9s.44-.51.42-.38a.77.77,0,0,0,0,.27.48.48,0,0,0,.46.25s.09-.06.12-.09.1-.13.13-.08c.24.43.63.32,1,.37s.49-.14.74-.17.32.24.44.15c.41-.39,1-.31,1.4-.56l.41-.19c.13-.06.28-.11.28-.34s.22-.09.34-.13.53-.22.53-.54.17-.35.4-.45,0-.18.08-.25.38-.41.34-.71.17-.61.11-.95,0-.44,0-.66a6.8,6.8,0,0,0-.21-.79c0-.09,0-.18.1-.27a.3.3,0,0,0,0-.38c-.11-.13,0-.27.09-.42s.11-.05.07-.07c-.47-.18.14-.45.14-.69s.25-.38.06-.49a.63.63,0,0,1-.23-.32c0-.08,0-.17.12-.32s.1-.25-.08-.26-.17-.12-.25-.18a1.11,1.11,0,0,0-.32-.14.25.25,0,0,1-.1,0,3.09,3.09,0,0,0-.56-.6c-.07-.07-.3,0-.29-.12s0-.31-.07-.36a.25.25,0,0,0-.18-.07c-.22,0-.36,0-.31-.53,0-.08-.06,0-.08-.07s-.11-.24-.18-.36-.05-.07-.1,0c-.21.15-.28-.06-.4-.19a.49.49,0,0,0-.57-.1,2.77,2.77,0,0,1-.73.18l-.66,0a.9.9,0,0,0-.51,0c-.08,0-.11.18-.17.24s-.27-.07-.39,0-.48.07-.48.4a.66.66,0,0,1-.11.37l-.17.3c-.09.14-.35.21-.3.46.08.43-.3.65-.33,1a5,5,0,0,0-.07.92c0,.16.2.35.3.52a.09.09,0,0,1,0,.09c-.06.16.15.36.25.53a.63.63,0,0,1,0,.56c0,.1-.3.2-.78.29s-.69.15-1,.23c-1,0-1,0-1.18-.13a.66.66,0,0,1-.17-.71c0-.15,0-.3,0-.45a4.43,4.43,0,0,0-.14-1.2v0c0-.32,0-.64,0-1,0-.18,0-.36,0-.54a.59.59,0,0,1,.15-.3c.08-.1.33-.13.28-.28-.17-.46.27-.69.37-1.07,0-.22,0-.55.42-.55,0-.65.74-.76,1-1.27a2.14,2.14,0,0,1,1.3-.86,3,3,0,0,1,1.15,0,4.59,4.59,0,0,0,.95,0c.27,0,.56-.25.85-.3a1.5,1.5,0,0,1,.78.1,6.87,6.87,0,0,1,1.79.83c.27.21.53.44.77.66s.43.52.64.76.18.5.48.56.35.58.89.65c0,0,0,0,0,.06a5.45,5.45,0,0,1,.9,2.68c0,.47-.21.92-.2,1.36a3.12,3.12,0,0,0,0,.75c.08.35.19.71.29,1.09a.1.1,0,0,1,0,.07c-.23.33-.09.71-.24,1s.16.53-.22.66c.23.69-.4,1.1-.56,1.69,0,.12.05.33-.06.42s-.14.52-.46.59-.47.44-.74.62a12.07,12.07,0,0,0-1.69,1.3c-.85.83-2.06.77-3.1,1-.13,0-.24.14-.38.15s-.19-.16-.27-.15c-.54.06-1.06-.13-1.64-.06a1.58,1.58,0,0,1-1.63-.75c-.06-.11-.19-.12-.3-.15S154.47,104.16,155.06,103.23Z" transform="translate(-0.19)"/><path d="M157.08,41.63c-.39-.18-.78-.3-1.14-.43-.53-.18-.63-.28-.51-.39s.22-.15.27-.23a1.33,1.33,0,0,0,.1-.89c0-.05-.08-.1-.12-.16s-.15-.11-.11-.17a2.14,2.14,0,0,0,.08-1.54c0-.37-.29-.68-.38-1,0-.18.17-.46,0-.62a3.14,3.14,0,0,1-.53-1c-.15-.33-.27-.68-.44-1s-.23-.38-.33-.58-.19-.39-.45-.46-.15-.32-.23-.49a1.6,1.6,0,0,0-.73-.91,1.15,1.15,0,0,1-.59-.72c0-.15-.24-.13-.32-.24a1.77,1.77,0,0,0-.81-.8c-.44-.17-.72-.54-1.15-.71s-.54-.31-.84-.43-.75-.23-1.1-.36c-.13,0-.21-.18-.29-.3A.57.57,0,0,0,147,28c-.24,0-.34-.25-.5-.39s0-.13,0-.11c-.52.24-.5-.47-.78-.68s-.28-.49-.55-.45a1.28,1.28,0,0,1-.57-.11c-.13,0-.24-.12-.28-.36s-.18-.29-.36-.2-.29,0-.43,0a3,3,0,0,0-.47,0,.55.55,0,0,1-.16,0c-.45-.12-.89-.26-1.34-.37-.17,0-.4.09-.52-.07s-.23-.34-.39-.38a1,1,0,0,0-.31,0c-.32,0-.6,0-.76-.49,0-.08-.1,0-.14-.07s-.25-.26-.38-.37-.09-.07-.15,0c-.25.14-.42,0-.61-.16a.94.94,0,0,0-.81-.1,4.85,4.85,0,0,1-2.09,0,2.68,2.68,0,0,0-.81-.08c-.13,0-.26.14-.39.19s-.37-.14-.56-.2a1,1,0,0,0-1,.13,2.59,2.59,0,0,1-1.05.39c-.27.09-.59,0-.83.17-.45.4-1,.3-1.51.55a10.73,10.73,0,0,0-1.11.65,2.41,2.41,0,0,0-.39.63.18.18,0,0,1-.09.08c-.22.09-.3.4-.43.61a1.08,1.08,0,0,1-.55.48c-.12.06-.4-.07-.79-.36a9.26,9.26,0,0,0-.89-.56c-.72-.76-.7-.78-.65-1a1.09,1.09,0,0,1,.65-.74c.19-.09.32-.25.5-.35a9.2,9.2,0,0,0,1.2-1l0,0a12.28,12.28,0,0,1,1-.71c.18-.12.35-.28.54-.39a.88.88,0,0,1,.41-.08c.15,0,.36.16.46,0,.33-.44.83-.29,1.23-.47.23-.11.45-.38.75-.11.48-.47,1.1-.09,1.62-.37a2.63,2.63,0,0,1,1.47-.2,5.5,5.5,0,0,1,1.09.32,2.79,2.79,0,0,0,1,.11c.3,0,.63-.26.94-.27a2.75,2.75,0,0,1,.86.11l1.06.27c.35.11.68.25,1,.38a15.33,15.33,0,0,1,1.93.93c.24.13.44.37.75.29s.68.32,1.19,0c0,0,.05,0,.08,0a16.16,16.16,0,0,1,2.83,1.35c.43.32.77.78,1.21,1.06a4.92,4.92,0,0,0,.77.48,12.4,12.4,0,0,0,1.29.4.13.13,0,0,1,.07,0c.26.39.75.44,1.05.78s.62.13.64.57a1.56,1.56,0,0,1,.93.54,4.78,4.78,0,0,0,.73.8c.12.08.35,0,.42.19s.49.28.52.61.37.6.56.9a9.43,9.43,0,0,0,1.45,2c.93,1,1.16,2.39,1.58,3.64.05.15.2.27.24.43s-.13.25-.09.36a7.16,7.16,0,0,1,.16,1,3.19,3.19,0,0,0,.18,1,2.14,2.14,0,0,1-.23,2c-.08.11,0,.23,0,.36S158.2,41.74,157.08,41.63Z" transform="translate(-0.19)"/><path d="M155.86,41.93c-.07-.45-.16-.88-.21-1.28-.08-.6.12-.86.46-.94a4.83,4.83,0,0,0,.73-.16,9.47,9.47,0,0,0,2-1.22,1.94,1.94,0,0,0,.27-.33c.1-.13.17-.31.32-.36a11.45,11.45,0,0,0,3.21-2.15,24.47,24.47,0,0,0,1.93-1.93c.32-.34.85-.49,1.12-.88a50.1,50.1,0,0,0,2.93-4.31c.26-.46.44-.94.68-1.41a3.11,3.11,0,0,0,.33-1.45c0-.41.25-.77.36-1.17a4.8,4.8,0,0,0,.14-2.66,8.94,8.94,0,0,1-.25-2.11c0-.32-.22-.57-.29-.86a6.56,6.56,0,0,0-1-2.44,19,19,0,0,0-1.8-2.53c-.51-.52-.95-1.1-1.48-1.59a24.6,24.6,0,0,0-2.07-1.65,6.18,6.18,0,0,1-.66-.69,3.12,3.12,0,0,0-1-.81,4.38,4.38,0,0,1-1.13-.91c-.06-.05-.07-.18-.15-.19-.89,0-1.24-.93-1.9-1.37-.46-.28-.85-.74-1.38-.85s-.83-.27-1.25-.4a1.45,1.45,0,0,1-.8-.55.87.87,0,0,0-.88-.36,2.47,2.47,0,0,1-1-.15,8.78,8.78,0,0,0-1-.1,2.14,2.14,0,0,1-.36,0l-1.59-.36c-.53-.1-1.07-.17-1.61-.25a6.4,6.4,0,0,1-1.22-.08A4,4,0,0,0,146.21,3a3.12,3.12,0,0,0-.73,0,2.59,2.59,0,0,1-2-.36c-.11-.07-.24,0-.36,0L142,2.42a.58.58,0,0,0-.36,0,2.82,2.82,0,0,1-1.48.11,4.09,4.09,0,0,0-1,0,4.59,4.59,0,0,0-.91.31c-.38.17-.76.31-1.15.44s-.74.32-1.12.46-.77.25-1.13.41l-1.11.47a8,8,0,0,0-1.67.88,5.36,5.36,0,0,0-.68.65,4.75,4.75,0,0,1-1.13.64,8.48,8.48,0,0,0-1,.66,3.86,3.86,0,0,0-.72.93,6.45,6.45,0,0,1-.76,1.06c-.24.36-.49.7-.74,1s-.44.5-.63.78a3.3,3.3,0,0,0-.45.88c-.08.31-.24.58-.34.88s-.23.58-.36.86a6.39,6.39,0,0,0-.6,1.76,13.53,13.53,0,0,0-.22,1.48,7,7,0,0,0-.05,1.49,5.36,5.36,0,0,0,.4,1.49.8.8,0,0,1,0,.27,4.53,4.53,0,0,0,.53,1.58,9.71,9.71,0,0,1,.52,1.75,1.59,1.59,0,0,1-.39,1.22,8.28,8.28,0,0,0-.62,1.1c-.95.44-1,.4-1.25.1a4.12,4.12,0,0,1-.88-2c-.09-.45-.27-.89-.34-1.35-.21-1.14-.52-2.29-.67-3.49V19.3a18.11,18.11,0,0,1,0-2.83A8.19,8.19,0,0,1,122,15a5.27,5.27,0,0,1,.31-.91c.12-.32.46-.57.49-.9a4.4,4.4,0,0,1,.46-1.47,12.59,12.59,0,0,0,.77-1.32,9,9,0,0,1,.36-.83,1.52,1.52,0,0,1,.67-.61,4.07,4.07,0,0,1,1.11-1.57A8.8,8.8,0,0,0,127.49,6,11.59,11.59,0,0,1,130,3.74a20.08,20.08,0,0,1,2.36-1.06c.73-.26,1.43-.6,2.13-.91s1.23-.73,1.9-1a14.36,14.36,0,0,1,2-.48c.84-.14,1.68-.18,2.52-.26s1.67,0,2.5,0,1.64.16,2.45.25l2.4.45a5.23,5.23,0,0,0,1.83.35c.91-.11,1.68.48,2.63.26a.41.41,0,0,1,.19,0,28.74,28.74,0,0,1,6.77,2.75c.52.34,1,.71,1.51,1.08s1,.8,1.46,1.15,1.08.95,1.68,1.34c.84.58,1.66,1.14,2.47,1.78a.7.7,0,0,1,.14.14c.58.84,1.38,1.49,2,2.36.37.54,1,.93,1.1,1.67,1.25,1.2,1.61,3,2.2,4.56a3.74,3.74,0,0,1,.41,1c0,.65.4,1.26.25,1.92a6.65,6.65,0,0,0-.09,1.27,6.35,6.35,0,0,1,0,1.25,29.23,29.23,0,0,1-1.5,5.59A13.58,13.58,0,0,1,168.9,33c-1,1.12-2,2.17-3,3.18-.24.24-.41.57-.67.79s-.47.17-.63.33A15.77,15.77,0,0,1,163,38.65c-.55.43-1.11.84-1.62,1.32a9.34,9.34,0,0,1-1.65,1.28,7.13,7.13,0,0,1-1.91.87,1.68,1.68,0,0,0-.59.4C156.85,42.81,156.66,42.75,155.86,41.93Z" transform="translate(-0.19)"/><path class="cls-4" d="M123.5,69.81s6-4.42,6.35,3.86" transform="translate(-0.19)"/><path d="M135,45.56c.11.41.24.81.33,1.19.13.56,0,.77-.28.8a3.12,3.12,0,0,0-.58,0,5.64,5.64,0,0,0-1.55.76,1.46,1.46,0,0,0-.21.25c-.08.09-.14.24-.25.26A8.89,8.89,0,0,0,129.84,50c-.6.32-1.18.67-1.8,1-.32.14-.77,0-1.06.23a20.26,20.26,0,0,1-3.58,1.66,7.71,7.71,0,0,1-1.13.4,2.36,2.36,0,0,0-1,.5c-.24.23-.62.16-.93.22a4.89,4.89,0,0,0-2,.68,3.06,3.06,0,0,1-1.57.48c-.25,0-.42.2-.65.24a6.75,6.75,0,0,0-1.94.5c-.71.35-1.5.45-2.22.79a15.21,15.21,0,0,1-1.55.55c-.63.21-1.25.49-1.88.7a2.29,2.29,0,0,1-.73.06,1.86,1.86,0,0,0-1,.23,2.35,2.35,0,0,1-1.1.12c-.06,0-.14-.09-.18,0-.5.59-1.18.06-1.76.08-.4,0-.85-.18-1.21,0a3.53,3.53,0,0,1-.94.27.85.85,0,0,1-.72-.12.54.54,0,0,0-.7.07c-.21.2-.45.18-.67.25s-.47.21-.71.31a1.21,1.21,0,0,1-.26.08l-2.42.3c-.3,0-.6.26-.91.18a2.36,2.36,0,0,0-.88-.16,3.05,3.05,0,0,0-.54.09,1.44,1.44,0,0,1-1.53-.22c-.09-.07-.18,0-.27,0l-.79-.24a.32.32,0,0,0-.26,0,1.31,1.31,0,0,1-1.09,0,2.66,2.66,0,0,0-1.4.07,10.62,10.62,0,0,1-3.61.15c-.47,0-.94-.09-1.41-.1a4.9,4.9,0,0,0-.7.13c-.32,0-.63-.19-.94-.27A3.13,3.13,0,0,0,80.08,59a5.36,5.36,0,0,1-2,.07,6.1,6.1,0,0,0-1.5-.17,11.15,11.15,0,0,1-2.87-.26c-.78,0-1.55-.14-2.33-.18a6.7,6.7,0,0,0-1.24.18.54.54,0,0,1-.22,0,4.8,4.8,0,0,0-1.37.06,4,4,0,0,1-1.5-.23c-.29-.09-.51-.42-.65-.94s-.23-.76-.33-1.12c.31-1,.32-1,.59-1.06a2.43,2.43,0,0,1,1.41.14c.29.09.61.1.9.17a9.91,9.91,0,0,0,2.33.13h0c.61,0,1.21.07,1.82.06.32,0,.64,0,1,0a2.16,2.16,0,0,1,.59.13c.2.07.39.32.61.25.68-.22,1.29.11,1.94.08.38,0,.78-.2,1.12.17.84-.27,1.63.21,2.46,0a6.65,6.65,0,0,1,2.2,0c.54.08,1.07.29,1.61.37a6.26,6.26,0,0,0,1.49.08c.46,0,.91-.26,1.37-.33a10.11,10.11,0,0,1,1.29,0c1.09,0,2.18.06,3.28.13s2.18.12,3.28.15a2.37,2.37,0,0,0,1.25-.08c.56-.3,1.18,0,1.71-.5,0,0,.08,0,.13,0,1.61-.22,3.2-.56,4.83-.64a16.84,16.84,0,0,0,2.47-.11,9.66,9.66,0,0,0,1.41-.25c.64-.21,1.26-.52,1.89-.78a.31.31,0,0,1,.13,0,7.92,7.92,0,0,0,2-.45c.43-.08.76-.51,1.26-.31.92-.7,2.07-.56,3.08-1,.2-.08.35-.31.56-.34.4,0,.71-.4,1.13-.35s1-.26,1.51-.38a13.08,13.08,0,0,0,3.41-1.25c1.63-1.08,3.54-1.49,5.26-2.36.2-.1.37-.29.57-.38s.36,0,.49-.06a20.12,20.12,0,0,0,2.45-1.4,4.92,4.92,0,0,1,2.58-1.2.8.8,0,0,0,.41-.26C134.14,44.62,134.29,44.71,135,45.56Z" transform="translate(-0.19)"/><path d="M126.35,38.8l.25,1.2c.1.56,0,.73-.24.7a2.19,2.19,0,0,0-.47-.07,3.34,3.34,0,0,0-1.25.44c-.07,0-.11.13-.17.2s-.11.21-.21.2a5.34,5.34,0,0,0-2.15.58c-.5.16-.92.52-1.42.68-.26.09-.62-.09-.84.07A12,12,0,0,1,117,43.87c-.29.11-.59.19-.88.28a1.45,1.45,0,0,0-.79.41c-.18.2-.49.09-.73.11a2.93,2.93,0,0,0-1.53.45,1.85,1.85,0,0,1-1.23.29c-.2,0-.32.18-.5.21a4,4,0,0,0-1.48.41c-.55.29-1.16.32-1.71.61-.38.2-.8.27-1.19.44s-.94.47-1.41.68a1.37,1.37,0,0,1-.56.05,1.17,1.17,0,0,0-.76.19c-.25.18-.57.06-.86.06,0,0-.11-.09-.15,0-.36.54-.92,0-1.37.05s-.67-.17-.94,0a2.16,2.16,0,0,1-.71.28.54.54,0,0,1-.57-.12.35.35,0,0,0-.54,0c-.15.2-.34.16-.51.23a5.17,5.17,0,0,0-.54.29.77.77,0,0,1-.19.09c-.62.12-1.23.24-1.85.37-.23,0-.45.29-.69.2a1.54,1.54,0,0,0-.69-.16,1.83,1.83,0,0,0-.42.08,1,1,0,0,1-1.2-.17c-.07-.07-.14,0-.21,0L92.18,49a.2.2,0,0,0-.2,0c-.26.23-.55.12-.84,0a1.61,1.61,0,0,0-1.08.09,6.29,6.29,0,0,1-2.78.34,9.23,9.23,0,0,0-1.1-.06,3.13,3.13,0,0,0-.54.18c-.25.06-.5-.15-.74-.21a2.09,2.09,0,0,0-1.33,0,3.93,3.93,0,0,1-1.51.19c-.39,0-.77-.18-1.17-.07-.76.24-1.49-.11-2.24-.07s-1.21-.07-1.82,0a5.69,5.69,0,0,0-1,.26.33.33,0,0,1-.18,0,2.75,2.75,0,0,0-1.08.15,2.63,2.63,0,0,1-1.19-.14c-.23-.07-.41-.39-.49-.9l-.21-1.09c.31-1,.32-1,.52-1.08a1.49,1.49,0,0,1,1.08,0c.22.08.46.06.69.12a6.72,6.72,0,0,0,1.79,0h0l1.4-.07c.24,0,.49-.07.73-.07a1.27,1.27,0,0,1,.45.08c.16.05.31.28.47.2.52-.28,1,0,1.49,0,.29,0,.59-.26.86.08.64-.34,1.25.11,1.88-.09a4.17,4.17,0,0,1,1.68-.13c.42,0,.83.24,1.25.31a3,3,0,0,0,1.15,0c.35-.07.69-.32,1-.41a3.67,3.67,0,0,1,1-.08c.84,0,1.68,0,2.53,0s1.69.08,2.54.1c.32,0,.67.11,1-.12s.91-.06,1.29-.56c0,0,.06,0,.1,0l1.85-.32a14.61,14.61,0,0,1,1.86-.3c.63,0,1.3.06,1.93,0a5.2,5.2,0,0,0,1.09-.19,15.76,15.76,0,0,0,1.42-.76.19.19,0,0,1,.1,0,7.83,7.83,0,0,0,1.52-.34c.34,0,.58-.44,1-.2.7-.6,1.6-.44,2.37-.79.15-.07.26-.3.43-.3.32,0,.55-.32.9-.21s.8-.14,1.2-.21a6.67,6.67,0,0,0,2.66-.92c1.29-.81,2.84-.91,4.21-1.52.16-.08.28-.24.45-.31s.29.07.39,0a12.1,12.1,0,0,0,2-.88,3,3,0,0,1,2.11-.67c.14,0,.24-.09.34-.17S125.76,37.85,126.35,38.8Z" transform="translate(-0.19)"/><path d="M159.39,83.4c-.15.39-.3.78-.45,1.12-.22.51-.39.59-.51.44a1.83,1.83,0,0,0-.25-.32,2.87,2.87,0,0,0-1-.39c-.06,0-.14,0-.21,0s-.19.08-.24,0a1.84,1.84,0,0,0-.7-.57c-.24-.15-.51-.27-.75-.43s-.77-.3-1.1-.54c-.17-.12-.18-.48-.39-.54a2.27,2.27,0,0,1-1-.62c-.28-.27-.56-.55-.82-.83s-.32-.35-.47-.52a1,1,0,0,0-.55-.41c-.22,0-.2-.32-.28-.5a1.94,1.94,0,0,0-.75-.95,1.07,1.07,0,0,1-.5-.81c0-.15-.22-.17-.27-.3a2.27,2.27,0,0,0-.59-1c-.37-.3-.47-.76-.82-1.08a5.29,5.29,0,0,1-.56-.77c-.24-.31-.54-.58-.79-.89a.79.79,0,0,1-.09-.42.64.64,0,0,0-.26-.52c-.2-.14-.12-.41-.16-.62,0,0,.08-.11,0-.12-.55-.14-.09-.69-.17-1s.1-.53-.1-.69a1.2,1.2,0,0,1-.31-.47.37.37,0,0,1,.07-.45c.14-.18.09-.32-.1-.39s-.19-.22-.27-.33a3.25,3.25,0,0,0-.32-.34.46.46,0,0,1-.1-.13l-.49-1.3c-.06-.16-.3-.28-.24-.48a.93.93,0,0,0,.09-.53,1,1,0,0,0-.12-.29.6.6,0,0,1,.07-.9c.06-.06,0-.1,0-.15l.15-.49c0-.05,0-.11,0-.14-.25-.15-.15-.39-.09-.61a.9.9,0,0,0-.2-.77,3.45,3.45,0,0,1-.6-2,5.2,5.2,0,0,0-.08-.8c0-.13-.17-.24-.23-.36s.09-.38.12-.57a1.06,1.06,0,0,0-.19-1,2.1,2.1,0,0,1-.39-1c-.06-.28.09-.59-.1-.85-.35-.5-.13-1.07-.28-1.6s-.15-.86-.29-1.29a3,3,0,0,0-.44-.63.18.18,0,0,1,0-.12c0-.25-.23-.49-.37-.73a1.34,1.34,0,0,1-.14-.85c0-.17.27-.35.75-.51l1-.37c1,0,1,0,1.18.13a.84.84,0,0,1,.23.78,4.53,4.53,0,0,0,0,.51,3.9,3.9,0,0,0,.4,1.28v0l.33,1c.06.17.16.34.21.51a.7.7,0,0,1,0,.34c0,.12-.23.27-.12.37.36.32.11.72.26,1.06s.33.38,0,.63c.42.4.06.92.34,1.34a2.19,2.19,0,0,1,.32,1.19c0,.31-.14.64-.16,1a2,2,0,0,0,.1.83c.1.24.38.44.5.68a2,2,0,0,1,.17.7c.08.6.14,1.22.2,1.83s.06,1.24.12,1.85c0,.23-.07.51.17.68s.12.65.63.82c0,0,0,0,0,.07.27.86.67,1.66.86,2.54a9.17,9.17,0,0,0,.19,1.38,2.94,2.94,0,0,0,.29.73,5.75,5.75,0,0,0,.82.82.1.1,0,0,1,0,.06c0,.4.34.65.47,1s.48.26.31.63c.64.29.6,1,1,1.41.08.09.31.06.33.18s.36.25.32.54.24.51.38.74a5.39,5.39,0,0,0,.54.8,2.67,2.67,0,0,0,.76.58c.91.47,1.42,1.36,2.29,1.83.1.06.26,0,.35.07s0,.23.12.26a4.06,4.06,0,0,1,.61.37,1.45,1.45,0,0,0,.68.21,1.71,1.71,0,0,1,.69.16,1.33,1.33,0,0,1,.6.49c.06.09.16.05.25,0S159.52,82.28,159.39,83.4Z" transform="translate(-0.19)"/><path d="M165.91,75.6l-.71,1c-.34.44-.49.48-.54.32a1.56,1.56,0,0,0-.1-.35,1.38,1.38,0,0,0-.67-.51s-.13,0-.19,0-.17.06-.2,0c-.2-.56-.66-.7-1-1s-.6-.29-.86-.5-.09-.45-.27-.5c-.66-.19-1-.77-1.53-1.16a2.2,2.2,0,0,1-.42-.41c-.12-.14-.22-.3-.48-.31s-.18-.26-.25-.41a1.2,1.2,0,0,0-.7-.72.77.77,0,0,1-.5-.62c0-.13-.22-.11-.26-.22a1.63,1.63,0,0,0-.58-.78c-.35-.2-.5-.57-.85-.78a5.52,5.52,0,0,1-.61-.54c-.24-.23-.54-.41-.78-.64a.6.6,0,0,1-.12-.35.48.48,0,0,0-.29-.4c-.2-.08-.15-.33-.2-.51,0,0,.06-.11,0-.11-.56,0-.16-.57-.24-.85s.08-.49-.13-.59a.91.91,0,0,1-.33-.35c-.07-.09-.1-.2,0-.4s.06-.29-.13-.31-.2-.15-.3-.23-.24-.15-.34-.24a.34.34,0,0,1-.1-.1c-.18-.35-.35-.71-.54-1.06-.07-.13-.31-.2-.27-.38s.12-.35.06-.47a.76.76,0,0,0-.14-.23c-.19-.19-.31-.42,0-.8.06-.06,0-.08,0-.13l.14-.44s0-.09,0-.12c-.25-.11-.16-.32-.11-.51a.68.68,0,0,0-.23-.64,2.65,2.65,0,0,1-.6-1.64c0-.23,0-.46-.08-.68s-.17-.2-.23-.3.1-.33.13-.49a.77.77,0,0,0-.18-.81,1.51,1.51,0,0,1-.35-.9c-.05-.24.11-.5-.07-.73-.36-.43-.07-.93-.21-1.38s-.11-.75-.22-1.12a2.48,2.48,0,0,0-.4-.57.15.15,0,0,1,0-.11c0-.22-.19-.44-.31-.66a1,1,0,0,1-.07-.76c0-.15.3-.28.79-.37l1-.21c1,.13,1,.14,1.16.25a.58.58,0,0,1,.15.65,3.62,3.62,0,0,0,0,.42,2.47,2.47,0,0,0,.3,1.07v0c.09.28.15.55.26.82s.14.28.19.42a.48.48,0,0,1,0,.28c0,.1-.25.22-.14.3.33.27.08.59.22.87s.32.31,0,.52c.4.33,0,.76.3,1.09a1.44,1.44,0,0,1,.29,1c0,.25-.17.54-.17.79a1.34,1.34,0,0,0,.11.68c.1.19.37.34.49.52a1.44,1.44,0,0,1,.17.56c.09.49.18,1,.24,1.48a14.84,14.84,0,0,0,.18,1.52c0,.19,0,.44.2.54s.14.53.63.6c0,0,0,0,0,.05a12,12,0,0,1,1,2,4.52,4.52,0,0,0,.28,1.13,2,2,0,0,0,.33.57,6,6,0,0,0,.81.56.07.07,0,0,1,0,0c0,.36.38.47.51.75s.47.13.34.48c.64.11.6.77,1,1.08.07.06.29,0,.32.1s.36.16.34.42.26.4.39.6a2.56,2.56,0,0,0,1.2,1.14c.89.3,1.31,1.16,2.05,1.64.09.06.22,0,.31.1s0,.22.08.25c.39.19.66.57,1.12.65a1.16,1.16,0,0,1,1,.87c0,.1.12.09.2.1S166.36,74.57,165.91,75.6Z" transform="translate(-0.19)"/><path d="M131.5,22.9l-1.18.24c-.54.1-.69,0-.61-.1a1.45,1.45,0,0,0,.17-.29,1.11,1.11,0,0,0-.13-.74s-.1-.06-.15-.1-.17-.06-.14-.12c.27-.5.07-.88,0-1.3s-.2-.57-.23-.87.26-.34.17-.49c-.35-.55-.09-1.16-.12-1.73a2.27,2.27,0,0,1,.06-.53.52.52,0,0,0-.08-.52c-.12-.15.08-.28.14-.41a1,1,0,0,0,.17-.91.6.6,0,0,1,.24-.69c.1-.08,0-.22,0-.31a1.65,1.65,0,0,0,.31-.83c0-.37.22-.66.24-1a5.63,5.63,0,0,1,.21-.72,8.81,8.81,0,0,1,.19-.94c0-.11.15-.17.25-.24a.45.45,0,0,0,.24-.4c0-.2.24-.24.39-.34s.12,0,.11,0c-.2-.5.45-.32.66-.47s.46-.07.47-.29a.67.67,0,0,1,.19-.4c.06-.09.15-.14.37-.06s.28,0,.24-.19.07-.22.11-.33a2.9,2.9,0,0,0,.11-.37.3.3,0,0,1,0-.12c.25-.25.51-.51.77-.75.1-.09.09-.34.26-.33s.34,0,.44,0a.6.6,0,0,0,.17-.17c.11-.22.28-.38.71-.13.07,0,.07,0,.11,0l.43.05s.09,0,.09-.06c0-.26.24-.21.42-.2a.54.54,0,0,0,.5-.32,2,2,0,0,1,1.27-.88,3.43,3.43,0,0,0,.58-.19c.09,0,.13-.2.2-.28s.31,0,.46,0a.61.61,0,0,0,.66-.31c.17-.31.44-.38.69-.51s.46,0,.61-.2c.29-.42.78-.26,1.14-.47s.62-.25.91-.43.26-.34.39-.51a.11.11,0,0,1,.09-.05c.19,0,.33-.28.49-.44A.82.82,0,0,1,146,.83c.13,0,.31.23.51.68l.43.95c.15,1,.15,1,.07,1.18a.49.49,0,0,1-.52.3c-.13,0-.24.08-.36.09-.31,0-.57.33-.84.52h0c-.22.14-.43.27-.64.42s-.21.19-.32.26a.39.39,0,0,1-.25,0c-.09,0-.24-.2-.29-.08-.15.38-.48.19-.7.37s-.19.36-.44.1c-.18.46-.64.16-.86.49a1.17,1.17,0,0,1-.75.45,6.35,6.35,0,0,1-.72,0,1,1,0,0,0-.55.22c-.14.12-.2.41-.32.56a1,1,0,0,1-.43.27c-.4.15-.79.32-1.21.47s-.84.26-1.24.44c-.15.06-.39,0-.4.28s-.4.24-.28.71c0,0,0,0,0,0a17.26,17.26,0,0,1-1.31,1.27,4,4,0,0,0-.84.51c-.12.13-.29.24-.34.42a3.92,3.92,0,0,0-.07.83,0,0,0,0,1,0,0c-.25.14-.2.44-.37.63s.14.4-.22.42a.53.53,0,0,1-.06.6,1.13,1.13,0,0,0-.23.54c0,.08.16.2.09.26s.06.3-.15.4-.16.35-.25.53a1.7,1.7,0,0,0-.1,1.33,1.82,1.82,0,0,1,.1,1.07,3.89,3.89,0,0,0,0,1.09c0,.08.13.15.14.24s-.15.15-.13.2c.11.35,0,.75.25,1.06a.88.88,0,0,1,.11,1.13c0,.08,0,.13.08.18S132.53,22.47,131.5,22.9Z" transform="translate(-0.19)"/><path d="M139.21,22.64,138,23c-.53.14-.67.11-.58,0a1.41,1.41,0,0,0,.18-.23.55.55,0,0,0-.07-.52s-.09,0-.14-.06-.16,0-.13-.07c.29-.38.11-.63.1-.92s-.16-.39-.19-.6.27-.25.18-.34c-.31-.37-.08-.8-.1-1.19a2.11,2.11,0,0,1,.06-.36c0-.12.07-.22-.1-.36s.07-.19.14-.28.26-.38.11-.62,0-.34.19-.47,0-.15,0-.22.27-.34.21-.56.12-.46.08-.72.07-.33.07-.51,0-.46,0-.69.1-.12.18-.16a.22.22,0,0,0,.14-.28c0-.16.17-.17.27-.23s.11,0,.09,0c-.29-.41.34-.2.48-.31s.38,0,.33-.2a.38.38,0,0,1,.07-.31c0-.07.09-.1.3,0s.23,0,.15-.14,0-.18,0-.26a1.69,1.69,0,0,0,0-.3.19.19,0,0,1,0-.1l.43-.59c.05-.07,0-.28.13-.27s.29.06.34,0,.08-.07.09-.14.12-.32.52-.07c.07,0,0,0,.08,0l.34.06s.07,0,.05-.05c-.05-.23.13-.17.27-.16s.26-.09.3-.27a1,1,0,0,1,.72-.76,1.51,1.51,0,0,0,.37-.16c.05,0,0-.18.07-.25s.23,0,.34,0,.36,0,.4-.29.22-.36.36-.48.33,0,.38-.19c.11-.39.49-.25.69-.46s.37-.25.54-.43.1-.33.16-.5,0-.05,0-.05.16-.28.24-.44a.42.42,0,0,1,.39-.25c.09,0,.27.21.5.63l.5.89c.32,1,.32,1,.31,1.14s-.14.31-.28.31-.14.09-.22.1-.31.33-.44.52h0c-.11.14-.23.27-.33.41a2.67,2.67,0,0,1-.15.25.18.18,0,0,1-.16,0c-.07,0-.22-.18-.22-.07,0,.36-.28.19-.39.35s0,.34-.28.1c0,.42-.41.15-.48.44a.52.52,0,0,1-.42.4c-.13,0-.37-.06-.52,0a.44.44,0,0,0-.34.18c-.07.11,0,.36-.08.49a.41.41,0,0,1-.24.22c-.25.12-.5.24-.78.34s-.58.17-.85.29c-.1,0-.3,0-.24.21s-.26.17,0,.56c0,0,0,0,0,0a4.54,4.54,0,0,1-.76.89c-.18.11-.48.14-.61.3s-.2.15-.21.28a2.42,2.42,0,0,0,.12.6,0,0,0,0,1,0,0c-.22.07-.1.29-.22.4s.18.28-.15.26c.33.37-.18.45-.12.73,0,.05.19.14.12.17s.1.2-.12.24-.13.21-.2.32A.69.69,0,0,0,140,19c.31.43-.08.88.08,1.33,0,.05.12.09.13.14s-.17.1-.15.14c.09.21,0,.48.18.66s.31.38,0,.73c-.05.06,0,.08.06.11S140.23,22.2,139.21,22.64Z" transform="translate(-0.19)"/><path d="M155.25,32.6l-.34-1.17c-.15-.54-.13-.68,0-.61a1.15,1.15,0,0,0,.26.15.72.72,0,0,0,.57-.18s0-.1,0-.15,0-.17.06-.15c.46.19.71-.06,1-.15a2.94,2.94,0,0,0,.59-.4c.1-.06.35.13.42,0,.25-.47.76-.51,1.15-.77a2.81,2.81,0,0,1,.38-.19c.12-.06.27-.09.27-.31s.2-.09.32-.12.49-.15.57-.45.24-.3.49-.3.07-.16.15-.19.48-.17.54-.44.34-.42.42-.72.2-.32.27-.5a4,4,0,0,0,.19-.7c0-.08.12-.11.2-.15a.24.24,0,0,0,.17-.29c0-.17.18-.17.29-.24s.12,0,.1,0c-.28-.41.36-.23.52-.37s.4-.09.34-.28a.54.54,0,0,1,0-.36c0-.08.08-.14.3-.12s.25-.07.14-.21,0-.19,0-.28a1.57,1.57,0,0,0-.07-.31.22.22,0,0,1,0-.1,4.18,4.18,0,0,0,.2-.8c0-.1-.13-.27,0-.32s.29-.1.31-.2a.37.37,0,0,0,0-.19c-.06-.2,0-.36.43-.42.08,0,0-.06.05-.08l.32-.2s.06-.05,0-.09,0-.26.13-.37a.38.38,0,0,0,.08-.49,1.56,1.56,0,0,1,0-1.29,1.58,1.58,0,0,0,.12-.49c0-.08-.13-.17-.17-.25s.16-.22.22-.33a.44.44,0,0,0,0-.61,1.08,1.08,0,0,1-.26-.67c0-.17.14-.36,0-.52s-.07-.66-.2-1a4.76,4.76,0,0,0-.28-.76c-.07-.12-.3-.22-.45-.32s0,0,0-.07-.25-.24-.4-.35a.47.47,0,0,1-.2-.43c0-.09.23-.24.67-.46s.62-.31.9-.49c1-.33,1-.33,1.15-.26a.5.5,0,0,1,.35.51c0,.13.09.23.1.36,0,.31.32.56.49.85v0l.36.69c.06.12.16.24.2.36a.4.4,0,0,1,0,.25c0,.09-.24.2-.13.28.36.23.08.52.2.78s.29.3,0,.47c.39.33,0,.67.16,1a1.21,1.21,0,0,1,.1.92c0,.23-.27.43-.37.65a1.09,1.09,0,0,0-.12.61c0,.19.23.41.28.61a.88.88,0,0,1-.07.54c-.16.44-.32.88-.52,1.3a10.76,10.76,0,0,1-.76,1.18c-.1.15-.31.25-.19.48s-.22.43.06.81c0,0,0,0,0,.05a7.11,7.11,0,0,1-1,1.8c-.26.25-.65.4-.86.66a1.64,1.64,0,0,0-.36.46c-.09.27-.11.61-.2.89a.06.06,0,0,1,0,0c-.31.1-.36.43-.59.59s0,.46-.39.37c0,.64-.61.65-.89,1-.05.07,0,.27-.1.29s-.16.32-.42.27-.39.2-.59.29a3.3,3.3,0,0,0-.64.38,1.8,1.8,0,0,0-.55.5c-.49.68-1.37.76-2,1.22-.08,0-.11.18-.2.21s-.2-.1-.25-.07c-.32.2-.74.19-1,.51a.89.89,0,0,1-1.11.29c-.08,0-.12,0-.17.11S155.74,33.6,155.25,32.6Z" transform="translate(-0.19)"/><path class="cls-5" d="M136.44,103c0,2.12-2.7,3.84-6,3.84s-6-1.72-6-3.84,2.7-3.84,6-3.84S136.44,100.91,136.44,103Z" transform="translate(-0.19)"/><path class="cls-5" d="M137.61,103c-.79-.24-1.21-.32-1.24-.51a2.22,2.22,0,0,0-.3-1.17,2.54,2.54,0,0,0-1.07-.8,9.22,9.22,0,0,0-2.35-.48,15.66,15.66,0,0,0-1.65-.44,3.49,3.49,0,0,0-1.21.42,2,2,0,0,1-.52.12c-.26.06-.52.12-.78.15a5.31,5.31,0,0,0-1.5.29,2.31,2.31,0,0,0-1,.76,1.8,1.8,0,0,0-.26,1c0,.08-.15.1-.2.17a.55.55,0,0,0-.05.31,2.18,2.18,0,0,0,.78,1.2,7.39,7.39,0,0,0,1,1.18,6.3,6.3,0,0,0,.7.34c.21.13.41.32.64.48a1.64,1.64,0,0,0,.36.26,6.73,6.73,0,0,0,2.06.45,3.06,3.06,0,0,0,.85-.26,4.05,4.05,0,0,0,.91-.23,12.25,12.25,0,0,0,1-.79c.31-.19.7-.26,1-.47a2.11,2.11,0,0,0,.52-.59,2.27,2.27,0,0,0,.4-1.2s0-.09.23-.13a7.48,7.48,0,0,1,.92,0c.21,0,.53.1.53.16a3.23,3.23,0,0,1-.57,1.69,5,5,0,0,1-.2.48c-.73,1-1.79,1.38-2.64,2.11a4.62,4.62,0,0,1-2.56.72,7.07,7.07,0,0,1-3-.37,6.67,6.67,0,0,1-2.47-1.39c-.32-.28-.43-.81-.66-1.11s-.55-.56-.79-.9a2.71,2.71,0,0,1-.64-1.79,2.89,2.89,0,0,1,.54-1.13A5,5,0,0,1,126,99.72a6.31,6.31,0,0,1,2.22-1c.4-.09.84.11,1.22,0s.83-.45,1.29-.52a4.8,4.8,0,0,1,1.56.09,5.33,5.33,0,0,1,.93.23,5.57,5.57,0,0,0,.68.3,4.49,4.49,0,0,1,1,.08,5.28,5.28,0,0,1,1.86,1.45,4.14,4.14,0,0,1,.88,1.78A3.17,3.17,0,0,1,137.61,103Z" transform="translate(-0.19)"/><path d="M64.09,338.38c-.24-.62-.49-1.18-.73-1.87a11.79,11.79,0,0,1-.2-4.43c.12-1.27.28-2.54.38-3.79.32-4.11.56-8.16.77-12.24l.07-2.13c0-.8,0-1.63.12-2.41.91-6.54,1.3-13.17,2-19.74.55-4.67.94-9.37,1.46-14,.14-1.21.33-2.42.52-3.62s.42-2.4.55-3.6c.49-4.54,1.09-9.06,1.71-13.58s1.47-9,2.16-13.51c.42-2.75.87-5.48,1.4-8.21s1-5.19,1.32-7.86A63.84,63.84,0,0,1,77,220.88c1.08-4.68,2-9.36,2.95-14.09.72-3.7,1.61-7.45,2.62-11.09.46-1.59.71-3.13,1.13-4.69.61-2.23,1.16-4.48,1.8-6.71s1.23-4.46,1.79-6.7c1.36-5.27,3-10.45,4.6-15.63,1.12-3.63,2.38-7.2,3.71-10.76l.75-2,.14-.38.43-.17,8.69-3.32-.78,1,.27-2.35c.2-1.66.48-3.32.74-5l.28-1.81.14-.91.88-.05c1.72-.1,3.42-.23,5.15-.43,1.12-.13,2.27-.21,3.42-.27l1.52-.08-.25,1.44-.71,4.13c-.06.4-.22.81-.23,1.17a36.17,36.17,0,0,1-.48,4.29l-.58-1.17c1.8,1,3.53,2.19,5.3,3.26l.48.29,0,.51-.09,1.58c-.12,2.78-.43,5.58-.4,8.3,0,2.25-.06,4.47-.05,6.7a40.06,40.06,0,0,1-.26,4.83,26.55,26.55,0,0,0-.1,4.87c.12,1.65.09,3.24.12,4.86l.18,5.15c0,.61,0,1.22.05,1.84,0,2.81.1,5.61.14,8.42s.11,5.62.23,8.42c.08,2.12.31,4.27.28,6.35s0,4,.05,6c.06,1.26.11,2.52.2,3.77a78.24,78.24,0,0,1,.35,10.49c0,.57.08,1.22.1,1.83l.16,5.45a14.25,14.25,0,0,0,.15,1.81c.4,2.52.46,5,.62,7.55.2,3.22.56,6.5,1,9.71.61,4.13,1.19,8.26,1.85,12.38l2,12.38c.51,3.24,1,6.49,1.58,9.72.28,1.59.66,3.16,1,4.74.43,2.2.63,4.4,1,6.58.59,3.91,1.23,7.83,2.12,11.75,1,4.34,1.76,8.8,2.6,13.21.65,3.43,1.13,6.92,1.9,10.29l.23,1,.16.69-.71.24a94.42,94.42,0,0,1-18.63,3.91c-1.34.19-2.69.25-4,.38s-2.7.27-4,.28c-2.7.08-5.41.21-8.11.15s-5.48,0-8.23,0a14.14,14.14,0,0,1-1.55-.09c-1.54-.16-3.07-.27-4.6-.36l-4.58-.39c-1.71-.16-3.42-.44-5.13-.69s-3.41-.61-5.11-1a23.37,23.37,0,0,1-5.52-1.89l-1.9-.94-.95-.47-.47-.23a3.9,3.9,0,0,1-.57-.32,1.82,1.82,0,0,0,.78-.57,5.42,5.42,0,0,1,1.6.21c3.28.63,6.54,1.34,9.84,2,2.12.44,4.27.71,6.41,1.06a137.47,137.47,0,0,0,16.31,1.33H99l6.37,0c2.12-.09,4.24-.15,6.36-.28s4.4-.4,6.59-.67c1.4-.2,2.81-.37,4.21-.52a27.13,27.13,0,0,0,4.43-.65c3.2-.74,6.33-1.66,9.49-2.5l-1,1.73c-.23-1.25-.46-2.5-.72-3.75a64,64,0,0,1-1.42-7.92c-1.36-5.67-2-11.52-3.23-17.19-1.08-5.12-2-10.26-2.8-15.41-.63-3.83-1.09-7.67-1.68-11.51-.53-3.51-1.08-7-1.69-10.51-.58-3.19-1.26-6.4-1.75-9.62-.45-3.05-.81-6.13-1.12-9.21-.79-7.79-1.38-15.59-1.83-23.4s-.68-15.52-.81-23.29c0-3,0-6-.22-8.93-.27-4.17-.1-8.39-.46-12.51,0-.29,0-.61,0-.92V177l.11-8.7c0-5.8.31-11.6.54-17.39l.07-1.56.77,1.36-5.38-3.12-.84-.49.15-.9c.53-3.18,1.06-6.37,1.53-9.57h0l1.29,1.39-8.59.57,1.08-1-.19,1.53-.86,7.63-.09.78-.79.31-6.2,2.41-.87.31-1.64.55.86-.81C97,154,95.71,158,94.31,162c-1,2.93-1.7,5.92-2.81,8.8-.46,1.86-1,3.7-1.49,5.53l-1.54,5.53q-1.62,5.5-2.95,11.09c-.35,1.48-.57,3-1,4.44-.71,2.74-1.14,5.58-1.93,8.24-1.07,3.54-1.65,7.19-2.43,10.78l-1.36,6.34c-.44,2.12-.81,4.25-1.2,6.37l-1.13,6.39c-.37,2.13-.72,4.26-1,6.4-.9,6.81-2.1,13.56-3,20.35L71.1,272.39c-.49,3.39-.8,6.81-1.18,10.22-.17,1.62-.26,3.24-.44,4.85-.12,1.1-.39,2.17-.51,3.26-.38,3.34-.67,6.68-1,10s-.6,6.69-.81,10.05l-.66,9.86c-.24,3.22-.58,6.45-1,9.75-.14,1.12-.19,2.25-.25,3.35A9.89,9.89,0,0,1,64.09,338.38Z" transform="translate(-0.19)"/><path d="M154.34,39.93l.91.78c.41.37.46.51.31.52a1.38,1.38,0,0,0-.32,0,.84.84,0,0,0-.45.47s0,.11,0,.16.07.16,0,.17c-.51.07-.63.43-.88.68s-.25.45-.42.65-.4,0-.43.16c-.12.55-.61.78-.93,1.15a3.22,3.22,0,0,1-.34.3c-.11.09-.24.17-.21.39s-.2.13-.32.19-.5.24-.54.55-.23.35-.49.38-.07.18-.15.22-.47.23-.56.49-.4.43-.51.73-.25.33-.36.51-.22.5-.35.72-.16.09-.26.12a.29.29,0,0,0-.27.27c0,.18-.24.14-.38.19s-.11-.06-.1,0c.13.5-.45.15-.65.25s-.42,0-.44.16a.59.59,0,0,1-.19.33c-.06.07-.14.1-.34,0s-.26,0-.22.14-.06.2-.11.29a2.12,2.12,0,0,0-.09.33.25.25,0,0,1,0,.11c-.22.21-.45.41-.67.62s-.06.31-.21.29-.31-.07-.39,0-.11.08-.14.16-.22.35-.63.09c-.07,0-.06,0-.1,0l-.39-.05s-.08,0-.08.06c0,.25-.19.2-.36.19s-.33.13-.41.32a1.64,1.64,0,0,1-1,.91,2.5,2.5,0,0,0-.48.23c-.07,0-.08.2-.13.28s-.28,0-.42,0a.48.48,0,0,0-.52.37c-.08.33-.31.42-.5.57s-.41.05-.49.27c-.16.44-.62.36-.88.62s-.47.34-.68.56a2,2,0,0,0-.21.55s0,.06-.06.06-.21.32-.3.51a.64.64,0,0,1-.47.34c-.12,0-.33-.16-.62-.56l-.63-.82c-.41-1-.41-1-.39-1.12a.41.41,0,0,1,.38-.39c.11,0,.19-.13.29-.17.27-.09.42-.42.61-.66h0c.16-.17.32-.33.47-.52s.14-.22.22-.31a.32.32,0,0,1,.22-.06c.09,0,.26.15.28,0,0-.39.39-.27.55-.47s.1-.38.38-.17c.07-.46.55-.25.69-.59a1,1,0,0,1,.62-.53c.19-.07.47,0,.67-.05a.88.88,0,0,0,.48-.26c.11-.13.12-.42.22-.57a.88.88,0,0,1,.38-.29,11.35,11.35,0,0,1,1.11-.51c.38-.15.79-.26,1.17-.42.15-.06.37,0,.38-.26s.39-.2.29-.67c0,0,0,0,0,0a7.73,7.73,0,0,1,1.4-1.09c.28-.13.67-.13.91-.32s.32-.16.41-.32a4.51,4.51,0,0,0,.29-.77,0,0,0,0,1,0,0c.29,0,.36-.33.57-.46s0-.43.37-.3c0-.58.57-.53.78-.88,0-.07,0-.26.05-.27s.1-.3.34-.27.33-.21.5-.3a1.85,1.85,0,0,0,.89-1c.22-.73,1-1,1.36-1.58,0-.07,0-.2.07-.26s.21,0,.24,0c.17-.3.52-.46.58-.84a.77.77,0,0,1,.78-.7c.09,0,.08-.09.08-.16S153.38,39.36,154.34,39.93Z" transform="translate(-0.19)"/><path d="M120.14,148.13c.44.45.88.84,1.29,1.29a4.27,4.27,0,0,1,.95,2.62c.05.73.07,1.46.17,2.19.31,2.38.78,4.74,1.3,7.09.1.42.24.82.36,1.24a10,10,0,0,1,.39,1.41,118.86,118.86,0,0,0,2.4,11.79c.63,2.78,1.46,5.52,2.19,8.28.37,1.43.51,2.93,1,4.32,1.71,5.27,3.11,10.62,4.84,15.88l1.59,4.79a45.91,45.91,0,0,0,1.72,4.51,32.83,32.83,0,0,1,1.32,3.77,67.9,67.9,0,0,0,3.24,8.1c1,2.06,1.89,4.21,2.7,6.35.34.95.88,1.73,1.28,2.63a82.62,82.62,0,0,0,3.72,7.53c.85,1.41,1.65,2.85,2.44,4.29s1.68,2.82,2.56,4.19l1.9,2.85c.61,1,1.25,1.91,1.94,2.82.8,1.07,1.56,2.17,2.42,3.19l2.52,3.1.24.51s0,0,0,0a9.94,9.94,0,0,0,.67,1c.28.38.58.77.89,1.15a20.56,20.56,0,0,0,1.44,1.58l-.28-.2c.59.3,1.21.58,1.85.84,1.4.56,2.75,1.37,4.13,2a4.49,4.49,0,0,0,.63.36c2.42.63,4.41,2.08,6.69,3a24.38,24.38,0,0,0,4.7,1.6c.64.1,1.33.22,2,.37a16,16,0,0,1,2.05.63,4.79,4.79,0,0,1,2.62,2,2.62,2.62,0,0,1,.28,1.9,3.65,3.65,0,0,1-1,1.54,6.11,6.11,0,0,1-2.88,1.48,15.37,15.37,0,0,1-3.28.57,11.79,11.79,0,0,1-1.19,0,20.51,20.51,0,0,1-5.29-1c-1.7-.6-3.22-1.23-4.84-1.83-1.21-.46-2.5-.78-3.64-1.33s-2.16-1.08-3.3-1.52l-.34-.13,1.33-.83c-.06.72-.16,1.37-.26,2a8.67,8.67,0,0,1-1.15,3.38,3.32,3.32,0,0,1-1.66,1.41,2,2,0,0,1-.61.13l-.31,0-.37,0a2,2,0,0,1-1.07-.7,5.83,5.83,0,0,1-.75-1.12,18.29,18.29,0,0,1-1-3.32,6.63,6.63,0,0,0-.31-1.07,41.8,41.8,0,0,1-1.28-4.39,8.8,8.8,0,0,0-1.43-3l0,0c-.59-.6-1.18-1.18-1.81-1.75a62.87,62.87,0,0,1-9.56-12l-1.61-2.55-1.54-2.59c-.51-.84-1.11-1.63-1.65-2.46-.7-1.18-1.19-2.45-1.78-3.66-1.11-2.15-2.08-4.37-3.35-6.47q-.52-.88-1-1.78l-.89-1.85-1.72-3.75-.64-1.47-.56-1.5c-.38-1-.76-2-1.22-2.94-1.83-3.66-2.83-7.62-4.3-11.4-1.11-3.08-2-6.24-3.09-9.34l-1.67-4.71c-.1-.29-.2-.6-.27-.9-.46-1.82-1.13-3.55-1.72-5.32-.62-2-1.06-4.06-1.49-6.11a10,10,0,0,1-.11-3.58c.14-.87.22-1.77.33-2.62.94-.07,1,0,1.31,1a47.69,47.69,0,0,1,1.52,5.94c.26,1.29.61,2.57.89,3.86.81,3.22,1.88,6.39,2.83,9.58l.05.18c.77,2.48,1.65,4.92,2.48,7.38.46,1.28.87,2.56,1.37,3.82.3.81.57,1.64.83,2.47a20.57,20.57,0,0,0,.78,2.64c1.15,2.54,2,5.19,3.1,7.74a31.57,31.57,0,0,1,1.83,4.49,47.9,47.9,0,0,1,2.26,4.77c.71,1.61,1.48,3.19,2.33,4.72q.58,1,1.13,2.07l1.16,2c.77,1.36,1.47,2.77,2.26,4.13,1.18,2,2.16,4.13,3.42,6.1a59.54,59.54,0,0,0,3.58,5.3c1.2,1.53,2.53,2.95,3.82,4.37.6.69,1.22,1.34,1.82,2,.31.32.6.65.93,1l1,1,.56.6.08.08,0,0a12.87,12.87,0,0,1,1.76,3.48c.4,1.14.71,2.25,1,3.35s.56,2.17.86,3.2c.15.51.31,1,.48,1.45a4,4,0,0,0,.51,1l0,0h0l-.07.11-.1.14a.79.79,0,0,0-.07.15l0,.06c0,.08,0,0,0,0h0l0-.51h0v0s0,0,.07,0a2.56,2.56,0,0,0,.71-1,13.39,13.39,0,0,0,.91-3.63l.24-1.93,1.7.71,5.23,2.2a49.44,49.44,0,0,0,5,2c1.25.38,2.29.78,3.47,1.05a9.38,9.38,0,0,0,3.47.26c.16,0,.34,0,.5,0a9.25,9.25,0,0,0,4.31-.94,2.27,2.27,0,0,0,.61-.48.58.58,0,0,0,.11-.15s0,0,.14,0h-.09c-.09,0,0,0-.05,0s0,0,0-.06a.19.19,0,0,0-.07-.09,2.51,2.51,0,0,0-.62-.49,9.43,9.43,0,0,0-2-.85c-.39-.1-.77-.22-1.17-.3l-1.28-.3a40.13,40.13,0,0,1-5.22-1.66c-3.37-1.31-6.56-2.95-9.78-4.49-1.26-.61-2.49-1.24-3.75-1.88l-.18-.09-.12-.12-1.46-1.5c-.42-.44-.83-.89-1.24-1.37-.2-.25-.41-.5-.61-.79a3.88,3.88,0,0,1-.6-1.21l.26.55c-1.11-1.36-2.26-2.7-3.36-4.08-.11-.15-.22-.31-.32-.47-.77-1.26-1.64-2.45-2.46-3.67s-1.62-2.46-2.39-3.71a38.05,38.05,0,0,1-2.87-4.93c-2.63-3.93-4.46-8.3-6.54-12.52a27.34,27.34,0,0,1-1.3-2.48c-.63-1.62-1.56-3.14-2-4.78a32.39,32.39,0,0,0-1.19-3.18c-.42-1-.86-2.09-1.26-3.14l-5.44-14.93C130.16,198.22,128.2,190,126,182c-.25-1-.59-1.9-.83-2.86-.17-.65-.17-1.34-.34-2-1-4-1.76-8-2.77-12a79,79,0,0,1-2.19-12.17,18.38,18.38,0,0,0-.39-2.1A2.37,2.37,0,0,1,120.14,148.13Z" transform="translate(-0.19)"/><path d="M108.72,110.79a11.08,11.08,0,0,1,1.17.37c.53.2.62.38.47.5a1.89,1.89,0,0,0-.32.25,2.26,2.26,0,0,0-.38.92c0,.06,0,.14,0,.2s.09.18,0,.23c-.55.37-.66.9-1,1.35s-.29.72-.53,1-.47.15-.53.35a4.19,4.19,0,0,1-1.45,1.65c-.16.15-.34.29-.51.43s-.37.21-.44.48-.32.17-.49.23a1.84,1.84,0,0,0-1,.6,1,1,0,0,1-.82.38c-.15,0-.19.17-.32.2a2,2,0,0,0-1,.41c-.33.33-.79.3-1.14.58a8.27,8.27,0,0,1-.81.4c-.33.17-.65.38-1,.54a.72.72,0,0,1-.41,0,.58.58,0,0,0-.54.14c-.17.17-.41,0-.61,0,0,0-.08-.11-.1-.06-.26.5-.65-.1-1-.11s-.46-.25-.65-.08a.91.91,0,0,1-.51.18c-.13,0-.25,0-.39-.21s-.26-.19-.38,0-.25.12-.37.16a3.1,3.1,0,0,0-.4.22.44.44,0,0,1-.14.06,10.13,10.13,0,0,1-1.34,0c-.17,0-.36.18-.52.06s-.29-.27-.45-.28a.93.93,0,0,0-.3,0c-.3.08-.59,0-.77-.45,0-.08-.09,0-.13-.06l-.36-.35s-.08-.06-.14,0c-.24.16-.4,0-.55-.19a.8.8,0,0,0-.72-.22,2.23,2.23,0,0,1-1-.12,4.6,4.6,0,0,1-.87-.5l-.64-.45c-.11-.07-.28,0-.42-.07s-.2-.33-.31-.48-.36-.53-.75-.58a1.64,1.64,0,0,1-.94-.58c-.21-.2-.25-.53-.55-.64-.55-.26-.66-.86-1-1.27s-.5-.72-.77-1.08c-.13-.18-.44-.29-.64-.46a.19.19,0,0,1-.07-.11c-.06-.26-.37-.41-.57-.63a1.37,1.37,0,0,1-.34-.85c0-.18.19-.42.64-.67s.63-.36.94-.51c1.05-.12,1-.12,1.2,0a.63.63,0,0,1,.34.6c0,.15.12.27.14.41.08.36.42.63.67.91v0a7.14,7.14,0,0,0,.58.64c.11.1.25.18.35.29a.47.47,0,0,1,.09.26c0,.1-.11.3,0,.32.44,0,.34.47.63.61s.43.06.29.41c.48,0,.48.54.88.64a1.65,1.65,0,0,1,.84.47c.17.16.24.49.44.65a1.31,1.31,0,0,0,.58.35c.2.06.48-.07.7-.08a1.23,1.23,0,0,1,.55.17,13,13,0,0,0,1.38.6,9.27,9.27,0,0,0,1.48.58c.2.06.39.25.6.08s.58.1.87-.34c0,0,0,0,.06,0,.79,0,1.57-.12,2.38-.09a10.76,10.76,0,0,0,1.26.21,2.29,2.29,0,0,0,.7-.11,6.56,6.56,0,0,0,.88-.58.08.08,0,0,1,.06,0c.36.1.61-.21.93-.24s.3-.4.61-.15c.33-.56.93-.39,1.36-.68.08-.06.09-.26.2-.27s.24-.31.5-.23.47-.16.7-.23a2.37,2.37,0,0,0,1.29-1,2,2,0,0,1,.39-.53,4.56,4.56,0,0,1,.45-.46,3.74,3.74,0,0,0,.86-1c0-.09,0-.24.06-.32s.22,0,.25-.09c.19-.38.53-.7.53-1.16a1.2,1.2,0,0,1,.59-1.14c.08-.05,0-.14,0-.21S107.59,110.73,108.72,110.79Z" transform="translate(-0.19)"/><path d="M122,280.8l-1.22.05c-.56,0-.71-.1-.63-.28a1.72,1.72,0,0,0,.17-.37,2.25,2.25,0,0,0-.16-1.07c0-.06-.11-.11-.15-.16s-.18-.11-.15-.19a3.68,3.68,0,0,0-.11-1.82,5.64,5.64,0,0,0-.32-1c0-.08.22-.37.13-.45a.53.53,0,0,1-.11-.11c-.46.07-.51-.11-1.4-.2-.25,0-.5-.07-.75-.12a1,1,0,0,0-.73,0c-.21.11-.39-.1-.58-.17a2,2,0,0,0-1.3-.16,1.26,1.26,0,0,1-1-.19c-.14-.08-.3,0-.44,0a2.73,2.73,0,0,0-1.25-.17c-.51.09-1-.07-1.49,0-.35.06-.69,0-1,0s-.85.14-1.27.18a.92.92,0,0,1-.45-.13.76.76,0,0,0-.64,0c-.31.09-.26-.08-.39-.15s0-.12-.06-.08c0,.23-.07.18-.19.06A1.5,1.5,0,0,0,106,274c-.11,0-.35-.21-.49-.24a.27.27,0,0,0,0,.16,1.3,1.3,0,0,1,.13.46c0,.09,0,.14-.22.13s-.19.14,0,.28.11.21.15.3.14.28.21.42a.54.54,0,0,1,.06.17c0,.51,0,1,.1,1.53a.59.59,0,0,0,.1.26s.06.06,0,.1-.24.21-.23.29,0,.11,0,.14.12.08,0,.26a1.53,1.53,0,0,1-.12.3c0,.07.06,0,.07,0a.93.93,0,0,0,.16.28.08.08,0,0,0,.12,0c.25-.19.32,0,.5.09a1.1,1.1,0,0,0,.89.05,4.53,4.53,0,0,1,2.29,0,6.27,6.27,0,0,0,.89.15c.15,0,.3-.1.45-.13s.39.19.58.27a1.28,1.28,0,0,0,1.08.06,2.71,2.71,0,0,1,1.24-.12c.32,0,.62.22.95.1.63-.24,1.21.11,1.82.07s1,0,1.47,0a3.27,3.27,0,0,0,.78-.32.22.22,0,0,1,.14,0c.27.06.57-.14.86-.24a1.64,1.64,0,0,1,.94,0c.18,0,.33.32.45.81s.19.7.28,1c-.12,1-.12,1-.3,1.15a1.08,1.08,0,0,1-.93.1c-.19-.05-.4,0-.59,0a5.24,5.24,0,0,0-1.52.16h0l-1.19.13c-.21,0-.42.09-.62.1a.92.92,0,0,1-.38-.09c-.13-.05-.26-.29-.4-.2-.45.28-.84,0-1.26,0-.25,0-.51.23-.72-.12-.56.31-1.05-.16-1.6,0a2.85,2.85,0,0,1-1.43,0c-.35-.07-.68-.31-1-.41a2.69,2.69,0,0,0-1-.14c-.3,0-.61.22-.91.27a2.61,2.61,0,0,1-.84,0l-.53-.09-.94-.14c-.68-.1-1.33-.2-2-.31l-.6-.11.3-3.29a1.13,1.13,0,0,1,0-.26c0-.07,0-.14,0-.2a.52.52,0,0,0-.07-.4c-.26-.38.07-.76-.36-1.14,0,0,0-.06,0-.08l0-2.15c0-.82,0-1.66,0-2.44l1.1.17c1.05.18,2.05.53,2.92.64l.3.05.23,0a1.79,1.79,0,0,0,.46,0,11.51,11.51,0,0,0,1.34-.25.13.13,0,0,1,.08,0c.42.21.87.07,1.29.18.28.07.59-.22.83.13.74-.35,1.39.16,2.09.12.14,0,.3-.18.43-.11s.53-.08.76.14.66.17,1,.26a5.79,5.79,0,0,0,2.35.23,3.8,3.8,0,0,1,.58,0h.3l.55.05c.73.08,1.43.19,2.11.3.16.92.32,1.78.55,2.63,0,.16.18.27.21.42s-.13.24-.1.33a8.5,8.5,0,0,0,.44,1.78,2.15,2.15,0,0,1,.21,1.84c0,.12,0,.21.1.3S123,280.43,122,280.8Z" transform="translate(-0.19)"/><path d="M103.12,149.58c.26.94.54,1.88.76,2.84.11.47.07,1,.14,1.46s.2,1.1.32,1.64l.52,2.54c.07.25.23.25.29.29l0,0c.12-.16.22-.18.33-.31a1.32,1.32,0,0,0,.13-.18c.18-.2.37-.42.55-.64a10.23,10.23,0,0,1,1.87-1.92,9.82,9.82,0,0,0,1.23-1.29l2.15-2.26,1.94-2c.06-.07.16-.1.23-.16a8,8,0,0,0,.73-.69,1.44,1.44,0,0,1,1.18-.6.22.22,0,0,0,.17-.09c.28-.3,1,0,1.56.05a2.16,2.16,0,0,1,.42.25.65.65,0,0,1,0,.23,5,5,0,0,1-.49.72c-.25.27-.56.48-.8.76a17.83,17.83,0,0,0-2.1,2.14,6.76,6.76,0,0,1-1.24,1.25c-.47.44-1,.85-1.39,1.33s-.78,1.12-1.22,1.63-.81.71-1.19,1.09a5.62,5.62,0,0,0-1.32,1.67,1.7,1.7,0,0,1-.39.53c-.28.27-.57.53-.85.79-.7.65-1.35,1.06-2,1.71-.26.27-.54.61-.84,1a9.61,9.61,0,0,1-.53-1.2c-.29-.85-.54-1.84-.79-2.78l-.48-1.87c-.12-.47-.23-.95-.33-1.42s-.11-1.1-.2-1.64-.25-1.28-.39-1.91-.27-1.15-.41-1.71a7.15,7.15,0,0,0-.3-.94c-.1-.25,0-.51.64-.84a.87.87,0,0,1,.22-.09,10.83,10.83,0,0,1,1.34-.17c.25,0,.31.15.46.23s0,0,0,0l.11.6Z" transform="translate(-0.19)"/><path d="M121,151.34a16.44,16.44,0,0,1-.37,2.16,7.72,7.72,0,0,1-.48,1c-.16.38-.3.78-.44,1.16-.29.73-.64,1.44-1,2.17-.2.44-.24,1-.44,1.4a9.28,9.28,0,0,1-.74,1.2l-.72,1.13a4,4,0,0,1-1.57,1.54,6.2,6.2,0,0,0-.63.4,3.75,3.75,0,0,1-.64.42,7.91,7.91,0,0,1-2.55.84,9.29,9.29,0,0,1-2.35,0c-.08,0-.14-.06-.22-.07-.27,0-.54-.12-.8-.16a.93.93,0,0,1-.86-.63.15.15,0,0,0-.12-.1c-.31-.08-.3-.84-.38-1.32a2.64,2.64,0,0,1,.09-.47c.06,0,.12-.1.17-.1a2.49,2.49,0,0,1,.6,0,3.86,3.86,0,0,0,.69.22c.33,0,.63.17,1,.23a1.53,1.53,0,0,0,1,0,4.1,4.1,0,0,1,1.1-.06,3.65,3.65,0,0,0,1.16-.26,5,5,0,0,0,1-.8c.25-.18.56-.32.82-.51a1.75,1.75,0,0,0,.7-1.1c0-.3.24-.43.4-.64s.51-.41.64-.71.07-.66.15-1a5.69,5.69,0,0,1,.35-.87c.25-.57.46-1.17.7-1.77.13-.33.37-.64.51-1a10.21,10.21,0,0,0,.39-1.26,11.86,11.86,0,0,0,.24-1.17,2.82,2.82,0,0,0,0-.66c0-.18.17-.31.87-.35a1.41,1.41,0,0,1,.23,0,11.06,11.06,0,0,1,1.32.24c.24.07.24.2.35.3s0,0,0,0l-.1.45Z" transform="translate(-0.19)"/><path d="M98.47,150.78c-.19.54-.35,1.09-.55,1.62-.1.26-.34.49-.47.75a7.33,7.33,0,0,0-.37.92,11.15,11.15,0,0,0-.53,1.79,6.42,6.42,0,0,0,.06,1.13c0,.35-.08.68-.08,1a3.5,3.5,0,0,0,.13.91,4.59,4.59,0,0,1,.29,1.28c0,.28.22.46.35.62a1.37,1.37,0,0,0,.8.53,3,3,0,0,0,1.08.07s.08,0,.13,0a1.06,1.06,0,0,0,.48,0c.21-.08.41-.06.71.28a.09.09,0,0,0,.11,0c.21-.07.56.57.89.94a3.6,3.6,0,0,1,.21.44c0,.06,0,.15-.07.17a2.18,2.18,0,0,1-.5.3,7.23,7.23,0,0,1-.71.13,2.81,2.81,0,0,1-1,.08,4.71,4.71,0,0,0-1,.06,1.11,1.11,0,0,1-.65-.05,3.22,3.22,0,0,1-.63-.26,2.51,2.51,0,0,1-.64-.39,6.12,6.12,0,0,1-.58-.48,4.61,4.61,0,0,1-1.13-1.14,4,4,0,0,1-.3-1.16,4.18,4.18,0,0,0-.46-1.44,1.25,1.25,0,0,1-.08-.85c0-.34.22-.67.22-1s-.2-.66-.21-1a3.66,3.66,0,0,1,.12-1,13.78,13.78,0,0,1,.47-1.83c.11-.33.35-.63.49-.94s.32-.76.47-1.14l.4-1a3.15,3.15,0,0,0,.17-.6c0-.17.25-.25.93-.08a1.38,1.38,0,0,1,.23.07c.41.2.88.41,1.2.59s.2.21.28.32,0,0,0,0l-.17.31Z" transform="translate(-0.19)"/><circle class="cls-6" cx="102.31" cy="170.6" r="2.8"/><polygon class="cls-6" points="117.25 187.08 103.38 186.33 103.59 182.04 117.46 182.78 117.25 187.08"/><path class="cls-7" d="M72.57,177.61A14.8,14.8,0,0,0,77,185.73" transform="translate(-0.19)"/><path class="cls-7" d="M130.33,194.21s-1.23,2.7-7.62,3.69" transform="translate(-0.19)"/><rect class="cls-8" x="110.97" y="180" width="3.07" height="9.74" rx="1.01" ry="1.01"/><path d="M114.41,188.72l-.8-.12c-.37-.06-.45-.13-.37-.22s.14-.11.16-.17a1,1,0,0,0,.06-.57s-.05-.07-.08-.1-.1-.08-.07-.11c.25-.31.17-.63.2-.94a6.7,6.7,0,0,0-.06-.67c0-.12.2-.23.15-.35a3.34,3.34,0,0,1,0-1.3c0-.13,0-.26,0-.4a.42.42,0,0,0-.07-.38c-.09-.1,0-.21.07-.31a.83.83,0,0,0,0-.69.54.54,0,0,1,.06-.54c0-.08-.05-.15,0-.23,0-.25.11-.4,0-.51s-.1-.3-.27-.32-.18-.06-.28,0a.47.47,0,0,0-.17.09l-.07.06,0,0-.08,0a.4.4,0,0,1-.24-.06c-.09,0-.1-.06-.14,0s-.09,0-.15-.05-.05-.07,0,0c.12.31-.2,0-.31,0s-.26,0-.19.14a.5.5,0,0,1,.07.21s0,.07-.14.12-.13.15,0,.22.07.15.1.23a1.78,1.78,0,0,0,.14.25.25.25,0,0,1,0,.09c0,.27,0,.54.06.8,0,.1.14.2.07.3s-.16.19-.15.28a.49.49,0,0,0,0,.18c.08.17.11.34-.19.5,0,0,0,.06,0,.09l-.18.26s0,.06,0,.09,0,.24,0,.36a.47.47,0,0,0,0,.47,1.9,1.9,0,0,1,.14,1.2,2.57,2.57,0,0,0,0,.47c0,.08.09.15.12.23s-.1.21-.14.32a.54.54,0,0,0,0,.57,1.26,1.26,0,0,1,.13.25c0,.06,0,.12,0,.17s0,.24.1.26.27.21.47.16a.81.81,0,0,1,.22-.05A2.49,2.49,0,0,0,113,189c.1,0,.33-.2.27-.24h0s0,0,0,0a.14.14,0,0,0,0,0,.31.31,0,0,0,.18,0l.68-.13c.69.08.69.08.77.18s.07.07.08.14a.92.92,0,0,1-.22.65,2.31,2.31,0,0,1-.35.41,3.62,3.62,0,0,1-.59.38,1.48,1.48,0,0,1-.34.14l-.18.05-.1,0h0l-.63.16c-.19,0-.4.07-.61.08a1.3,1.3,0,0,1-.36-.11c-.12-.07-.17-.25-.31-.24-.47,0-.66-.43-.9-.71s-.38-.34-.23-.64a1,1,0,0,1-.16-.75c0-.25.06-.31,0-.47a1.19,1.19,0,0,1-.08-.75,5.54,5.54,0,0,1,.21-.55,1.12,1.12,0,0,0,0-.51c0-.15-.19-.31-.23-.46a1.08,1.08,0,0,1,0-.44c0-.37.08-.74.15-1.12s.16-.74.24-1.11c0-.14.13-.29,0-.43s0-.4-.24-.6c0,0,0,0,0,0v-.41a5.46,5.46,0,0,1,0-.55,1.9,1.9,0,0,1,.5-1.38,2.23,2.23,0,0,1,1.3-.56c.25-.06.56,0,.79,0a2.64,2.64,0,0,0,.35-.11c.2,0,.41-.09.63-.11l.08,0a2.88,2.88,0,0,1,1.07.54c.17.18.5.28.45.63.56.42.22,1.47.3,1.65s.14.15.11.22.09.27,0,.4-.07.35-.1.53a2.4,2.4,0,0,0,0,1.24c.21.66-.07,1.31,0,2,0,.08.07.16.07.23s-.12.11-.11.16a3.51,3.51,0,0,0,0,1,.92.92,0,0,1-.14,1c0,.05,0,.11,0,.17S115.15,188.66,114.41,188.72Z" transform="translate(-0.19)"/><polyline class="cls-9" points="120.17 89.92 106.56 94.23 118.78 98.62"/></g></g></svg>