<svg xmlns="http://www.w3.org/2000/svg" viewBox="0 0 251.5 522.5"><defs><style>.cls-1,.cls-8{fill:#fff;}.cls-2,.cls-3,.cls-6{fill:none;}.cls-2,.cls-3,.cls-6,.cls-8{stroke:#000;stroke-linecap:round;stroke-linejoin:round;}.cls-2{stroke-width:2.88px;}.cls-3{stroke-width:3.52px;}.cls-4{fill:#9b7760;}.cls-5{fill:#f99;}.cls-6{stroke-width:3.04px;}.cls-7{fill:#f3cabe;}.cls-8{stroke-width:2.75px;}.cls-9{fill:#f9c;}</style></defs><title>chara-guts</title><g id="レイヤー_2" data-name="レイヤー 2"><g id="レイヤー_2-2" data-name="レイヤー 2"><path class="cls-1" d="M133.77,409.18c4.2,44.47,11.13,85.45,11.13,85.45s-35.79,6-35.79,2.84,26.36-10.69,26.36-10.69c-3.59-21.56-6.89-49.66-12.65-78Z"/><path class="cls-1" d="M165,407.42c3.5,27.27,9,60.28,17,91.52,0,0,30.73,17.81,23.39,20.95S178,508,178,508c-5.48-21.65-18.17-68.49-25.39-99.61Z"/><path d="M178.79,27.35l-1.41.29c-.65.12-.82,0-.73-.12a1.75,1.75,0,0,0,.2-.35,1.32,1.32,0,0,0-.15-.89s-.12-.08-.18-.12-.2-.07-.17-.14c.32-.6.09-1,0-1.55,0-.35-.24-.68-.27-1,0-.19.31-.41.21-.58-.42-.65-.11-1.38-.14-2.07a2.68,2.68,0,0,1,.07-.63.63.63,0,0,0-.09-.62c-.15-.18.1-.33.17-.49a1.24,1.24,0,0,0,.21-1.08.71.71,0,0,1,.29-.82c.12-.1,0-.26,0-.37a2,2,0,0,0,.36-1c0-.44.26-.79.28-1.23a6.65,6.65,0,0,1,.25-.86,10.3,10.3,0,0,1,.22-1.12c0-.13.18-.2.3-.28a.54.54,0,0,0,.28-.48c0-.24.29-.28.46-.4s.15,0,.13,0c-.24-.6.54-.38.79-.56s.54-.08.56-.35a.8.8,0,0,1,.23-.48c.07-.1.18-.16.44-.07s.33,0,.29-.23.08-.27.13-.39a3.38,3.38,0,0,0,.13-.44.37.37,0,0,1,.06-.14c.3-.3.61-.61.92-.9.12-.11.11-.4.31-.39s.41.05.52,0a.7.7,0,0,0,.21-.2c.14-.27.34-.46.84-.15.08,0,.08,0,.13,0s.35,0,.51.06.1,0,.11-.07c0-.31.28-.25.5-.23a.64.64,0,0,0,.6-.38A2.34,2.34,0,0,1,188,5.31a4.07,4.07,0,0,0,.69-.23c.1-.05.15-.24.24-.33s.37,0,.55,0a.73.73,0,0,0,.79-.37c.2-.37.53-.46.82-.61s.55,0,.73-.24c.35-.5.93-.3,1.35-.56s.73-.3,1.09-.52c.18-.11.31-.4.47-.6a.14.14,0,0,1,.1-.06c.23,0,.39-.33.58-.53a1,1,0,0,1,.75-.27c.16,0,.37.28.61.82L197.24,3c.18,1.24.18,1.23.09,1.41a.58.58,0,0,1-.62.35c-.15,0-.28.1-.43.11-.37,0-.68.39-1,.62h0c-.26.17-.52.32-.77.5s-.25.23-.38.31a.47.47,0,0,1-.29,0c-.11,0-.29-.23-.35-.09-.18.45-.58.23-.83.45s-.23.43-.53.12c-.21.55-.77.19-1,.58a1.4,1.4,0,0,1-.9.54,7.69,7.69,0,0,1-.86,0,1.21,1.21,0,0,0-.66.26c-.17.15-.23.49-.38.67a1.15,1.15,0,0,1-.51.32c-.48.18-.95.38-1.44.55s-1,.31-1.48.52c-.18.08-.47,0-.48.33s-.47.29-.34.85c0,0,0,0,0,0a20.55,20.55,0,0,1-1.56,1.52,4.71,4.71,0,0,0-1,.6c-.15.16-.35.28-.4.5a4.68,4.68,0,0,0-.08,1,.05.05,0,0,1,0,0c-.3.17-.24.53-.44.75s.17.48-.26.5a.63.63,0,0,1-.07.71,1.35,1.35,0,0,0-.27.64c0,.1.2.24.11.31s.08.36-.18.48-.19.42-.3.63a2,2,0,0,0-.22.78,1.75,1.75,0,0,0,.1.81A2.18,2.18,0,0,1,179.5,22a4.65,4.65,0,0,0,0,1.3c0,.1.15.18.17.29s-.18.17-.16.24c.14.41,0,.89.3,1.27a1.05,1.05,0,0,1,.13,1.35c-.06.1,0,.15.09.21S180,26.83,178.79,27.35Z"/><path d="M188,27l-1.38.38c-.64.16-.8.13-.7,0a1.65,1.65,0,0,0,.22-.27.66.66,0,0,0-.09-.62s-.11,0-.16-.07-.19,0-.15-.09c.35-.45.14-.75.12-1.1s-.19-.46-.22-.71.32-.3.22-.41c-.37-.44-.1-.95-.12-1.42a2.48,2.48,0,0,1,.07-.43c0-.14.08-.27-.12-.42s.09-.23.17-.33.3-.46.13-.74,0-.41.22-.56-.05-.18,0-.26.32-.4.25-.67.14-.55.1-.86.08-.4.09-.61,0-.55,0-.82c0-.1.12-.14.22-.19a.26.26,0,0,0,.17-.34c-.06-.19.2-.2.32-.28s.14,0,.11,0c-.35-.49.41-.24.57-.37s.45,0,.4-.23a.45.45,0,0,1,.09-.36c0-.08.11-.12.36,0s.28,0,.18-.16,0-.21,0-.31a2,2,0,0,0,0-.36.23.23,0,0,1,0-.12l.52-.7c.06-.09,0-.34.15-.32s.34.07.41,0,.1-.08.11-.16.15-.38.62-.09c.08,0,0,0,.09,0l.41.07s.08,0,.06-.06c-.06-.27.15-.21.32-.19s.31-.11.35-.32a1.16,1.16,0,0,1,.86-.91,1.8,1.8,0,0,0,.45-.2c.06,0,0-.22.09-.3s.28,0,.41,0,.43,0,.47-.34.26-.43.43-.57.39,0,.46-.23c.13-.47.58-.3.82-.55s.44-.3.64-.52.12-.4.19-.59c0,0,0-.06.06-.06s.19-.33.29-.53a.5.5,0,0,1,.46-.3c.11,0,.32.25.6.75l.59,1.06c.38,1.19.39,1.19.36,1.36s-.17.37-.33.37-.17.1-.26.12-.37.39-.53.62h0c-.13.17-.27.32-.4.49a3.3,3.3,0,0,1-.18.3.21.21,0,0,1-.19,0c-.08,0-.26-.22-.26-.08,0,.43-.34.22-.46.42s0,.4-.33.12c0,.5-.48.18-.57.53a.62.62,0,0,1-.49.47c-.16.05-.44-.07-.63,0a.53.53,0,0,0-.41.21c-.08.13,0,.43-.09.58a.49.49,0,0,1-.29.26c-.3.14-.6.29-.93.41s-.69.2-1,.34c-.12.05-.36,0-.29.24s-.31.2,0,.67c0,0,0,0,0,0a5.43,5.43,0,0,1-.91,1.06c-.22.13-.58.17-.73.36s-.24.18-.25.33a2.9,2.9,0,0,0,.14.71,0,0,0,0,1,0,0c-.26.08-.12.35-.27.48s.22.33-.18.31c.4.44-.22.54-.14.87,0,.06.22.17.15.21s.11.23-.14.29-.15.25-.24.38a.83.83,0,0,0-.06,1c.37.51-.1,1.05.09,1.59,0,.06.15.1.15.17s-.2.12-.18.17c.11.25,0,.57.21.78s.37.45,0,.87c-.06.07,0,.1.07.13S189.21,26.51,188,27Z"/><path d="M122.51,408.86c.56.28,1.1.52,1.61.81a2.07,2.07,0,0,1,1,1.92c0,.56,0,1.13,0,1.69a47.25,47.25,0,0,0,.89,5.4c.07.32.21.62.31.93a4.12,4.12,0,0,1,.32,1.07,75.11,75.11,0,0,0,1.3,9c.29,2.14.79,4.26,1.12,6.4.17,1.11,0,2.28.26,3.36,1,4.1,1.36,8.28,2,12.43.19,1.26.35,2.53.51,3.79a19.9,19.9,0,0,0,.67,3.6,13.75,13.75,0,0,1,.31,3,41.38,41.38,0,0,0,.94,6.55,26,26,0,0,1,.7,5.18c0,.76.32,1.44.4,2.18a57.07,57.07,0,0,0,.93,6.3c.15.69.28,1.32.4,2.06l.48,3c-.77.23-1.54.45-2.3.69l-.56.18-.42.14-.78.28c-1.63.62-3.28,1.1-4.91,1.7-2,.73-3.9,1.56-5.83,2.35a20.59,20.59,0,0,1-2.19.68,13.15,13.15,0,0,0-2.95,1.17,7.13,7.13,0,0,1-.77.37l-.13.05-.07,0-.14,0a5.88,5.88,0,0,0-.71.16c-.07,0-.33,0-.33.06.09.28-.14.34-.77.58a3.18,3.18,0,0,0-1,.53.33.33,0,0,0-.13.35.3.3,0,0,0,.2.17c.28.09.43.21.71.29a2.33,2.33,0,0,0,1.12,0c.38-.08.68-.12,1-.15l1.12-.1a6.61,6.61,0,0,1,2.22.09,4,4,0,0,0,2.22-.17,11.4,11.4,0,0,1,2.19-.42c.78-.14,1.54-.34,2.31-.52.27-.06.55-.13.83-.17,2.55-.35,5.1-.72,7.64-1.14a19.83,19.83,0,0,1,2.87-.54,17.56,17.56,0,0,0,2.75-.14c.57-.1,1.15-.18,1.71-.32l.59-.14.07,0h0l.06,0,.12,0a2.39,2.39,0,0,1,.49-.08h.29c.08,0,.05,0,.07-.07l0-.1a4.74,4.74,0,0,1,.22-.51.38.38,0,0,0,0-.24l0-.13v-.17l-.09-2.53a2.69,2.69,0,0,0-.14-.83,10.33,10.33,0,0,1-.47-3.45,22.5,22.5,0,0,0-.7-4.44,94.1,94.1,0,0,1-2-11.38c-.19-1.5-.32-3-.53-4.5-.1-.74-.35-1.45-.5-2.18a21.94,21.94,0,0,1-.15-3.07,26.05,26.05,0,0,0-.78-5.44,54.47,54.47,0,0,1-1.1-6.1c-.24-1.59-.24-3.22-.62-4.77q-.28-1.12-.45-2.26c-.1-.76-.18-1.52-.25-2.28-.14-1.52-.25-3.05-.47-4.56-.37-2.44-.62-4.91-1-7.35-.2-1.24-.58-2.45-.87-3.68a4.4,4.4,0,0,1-.11-.7,31.72,31.72,0,0,0-.83-4.14,34,34,0,0,1-.62-4.69,4.79,4.79,0,0,1,.62-2.72c.37-.66.67-1.34,1-2,1.26,0,1.26,0,1.5.82a20.57,20.57,0,0,1,.73,4.59c.07,1,.25,2,.35,3,.24,2.51.77,5,1.18,7.48l0,.14.92,5.84c.17,1,.37,2,.52,3a19.2,19.2,0,0,1,.16,2,9.06,9.06,0,0,0,0,2.1,16.51,16.51,0,0,1,.53,3.13c.12,1,.2,2.1.4,3.14a10.06,10.06,0,0,1,.43,3.67c.78,2.59.63,5.33,1.24,7.93a59,59,0,0,1,1.09,7.1c.19,1.77.17,3.56.33,5.34.16,1.62.36,3.24.67,4.84s.77,2.89,1.08,4.35.48,2.78.66,4.19l.69,5.33.79,5.87.35,2.45.08.6,0,.15s0,.11,0,.1l-.31,0-1.24.18-2.44.34-.53.07-.33,0-.67.08-5.34.59a22.24,22.24,0,0,0-4.08.55c-1.86.57-3.85.43-5.67,1.17a1.6,1.6,0,0,1-.42.06c-2.66.32-5.33.64-8,.86l-1,.08-1.28.08c-1.26.06-2.52.09-3.69,0a10.11,10.11,0,0,1-3-.46,3.56,3.56,0,0,1-1.57-1,2.74,2.74,0,0,1-.25-.35,1.3,1.3,0,0,1-.19-.49c0-.09,0-.22-.08-.3a2,2,0,0,1,0-.29,1.74,1.74,0,0,1,.1-.5,3.63,3.63,0,0,1,1.07-1.64,10.17,10.17,0,0,1,2.33-1.59c1-.51,2-1,3-1.42l.91-.38.57-.22,1.12-.42c.74-.27,1.48-.55,2.21-.85,2.05-.86,4.08-1.77,6.13-2.62a2.81,2.81,0,0,1,.41-.13c2.17-.5,4.21-1.38,6.35-2,.3-.08.59-.18.88-.29a4,4,0,0,0,.64-.26c.07-.07.07-.09.24-.05h.12L133,485l0,0h0l0-.08-.07-.32-.13-.65c-.16-.87-.28-1.75-.39-2.62-.22-1.76-.39-3.52-.73-5.26a16.79,16.79,0,0,1-.51-2c-.08-1.31-.57-2.57-.53-3.87a35.08,35.08,0,0,0-.56-5.06c-.43-4-.95-7.92-1.76-11.81-1.3-6.19-1.83-12.48-2.9-18.69-.13-.74-.37-1.45-.48-2.19-.07-.5.05-1,0-1.53-.57-3-.94-6.09-1.7-9.1a42.79,42.79,0,0,1-1.43-9.17,7,7,0,0,0-.32-1.57C121.19,410.05,121.32,409.74,122.51,408.86Z"/><path d="M152.27,408.42c.59.31,1.16.58,1.7.9a2.56,2.56,0,0,1,1.21,2.13c.06.63.06,1.26.16,1.88a59.7,59.7,0,0,0,1.37,6c.1.35.27.69.39,1a5.19,5.19,0,0,1,.42,1.19,94.59,94.59,0,0,0,2.1,10.07c.52,2.38,1.33,4.7,1.93,7.07.31,1.22.3,2.54.69,3.73,1.5,4.5,2.42,9.15,3.63,13.73.36,1.39.7,2.79,1,4.19a24.4,24.4,0,0,0,1.19,4,17.59,17.59,0,0,1,.75,3.34,52.79,52.79,0,0,0,1.9,7.22,32.72,32.72,0,0,1,1.42,5.74c.14.85.52,1.58.71,2.4.53,2.34,1.05,4.7,1.8,7,.88,2.68,1.46,5.45,2.34,8.12.61,1.88,1.08,3.78,1.65,5.66l.53,1.71.27.85.14.43,0,.1,0,0,0,.07.06.14s.09.06.14.09l.14.07.34.22,1.48,1c.72.46,1.39,1,2.07,1.54a16.55,16.55,0,0,0,3,1.92,31.85,31.85,0,0,1,3.28,2.1c.17.11.31.33.49.38,2.08.53,3.53,2.11,5.4,3a14.38,14.38,0,0,0,3.87,1.54,19.74,19.74,0,0,0,3.18.29c.83-.05,1.12-.08,1.81-.09a.85.85,0,0,0,.75-.48.92.92,0,0,0-.18-.88l-.51-.67-.14-.19-.17-.23c-.12-.15-.24-.3-.38-.44a17,17,0,0,0-1.94-1.66c-.25-.19-.49-.37-.73-.57a74.74,74.74,0,0,0-6.87-5.18,28.54,28.54,0,0,1-2.77-1.75,20.33,20.33,0,0,0-2.42-1.92c-.55-.34-1.1-.71-1.67-1a15.48,15.48,0,0,1-4.44-3.15,5.34,5.34,0,0,0-.79-.52l-.27-.2-.38-.27-.72-.51c-.1-.66-.22-1.39-.28-1.82a3.39,3.39,0,0,0-.23-.92,13.85,13.85,0,0,1-.88-3.84,28.71,28.71,0,0,0-1.25-4.93,113.91,113.91,0,0,1-3.11-12.67c-.3-1.68-.6-3.36-1-5-.17-.82-.49-1.61-.71-2.42a28,28,0,0,1-.45-3.44,35,35,0,0,0-1.22-6.09,66.82,66.82,0,0,1-1.57-6.83c-.34-1.78-.44-3.63-.92-5.36a44.15,44.15,0,0,1-1-5.09c-.26-1.71-.47-3.43-.8-5.12-.53-2.74-1-5.5-1.51-8.25-.27-1.39-.72-2.75-1.08-4.13a5.57,5.57,0,0,1-.15-.78,40.71,40.71,0,0,0-1.07-4.64,43.47,43.47,0,0,1-.82-5.29,6,6,0,0,1,.51-3.09c.34-.75.62-1.53.91-2.27,1.26-.06,1.26,0,1.54.89a26.18,26.18,0,0,1,.93,5.16c.11,1.12.34,2.24.47,3.36.35,2.82,1,5.61,1.59,8.4l0,.16.62,3.28.67,3.27c.24,1.14.52,2.27.74,3.41.14.73.22,1.47.29,2.21a11.28,11.28,0,0,0,.18,2.36c.79,2.29.86,4.69,1.39,7a12.8,12.8,0,0,1,.66,4.11c1,2.88,1,6,1.86,8.86.71,2.62,1.25,5.26,1.73,7.92.36,2,.52,4,.84,6,.29,1.82.68,3.62,1.13,5.4.42,1.63,1.06,3.2,1.51,4.81.21.77.4,1.54.58,2.32l.54,2.33,1.09,4.85.54,2.43.27,1.21c.06.28,0,.22,0,.25v.07l0,0,0,0h0l.06,0,.93.59c3.42,2.2,6.75,4.52,10,6.93a35,35,0,0,0,3.81,2.74c2,1.07,3.47,2.75,5.47,3.87a2.28,2.28,0,0,1,.38.34c.58.55,1.16,1.12,1.72,1.75.28.32.56.65.83,1a9.68,9.68,0,0,1,1,1.57,5,5,0,0,1,.49,1.95,3.53,3.53,0,0,1-.49,1.87,4,4,0,0,1-1.39,1.37,10,10,0,0,1-1.91.69l-.48.1-.24,0-.19,0-.72,0c-.48,0-.93,0-1.38,0a17.41,17.41,0,0,1-2.54-.46,27.66,27.66,0,0,1-4.55-1.65,77.12,77.12,0,0,1-8.09-4.67c-1.53-.94-3-2-4.5-2.91l-3.22-2-.81-.5-.2-.13-.31-.21-.69-.48c-.11-.08-.24-.16-.35-.25l-.12-.4-.25-.82c-.1-.33-.13-.41-.18-.57l-.15-.44a3.66,3.66,0,0,1-.12-.46c-.44-2.45-1.28-4.79-1.84-7.21-.36-1.56-1.14-3-1.17-4.67-1.5-3.72-2-7.71-3.16-11.53a21.14,21.14,0,0,1-.79-2.24c-.26-1.45-.93-2.82-1.07-4.28a44,44,0,0,0-1.3-5.61c-1-4.38-2.12-8.76-3.47-13-2.17-6.82-3.49-13.85-5.39-20.73-.22-.82-.56-1.6-.77-2.42-.14-.56-.07-1.17-.22-1.72-.88-3.39-1.5-6.83-2.54-10.19a55,55,0,0,1-2.26-10.29,9,9,0,0,0-.46-1.76C151,409.76,151.14,409.41,152.27,408.42Z"/><path class="cls-1" d="M137.94,177.38S112.49,208.46,96.38,223s-21.6,11.52-28.19-2.84c-4.84-10.56-9.72-39.28-9.72-39.28l-.31-2.26s-.56-7.53.1-7.58c11.65-.9,3.9-12.27,3.9-12.27-.74-6.75-7-6.5-14.6-3.93-7.24,2.46-7.5,3.31-7.63,9.32S43.68,178,43.68,178l5.11,5.12s1.56,26.43,10.56,47.63c8.22,19.36,27.73,19,41.95,4.49s26.18-27,26.18-27Z"/><path class="cls-1" d="M163.07,215.61c15.52,75.31,45.59,103.74,45.59,103.74l1.82,1.9c3.32,4.23,3.85,15.59,7,15.43s3.63-7.34,3.63-7.34l13.37,5.26c13.37,5.26,23.84-3.46,9.36-6.32-8.25-1.63-22.9-9.17-22.9-9.17s-3.81-3.75-4.11-5.13c-38-47.77-51.25-137.27-51.25-137.27Z"/><path class="cls-1" d="M98.14,403.9s47.3,14.08,87.09,1.22c0,0-7.43-39.07-14.21-81,0,0-9.75-54.86-6.12-145.91l-6.49-3.6L160,163.16l-10.24.73-1.46,10.91-10.44,3.75S105.84,253.39,98.14,403.9Z"/><path class="cls-2" d="M60.13,163.33s-6.33-1.72-7,1.41-.85,5.57,3.83,5.82"/><path d="M127.25,208c-.07.76-.1,1.47-.2,2.2a4.56,4.56,0,0,1-1.79,2.77c-.67.55-1.36,1.06-2,1.65-2.08,1.92-4,4-6,6-.34.37-.64.79-1,1.18a10,10,0,0,1-1.11,1.32c-3.58,3.08-6.78,6.58-10.11,9.93q-.89.89-1.75,1.81c-.58.61-1.14,1.22-1.76,1.84a35.85,35.85,0,0,1-3.86,3.47c-1.43,1.1-3.13,1.81-4.62,2.76a25.87,25.87,0,0,1-9.44,3.61A22.89,22.89,0,0,1,73.49,246a19.83,19.83,0,0,1-5.63-2.7,37.42,37.42,0,0,1-4.54-3.85,15.73,15.73,0,0,1-2.77-4c-.45-.77-.81-1.57-1.2-2.36-.18-.4-.35-.81-.53-1.21s-.36-.8-.5-1.21q-.47-1.21-1-2.4l-.52-1.19-.49-1.21A42.68,42.68,0,0,1,53.94,218c-.24-1.17-.7-2.2-1-3.32l-1.06-4.87c-.33-1.63-.71-3.24-1.08-4.85-.93-3.79-1.42-7.67-2.09-11.49-.47-2.68-.75-5.38-1.06-8.08l-.12-1.08,0-.24,0-.12,0-.22-.34-.29-.7-.65L45,181.5l-1.41-1.3-.7-.65-.52-.5a4.34,4.34,0,0,1-.38-.7,25.17,25.17,0,0,1-1.33-3.47l-1.57-4.94a16.74,16.74,0,0,1-.62-5.78,5.24,5.24,0,0,0,.11-.86,9.4,9.4,0,0,1-.06-2.3,7.14,7.14,0,0,1,.7-2.51,5.29,5.29,0,0,1,1.88-2.08,13.91,13.91,0,0,1,2.17-1.11,22.55,22.55,0,0,1,2.93-1c1-.28,1.93-.57,2.86-.92a21.09,21.09,0,0,1,4.81-1.2,7.74,7.74,0,0,1,3.71.29,12.53,12.53,0,0,1,3.5,1.77,4.46,4.46,0,0,1,1.27,1.59,8.31,8.31,0,0,1,.63,1.85l.17.72a10.72,10.72,0,0,1,.71,1c.26.41.52.83.75,1.27a11.1,11.1,0,0,1,.6,1.28,12,12,0,0,1,.76,3.21,7.89,7.89,0,0,1-.05,1.78,6.06,6.06,0,0,1-.59,1.81,6,6,0,0,1-2.71,2.56,6.19,6.19,0,0,1-.81.35,6.34,6.34,0,0,1-.81.27,7.17,7.17,0,0,1-.81.2l-.2,0-.15,0h-.1c-.13,0-.35,0-.32.22a2.84,2.84,0,0,0,0,.46l0,.22v.53c0,.36,0,.73,0,1.09,0,.7-.08,1.4-.09,2.1,0,.35,0,.7,0,1.05l0,.53s0,.28.06.45c.14.89.23,1.77.44,2.62a30.5,30.5,0,0,1,1,7.42,10.6,10.6,0,0,0,.22,1.29c.16,1.29.3,2.58.47,3.87a6.54,6.54,0,0,0,.27,1.27A29.41,29.41,0,0,1,63,200.62a44.58,44.58,0,0,0,1.68,6.76c.91,2.84,1.82,5.67,2.79,8.45.26.69.49,1.39.76,2.07l.84,2c.61,1.35,1.24,2.68,1.92,4a30.94,30.94,0,0,0,1.73,3,15,15,0,0,0,2.12,2.6A7.62,7.62,0,0,0,77.55,231a13.14,13.14,0,0,0,2,.54,7.35,7.35,0,0,0,2.15,0,12.51,12.51,0,0,0,3.83-1.3A19.4,19.4,0,0,0,89,228c2.39-2,4.85-4,7.16-6.24,1.77-1.73,3.73-3.31,5.38-5.13s3.18-3.52,4.85-5.19l2.5-2.52c.81-.87,1.61-1.74,2.39-2.63,1.26-1.44,2.54-2.86,3.82-4.29s2.51-2.89,3.74-4.36,2.35-3.09,3.51-4.66c.22-.29.44-.58.69-.85,1.46-1.63,2.66-3.43,4-5.16,1.45-1.95,3-3.82,4.65-5.65a10.85,10.85,0,0,1,3.31-2.58c.94-.47,1.87-1,2.76-1.51.85.87.8.93.1,2a47.94,47.94,0,0,1-4.47,5.68c-1,1.17-2,2.4-3,3.58-1.29,1.48-2.54,3-3.77,4.54s-2.44,3.09-3.7,4.6l-.14.17-3,3.53c-1,1.18-2,2.36-3,3.52s-2.06,2.46-3.12,3.67c-.68.77-1.4,1.51-2.13,2.24a25.94,25.94,0,0,0-2.39,2.23,40,40,0,0,1-3.32,3.69l-1.76,1.75c-.61.57-1.21,1.14-1.79,1.74a25.53,25.53,0,0,1-4.24,4,33.34,33.34,0,0,1-4.75,4.27c-1.72,1.3-3.51,2.52-5.38,3.74-.43.27-.85.55-1.31.79l-.68.37-.71.33c-.47.23-1,.4-1.5.59a14,14,0,0,1-1.63.42,10,10,0,0,1-3.55.09,9.73,9.73,0,0,1-3.42-1.23,12.63,12.63,0,0,1-3.6-3.37,31.6,31.6,0,0,1-2.36-3.81c-.64-1.17-1.22-2.35-1.78-3.52l-.83-1.76-.8-1.83c-.26-.56-.47-1.11-.71-1.66l-.7-1.65c-.43-1.1-.89-2.2-1.25-3.32-.7-2.13-1.26-4.29-1.77-6.45q-1.93-8.22-3.35-16.49c-.48-2.75-.92-5.47-1.33-8.25-.1-.74-.16-1.4-.25-2.11l0-.26,0-.15c0-.08,0-.15,0-.23l0-.53,0-1.06q0-1.06,0-2.12v-1.61l0-.73a5.43,5.43,0,0,1,.43-2.21A1.94,1.94,0,0,1,57,170c.11-.15.3-.16.46-.23l1-.33c.25,0,.49-.06.74-.09l.37-.05.2,0c.26,0,.49-.12.73-.19s.44-.18.66-.27a3.81,3.81,0,0,0,.54-.36,3.38,3.38,0,0,0,.89-1A3.22,3.22,0,0,0,62.9,166a6,6,0,0,0-1-3.45,3.79,3.79,0,0,1-.24-.53c-.17-.37-.36-.74-.55-1.1a15.69,15.69,0,0,0-.89-1.43L60,158.44c0-.17-.06-.35-.12-.51a4.81,4.81,0,0,0-.33-.89,2.87,2.87,0,0,0-1.06-1.17,6.8,6.8,0,0,0-4-.54,27.39,27.39,0,0,0-5,1.07c-.84.25-1.68.54-2.53.82s-1.67.58-2.4.91a6.21,6.21,0,0,0-1.92,1.15,3.16,3.16,0,0,0-.26.31,3,3,0,0,0-.2.41l-.09.24c0,.08,0,.19-.08.28l-.08.29-.06.33a27.09,27.09,0,0,0-.27,2.93,14.66,14.66,0,0,0,.14,2.84,29.23,29.23,0,0,0,1.77,6.69c.31.77.64,1.53,1,2.27l.27.55.26.51a.31.31,0,0,0,.11.12l0,0,.12.11.24.22,3.79,3.45.24.23.42.44.71.75.1,1.94.09,1.19c.07.79.15,1.59.25,2.38.19,1.59.41,3.17.58,4.76.24,2.17.93,4.28.91,6.49,1.38,5.26,2,10.67,3.5,15.87.31,1,.8,2,1,3,.49,1.93,1.3,3.79,1.75,5.69a21.94,21.94,0,0,0,1.17,3.71l.73,1.8.36.9.38.85a28.46,28.46,0,0,0,2,3.86,23.17,23.17,0,0,0,2.63,3.4,18.25,18.25,0,0,0,3.24,2.72,17.08,17.08,0,0,0,3.75,1.82,20.67,20.67,0,0,0,6.5,1,24.41,24.41,0,0,0,6.61-1.06,31.24,31.24,0,0,0,11.84-7,15.28,15.28,0,0,0,1.16-1.19l.57-.61.59-.64c.55-.56,1.24-1,1.78-1.55,3.31-3.48,6.79-6.77,10-10.37A106.59,106.59,0,0,1,122.47,211a17.67,17.67,0,0,0,1.71-1.81A2.71,2.71,0,0,1,127.25,208Z"/><path class="cls-2" d="M45.18,167.75s-.19,1.79,7.78.2"/><polygon class="cls-1" points="50.83 112.17 60.71 114.11 55.37 132.19 50.83 112.17"/><path d="M50.53,112.24l1.41-.07c.65,0,.82.1.72.29a2,2,0,0,0-.2.41,2.3,2.3,0,0,0,.16,1.17c0,.07.12.12.17.18s.2.12.17.2a3.74,3.74,0,0,0,.08,2c.06.46.32.88.41,1.33,0,.24-.23.55-.1.76a8.22,8.22,0,0,1,.63,2.62c.06.27.1.54.14.81a1,1,0,0,0,.3.74c.19.16,0,.49,0,.58-.08.29-.08.7.15.79s.15.28.07.75c0,.21.11.06.1.19,0,.38,0,.9.15.88s.12.1.15.23.07.26.14.17.11.13.17.05a3,3,0,0,0,.19-.75c0-.06,0,.12,0,.34V126c0,.27,0,.23.07-.33s0,.07.08.17,0,.4,0,.24c0-1,0-.83.06-.53a2.92,2.92,0,0,0,.14.75s.18.59.18,0a3.4,3.4,0,0,1,.05-.72c0-.13,0-.13.19.25s.17.19.11-.23a1.59,1.59,0,0,1,0-.59,4.87,4.87,0,0,0-.07-.62,1.1,1.1,0,0,1,0-.18c0-.29.1-.54.12-.79,0-.1-.17-.28,0-.29a.45.45,0,0,0,.21-.06.54.54,0,0,0,.16-.26,1.21,1.21,0,0,0,.06-.37.74.74,0,0,1,.61-.9c.1,0,0-.11.09-.16L58,121s.08-.1,0-.17c-.16-.31.08-.49.26-.7a1.11,1.11,0,0,0,.24-.94,4.64,4.64,0,0,1,.47-2.44l.18-.42a1.79,1.79,0,0,0,.11-.31c0-.11-.1-.2-.13-.28s.26-.29.4-.47a1,1,0,0,0,.27-.64,1.85,1.85,0,0,0-.36.06,2.29,2.29,0,0,1-1,.08c-.2,0-.29-.25-.59-.13-.71.21-1.29-.25-2-.26s-1.06-.13-1.6-.11a3.38,3.38,0,0,0-.88.29.23.23,0,0,1-.15,0c-.29-.09-.63.11-1,.19a1.67,1.67,0,0,1-1-.09c-.19-.07-.32-.4-.39-1s-.12-.82-.17-1.22c.25-1.18.26-1.18.46-1.29a1.11,1.11,0,0,1,1,0c.2.08.43,0,.64.11a5.48,5.48,0,0,0,1.67,0h0l1.3,0c.23,0,.46-.06.69-.05a1,1,0,0,1,.41.14c.14.07.24.35.4.27a.87.87,0,0,1,.7,0l.33.1.19,0,.32,0c.48,0,1.15-.1,1.42.34a4,4,0,0,1,1.6.15,7.22,7.22,0,0,0,1.46.32,1.54,1.54,0,0,0,0,.2,9.77,9.77,0,0,1-.69,2.84,8.13,8.13,0,0,1-.49,1.07l-.26.5a1,1,0,0,1-.1.17l-.08.13a2.65,2.65,0,0,0-.35,1c0,.32.13.7.12,1a2.81,2.81,0,0,1-.23.88c-.29.72-.57,1.44-.9,2.14-.16.35-.34.7-.52,1l-.27.52-.37.89a2.87,2.87,0,0,0-.44,1.42,3.41,3.41,0,0,1-.2,1.15,3.61,3.61,0,0,0-.12,1.42c0,.1,0,.12,0,.17l-.89,3.18a29.71,29.71,0,0,1-.94,2.88c-.33.8-.64.89-.91,1.69a8.79,8.79,0,0,0-.48,1.47l-.07.35c-.17-.3-.37-.37-.58-.68a.41.41,0,0,1,0-.17,7.49,7.49,0,0,0-.27-1.5,8.42,8.42,0,0,1-.29-1.21,1.37,1.37,0,0,0-.23-.57,2.67,2.67,0,0,1-.12-1.2c-.27-.08-.44-.85-.57-1.64a16.27,16.27,0,0,0-.42-2.23c-.08-.23-.3-.21-.32-.58,0-.66-.37-.9-.3-1.66a3.37,3.37,0,0,0-.08-1.15,9.76,9.76,0,0,1-.22-1c-.05-.4-.11-.79-.17-1.17l-.05-.36c0-.11,0-.21-.06-.32A4.61,4.61,0,0,0,51,122c-.65-1.24-.48-2.67-.87-4,0-.15-.19-.29-.23-.44s.15-.26.12-.36a8.63,8.63,0,0,0-.47-1.94,2.21,2.21,0,0,1-.2-2c0-.13,0-.23-.11-.33S49.3,112.65,50.53,112.24Z"/><polygon class="cls-1" points="26.15 116.38 16.64 122.59 34.22 139.46 26.15 116.38"/><path d="M25.85,116.48l1.41-.18c.65-.07.84.06.78.3a2.38,2.38,0,0,0-.13.5,3.39,3.39,0,0,0,.38,1.38c0,.08.14.13.21.2s.23.13.21.23a5.43,5.43,0,0,0,.45,2.37c.14.55.48,1,.66,1.56.09.28-.13.67,0,.91A12.14,12.14,0,0,1,31,126.85c.11.31.2.64.29,1a1.46,1.46,0,0,0,.44.86c.23.19.11.52.14.79a4.54,4.54,0,0,0,.06.46c0,.2.09.39.15.58a4.82,4.82,0,0,0,.53,1.16,3.17,3.17,0,0,1,.52,1.78c0,.19.3.58.35.82a7.11,7.11,0,0,0,.7,2.15,13.07,13.07,0,0,1,.63,1.49,15.34,15.34,0,0,0,.65,1.56c.44.92.61,1.49,1,2.37l1.6,3.55-.06,0a9.9,9.9,0,0,1-.95-1c-.52-.62-.86-1-1-.88s-.85-.9-1.3-1.41c-.07-.08-.32-.49-.3-.4.13.49-.27,0-.71-.55s-.94-1.35-1.23-1.66-1-1.45-1.2-1.4-.46-.27-.73-.49a2.66,2.66,0,0,1-.7-1c-.26-.55-.43-.72-.58-.61s-.37-.18-.56-.29-.43-.2-.68-.32a1.19,1.19,0,0,1-.26-.15l-1.16-1-.55-.5-.39-.33c-.2-.16-.54-.18-.63-.44a1.55,1.55,0,0,0-.33-.69,1.76,1.76,0,0,0-.36-.28,1,1,0,0,1-.68-1.12c0-.11-.1-.1-.13-.18l-.26-.68c0-.07-.07-.14-.16-.15-.39,0-.48-.37-.62-.67a1.63,1.63,0,0,0-.87-.79,6.8,6.8,0,0,1-2.34-1.91,9.28,9.28,0,0,0-.8-.88c-.15-.13-.36-.14-.62-.32s-.4-.62-.57-.89A3.46,3.46,0,0,0,15.9,123a6.59,6.59,0,0,1-.79-.51,13.34,13.34,0,0,1,1.17-.88,7,7,0,0,1,.82-.47,2.21,2.21,0,0,0,.71-.52,3.62,3.62,0,0,1,.64-.6,3.86,3.86,0,0,1,.51-.33,5.74,5.74,0,0,0,1-.63c.49-.43,1-.77,1.51-1.22a4.41,4.41,0,0,0,.57-.91.34.34,0,0,1,.14-.13c.33-.17.49-.59.72-.91a2.44,2.44,0,0,1,1-.76c.22-.11.58,0,1.06.36s.71.48,1,.7c.64,1,.63,1,.53,1.28a1.58,1.58,0,0,1-.89.85c-.24.11-.42.32-.65.45a7.92,7.92,0,0,0-1.46,1.38l0,0-1.14,1.08c-.2.19-.37.42-.58.59a1.41,1.41,0,0,1-.46.24c-.18.06-.48,0-.56.14a1.05,1.05,0,0,1-.26.36l-.16.13-.08,0h0s-.12,0-.1,0,.07.09.09.1,0,0-.26-.06c.22.11.21.1.11.11s-.09.06.09.06.23-.06.21,0l0,0,.05.07.1.15.18.32a5,5,0,0,0,.37.63,3.92,3.92,0,0,0,.88.93c.32.23.79.3,1.12.51a4.16,4.16,0,0,1,.82.74c.63.7,1.25,1.4,1.85,2.13s1.15,1.5,1.73,2.23c.22.27.38.69.74.74.15-.06.17,0,.22,0s.12.06.2-.21c0,0,0,0,0,0a.71.71,0,0,0,.17.1s.09.09.25.36.24.41.41.7a7.22,7.22,0,0,0,.48.71c.12.14.39.51.35.4a2.68,2.68,0,0,0-.2-.4c-.24-.41-.5-.84-.71-1.17,0,0,0,0,0,0,.19.27.16.19.1.08s-.14-.24-.09-.19a2.27,2.27,0,0,0-.21-.3c-.08-.11-.08-.11.24.24-.46-.57-.44-.54-.38-.52s.18.07.07-.05-.34-.24-.26-.2,0,0,0,0,0,0,.08,0,.19,0,.17,0-.06-.06,0-.1l0,0a1.27,1.27,0,0,0,0-.16l-.09-.38c-.06-.25-.14-.5-.22-.75a6.78,6.78,0,0,0-.66-1.42c-.88-1.44-1-3.16-1.61-4.68-.07-.18-.25-.33-.31-.51s.11-.32.06-.44a12.81,12.81,0,0,0-.83-2.28,3.19,3.19,0,0,1-.57-2.38c0-.15-.08-.27-.17-.39S24.69,117.06,25.85,116.48Z"/><polygon class="cls-1" points="20.65 156.8 5.02 145.54 2.08 153.94 20.65 156.8"/><path d="M20.7,156.49l-.44,1.34c-.21.61-.38.72-.52.57a1.84,1.84,0,0,0-.29-.33,2.08,2.08,0,0,0-1.09-.27c-.07,0-.14.07-.22.1s-.18.15-.24.09a3.4,3.4,0,0,0-1.78-.64c-.43-.11-.89,0-1.32-.1-.22,0-.4-.41-.63-.37a7.41,7.41,0,0,1-2.54-.36c-.26,0-.51-.1-.76-.17a.92.92,0,0,0-.76,0c-.22.12-.4-.13-.59-.22a1.82,1.82,0,0,0-1.33-.23,1.18,1.18,0,0,1-1-.26c-.14-.1-.31,0-.46,0a2.49,2.49,0,0,0-1.28-.25,2.65,2.65,0,0,1-.8,0,6.06,6.06,0,0,0-1.13-.08c-.58,0-1.1-.09-1.7-.1s-1.16,0-1.8,0c0-.15,0-.31.07-.48a3.28,3.28,0,0,1,.39-.8,1.74,1.74,0,0,0,.33-1c0-.35.33-.77.52-1.12,0-.06.17-.11.15-.16a.74.74,0,0,1,.2-.86c.18-.14.43-.25.51-.42s.49-.38.43-.68a1.4,1.4,0,0,1,.06-.64c0-.15.11-.28.38-.35s.31-.22.19-.42,0-.45,0-.67,0-.53,0-.81a1.49,1.49,0,0,1,0-.3c.24-.8.5-1.6.74-2.47.07-.24.08-.67.16-.93a1,1,0,0,1,.22.2,5.52,5.52,0,0,0,.82.92,2,2,0,0,0,.43.25,1.74,1.74,0,0,1,1.17,1.26c0,.14.13.1.19.18.17.24.31.49.44.7s.09.13.18.12c.4,0,.48.27.6.5a1,1,0,0,0,.77.51,4.2,4.2,0,0,1,2,1.18,5.69,5.69,0,0,0,.7.6c.13.08.33.05.49.1s.24.38.36.56a1.2,1.2,0,0,0,.94.61,2.51,2.51,0,0,1,1.19.51c.28.17.42.53.79.58.71.09,1,.72,1.59,1s.86.52,1.34.72a3.18,3.18,0,0,0,.88.08.21.21,0,0,1,.14.06c.21.2.59.15.91.2a1.51,1.51,0,0,1,.84.48c.14.14.11.49-.08,1s-.25.79-.37,1.17c-.72,1-.73,1-1,1a1,1,0,0,1-.9-.37c-.15-.15-.35-.21-.51-.34a5,5,0,0,0-1.46-.61h0l-1.14-.48c-.2-.08-.43-.13-.62-.22a.88.88,0,0,1-.29-.28c-.09-.12-.06-.41-.24-.4-.56,0-.72-.47-1.14-.63-.24-.1-.6,0-.58-.49-.69,0-.84-.7-1.43-.82a2.66,2.66,0,0,1-1.27-.74c-.27-.25-.42-.66-.67-.93a2.39,2.39,0,0,0-.78-.63c-.28-.13-.68-.09-1-.2a2.53,2.53,0,0,1-.72-.48l-.82-.73a.75.75,0,0,0,0-.2,2.54,2.54,0,0,0-.39-.77h0s-.2-.15-.1.2,0,.24,0,.29,0,.14.18.35c0,0,0,0,0,0a.42.42,0,0,0,0,.1,2.57,2.57,0,0,1-.08.27l-.12.39a9.32,9.32,0,0,1-.62,1.51,3.64,3.64,0,0,1-.22.35,2,2,0,0,1-.12.16l-.08,0a.51.51,0,0,0-.26.2c-.05.09-.19.22-.15.3s.14.08.26,0l.31-.14s0,0,0,0,0,.09,0,.08.11,0,.12,0,.07,0,.1-.08,0,0,0,.15c.73-.38,1.4.23,2.12.22.14,0,.32-.2.45-.12s.55-.08.77.19.67.22,1,.34a5.3,5.3,0,0,0,2.41.36c1.33-.16,2.53.52,3.81.62.15,0,.32-.08.47-.05s.17.23.28.24a7.77,7.77,0,0,0,1.87.26,2,2,0,0,1,1.84.54c.09.09.21,0,.33,0S20.77,155.21,20.7,156.49Z"/><path class="cls-3" d="M107.1,213.54a17.66,17.66,0,0,0,5.28,9.68"/><path class="cls-1" d="M81.66,111.83c-12-39.16,21.45-75.82,55.87-80.56s48.39,5.49,48.39,5.49,33.92,10.72,40.15,40.15-8.23,39.65-8.23,39.65l-1,3.49c-1.87,3.74-7.48,4.61-9.73,2.86Z"/><path class="cls-1" d="M103.61,77.66S76.67,99.12,81.16,129.29,119.57,165,148,164.2s56.87-11.61,57.61-43.14c0,0-3.49-4.49-3.74-13,0,0-18-.25-18.46-41.65C183.41,66.44,137.28,88.14,103.61,77.66Z"/><path class="cls-1" d="M170.75,31.27s-7.18-14.08,7.51-24.73c11.2-8.1,29.89-3.88,39.08,4.28s17,23-9.65,39Z"/><path class="cls-4" d="M223.23,86.3a37,37,0,0,0-8.15-24.55,35.93,35.93,0,0,0-9.77-8.19C191.24,39.25,171,33.78,149.17,35a54.56,54.56,0,0,0-27,6.05c-4.77,1.79-9.22,3.46-13.21,6.37-1,.47-3,2.37-4,2.93-5.1,3-7.52,6.15-10.39,11.22A87.73,87.73,0,0,0,80,91.08a3.36,3.36,0,0,0,.41,2.9,3.7,3.7,0,0,0,.32,1.72,35.29,35.29,0,0,0-.91,4.2,3.91,3.91,0,0,0,0,.74c-1.75,1.85-1.25,5.58,2,5.58A3.41,3.41,0,0,0,85.16,103a3.45,3.45,0,0,0,1.67-2.55c1.39-9.59,8-18.69,17.86-20.61a3.18,3.18,0,0,0,2.45-2c25.61,6.53,50,.87,74-11,1.26,10.46,2.27,21.45,7.43,30.8a18.79,18.79,0,0,0,11.67,9.56v4.57a3.6,3.6,0,0,0,3.26,3.79,3.54,3.54,0,0,0,3.78-3.25v-4.4a30.11,30.11,0,0,0,6.3-1,12.25,12.25,0,0,1,2.53,2.66,2.77,2.77,0,0,0,1.88,1.1c.28,1.21.16,2.2,1.81,2.2,2.27,0,2.41-1.88,2.4-3.64a8.68,8.68,0,0,0,1.42-3.57C224.47,98.29,224.51,92.75,223.23,86.3Z"/><path class="cls-4" d="M182.91,26.69c.45.84,3.5.89,4.79.88,7.58,0,15.21,3.82,18.52,10.84l2,4.9a2.8,2.8,0,0,0,2.95,2.75,3.32,3.32,0,0,0,3.26-2.43c6-4.47,11.18-11.33,8.06-19.17a21.8,21.8,0,0,0-5.81-8.11,18.82,18.82,0,0,0-7.09-5.58c-7.07-5.88-17.64-6.92-27.21-4.11a3.81,3.81,0,0,0-.74.31,15.73,15.73,0,0,0-3.16,2c-1.08-.72-2.49,2.34-3.68,3.58-3.45,3.59-4.78,4.46-4.55,9.51.05,1.14-.58,2.19.21,2.85,0,.53.09,1.06.16,1.6a3.33,3.33,0,0,0,.33,1.05l.1.2.09.14a2.76,2.76,0,0,0,2.49,1.3,3.29,3.29,0,0,0,2.2-.79Z"/><path class="cls-5" d="M208.95,43.1c-.18-.16-.37-.3-.55-.46a2.16,2.16,0,0,0-.2-.66c-2.83-5.26-5-7.17-10.71-8.45-.35-.08-3.64-1.17-3.95-1.11-3.64-1.42-8.22-1.25-12.85-1.17-2.72,0-2.48,3.48.25,3.43a38.53,38.53,0,0,1,4.54.2,1.87,1.87,0,0,0,1,.75,54.69,54.69,0,0,1,13.16,5.71c.71.67,1.41,1.38,2.11,2.17a1.9,1.9,0,0,0,1.92.63c.7.56,1.39,1.14,2.06,1.76C207.76,47.73,211,45,208.95,43.1Z"/><path d="M120.24,126.51c-.07.49-.16,1-.25,1.42-.13.65-.22.78-.29.63a1.7,1.7,0,0,0-.13-.31.53.53,0,0,0-.51-.19s-.08.08-.12.12-.1.16-.13.1c-.21-.49-.52-.41-.79-.54s-.43,0-.64-.05-.11-.4-.24-.35c-.48.18-.79-.23-1.17-.38a1.55,1.55,0,0,1-.33-.2c-.1-.07-.19-.16-.39,0s-.15-.16-.21-.26-.26-.43-.57-.37-.36-.14-.39-.41-.18,0-.22-.1-.2-.45-.47-.53-.38-.41-.68-.58-.29-.33-.44-.51a4.24,4.24,0,0,1-.61-.77c-.05-.11,0-.24,0-.35v0a.38.38,0,0,0-.06-.44c-.16-.18.07-.35.16-.5s.14,0,.1-.06c-.25-.18-.16-.32,0-.41s.39-.15.47-.24.46-.15.39-.35a.55.55,0,0,1,.09-.41c0-.09.13-.14.38-.05s.28,0,.19-.16,0-.21,0-.3a2.74,2.74,0,0,0,0-.36.22.22,0,0,1,0-.11c.2-.22.41-.4.6-.6s0-.33.19-.27.31.15.39.08.1-.06.13-.13.2-.34.58.07c.06.07.05,0,.09,0l.36.18s.07,0,.07,0c0-.27.17-.15.32-.08s.29,0,.37-.2a.92.92,0,0,1,.9-.62,1.33,1.33,0,0,0,.42-.07c.06,0,.08-.19.13-.26s.24.11.35.15.38.09.47-.2.29-.34.46-.44.34.1.43-.11c.18-.42.54-.15.79-.34s.42-.19.62-.36.16-.35.24-.53,0-.05.06,0,.21-.28.31-.46a.37.37,0,0,1,.42-.2c.09,0,.24.3.42.85l.39,1.15c.2,1.24.2,1.23.16,1.4s-.2.33-.34.3-.16.07-.25.07-.38.31-.55.5h0c-.14.13-.29.25-.42.39a2.9,2.9,0,0,1-.21.25s-.11,0-.18,0-.19-.27-.22-.14c-.08.41-.33.13-.47.3s-.11.38-.31,0c-.09.48-.45.05-.59.36a.49.49,0,0,1-.51.32c-.15,0-.37-.19-.53-.21a.4.4,0,0,0-.39.09c-.09.1-.1.4-.17.52a.36.36,0,0,1-.29.16,8.2,8.2,0,0,1-.84.11c-.29,0-.6,0-.88,0-.11,0-.3-.09-.25.14s-.26.09,0,.55c0,0,0,0,0,0a.92.92,0,0,0-.19.26s0,0-.13,0-.39,0-.44.06-.11.09,0,.13h0a.86.86,0,0,0,.48,0s0,0,0,0-.07.08,0,.1.09,0,.07.08.32-.12,0,.16c.25-.1.27-.06.29,0s0,.22.12.23.22-.15.2-.08.21-.06.12.18.11.21.16.32a.59.59,0,0,0,.73.34c.54-.18.81.44,1.32.47.06,0,.14-.1.2-.08s0,.22.07.23c.24,0,.44.28.72.12s.5-.13.68.37c0,.09.08,0,.12,0S120.32,125.18,120.24,126.51Z"/><path d="M111.89,110.4c-.1,1.9-1.26,3.38-2.58,3.31s-2.32-1.66-2.23-3.56,1.26-3.37,2.58-3.3S112,108.51,111.89,110.4Z"/><path d="M112.16,110.41l-1.19-.13c-.55-.05-.67-.09-.55-.13a1.15,1.15,0,0,0,.24-.1.25.25,0,0,0,.06-.33s-.08,0-.12,0-.15,0-.11,0c.34-.23.18-.4.17-.58s-.18-.2-.22-.31.2-.25.11-.27-.23-.1-.26-.18a.52.52,0,0,0-.14-.24l-.12-.13s-.08-.1-.18,0-.06-.08-.1-.15a.37.37,0,0,0-.13-.14c-.06,0-.12,0-.16.11s-.13.1-.25,0,0,.1-.08.09-.26,0-.28.12-.15.17-.14.37-.06.19-.06.31a2.48,2.48,0,0,0,.11.44s-.06.06-.13.08-.13.08,0,.17-.09.11-.16.16-.11,0-.08,0c.42.21-.22.17-.28.3s-.31.13-.18.23.09.14.12.21,0,.09-.22.14-.19.11,0,.15.12.1.16.14a.9.9,0,0,0,.22.13s.06,0,.07,0a1.81,1.81,0,0,0,.18.43c0,.05.23,0,.15.13s-.19.18-.16.22,0,.06.08.07.21.08-.13.38c-.05.05,0,0,0,.06a2.78,2.78,0,0,0-.14.28s0,.05,0,0c.2-.07.12.06.1.19s.08.21.22.16a.56.56,0,0,1,.64.09c.07,0,.15.11.23.09s.08-.13.1-.18.11.14.18.19.26.09.27-.15a.46.46,0,0,1,.13-.38c0-.06.22,0,.16-.15s.21-.27.21-.49.07-.29,0-.46-.2-.22-.3-.32,0,0,0,0-.15-.19-.26-.28-.11-.17-.05-.24a2.42,2.42,0,0,1,.77-.06c.37,0,.68,0,1-.06,1,.06,1,.07,1.16.15s.22.32.14.47,0,.2,0,.3.07.54.09.83v0a6.11,6.11,0,0,1,0,.69,2.17,2.17,0,0,1,0,.39.36.36,0,0,1-.16.18c-.08.05-.3,0-.27.12.11.4-.26.42-.41.72s-.1.48-.44.33a.57.57,0,0,1-.43.45,1.19,1.19,0,0,0-.54.28,1.24,1.24,0,0,1-1.05.36,2.37,2.37,0,0,1-.78-.35,2.42,2.42,0,0,0-.66-.23,5.54,5.54,0,0,1-.74,0,1.23,1.23,0,0,1-.56-.36,3.53,3.53,0,0,1-.84-1.35,4.26,4.26,0,0,1-.17-1.27c0-.16.11-.33-.09-.43s0-.41-.46-.55c0,0,0,0,0,0a3.41,3.41,0,0,1,.07-1.74c.12-.28.41-.51.52-.77a1.56,1.56,0,0,0,.2-.46c0-.25,0-.54,0-.83a.05.05,0,0,1,0,0c.27-.14.26-.46.48-.64s0-.49.43-.4a.78.78,0,0,1,.51-.62,4.65,4.65,0,0,0,.73-.3c.09-.06.13-.28.25-.25s.37-.24.59-.06.43.11.64.11l.11,0c.57.18,1,.41,1.62.55a1.86,1.86,0,0,1,1.07.9,4.56,4.56,0,0,1,.27.57,5.43,5.43,0,0,0,.24.51c0,.08.17.12.2.2s-.13.17-.1.22c.16.32.05.69.28,1a.68.68,0,0,1-.13,1c-.07.05,0,.11,0,.17S113.27,110.41,112.16,110.41Z"/><path d="M164.29,111.44c-.1,2-1.35,3.63-2.77,3.55s-2.49-1.79-2.39-3.82,1.35-3.62,2.78-3.55S164.39,109.41,164.29,111.44Z"/><path d="M164.56,111.46l-1.19-.14c-.55-.06-.67-.1-.55-.15a1.13,1.13,0,0,0,.24-.11.28.28,0,0,0,.06-.37s-.08,0-.12,0-.15,0-.11-.05c.33-.25.17-.44.16-.64s-.19-.22-.24-.34.19-.26.1-.29a.43.43,0,0,1-.31-.24.8.8,0,0,0-.17-.28l-.13-.13s-.09-.11-.19,0-.06-.08-.11-.15-.22-.23-.32,0-.14.1-.27,0,0,.1-.09.09-.28,0-.3.14-.21.23-.2.43-.07.21-.08.34a2.74,2.74,0,0,0,.09.47c0,.05-.07.07-.13.09s-.14.09,0,.19-.1.12-.16.18-.11,0-.08,0c.42.22-.22.19-.29.33s-.32.15-.19.25.09.15.12.23,0,.1-.22.16-.19.12,0,.17.12.1.16.16a.92.92,0,0,0,.22.15s.06,0,.07,0a2,2,0,0,0,.19.48c0,.06.23.06.15.14s-.19.19-.16.24,0,.07.08.08.22.09-.12.4c-.05.05,0,0,0,.06a2.72,2.72,0,0,0-.13.29s0,.06,0,0c.21-.06.14.08.12.22s.09.22.24.19a.68.68,0,0,1,.69.12c.08,0,.16.11.25.09s.08-.13.11-.18.12.14.2.18.28.08.29-.16a.45.45,0,0,1,.15-.39c0-.08.26,0,.21-.2s.23-.3.25-.53a1.93,1.93,0,0,0,0-.5c0-.09-.2-.24-.3-.34s0,0,0,0-.15-.21-.25-.3-.11-.19,0-.26a2.14,2.14,0,0,1,.77-.08c.37,0,.69,0,1-.07,1,.06,1,.07,1.16.16a.36.36,0,0,1,.14.5c0,.1,0,.21,0,.31-.08.25.06.56.08.88v0a6.41,6.41,0,0,1,0,.73,2.32,2.32,0,0,1,0,.41.38.38,0,0,1-.17.19c-.08.06-.31,0-.28.13.11.41-.3.46-.41.73s-.06.45-.41.32a.58.58,0,0,1-.43.47,1.45,1.45,0,0,0-.58.32,1.4,1.4,0,0,1-1.14.4,2.55,2.55,0,0,1-.86-.35,3.17,3.17,0,0,0-.72-.25,5.4,5.4,0,0,1-.8,0,1.4,1.4,0,0,1-.59-.41,3.68,3.68,0,0,1-.79-1.32,4.57,4.57,0,0,1-.19-1.33c0-.16.11-.35-.1-.45s0-.43-.46-.59c0,0,0,0,0,0a3.68,3.68,0,0,1,.07-1.84c.12-.3.42-.54.53-.81a1.79,1.79,0,0,0,.21-.48c0-.26,0-.56,0-.86a.06.06,0,0,1,0,0c.27-.15.27-.48.5-.67s0-.48.41-.39c0-.65.81-.67,1.26-1,.09-.07.14-.29.27-.27s.4-.26.64-.08.55.05.82.13c.62.19,1.13.44,1.76.62a1.68,1.68,0,0,1,.65.39,2.31,2.31,0,0,1,.41.53c.21.38.34.76.53,1.1,0,.08.18.13.21.21s-.12.18-.1.23c.16.34.06.73.29,1a.74.74,0,0,1-.13,1.06c-.07.06,0,.12,0,.18S165.66,111.45,164.56,111.46Z"/><path d="M103.51,78c.74-.31,1.4-.63,2.1-.9a3.54,3.54,0,0,1,1.6-.21,5.93,5.93,0,0,1,1.7.34l1.22.44a11,11,0,0,0,1.25.35l2.09.44c.7.11,1.41.2,2.12.29,1.41.2,2.84.24,4.26.32.51,0,1-.06,1.53-.08a10.16,10.16,0,0,1,1.74-.08,65.15,65.15,0,0,0,14.3-.5c3.39-.37,6.73-1.13,10.07-1.79.86-.18,1.75-.27,2.63-.39a19.58,19.58,0,0,0,2.6-.5c6.37-1.87,12.8-3.52,19-5.79q2.85-1,5.68-2.11l1.35-.53.67-.27.84-.36c1.28-.55,2.57-1.19,4-2l.27-.14s0,.1,0,.16v.2l0,.41,0,.85c0,.58,0,1.18,0,1.77l0,1.75V71a49.86,49.86,0,0,0,1,10.37c.27,1.34.57,2.67.8,4s.52,2.69.81,4a9,9,0,0,0,.52,1.66c.21.53.4,1.07.6,1.61.27.78.53,1.57.86,2.33s.66,1.51,1,2.26a21.1,21.1,0,0,0,2.69,4.09,21.63,21.63,0,0,0,3.67,3.46,13.09,13.09,0,0,0,2.13,1.26,10.29,10.29,0,0,0,1.13.45c.19.07.38.12.58.17l.4.09.47.09a10,10,0,0,0,1.14.62l.08,0,.05.09.56.94.22,2.22c.08.58.21,1.16.32,1.74l.16.87.24.84.24.84a5.84,5.84,0,0,0,.28.83L205,117c.16.38.36.74.54,1.1a11.38,11.38,0,0,0,.6,1.05l.16.26.2.29c.2.29.4.58.62.86l-.05,2.94c0,.83-.11,1.65-.16,2.48,0,.32-.06.63-.1.95l-.19.94c-.13.63-.27,1.25-.42,1.87-.25.86-.48,1.71-.69,2.57s-.49,1.7-.71,2.58a17.59,17.59,0,0,1-1.06,2.7c-.47.86-.89,1.75-1.42,2.57a5.52,5.52,0,0,0-.52.75,9.19,9.19,0,0,1-1,2.09,12.7,12.7,0,0,1-1.42,1.83c-.26.29-.51.58-.78.85l-.83.8-.81.81c-.28.26-.56.52-.83.79-1.47,1.51-3.29,2.64-4.79,4-.64.55-1.29,1.09-2,1.56s-1.37,1-2.09,1.38c-.52.32-1,.62-1.57.89a11.34,11.34,0,0,1-1.71.64,15.12,15.12,0,0,0-1.69.64,13.89,13.89,0,0,0-1.59.88,19.65,19.65,0,0,1-3.28,1.52c-1.17.52-2.36,1-3.55,1.48-.43.16-.86.32-1.29.46a93.43,93.43,0,0,1-12.22,2.79,34.88,34.88,0,0,1-4.67.74l-2.21,0c-.74,0-1.47,0-2.22.1-.93.09-1.86.12-2.79.23a24.58,24.58,0,0,1-7.77-.13c-.42-.08-.9,0-1.35,0-1.34-.11-2.68-.26-4-.41a7.84,7.84,0,0,0-1.34,0,22.79,22.79,0,0,1-5.56-.46c-2.35-.39-4.77-.64-7.15-.89A54.82,54.82,0,0,1,97,155.07l-.78-.46-.77-.48c-.51-.32-1.05-.61-1.54-1A15.58,15.58,0,0,1,92,151.5c-.56-.62-1.14-1.21-1.68-1.83a64,64,0,0,1-5.48-7,28.8,28.8,0,0,1-4-9.27l-.25-1c-.07-.32-.12-.65-.17-1l-.31-1.95c-.07-.65-.13-1.3-.21-1.95l-.13-1c0-.32-.06-.65-.11-1-.08-.62-.15-1.24-.21-1.87s0-1.25,0-1.88c0-.31,0-.63,0-.94l.05-.94c0-.62.07-1.25.14-1.87a72,72,0,0,1,1.28-7.37,59.44,59.44,0,0,1,4-11.38c.86-1.85,1.6-3.77,2.55-5.59a9.76,9.76,0,0,1,.58-1c1.27-1.93,2.36-3.93,3.65-5.84a42.46,42.46,0,0,1,5-6,10,10,0,0,1,3.71-2.41c1-.37,2.07-.79,3.09-1.12.67,1.07.62,1.09-.24,2.05-1.6,1.82-3.3,3.52-5,5.29-1.09,1.13-2,2.39-3,3.6a46.56,46.56,0,0,0-3.4,4.84c-1,1.68-2,3.42-2.85,5.17l-.1.19A56.33,56.33,0,0,0,85.39,107c-.22.76-.44,1.52-.63,2.28l-.53,2.3c-.1.49-.21,1-.33,1.47l-.19.73-.16.74c-.11.52-.28,1-.43,1.56a7.12,7.12,0,0,0-.22,1.56c0,3.24-.3,6.45.17,9.65.07.46.15.93.24,1.39s.21.91.3,1.37.18.91.23,1.37a12.37,12.37,0,0,1,.16,1.39c.18.47.33,1,.51,1.43s.36.94.53,1.41l.24.71.29.69.56,1.39a21.81,21.81,0,0,0,3,5.14A43.35,43.35,0,0,0,96.79,151a44.71,44.71,0,0,0,6.77,4.44,39.68,39.68,0,0,0,7,2.83,62.91,62.91,0,0,0,6.78,1.39c2.15.42,4.32.79,6.48,1.15,2.76.42,5.54.74,8.33,1s5.6.35,8.42.42,5.6,0,8.4,0,5.59-.26,8.37-.55a34.52,34.52,0,0,0,6.35-1c2.88-.85,5.92-1.2,8.59-2.54a3.83,3.83,0,0,1,.63-.2,60.46,60.46,0,0,0,11.28-4.82,44.62,44.62,0,0,0,9.64-7.22,32.43,32.43,0,0,0,7-9.8,32.89,32.89,0,0,0,2.18-6.77c.14-.68.21-1.38.31-2.07s.14-1.38.19-2.08.1-1.39.09-2.09v-1.36a.88.88,0,0,0,0-.11l-.07-.06s0,0-.15-.2-.36-.58-.53-.87a3.9,3.9,0,0,1-.34-.67l-.53-1.29-.45-1.31-.23-.65-.18-.66-.37-1.32a11.77,11.77,0,0,1-.29-1.33l-.25-1.34c0-.22-.09-.45-.11-.67l-.06-.68,0-.34v-.3s0-.1,0-.11h-.3l-.09,0c-.24-.07-.48-.12-.71-.2a12.45,12.45,0,0,1-1.37-.51,9,9,0,0,1-2.38-1.57,18.59,18.59,0,0,1-6.38-6.65A45.39,45.39,0,0,1,185,92.74c-.19-.55-.43-1.09-.66-1.63a11.36,11.36,0,0,1-.52-1.65l-.37-1.58-.4-1.57a19.93,19.93,0,0,1-.52-3.15c-.05-1.4-.26-2.77-.4-4.15-.08-.69-.18-1.37-.25-2.06s-.12-1.37-.16-2.06c-.11-1.41-.11-2.83-.18-4.24v-.8a5.19,5.19,0,0,0,0-.53l-2.39,1-5,2.07c-9.44,3.89-19.4,6.22-29.41,8.14-1.19.24-2.37.53-3.56.73-.81.13-1.66,0-2.46.14a142.56,142.56,0,0,1-15,1.06,45.61,45.61,0,0,1-15.07-1.77,23.45,23.45,0,0,0-2.57-.55C104.51,79.82,104.09,79.51,103.51,78Z"/><path d="M218,116.83a14.94,14.94,0,0,0,0-1.9,2.47,2.47,0,0,1,.26-1.16,2.28,2.28,0,0,1,.33-.46,3.3,3.3,0,0,1,.42-.44l.68-.57a8.44,8.44,0,0,0,.62-.64,9.53,9.53,0,0,0,.89-1.17c.27-.41.54-.82.8-1.24l.67-1.33.32-.67c.1-.23.18-.46.27-.7s.18-.69.27-1a8.74,8.74,0,0,1,.31-1.17c.35-.75.67-1.52,1-2.29s.43-1.61.63-2.42a21,21,0,0,0,.42-2.48c.1-.83.27-1.66.3-2.5,0-.6.07-1.2.1-1.79l0-.9a6.73,6.73,0,0,0,0-.9c-.07-1.2-.14-2.4-.16-3.6a36.77,36.77,0,0,0-.09-3.74c-.11-.58-.16-1.16-.3-1.73s-.24-1.15-.35-1.73c-.23-1.15-.4-2.32-.63-3.45s-.48-2.27-.84-3.37c-.17-.55-.32-1.12-.51-1.66l-.61-1.63c-.23-.67-.55-1.3-.83-1.95l-.42-1-.48-.95A16.12,16.12,0,0,0,219,62.85,25.33,25.33,0,0,1,217.14,60,32.93,32.93,0,0,0,215,57a22.92,22.92,0,0,0-2.6-2.63c-1.46-1.27-2.88-2.63-4.24-4-.61-.6-1.33-1-2-1.5a35.32,35.32,0,0,0-5.84-4.11,77.7,77.7,0,0,0-7.44-3.86c-1.81-.74-3.57-1.55-5.4-2.18l-1-.33-1.18-.35-.42-.26-.25-.13c-.16-.09-.34-.17-.52-.26-.34-.18-.71-.33-1.07-.49s-.73-.31-1.11-.45-.74-.3-1.12-.43c-.8-.26-1.54-.68-2.33-1-.55-.23-1.09-.44-1.66-.62a16.15,16.15,0,0,0-1.74-.38c-.32,0-.62-.13-.94-.2s-.63-.16-.94-.25c-.62-.18-1.25-.39-1.87-.57-.2-.06-.39-.21-.58-.2a8.25,8.25,0,0,1-3.09-.43c-1-.25-2-.58-3-.73l-2.14-.36a10.53,10.53,0,0,0-2.13-.17l-1.74,0h-1.73a8.85,8.85,0,0,1-2.5-.3,5.21,5.21,0,0,0-2.53,0,15.37,15.37,0,0,1-2.51.26c-.89.12-1.77.29-2.65.43-.31.05-.63.11-.94.14-.72.07-1.45.11-2.17.19l-2.17.28-2.17.28c-.72.1-1.45.17-2.15.32-.53.1-1.06.25-1.59.38a13.45,13.45,0,0,1-1.58.31,17,17,0,0,0-3,.43c-.62.19-1.25.35-1.85.57-.86.29-1.68.67-2.55.91a12.55,12.55,0,0,1-1.31.31,9.72,9.72,0,0,1-1.35.21,5.51,5.51,0,0,0-.89.31c-.92.23-1.81.52-2.71.82a3.36,3.36,0,0,0-.85.39,15.51,15.51,0,0,1-3.53,1.71,21.15,21.15,0,0,0-4.33,2.62c-3.45,2.63-6.86,5.25-10.12,8.1-.63.57-1.27,1.12-1.89,1.71s-1.2,1.2-1.79,1.81a23.1,23.1,0,0,0-1.52,2A11.48,11.48,0,0,1,95,56.66c-.4.41-.82.8-1.21,1.22s-.69.76-1,1.15-.63.81-.93,1.23a16,16,0,0,0-1.63,2.64c-.51,1-1.1,2-1.63,3.06S87.41,68,86.92,69c-.2.4-.41.8-.63,1.19s-.44.79-.63,1.2a20.14,20.14,0,0,0-1,2.47c-.95,3.29-2.3,6.43-3,9.78a54,54,0,0,0-.94,8.16,20.47,20.47,0,0,0,.07,2.08c.09.69.2,1.38.28,2.07a5.17,5.17,0,0,1,0,.77,6.26,6.26,0,0,0,.07,1.15c0,.38.11.76.18,1.14.15.75.25,1.51.45,2.25s.35,1.68.48,2.53.33,1.69.46,2.53a6.49,6.49,0,0,1,.06,1.51,5.91,5.91,0,0,1-.27,1.52c-.24.77-.42,1.59-.6,2.37-1.22.27-1.23.21-1.63-.66a20.7,20.7,0,0,1-.94-2.54c-.22-.87-.37-1.76-.52-2.66-.22-1.14-.41-2.3-.56-3.45-.22-1.45-.31-2.92-.5-4.39-.11-.73-.12-1.47-.18-2.21s-.1-1.48-.12-2.22v-.17c0-1.15,0-2.31.08-3.47l.29-3.47c.17-1.2.3-2.41.49-3.61.17-.76.39-1.51.63-2.25.12-.39.3-.78.46-1.16a4.27,4.27,0,0,0,.4-1.15,15,15,0,0,1,1-3.59l.7-1.73c.23-.58.5-1.14.72-1.72s.48-1.38.76-2a7.19,7.19,0,0,1,1.16-1.84c.13-.37.27-.74.43-1.11s.35-.7.54-1c.38-.69.79-1.37,1.2-2s.9-1.3,1.33-2q.32-.49.63-1c.21-.33.43-.65.63-1q.55-.91,1.14-1.79c.39-.59.84-1.13,1.27-1.69s.87-1.11,1.33-1.64l1.42-1.56a26,26,0,0,1,2.27-2.16l1.17-1c.4-.33.81-.66,1.2-1,1.42-1.27,2.92-2.45,4.33-3.73,1.34-1.11,2.52-2.42,3.92-3.47a39.43,39.43,0,0,1,4.14-2.77A69,69,0,0,1,122.57,33a64.27,64.27,0,0,1,12.14-3l2.4-.28a15.08,15.08,0,0,0,2.32-.37,24.4,24.4,0,0,1,3.28-.52,18.67,18.67,0,0,0,3.27-.56,2.16,2.16,0,0,1,.49,0,89.73,89.73,0,0,1,18.5.23c1.54.25,3.08.47,4.61.86l2.29.52c.76.2,1.52.4,2.28.58s1.76.48,2.63.74,1.74.54,2.62.8l.93.27.93.31c.62.2,1.24.4,1.85.64l.93.35.92.4c.31.13.62.27.92.43l.46.23.48.26c.09.06,0,0,0,0h0s0,0,.11.05l.23.1.45.19.9.36,1.8.71c1.2.47,2.38,1,3.52,1.55,1.47.75,3.13,1.18,4.4,2.32,3.86,1.55,7.05,4.28,10.37,6.72a18.13,18.13,0,0,1,2,1.41c.54.55,1.16,1,1.74,1.52A10.93,10.93,0,0,1,214,51.43c1.19,1.64,2.72,3,3.93,4.55a69.23,69.23,0,0,1,7.42,12c.42.84.76,1.72,1.13,2.59s.61,1.78.9,2.68.46,1.83.69,2.74.32,1.82.47,2.74l.43,2.73c.08.45.11.92.15,1.38l.12,1.38.25,2.76.09,2.79a22.3,22.3,0,0,1,.13,2.65c0,.6-.28,1.19-.3,1.78l-.07,1.37c0,.45-.12.91-.18,1.36-.14.91-.26,1.81-.42,2.72s-.42,1.79-.61,2.7c-.08.45-.22.9-.34,1.34l-.36,1.35a19.89,19.89,0,0,1-.87,2.66,18.77,18.77,0,0,1-1.19,2.56l-.33.62c-.12.2-.26.4-.38.6q-.39.59-.8,1.18c-.27.39-.6.74-.9,1.1a10.78,10.78,0,0,1-1,1,6.06,6.06,0,0,0-.65.73l-.63.77C219.9,117.26,219.43,117.41,218,116.83Z"/><path d="M206.91,123.18c.36-.35.69-.72,1-1.07.43-.51.52-.61.51-.46a.93.93,0,0,0,0,.33.58.58,0,0,0,.55.3s.1-.08.15-.11.12-.16.16-.1a.72.72,0,0,0,.54.39,6.06,6.06,0,0,0,.62,0,.89.89,0,0,0,.45-.07,3.31,3.31,0,0,1,.44-.13c.15,0,.38.29.52.17.49-.46,1.13-.37,1.67-.67l.49-.23a1.08,1.08,0,0,0,.23-.12.39.39,0,0,0,.11-.28c0-.21.26-.11.41-.16.3-.11.63-.26.63-.65a.47.47,0,0,1,.15-.33.85.85,0,0,1,.33-.21c.13-.05,0-.21.1-.3.2-.25.45-.49.41-.85s.2-.73.13-1.13,0-.52,0-.79a8.48,8.48,0,0,0-.25-.95c0-.11.06-.21.12-.32a.35.35,0,0,0,0-.46c-.14-.16.05-.33.11-.5s.13-.06.08-.08c-.28-.11-.24-.24-.12-.39s.28-.3.29-.44.3-.45.07-.58a.75.75,0,0,1-.27-.38c-.05-.09,0-.21.15-.39s.12-.29-.09-.31-.21-.14-.29-.22a1.35,1.35,0,0,0-.38-.16.29.29,0,0,1-.12-.06,3.71,3.71,0,0,0-.67-.72c-.09-.09-.36,0-.35-.15s0-.37-.08-.44a.3.3,0,0,0-.21-.08c-.27,0-.43,0-.37-.63,0-.09-.07,0-.09-.08s-.13-.29-.21-.43-.06-.08-.12,0c-.25.17-.33-.07-.48-.22a.58.58,0,0,0-.68-.11,3.45,3.45,0,0,1-1.66.17,1.53,1.53,0,0,0-.61.06c-.1,0-.14.21-.2.29s-.31-.06-.47-.05a.5.5,0,0,0-.57.47,1.59,1.59,0,0,1-.34.81c-.1.19-.41.27-.36.55.12.53-.36.78-.39,1.25a6.12,6.12,0,0,0-.08,1.1c0,.19.24.42.36.62a.11.11,0,0,1,0,.11c-.07.2.17.43.3.64a.76.76,0,0,1,.06.67c0,.13-.35.23-.93.34s-.82.18-1.2.28c-1.25,0-1.25,0-1.41-.15a.78.78,0,0,1-.2-.85c0-.18,0-.36,0-.54a5.45,5.45,0,0,0-.17-1.43v0c0-.38,0-.77,0-1.16a4.76,4.76,0,0,1,0-.64.76.76,0,0,1,.19-.36c.1-.12.39-.16.33-.33-.18-.55.32-.82.45-1.27.07-.26,0-.66.5-.66a1.07,1.07,0,0,1,.49-.82,2.71,2.71,0,0,0,.72-.69,2.57,2.57,0,0,1,1.55-1,4.46,4.46,0,0,1,1.38,0h.58a4.39,4.39,0,0,0,.55,0c.33-.06.68-.32,1-.36a1.93,1.93,0,0,1,.92.13,8,8,0,0,1,1.09.4c.36.18.71.38,1,.58s.63.52.92.79.52.62.76.91.22.6.57.67a.86.86,0,0,1,.49.4.73.73,0,0,0,.57.37s0,0,.06.08l.23.38.18.39c.12.26.25.52.35.79a5,5,0,0,1,.31,1.63c0,.56-.25,1.1-.24,1.62a3.78,3.78,0,0,0,0,.89c.09.42.23.85.35,1.3a.11.11,0,0,1,0,.08c-.27.39-.11.85-.29,1.25-.11.25.19.63-.26.79a1.26,1.26,0,0,1-.15,1.06,3.94,3.94,0,0,0-.52,1c-.05.15.06.4-.07.51s-.17.62-.55.71-.56.53-.88.74a14.43,14.43,0,0,0-2,1.55,3.31,3.31,0,0,1-.83.56,5.51,5.51,0,0,1-.94.3c-.65.13-1.29.18-1.92.31-.15,0-.29.17-.45.18s-.22-.19-.33-.18c-.65.07-1.26-.16-2-.07a1.89,1.89,0,0,1-1.94-.89c-.07-.13-.22-.15-.36-.18S206.19,124.3,206.91,123.18Z"/><path d="M209.31,49.69c-.46-.21-.93-.36-1.36-.51-.63-.21-.76-.33-.61-.46a1.52,1.52,0,0,0,.32-.28,1.58,1.58,0,0,0,.11-1.06c0-.06-.1-.12-.14-.19s-.18-.14-.13-.21a1.63,1.63,0,0,0,.22-.93c0-.31-.11-.6-.13-.91s-.35-.81-.45-1.24c0-.22.2-.55,0-.73a3.74,3.74,0,0,1-.63-1.13c-.18-.39-.32-.81-.53-1.19-.13-.23-.27-.45-.4-.69s-.23-.46-.54-.55-.18-.39-.27-.58a1.9,1.9,0,0,0-.87-1.08,1.37,1.37,0,0,1-.7-.86c-.06-.17-.29-.15-.38-.29a2.12,2.12,0,0,0-1-1c-.53-.2-.85-.64-1.37-.84-.35-.15-.65-.37-1-.51s-.9-.27-1.32-.44a.92.92,0,0,1-.35-.36.68.68,0,0,0-.61-.31c-.29,0-.4-.29-.59-.47,0,0,0-.16-.06-.13-.62.29-.6-.56-.93-.81s-.33-.58-.66-.54a1.52,1.52,0,0,1-.68-.13c-.16,0-.29-.14-.33-.43s-.21-.34-.43-.23-.35,0-.51,0a3.59,3.59,0,0,0-.56,0,.66.66,0,0,1-.19,0c-.53-.15-1.06-.31-1.6-.44-.2-.05-.47.1-.62-.09s-.28-.41-.47-.45a1.2,1.2,0,0,0-.37,0c-.38.06-.71,0-.91-.59,0-.1-.12,0-.17-.08s-.3-.31-.45-.44-.11-.08-.18,0c-.3.17-.5,0-.73-.19a1.12,1.12,0,0,0-1-.11,5.79,5.79,0,0,1-2.49,0,3.18,3.18,0,0,0-1-.1c-.16,0-.31.17-.47.22s-.44-.17-.66-.23a1.14,1.14,0,0,0-1.16.16,3.1,3.1,0,0,1-1.25.47c-.32.1-.7,0-1,.2a2,2,0,0,1-.88.4,3.11,3.11,0,0,0-.92.26,12.74,12.74,0,0,0-1.33.77,2.85,2.85,0,0,0-.47.75.22.22,0,0,1-.11.1c-.26.11-.36.48-.51.73a1.29,1.29,0,0,1-.66.58c-.14.07-.47-.08-.94-.43a11.18,11.18,0,0,0-1.06-.67c-.86-.91-.83-.94-.77-1.19a1.3,1.3,0,0,1,.77-.89c.22-.1.38-.3.6-.42A10.88,10.88,0,0,0,173,27.64l0,0,.59-.44.62-.41c.22-.14.42-.33.64-.46a1.05,1.05,0,0,1,.49-.1c.18,0,.43.19.55,0a1.08,1.08,0,0,1,.7-.4,2.7,2.7,0,0,0,.77-.16c.28-.13.53-.46.9-.14.58-.56,1.31-.1,1.93-.45a3.14,3.14,0,0,1,1.76-.24,6.56,6.56,0,0,1,1.3.38,3.31,3.31,0,0,0,1.17.13c.36,0,.75-.31,1.12-.33a3.29,3.29,0,0,1,1,.13l1.27.32c.41.13.81.29,1.22.45A18.32,18.32,0,0,1,191.36,27c.29.15.53.44.89.34.53-.14.82.38,1.42.05,0,0,.06,0,.09,0,.57.25,1.15.48,1.73.73a7.51,7.51,0,0,1,1.65.88c.51.38.92.93,1.44,1.26a5.85,5.85,0,0,0,.92.57,14.64,14.64,0,0,0,1.54.47.16.16,0,0,1,.08.06c.31.46.89.53,1.25.93.23.25.74.16.76.68a1.87,1.87,0,0,1,1.11.64,5.69,5.69,0,0,0,.87.95c.14.1.42.06.5.22s.58.33.62.72.45.72.66,1.08A11.27,11.27,0,0,0,208.65,39a4.45,4.45,0,0,1,.69,1,5.54,5.54,0,0,1,.48,1.09l.36,1.14c.13.37.21.77.35,1.14.06.18.24.33.29.51s-.15.3-.11.42a8.39,8.39,0,0,1,.19,1.16,3.82,3.82,0,0,0,.21,1.16,3.3,3.3,0,0,1,.17,1.2,2.42,2.42,0,0,1-.45,1.2c-.1.13,0,.27,0,.43s0,.23-.23.27A4.77,4.77,0,0,1,209.31,49.69Z"/><path d="M207.85,50.05c-.08-.53-.19-1-.25-1.53-.09-.72.14-1,.55-1.12a5.69,5.69,0,0,0,.87-.2,11.31,11.31,0,0,0,2.37-1.46,2.33,2.33,0,0,0,.32-.4c.12-.15.2-.37.38-.43a7.62,7.62,0,0,0,2-1.13c.62-.46,1.22-.94,1.8-1.44a10.66,10.66,0,0,0,1.19-1.12c.36-.4.72-.81,1.12-1.18s1-.58,1.34-1a59.59,59.59,0,0,0,3.5-5.14c.15-.27.29-.55.41-.84l.4-.85a3.72,3.72,0,0,0,.39-1.73,1.4,1.4,0,0,1,.16-.7c.09-.23.2-.46.27-.7a7.63,7.63,0,0,0,.31-1.58,5.32,5.32,0,0,0,0-.8,3.23,3.23,0,0,0-.14-.8,8.47,8.47,0,0,1-.23-1.24c0-.21,0-.42,0-.64s0-.43,0-.64a1.38,1.38,0,0,0-.14-.53,2.2,2.2,0,0,1-.21-.5A7.83,7.83,0,0,0,223,19.41a22.71,22.71,0,0,0-2.15-3c-.3-.31-.58-.64-.87-1a11.31,11.31,0,0,0-.89-.94,29.49,29.49,0,0,0-2.47-2,6,6,0,0,1-.78-.83,3.23,3.23,0,0,0-1.24-1c-.54-.21-.88-.73-1.34-1.09-.07-.06-.09-.22-.18-.22-1.07,0-1.46-1.13-2.27-1.63-.55-.33-1-.91-1.65-1a10.33,10.33,0,0,1-1.49-.48,1.86,1.86,0,0,1-1-.65,1.08,1.08,0,0,0-1.06-.43A3.25,3.25,0,0,1,204.58,5c-.4-.06-.81-.08-1.21-.11a2.54,2.54,0,0,1-.43,0,32.94,32.94,0,0,0-3.82-.73,5.93,5.93,0,0,1-1.46-.09,4,4,0,0,0-1.33-.42,4.7,4.7,0,0,0-.87,0A3.3,3.3,0,0,1,193,3.19c-.13-.08-.28,0-.42,0-.42-.09-.85-.21-1.28-.27a.7.7,0,0,0-.42,0,3.1,3.1,0,0,1-1.77.11,4.84,4.84,0,0,0-1.14.08,6.34,6.34,0,0,0-1.1.35c-1.82.76-3.61,1.36-5.38,2.13a12.2,12.2,0,0,0-2,1,7.78,7.78,0,0,0-.79.79,6,6,0,0,1-1.37.74,10,10,0,0,0-1.13.81,4.88,4.88,0,0,0-.88,1.08,8.91,8.91,0,0,1-.87,1.29c-.29.42-.63.81-.91,1.23a7.65,7.65,0,0,0-1.29,2c-.42,1.46-1.28,2.69-1.54,4.18a15.46,15.46,0,0,0-.32,3.55,7,7,0,0,0,.48,1.78,1,1,0,0,1,.05.33,5.18,5.18,0,0,0,.63,1.89,11.76,11.76,0,0,1,.62,2.08,1.9,1.9,0,0,1-.46,1.46,10,10,0,0,0-.74,1.31c-1.14.52-1.16.48-1.49.12a4.92,4.92,0,0,1-1.06-2.35c-.11-.54-.31-1.06-.41-1.61-.23-1.37-.64-2.73-.79-4.17V23a22.65,22.65,0,0,1,0-3.38,16.24,16.24,0,0,1,.19-1.79,4.43,4.43,0,0,1,.38-1.09c.16-.38.55-.68.58-1.07A4.38,4.38,0,0,1,169,14c.31-.53.62-1.05.9-1.59.16-.32.27-.67.45-1a1.8,1.8,0,0,1,.77-.75c.59-1.49,2-2.31,2.91-3.5a10.72,10.72,0,0,1,1.41-1.47A19.81,19.81,0,0,1,177,4.48a17.78,17.78,0,0,1,2.81-1.27c.86-.36,1.71-.7,2.54-1.09s1.47-.87,2.26-1.2c.38-.14.76-.25,1.15-.35s.79-.16,1.18-.22A29,29,0,0,1,193,0a36.34,36.34,0,0,1,5.79.84,7.11,7.11,0,0,0,2.18.41c1.08-.1,2,.54,3.13.31.08,0,.15,0,.23.05,1.4.4,2.79.83,4.15,1.36a26,26,0,0,1,3.93,1.91c1.26.77,2.36,1.78,3.54,2.65.34.25.68.52,1,.8s.66.54,1,.8c1,.71,2,1.37,2.94,2.14a.87.87,0,0,1,.16.17c.69,1,1.65,1.78,2.33,2.81.44.65,1.22,1.1,1.32,2a5.48,5.48,0,0,1,.94,1.18c.13.22.25.44.37.66s.21.47.3.7c.39.94.65,1.93,1,2.89a4.44,4.44,0,0,1,.49,1.14A9.1,9.1,0,0,0,228,24a2.35,2.35,0,0,1,.07,1.15,7.87,7.87,0,0,0-.11,1.51l0,.75a7.31,7.31,0,0,1-.07.74,34.86,34.86,0,0,1-1.79,6.67,16.21,16.21,0,0,1-2.74,4.6c-.59.65-1.14,1.34-1.77,1.94l-.9.94-.91.91c-.29.29-.49.68-.8.94s-.56.21-.75.39-.62.56-.94.82l-1,.75c-.33.25-.66.51-1,.77a12.35,12.35,0,0,0-1,.8c-.3.29-.62.56-.94.83s-.67.49-1,.71a8.52,8.52,0,0,1-2.28,1,2,2,0,0,0-.71.47C209,51.09,208.81,51,207.85,50.05Z"/><path class="cls-6" d="M169.24,83.31s7.15-5.27,7.58,4.6"/><path d="M183,54.38c.14.49.28,1,.39,1.43.16.67,0,.93-.33,1a3.67,3.67,0,0,0-.69.06,6.7,6.7,0,0,0-1.82,1,1.75,1.75,0,0,0-.25.3c-.09.12-.16.29-.3.31a10.67,10.67,0,0,0-3.2,1.28c-.73.35-1.41.82-2.14,1.17-.38.18-.91,0-1.25.3a7.07,7.07,0,0,1-1,.63c-.35.17-.72.32-1.09.46-.73.28-1.48.53-2.2.84a13.7,13.7,0,0,1-1.35.48,2.83,2.83,0,0,0-1.23.62c-.29.28-.73.2-1.11.28a6.42,6.42,0,0,0-2.35.79,3.66,3.66,0,0,1-1.89.53c-.3,0-.5.25-.78.3a8.05,8.05,0,0,0-2.3.63c-.84.45-1.79.51-2.65.92-.6.27-1.24.42-1.85.64s-1.48.61-2.24.88a2.72,2.72,0,0,1-.87.09,2.29,2.29,0,0,0-1.18.26,2.81,2.81,0,0,1-1.32.12c-.07,0-.17-.11-.22,0-.6.68-1.41.05-2.1.1-.48,0-1-.2-1.44,0a4,4,0,0,1-1.12.33,1,1,0,0,1-.86-.15.64.64,0,0,0-.84.07c-.26.24-.54.2-.81.29s-.57.24-.85.35a1.45,1.45,0,0,1-.31.1c-1,.13-1.92.24-2.89.39-.36,0-.72.31-1.09.2a2.83,2.83,0,0,0-1-.2,3.6,3.6,0,0,0-.65.09,1.76,1.76,0,0,1-1.82-.26c-.1-.08-.21,0-.32,0-.32-.09-.63-.2-.95-.28a.38.38,0,0,0-.31,0c-.43.27-.86.08-1.3,0a3.17,3.17,0,0,0-1.67.06,12,12,0,0,1-4.3.19c-.56-.06-1.12-.12-1.69-.14a5.85,5.85,0,0,0-.84.16c-.39,0-.75-.22-1.13-.32a3.9,3.9,0,0,0-2-.09,7,7,0,0,1-2.33.09,8.16,8.16,0,0,0-1.79-.2c-1.18.23-2.27-.27-3.42-.31-.93,0-1.84-.19-2.78-.23a9,9,0,0,0-1.47.21.64.64,0,0,1-.27,0,5.3,5.3,0,0,0-1.64.07,4.67,4.67,0,0,1-1.79-.27c-.34-.11-.61-.49-.77-1.13-.12-.48-.27-.91-.39-1.34.37-1.2.38-1.19.7-1.27a3,3,0,0,1,1.69.17c.35.11.72.12,1.07.21a12.66,12.66,0,0,0,2.78.16h.05c.72,0,1.44.07,2.17.07.38,0,.76,0,1.14,0a2.58,2.58,0,0,1,.7.15c.25.08.47.38.73.29.81-.27,1.54.14,2.31.11.45,0,.93-.24,1.33.19,1-.33,1.94.25,2.93.06a8.61,8.61,0,0,1,2.62,0c.64.09,1.28.35,1.93.46a6.81,6.81,0,0,0,1.78.11c.55-.05,1.09-.33,1.63-.41a9.21,9.21,0,0,1,1.54,0l3.92.16c1.3.08,2.61.15,3.92.2a2.65,2.65,0,0,0,1.49-.1c.67-.37,1.41,0,2-.63,0,0,.1,0,.15,0,1-.12,1.92-.28,2.88-.41s1.91-.29,2.88-.35a28.65,28.65,0,0,0,3-.11,10.89,10.89,0,0,0,1.68-.28c.76-.27,1.5-.64,2.24-1a.39.39,0,0,1,.15,0,11.79,11.79,0,0,0,2.34-.52c.51-.09.91-.59,1.51-.34,1.1-.81,2.46-.7,3.66-1.19.24-.1.41-.38.67-.41.49,0,.85-.46,1.36-.39.68.1,1.21-.28,1.81-.42a15.15,15.15,0,0,0,4-1.56,15.56,15.56,0,0,1,3.13-1.44,27.7,27.7,0,0,0,3.16-1.36c.24-.13.43-.35.68-.47s.42,0,.58-.07a23.94,23.94,0,0,0,3-1.61,6.1,6.1,0,0,1,3.06-1.48,1,1,0,0,0,.49-.32C181.94,53.26,182.12,53.36,183,54.38Z"/><path d="M172.65,46.32c.11.5.22,1,.3,1.43.12.66,0,.88-.28.84a2.62,2.62,0,0,0-.56-.08,4,4,0,0,0-1.49.52c-.08,0-.14.16-.2.24s-.13.25-.25.24a6.36,6.36,0,0,0-2.56.69c-.6.19-1.1.62-1.69.81-.31.11-.74-.11-1,.08a14.34,14.34,0,0,1-3.39,1.28c-.35.13-.7.23-1.05.33a1.73,1.73,0,0,0-.95.49c-.22.24-.58.11-.88.13a3.5,3.5,0,0,0-1.83.54,2.21,2.21,0,0,1-1.47.35c-.23,0-.38.21-.59.25A4.79,4.79,0,0,0,153,55c-.65.35-1.39.39-2,.73-.46.24-1,.33-1.42.53s-1.12.56-1.69.81a1.64,1.64,0,0,1-.67.06,1.4,1.4,0,0,0-.91.22c-.3.21-.68.07-1,.08-.05,0-.14-.11-.17-.06-.42.65-1.1,0-1.63.06-.37,0-.8-.2-1.12,0a2.58,2.58,0,0,1-.84.33.64.64,0,0,1-.68-.14.42.42,0,0,0-.65.06c-.18.23-.4.2-.61.28a6.08,6.08,0,0,0-.64.35.92.92,0,0,1-.23.11c-.73.15-1.47.28-2.21.45-.28.06-.53.34-.83.23a1.84,1.84,0,0,0-.82-.19,2.16,2.16,0,0,0-.5.1,1.16,1.16,0,0,1-1.43-.2c-.08-.08-.16,0-.25,0-.25-.07-.5-.17-.75-.24a.24.24,0,0,0-.24,0c-.31.28-.66.15-1,0a1.92,1.92,0,0,0-1.29.11,7.51,7.51,0,0,1-3.31.41,11.14,11.14,0,0,0-1.31-.07,3.77,3.77,0,0,0-.64.21c-.3.07-.59-.18-.88-.25a3.36,3.36,0,0,0-.79-.11,1.78,1.78,0,0,0-.8.14,4.7,4.7,0,0,1-1.8.22c-.47,0-.92-.21-1.39-.08-.91.28-1.77-.13-2.67-.08-.72,0-1.44-.09-2.17,0a6.86,6.86,0,0,0-1.16.31.4.4,0,0,1-.21,0,3.29,3.29,0,0,0-1.29.18,3.14,3.14,0,0,1-1.42-.16c-.27-.09-.48-.46-.59-1.07s-.18-.88-.25-1.3c.37-1.2.38-1.19.62-1.29a1.77,1.77,0,0,1,1.29,0c.26.09.55.07.82.14a8,8,0,0,0,2.13,0h0l1.67-.09c.29,0,.58-.08.87-.09a1.52,1.52,0,0,1,.54.1c.19.06.37.34.56.24.62-.33,1.18,0,1.77,0,.35,0,.7-.31,1,.09.76-.41,1.49.13,2.24-.1a5,5,0,0,1,2-.16c.5,0,1,.29,1.5.37a3.6,3.6,0,0,0,1.37,0c.42-.08.82-.38,1.23-.49a4.39,4.39,0,0,1,1.18-.1c1,0,2,0,3,0s2,.1,3,.12c.39,0,.8.13,1.14-.15s1.09-.07,1.54-.66c0,0,.08,0,.12,0,.74-.11,1.47-.26,2.21-.38a17.35,17.35,0,0,1,2.21-.35c.75-.06,1.55.07,2.3,0a6.21,6.21,0,0,0,1.3-.22,19,19,0,0,0,1.69-.9.23.23,0,0,1,.12,0,9.4,9.4,0,0,0,1.81-.41c.4-.05.69-.52,1.18-.24.83-.71,1.91-.53,2.83-.94.18-.08.3-.36.51-.35.39,0,.66-.38,1.07-.25s1-.17,1.43-.24a10.6,10.6,0,0,0,1.65-.38,7.73,7.73,0,0,0,1.53-.72c1.54-1,3.39-1.09,5-1.82.19-.09.34-.29.53-.37s.34.09.47,0a14.41,14.41,0,0,0,2.4-1.06,3.61,3.61,0,0,1,2.52-.79c.17,0,.28-.11.4-.21S171.94,45.18,172.65,46.32Z"/><path d="M212.07,99.52c-.18.47-.35.93-.53,1.34-.27.61-.47.7-.61.52a2.15,2.15,0,0,0-.29-.38,3.42,3.42,0,0,0-1.16-.47c-.07,0-.17,0-.25,0s-.22.1-.28,0a2.19,2.19,0,0,0-.84-.69c-.29-.18-.6-.33-.89-.52a3.11,3.11,0,0,0-.66-.31,3.12,3.12,0,0,1-.65-.34c-.21-.15-.22-.58-.47-.64a2.71,2.71,0,0,1-1.19-.75c-.34-.32-.66-.66-1-1s-.38-.41-.56-.63a1.17,1.17,0,0,0-.66-.49c-.26-.06-.24-.38-.33-.59a2.31,2.31,0,0,0-.89-1.13,1.28,1.28,0,0,1-.59-1c0-.18-.26-.2-.32-.36a2.72,2.72,0,0,0-.7-1.18c-.44-.36-.56-.91-1-1.29a6.28,6.28,0,0,1-.67-.92c-.28-.36-.65-.69-.94-1.06a1,1,0,0,1-.11-.5.76.76,0,0,0-.31-.62c-.24-.17-.15-.49-.19-.74,0,0,.09-.13,0-.14-.66-.17-.1-.82-.2-1.21s.12-.63-.12-.83a1.44,1.44,0,0,1-.37-.56.44.44,0,0,1,.09-.53c.16-.21.11-.38-.12-.46s-.23-.26-.32-.39a3.89,3.89,0,0,0-.39-.4.55.55,0,0,1-.12-.15l-.59-1.55c-.07-.19-.36-.34-.29-.57a1.11,1.11,0,0,0,.1-.64,1.2,1.2,0,0,0-.14-.35.71.71,0,0,1,.08-1.08c.07-.07,0-.12,0-.18s.13-.39.18-.59,0-.13,0-.17c-.3-.18-.17-.46-.11-.73a1.08,1.08,0,0,0-.24-.91,4.12,4.12,0,0,1-.71-2.34,6.27,6.27,0,0,0-.09-1c0-.15-.21-.28-.28-.43s.11-.46.15-.68a1.27,1.27,0,0,0-.22-1.13,2.5,2.5,0,0,1-.46-1.25c-.07-.33.1-.7-.12-1-.42-.6-.16-1.28-.34-1.91s-.18-1-.35-1.54a3.57,3.57,0,0,0-.53-.76.22.22,0,0,1,0-.15c0-.3-.27-.58-.44-.87a1.61,1.61,0,0,1-.17-1c0-.2.32-.42.89-.61s.8-.3,1.19-.44c1.25,0,1.25,0,1.41.16a1,1,0,0,1,.27.93,5.54,5.54,0,0,0,.05.61,4.64,4.64,0,0,0,.48,1.52v0c.13.39.25.79.39,1.18.07.2.19.4.25.61a.83.83,0,0,1,0,.41c0,.15-.28.32-.14.44.43.39.14.85.31,1.27.1.24.39.46,0,.76.5.48.08,1.1.41,1.6a2.62,2.62,0,0,1,.38,1.42c0,.36-.17.76-.19,1.14a2.36,2.36,0,0,0,.12,1c.12.29.45.53.6.81a2.37,2.37,0,0,1,.21.84c.1.72.17,1.45.24,2.18s.07,1.47.14,2.2c0,.28-.08.61.2.81s.15.77.76,1c0,0,0,.05,0,.08.16.51.36,1,.55,1.51a12.3,12.3,0,0,1,.47,1.53,11,11,0,0,0,.23,1.65,3.52,3.52,0,0,0,.34.87,6.9,6.9,0,0,0,1,1,.11.11,0,0,1,0,.07c0,.48.4.77.56,1.17s.57.32.37.75a1.42,1.42,0,0,1,.71.78,3.08,3.08,0,0,0,.48.91c.09.1.37.07.39.22s.43.3.39.64.29.6.45.88a6.47,6.47,0,0,0,.64,1,3.18,3.18,0,0,0,.91.69A5.65,5.65,0,0,1,206.71,95a5.23,5.23,0,0,0,.64.59,5.08,5.08,0,0,0,.71.5c.12.08.31,0,.42.09s.06.27.14.31a4.87,4.87,0,0,1,.73.44,1.74,1.74,0,0,0,.82.25,2,2,0,0,1,.83.19,1.58,1.58,0,0,1,.72.59c.07.1.19.06.29,0S212.22,98.19,212.07,99.52Z"/><path d="M219.84,90.22c-.29.4-.58.81-.85,1.16-.4.53-.59.58-.65.39a1.78,1.78,0,0,0-.12-.41,1.63,1.63,0,0,0-.81-.59c-.06,0-.15,0-.22,0s-.21.08-.24,0c-.23-.68-.77-.86-1.2-1.22s-.72-.35-1-.59c-.16-.13-.12-.53-.33-.58-.82-.19-1.22-.92-1.81-1.4a3.74,3.74,0,0,1-.49-.49c-.15-.17-.28-.35-.58-.35s-.22-.3-.31-.47a1.56,1.56,0,0,0-.83-.87.92.92,0,0,1-.58-.76c0-.16-.25-.13-.31-.26a1.94,1.94,0,0,0-.71-.91c-.44-.23-.59-.68-1-.94a7.3,7.3,0,0,1-.71-.66c-.29-.27-.66-.48-1-.75a.7.7,0,0,1-.15-.41.59.59,0,0,0-.34-.49c-.24-.1-.17-.4-.23-.62,0,0,.08-.13,0-.13-.66,0-.18-.69-.28-1s.08-.58-.17-.7a1,1,0,0,1-.4-.42c-.08-.11-.11-.25.05-.48s.08-.35-.14-.38-.24-.18-.34-.28a4.59,4.59,0,0,0-.41-.29.42.42,0,0,1-.13-.11L202.89,74c-.08-.16-.37-.24-.31-.46s.15-.41.08-.57a.89.89,0,0,0-.16-.28c-.23-.23-.37-.5,0-.94.07-.07,0-.1,0-.16s.12-.35.16-.53,0-.11,0-.14c-.3-.13-.18-.38-.12-.62a.79.79,0,0,0-.26-.76,3,3,0,0,1-.73-2,5.77,5.77,0,0,0-.09-.81c0-.13-.2-.23-.28-.36s.11-.39.15-.59a.92.92,0,0,0-.2-1,1.88,1.88,0,0,1-.43-1.07c-.07-.28.13-.6-.08-.87-.41-.52-.1-1.1-.25-1.65s-.13-.89-.25-1.34a3.18,3.18,0,0,0-.48-.69.17.17,0,0,1,0-.13c0-.26-.23-.52-.37-.79a1.24,1.24,0,0,1-.08-.91c0-.18.36-.34.95-.45l1.23-.25c1.24.16,1.24.15,1.38.3a.71.71,0,0,1,.18.78,4.08,4.08,0,0,0,0,.5,3.14,3.14,0,0,0,.36,1.28v0c.11.33.19.66.31,1,.06.17.17.34.21.5a.61.61,0,0,1,0,.33c0,.12-.29.26-.17.36.4.32.1.7.26,1s.37.37,0,.62c.49.39,0,.9.36,1.3a1.85,1.85,0,0,1,.35,1.15c0,.3-.19.64-.2.95a1.61,1.61,0,0,0,.12.81c.11.23.45.4.59.62a1.64,1.64,0,0,1,.21.67c.1.58.18,1.18.27,1.78s.11,1.22.21,1.82c0,.23-.06.53.23.65s.18.63.77.71c0,0,0,0,0,.06a21.17,21.17,0,0,1,1.15,2.37,7.29,7.29,0,0,0,.32,1.36,2.26,2.26,0,0,0,.38.69,7.32,7.32,0,0,0,1,.65.08.08,0,0,1,0,.06c0,.42.45.57.61.9s.55.16.39.59c.76.13.74.9,1.21,1.26.09.07.35,0,.37.12s.42.2.39.51.3.49.45.74a3.23,3.23,0,0,0,1.46,1.32,3.26,3.26,0,0,1,1.26.93,7.19,7.19,0,0,0,1.19,1c.11.06.27,0,.38.11s0,.27.1.31c.46.24.77.71,1.31.82a1.39,1.39,0,0,1,1.22,1c0,.11.15.1.25.11S220.37,89,219.84,90.22Z"/><path d="M207.13,38.92l-.41-1.39c-.18-.64-.15-.81,0-.72A1.46,1.46,0,0,0,207,37a.87.87,0,0,0,.7-.19s0-.12.06-.18,0-.2.08-.17c.55.24.84-.08,1.23-.2s.45-.35.7-.49.43.16.51,0c.31-.55.93-.58,1.38-.9a3.31,3.31,0,0,1,.44-.24c.14-.07.31-.12.31-.38s.25-.1.39-.14c.31-.07.6-.17.69-.51s.28-.36.58-.37c.13,0,.08-.2.17-.24.26-.12.56-.22.64-.53s.43-.49.53-.83a4.76,4.76,0,0,1,.31-.61,8.22,8.22,0,0,0,.22-.85c0-.1.15-.13.25-.17a.28.28,0,0,0,.21-.34c0-.2.23-.2.35-.29s.14,0,.11,0c-.34-.5.42-.28.6-.46s.47-.11.4-.33a.62.62,0,0,1,0-.42c0-.1.1-.16.36-.13s.3-.08.16-.24,0-.23,0-.34a2,2,0,0,0-.1-.38.27.27,0,0,1,0-.13,8.07,8.07,0,0,0,.26-1c0-.12-.15-.31,0-.39s.34-.13.36-.24a.45.45,0,0,0,0-.23c-.08-.24-.06-.44.5-.5.09,0,0-.07.06-.1s.27-.16.39-.24.07-.06,0-.11c-.2-.21,0-.31.16-.44a.45.45,0,0,0,.08-.59,1.94,1.94,0,0,1,0-1.54,2.07,2.07,0,0,0,.13-.59c0-.1-.15-.2-.19-.3s.19-.26.28-.39a.52.52,0,0,0,0-.72,1.21,1.21,0,0,1-.3-.8c0-.21.17-.43,0-.63-.37-.37-.07-.79-.24-1.17a8,8,0,0,0-.34-.91c-.08-.15-.36-.26-.55-.38s-.06,0-.05-.08c0-.18-.3-.29-.48-.42a.56.56,0,0,1-.24-.51c0-.11.27-.29.8-.55s.73-.39,1.08-.58c1.18-.4,1.19-.38,1.38-.31a.59.59,0,0,1,.41.61c0,.15.11.28.13.43,0,.37.38.67.59,1v0l.42.82c.07.14.19.28.25.43a.44.44,0,0,1,0,.3c0,.11-.29.24-.16.33.41.28.1.63.24.93s.36.35,0,.55c.45.39-.05.81.19,1.2a1.36,1.36,0,0,1,.11,1.09c-.05.27-.33.52-.44.78a1.39,1.39,0,0,0-.13.72c0,.23.27.49.32.73a1.18,1.18,0,0,1-.08.65c-.09.26-.18.53-.27.79s-.22.51-.35.76a16.21,16.21,0,0,1-.88,1.42c-.12.18-.38.3-.24.56s-.28.5.06,1c0,0,0,0,0,.06a7.2,7.2,0,0,1-1.16,2.15c-.3.3-.75.49-1,.8a2,2,0,0,0-.44.54c-.12.32-.15.71-.24,1.06a.07.07,0,0,1,0,0c-.37.13-.41.53-.68.73s-.05.54-.48.43a.81.81,0,0,1-.42.71,2.06,2.06,0,0,0-.65.48c-.06.09,0,.33-.11.35s-.19.39-.49.34-.48.22-.72.33a4,4,0,0,0-.78.44,2.21,2.21,0,0,0-.64.62c-.56.86-1.65.89-2.39,1.43-.09.06-.13.22-.23.26s-.23-.12-.29-.08c-.38.25-.87.26-1.19.64a1.06,1.06,0,0,1-1.33.31c-.1,0-.15.05-.2.12S207.71,40.11,207.13,38.92Z"/><path class="cls-7" d="M184.68,122.95c0,2.53-3.23,4.59-7.2,4.59s-7.21-2.05-7.21-4.59,3.22-4.58,7.21-4.58S184.68,120.42,184.68,122.95Z"/><path class="cls-7" d="M186.08,122.95c-.95-.28-1.45-.38-1.47-.61a2.64,2.64,0,0,0-.36-1.4,3,3,0,0,0-1.28-1,11,11,0,0,0-2.81-.57,18.67,18.67,0,0,0-2-.52,2.15,2.15,0,0,0-.74.18c-.24.11-.48.23-.7.33a2.39,2.39,0,0,1-.62.14c-.31.07-.62.14-.93.18a6.32,6.32,0,0,0-1.79.35,2.75,2.75,0,0,0-1.2.91,2.14,2.14,0,0,0-.31,1.16c0,.1-.18.12-.24.2a.66.66,0,0,0-.06.37,1.51,1.51,0,0,0,.33.77,6.94,6.94,0,0,0,.6.66,8.8,8.8,0,0,0,1.23,1.4,1.43,1.43,0,0,0,.41.21l.42.2c.25.15.49.38.76.57a2,2,0,0,0,.43.31,8,8,0,0,0,2.45.54,3.64,3.64,0,0,0,1-.31,4.84,4.84,0,0,0,1.08-.27,14.58,14.58,0,0,0,1.19-.94c.37-.23.84-.31,1.21-.56a2.52,2.52,0,0,0,.62-.7,2.71,2.71,0,0,0,.48-1.43c0-.06,0-.11.28-.15a8.88,8.88,0,0,1,1.1-.06c.25,0,.63.12.63.19a3.85,3.85,0,0,1-.68,2,5.93,5.93,0,0,1-.24.57,5.55,5.55,0,0,1-1.53,1.38,18.57,18.57,0,0,0-1.62,1.14,5.51,5.51,0,0,1-3.05.86,8.43,8.43,0,0,1-3.58-.44,8,8,0,0,1-2.94-1.65c-.38-.34-.52-1-.79-1.33s-.66-.67-.94-1.07a3.24,3.24,0,0,1-.76-2.14,3.45,3.45,0,0,1,.65-1.34,6,6,0,0,1,1.85-2.12,7.53,7.53,0,0,1,2.65-1.2,1.85,1.85,0,0,1,.74,0,2.32,2.32,0,0,0,.72,0,3.63,3.63,0,0,0,.75-.32,2.46,2.46,0,0,1,.79-.3,5.74,5.74,0,0,1,1.86.11,6.35,6.35,0,0,1,1.11.27,6.64,6.64,0,0,0,.82.36,5.39,5.39,0,0,1,1.18.09,6.31,6.31,0,0,1,2.22,1.73,4.94,4.94,0,0,1,1.05,2.12A3.79,3.79,0,0,1,186.08,122.95Z"/><path d="M98.4,403.71c-.34-.7-.7-1.33-1-2.12a11.9,11.9,0,0,1-.34-5.26c.15-1.53.36-3.06.48-4.56.4-4.93.68-9.79.93-14.67l.07-2.55a26.46,26.46,0,0,1,.13-2.88c.56-3.9,1-7.83,1.34-11.76l.53-5.9c.16-2,.35-3.93.6-5.89.66-5.58,1.11-11.18,1.73-16.76.16-1.44.41-2.88.65-4.32s.53-2.86.68-4.29c.56-5.42,1.27-10.82,2-16.21s1.77-10.74,2.59-16.12l.78-4.91c.27-1.63.6-3.26.9-4.88.58-3.12,1.19-6.19,1.55-9.38a68.31,68.31,0,0,1,1.59-7.71c.64-2.79,1.27-5.58,1.86-8.38s1.1-5.62,1.66-8.44c.84-4.42,1.91-8.9,3.14-13.23.56-1.9.84-3.74,1.34-5.6.73-2.66,1.4-5.34,2.16-8s1.47-5.32,2.13-8c1.6-6.29,3.61-12.47,5.47-18.66,1.32-4.34,2.83-8.59,4.4-12.86l.89-2.35.2-.52.61-.23,10.35-4-1.08,1.33.32-2.81c.23-2,.58-4,.9-5.93l.34-2.15.2-1.27,1.22-.07c2-.11,4.08-.27,6.15-.52,1.34-.16,2.71-.26,4.08-.32l2.12-.1-.35,2-.87,4.93a12.94,12.94,0,0,0-.29,1.39,37.08,37.08,0,0,1-.55,5.13l-.81-1.63c2.14,1.26,4.19,2.65,6.3,3.94l.67.41-.05.69c0,.63-.09,1.25-.11,1.88-.14,3.31-.56,6.66-.5,9.91.05,2.69,0,5.33,0,8a41,41,0,0,1-.35,5.76,27.2,27.2,0,0,0-.13,5.81c.18,2,.12,3.86.17,5.79s.16,4.09.25,6.14c0,.73.07,1.46.07,2.19,0,3.35.12,6.7.18,10s.13,6.7.28,10c.09,2.53.41,5.09.35,7.57s-.09,4.72,0,7.12c.08,1.5.13,3,.25,4.5a79.39,79.39,0,0,1,.37,12.52c0,.68.1,1.46.12,2.18l.15,6.5a14.93,14.93,0,0,0,.18,2.16,76.73,76.73,0,0,1,.73,9c.21,3.85.66,7.76,1.25,11.59.75,4.92,1.46,9.85,2.25,14.76s1.6,9.85,2.37,14.78c.6,3.87,1.21,7.74,1.87,11.6.33,1.9.8,3.76,1.18,5.65.52,2.62.73,5.26,1.1,7.86.68,4.67,1.44,9.35,2.53,14,1.21,5.17,2.14,10.49,3.15,15.75.78,4.09,1.33,8.26,2.27,12.27l.29,1.24.22,1-1,.34a111.27,111.27,0,0,1-22.25,4.68c-1.6.24-3.21.31-4.82.46s-3.22.33-4.84.34c-3.23.09-6.46.26-9.69.19-1.64,0-3.28.08-4.92.05l-4.91,0a15.72,15.72,0,0,1-1.85-.11c-1.84-.2-3.67-.32-5.49-.41l-5.47-.43c-2-.18-4.09-.51-6.14-.81s-4.08-.73-6.1-1.17a29.81,29.81,0,0,1-3.45-1,25.57,25.57,0,0,1-3.12-1.41c-.74-.41-1.49-.81-2.25-1.21l-1.12-.6-.55-.3a4.25,4.25,0,0,1-.7-.42,1.88,1.88,0,0,0,1-.81,5.51,5.51,0,0,1,1.92.21c3.91.71,7.8,1.56,11.73,2.35,2.53.53,5.1.85,7.65,1.27a158.43,158.43,0,0,0,19.44,1.53l.36,0,7.59,0c2.52-.12,5.05-.19,7.57-.35s5.24-.5,7.84-.83c1.67-.24,3.34-.44,5-.61a29.9,29.9,0,0,0,5.27-.75c3.8-.92,7.52-2,11.29-3l-1.43,2.41c-.27-1.5-.55-3-.86-4.48a65.73,65.73,0,0,1-1.69-9.45c-1.68-6.75-2.42-13.74-3.88-20.51-1.32-6.11-2.37-12.24-3.36-18.38-.74-4.57-1.26-9.16-1.95-13.74-.62-4.19-1.27-8.38-2-12.54-.7-3.8-1.55-7.64-2.15-11.48-.55-3.64-1-7.32-1.34-11-.93-9.3-1.63-18.62-2.15-27.93s-.77-18.53-.91-27.8c0-3.56,0-7.18-.27-10.66-.37-5-.1-10-.61-14.93a10.33,10.33,0,0,1,0-1.1l0-10.39.13-10.39c0-6.93.37-13.84.65-20.75l.09-1.87,1.07,1.9-6.41-3.75-1.18-.69.21-1.25c.64-3.79,1.29-7.6,1.85-11.41v0l1.8,1.93c-3.42.23-6.84.41-10.25.67l1.5-1.41-.23,1.83c-.36,3-.68,6.08-1,9.11l-.11,1.08-1.11.44-7.39,2.9c-.34.13-.69.26-1,.37l-2,.64,1.2-1.13c-2,4.47-3.42,9.31-5.1,14-1.15,3.49-2,7.08-3.36,10.49-.53,2.22-1.12,4.42-1.75,6.61s-1.2,4.4-1.83,6.59c-1.3,4.37-2.48,8.78-3.53,13.23-.41,1.76-.64,3.58-1.13,5.3-.87,3.26-1.34,6.66-2.31,9.82-1.33,4.21-2,8.57-2.92,12.85l-1.64,7.55c-.53,2.52-1,5.07-1.44,7.6L113.46,281c-.44,2.54-.85,5.08-1.17,7.63-1,8.12-2.48,16.17-3.54,24.28L107,325c-.58,4-1,8.12-1.41,12.19-.2,1.93-.29,3.87-.5,5.79-.15,1.31-.5,2.59-.63,3.89-.45,4-.8,8-1.18,11.95s-.72,8-1,12l-.4,6q-.15,2.87-.37,5.72c-.3,3.81-.72,7.63-1.27,11.56-.18,1.33-.23,2.67-.31,4A11,11,0,0,1,98.4,403.71Z"/><path d="M206,47.66l1.09.94c.49.44.55.6.37.62a1.64,1.64,0,0,0-.38,0,1,1,0,0,0-.54.56s0,.13,0,.19.08.19,0,.2c-.61.08-.75.51-1.05.82s-.3.54-.5.77-.48,0-.51.19c-.14.65-.73.93-1.1,1.37a4,4,0,0,1-.4.36c-.13.11-.28.2-.25.47s-.24.16-.39.22c-.31.13-.59.28-.65.66s-.27.42-.58.45c-.14,0-.08.21-.18.26-.28.14-.56.27-.67.58s-.48.51-.61.87-.3.39-.43.61-.26.59-.42.86c-.06.1-.19.11-.31.14a.35.35,0,0,0-.32.32c0,.22-.29.17-.45.23s-.13-.07-.12,0c.16.59-.54.17-.77.3s-.5,0-.53.19a.71.71,0,0,1-.23.4c-.07.08-.17.12-.4,0s-.3,0-.26.17-.08.24-.13.34a2.45,2.45,0,0,0-.11.4.3.3,0,0,1-.05.13c-.26.25-.54.48-.8.75-.1.1-.07.37-.25.35s-.38-.08-.47,0-.13.1-.17.19c-.1.25-.26.42-.75.11-.08,0-.07,0-.12,0l-.47-.06s-.09,0-.09.07c0,.3-.22.24-.43.23s-.4.15-.49.39a2,2,0,0,1-1.2,1.08,2.94,2.94,0,0,0-.57.27c-.09.06-.09.24-.15.34s-.34,0-.5,0a.57.57,0,0,0-.62.44c-.1.39-.37.5-.59.68s-.48.06-.59.33c-.19.52-.74.43-1.05.74s-.56.41-.82.67a2.38,2.38,0,0,0-.25.66s0,.07-.07.08c-.19.06-.25.39-.36.61a.77.77,0,0,1-.57.4c-.14,0-.39-.19-.74-.66l-.75-1c-.49-1.15-.49-1.15-.46-1.33a.49.49,0,0,1,.45-.47c.14,0,.22-.15.35-.2.32-.11.5-.5.73-.78h0c.19-.21.38-.4.56-.62s.17-.26.27-.36a.37.37,0,0,1,.26-.07c.1,0,.32.18.34,0,.06-.47.47-.32.65-.56s.11-.45.45-.2c.09-.55.66-.29.82-.7a1.13,1.13,0,0,1,.73-.63c.23-.08.56,0,.8-.06a1,1,0,0,0,.58-.31c.13-.16.15-.5.26-.68a1.05,1.05,0,0,1,.45-.34,13.44,13.44,0,0,1,1.32-.6c.46-.17.94-.31,1.4-.5.18-.07.44,0,.45-.31s.47-.24.35-.8c0,0,0,0,0,0a9.22,9.22,0,0,1,1.68-1.3c.33-.16.8-.16,1.08-.38s.38-.2.49-.38a5.38,5.38,0,0,0,.35-.92.05.05,0,0,1,0,0c.35,0,.43-.4.68-.55s0-.51.44-.36c0-.69.68-.64.93-1.06,0-.08,0-.31.06-.33s.12-.36.41-.32.39-.25.59-.36A2.21,2.21,0,0,0,201,51.31c.27-.87,1.16-1.19,1.63-1.89.06-.08,0-.23.09-.31s.25,0,.29,0c.21-.35.62-.55.7-1a.92.92,0,0,1,.93-.84c.11,0,.09-.11.1-.19S204.89,47,206,47.66Z"/><path d="M165.19,176.76c.6.53,1.19,1,1.75,1.5a4.47,4.47,0,0,1,1.23,3.11c0,.87.05,1.75.16,2.62.35,2.84.9,5.66,1.53,8.46.12.5.3,1,.45,1.47a10.15,10.15,0,0,1,.48,1.68,127.15,127.15,0,0,0,2.81,14.07c.75,3.32,1.76,6.58,2.63,9.87.44,1.71.56,3.51,1.11,5.17,2.09,6.27,3.71,12.66,5.78,18.93l1.89,5.72a47,47,0,0,0,2.07,5.37,33.51,33.51,0,0,1,1.55,4.51c.53,1.65,1.14,3.27,1.76,4.89a49.31,49.31,0,0,0,2.1,4.77,80.25,80.25,0,0,1,3.21,7.58c.4,1.13,1.07,2.06,1.54,3.13a89.26,89.26,0,0,0,4.43,9c1,1.68,2,3.39,2.92,5.1s2,3.36,3.07,5c.77,1.13,1.53,2.25,2.28,3.39l1.12,1.7,1.2,1.65c1,1.27,1.88,2.57,2.9,3.79l3,3.67.34.71s0,0,0,0a13.66,13.66,0,0,0,.76,1.15c.33.45.68.91,1,1.36A22.59,22.59,0,0,0,222,318l-.39-.28c.7.35,1.45.69,2.21,1,1.68.65,3.27,1.64,4.91,2.46a4.56,4.56,0,0,0,.74.44c2.92.68,5.24,2.51,8,3.56a27,27,0,0,0,5.59,1.93c.76.11,1.59.25,2.42.42a19.13,19.13,0,0,1,2.47.75,5.66,5.66,0,0,1,3.17,2.5,3.33,3.33,0,0,1,.33,2.36,4.66,4.66,0,0,1-1.16,1.91,7.21,7.21,0,0,1-3.48,1.82,18.81,18.81,0,0,1-4,.72,13.28,13.28,0,0,1-1.43,0,24.65,24.65,0,0,1-6.36-1.25c-1-.36-2-.73-2.93-1.09l-2.86-1.09a45.82,45.82,0,0,1-4.35-1.57c-1.3-.65-2.56-1.33-3.93-1.85l-.4-.15,1.85-1.16c-.07.87-.19,1.65-.31,2.47a10.24,10.24,0,0,1-1.38,4.11,4.13,4.13,0,0,1-2.09,1.75,2.55,2.55,0,0,1-.77.16,3.71,3.71,0,0,1-.39,0l-.47-.07a2.48,2.48,0,0,1-1.35-.9,7.49,7.49,0,0,1-.92-1.37,21.77,21.77,0,0,1-1.1-4,6.71,6.71,0,0,0-.37-1.28,38.77,38.77,0,0,1-1.51-5.24,10.09,10.09,0,0,0-1.68-3.51l0,0c-.71-.71-1.42-1.41-2.17-2.07a71.82,71.82,0,0,1-11.45-14.33l-1.91-3-1.84-3.09c-.61-1-1.35-1.93-2-2.92-.84-1.4-1.39-2.94-2.09-4.39-1.31-2.57-2.45-5.23-4-7.72q-.64-1-1.23-2.12c-.37-.73-.72-1.47-1.07-2.21l-2.06-4.47c-.27-.58-.52-1.16-.77-1.75l-.67-1.8c-.45-1.2-.91-2.38-1.46-3.51-2.23-4.35-3.38-9.09-5.15-13.61-1.34-3.68-2.42-7.44-3.72-11.14l-2.06-5.6a10.37,10.37,0,0,1-.33-1.07c-.54-2.17-1.38-4.23-2.11-6.34a69.39,69.39,0,0,1-1.79-7.29,10.47,10.47,0,0,1,0-4.3c.23-1.05.38-2.14.56-3.17,1.31-.12,1.32,0,1.76,1.18a48.83,48.83,0,0,1,1.84,7.07c.31,1.54.73,3.06,1.07,4.61,1,3.85,2.27,7.61,3.43,11.41l.06.21c.93,2.95,2,5.86,3,8.79.55,1.52,1.06,3,1.66,4.54.37,1,.68,2,1,2.94a21.06,21.06,0,0,0,.91,3.15c1.43,3,2.38,6.19,3.72,9.22a30.63,30.63,0,0,1,2.17,5.36,48.83,48.83,0,0,1,2.72,5.68,58.27,58.27,0,0,0,2.78,5.62q.71,1.22,1.37,2.46l1.39,2.44c.92,1.62,1.75,3.3,2.68,4.92,1.4,2.39,2.53,4.94,4,7.29.67,1.08,1.31,2.18,2,3.23s1.46,2.08,2.22,3.09c1.43,1.82,3,3.48,4.59,5.16.71.82,1.46,1.59,2.17,2.38.37.38.71.76,1.1,1.14l1.17,1.26.67.71.11.12,0,.06a15.67,15.67,0,0,1,2.15,4.26c.48,1.37.85,2.71,1.2,4s.66,2.6,1,3.81c.17.6.36,1.18.56,1.7a4.88,4.88,0,0,0,.55,1.09v0s0,0,0,0l-.11.11a2,2,0,0,0-.19.25l-.12.17a1,1,0,0,0-.08.18l0,.07a.24.24,0,0,0,0,.06.16.16,0,0,0,0,0h0l0-.75h0a.06.06,0,0,0,0,0,1,1,0,0,0-.07-.19s0,0,0,0a2.72,2.72,0,0,0,.75-1.08,15.7,15.7,0,0,0,1.08-4.24l.34-2.69,2.35,1,6.23,2.65a50.65,50.65,0,0,0,6,2.4c.37.1.73.21,1.09.33l1,.32c.67.21,1.34.42,2,.57a10.22,10.22,0,0,0,4.09.26,5.19,5.19,0,0,1,.59,0,10.71,10.71,0,0,0,5-1.08,2.37,2.37,0,0,0,.64-.5c.08-.07.05-.11.09-.1a1.05,1.05,0,0,0,.31.11.28.28,0,0,0,.13,0h-.1a1,1,0,0,0-.3.1c-.14.06,0,0-.14-.07l-.09-.11-.16-.13a3.11,3.11,0,0,0-.4-.28,11,11,0,0,0-2.35-1c-.46-.12-.9-.26-1.38-.36l-1.53-.35a47.34,47.34,0,0,1-6.27-2c-4-1.58-7.82-3.57-11.67-5.43-1.5-.73-3-1.49-4.47-2.26l-.24-.13-.17-.17-1.76-1.8c-.5-.53-1-1.06-1.5-1.64-.25-.3-.49-.6-.74-1a6.28,6.28,0,0,1-.38-.6,4,4,0,0,1-.19-.38c-.07-.18-.13-.36-.19-.54l.36.76c-1.34-1.62-2.73-3.21-4-4.85-.14-.18-.27-.36-.39-.56-.91-1.51-1.94-2.94-2.94-4.39s-1.95-2.93-2.86-4.43c-1.12-2-2.64-3.73-3.42-5.89-3.21-4.66-5.33-9.92-7.82-14.95a29.36,29.36,0,0,1-1.58-2.95c-.73-1.95-1.89-3.74-2.44-5.72a33.19,33.19,0,0,0-1.4-3.81c-.51-1.25-1-2.49-1.5-3.75-2.17-5.94-4.29-11.92-6.5-17.82-3.57-9.4-5.85-19.18-8.47-28.84-.3-1.15-.72-2.27-1-3.42-.2-.78-.18-1.61-.37-2.39-1.22-4.75-2.08-9.57-3.32-14.34a83.55,83.55,0,0,1-2.58-14.54,18.62,18.62,0,0,0-.47-2.51C163.86,178.44,164,178,165.19,176.76Z"/><path d="M144.93,178.49c.3,1.13.64,2.25.9,3.38.13.56.08,1.17.17,1.74s.24,1.31.38,2l.62,3a.44.44,0,0,0,.18.27c.07,0,.13,0,.17.07l0,0c.14-.19.26-.21.4-.37a1.63,1.63,0,0,0,.16-.21c.22-.24.44-.5.65-.76a12.19,12.19,0,0,1,2.23-2.29,11.76,11.76,0,0,0,1.47-1.54l2.57-2.7,2.31-2.4c.08-.08.19-.12.27-.19a9.67,9.67,0,0,0,.87-.83,1.72,1.72,0,0,1,1.41-.72.27.27,0,0,0,.2-.1c.33-.36,1.2,0,1.86.06a2.52,2.52,0,0,1,.5.3.78.78,0,0,1,0,.28,6,6,0,0,1-.59.86c-.29.32-.67.57-1,.9-.78.9-1.86,1.5-2.5,2.55a8,8,0,0,1-1.49,1.49c-.55.53-1.16,1-1.66,1.59s-.93,1.34-1.46,2-1,.85-1.43,1.3a6.71,6.71,0,0,0-1.57,2,1.72,1.72,0,0,1-.19.32l-.12.14-.06.07-.09.1c-.33.33-.68.63-1,.94s-.82.7-1.21,1a11.91,11.91,0,0,0-1.14,1c-.31.32-.64.73-1,1.17a11.47,11.47,0,0,1-.64-1.43c-.35-1-.64-2.2-.94-3.32l-.57-2.23c-.14-.56-.27-1.13-.39-1.7s-.13-1.31-.23-2-.3-1.52-.47-2.28-.32-1.37-.5-2a8.54,8.54,0,0,0-.35-1.12c-.12-.3,0-.61.76-1a1.07,1.07,0,0,1,.26-.11,12.91,12.91,0,0,1,1.6-.2c.3,0,.37.18.54.28,0,0,0,0,0,0l.13.71Z"/><path d="M166.22,180.59a19.58,19.58,0,0,1-.44,2.58,9.19,9.19,0,0,1-.57,1.19c-.19.46-.35.93-.53,1.39-.34.88-.77,1.72-1.13,2.58-.23.52-.29,1.13-.53,1.68a11.09,11.09,0,0,1-.88,1.43c-.27.45-.58.88-.86,1.35a6.57,6.57,0,0,1-.8,1,5.41,5.41,0,0,1-.49.45,4.84,4.84,0,0,1-.58.35,7.33,7.33,0,0,0-.76.48,4.48,4.48,0,0,1-.76.5,9.46,9.46,0,0,1-3,1,10,10,0,0,1-1.41.11,9.43,9.43,0,0,1-1.39-.06c-.09,0-.17-.07-.26-.09-.33-.06-.64-.15-1-.2a1.11,1.11,0,0,1-1-.76.18.18,0,0,0-.14-.12c-.37-.1-.36-1-.45-1.58a3.23,3.23,0,0,1,.11-.56c.07,0,.15-.12.2-.12a3,3,0,0,1,.71,0,2.41,2.41,0,0,1,.41.16,1.85,1.85,0,0,0,.42.11c.39,0,.75.21,1.13.28a4,4,0,0,0,.57.1,1.64,1.64,0,0,0,.58-.1,4.9,4.9,0,0,1,1.31-.07l.71-.09a2.37,2.37,0,0,0,.68-.21,2.22,2.22,0,0,0,.6-.45c.19-.16.35-.35.54-.5s.32-.2.48-.3a3.07,3.07,0,0,0,.49-.31,3.55,3.55,0,0,0,.53-.55,1.77,1.77,0,0,0,.3-.76c0-.35.29-.52.48-.76a3.56,3.56,0,0,1,.41-.39,1.78,1.78,0,0,0,.35-.45c.17-.33.08-.79.18-1.14a6.74,6.74,0,0,1,.42-1c.3-.68.55-1.4.83-2.11.16-.4.44-.77.61-1.17a12,12,0,0,0,.47-1.5,13.91,13.91,0,0,0,.28-1.39,3.37,3.37,0,0,0,0-.79c0-.22.21-.36,1-.42a1.66,1.66,0,0,1,.28,0,13.21,13.21,0,0,1,1.58.29c.28.09.29.24.42.36s0,0,0,0l-.12.54Z"/><path d="M139.38,179.92c-.23.64-.41,1.3-.66,1.94-.12.31-.41.58-.56.89a8.73,8.73,0,0,0-.44,1.1,13.19,13.19,0,0,0-.63,2.13,7.63,7.63,0,0,0,.07,1.34c0,.41-.09.81-.1,1.21a4.17,4.17,0,0,0,.15,1.08,5.46,5.46,0,0,1,.34,1.52c0,.34.26.55.41.74a1.64,1.64,0,0,0,1,.63,1,1,0,0,0,.28.06,2,2,0,0,0,.3,0,4.81,4.81,0,0,0,.71,0s.1,0,.15,0a1.28,1.28,0,0,0,.57,0c.25-.1.49-.07.85.33a.11.11,0,0,0,.13,0c.25-.09.67.69,1.07,1.12a4.24,4.24,0,0,1,.25.52c0,.07,0,.17-.08.2a2.62,2.62,0,0,1-.59.36,8.61,8.61,0,0,1-.85.15,3.36,3.36,0,0,1-1.19.1c-.2,0-.4,0-.61,0a2.45,2.45,0,0,0-.64.07,1.33,1.33,0,0,1-.78-.06l-.38-.13-.37-.18-.4-.2c-.13-.08-.25-.18-.37-.27s-.25-.17-.36-.27l-.34-.3a5.5,5.5,0,0,1-1.35-1.36,4.73,4.73,0,0,1-.36-1.39,5,5,0,0,0-.55-1.72,1.49,1.49,0,0,1-.1-1c0-.41.26-.8.26-1.19s-.23-.79-.25-1.17a4.37,4.37,0,0,1,.14-1.14,16.32,16.32,0,0,1,.56-2.18c.14-.4.42-.75.59-1.13s.38-.91.56-1.37.32-.82.47-1.24a3.8,3.8,0,0,0,.21-.72c0-.21.29-.3,1.11-.1a1.58,1.58,0,0,1,.27.08c.49.24,1.05.48,1.44.7s.24.25.34.38,0,0,0,0l-.2.37Z"/><circle class="cls-8" cx="144.18" cy="203.56" r="3.34"/><polygon class="cls-8" points="162.01 223.22 145.46 222.34 145.72 217.21 162.26 218.1 162.01 223.22"/><path class="cls-3" d="M177.4,231.73s-1.47,3.23-9.09,4.4"/><path class="cls-9" d="M155.73,214.77H157a1.2,1.2,0,0,1,1.2,1.2v9.21a1.21,1.21,0,0,1-1.21,1.21h-1.25a1.21,1.21,0,0,1-1.21-1.21V216A1.21,1.21,0,0,1,155.73,214.77Z"/><path d="M158.4,225.19l-1-.14c-.44-.07-.53-.16-.44-.26s.16-.14.2-.2a1.12,1.12,0,0,0,.07-.68s-.06-.08-.09-.12-.12-.09-.08-.14c.29-.37.2-.75.24-1.13s-.08-.53-.07-.8.24-.28.18-.41a4,4,0,0,1,0-1.55c0-.16,0-.32,0-.47a.5.5,0,0,0-.09-.45c-.11-.12,0-.25.09-.37a1,1,0,0,0,0-.82.64.64,0,0,1,.07-.65c.06-.09-.06-.18,0-.27s.06-.29.08-.37a.29.29,0,0,0,0-.23c-.12-.14-.11-.35-.33-.39s-.22-.08-.33-.05a.57.57,0,0,0-.2.11l-.08.07,0,0-.1,0a.47.47,0,0,1-.29-.07c-.1-.06-.12-.07-.16,0s-.1,0-.18-.06-.06-.08-.06,0c.05.19,0,.17-.08.13s-.24-.11-.29-.07-.31,0-.22.17a.59.59,0,0,1,.08.25c0,.05,0,.09-.17.14s-.15.18,0,.26.09.18.12.28a2.09,2.09,0,0,0,.16.29.3.3,0,0,1,0,.1c0,.32,0,.64.08,1,0,.12.17.24.08.36s-.19.23-.18.34a.59.59,0,0,0,0,.22c.1.2.13.4-.23.6-.06,0,0,.07,0,.1s-.15.21-.21.31,0,.07,0,.1,0,.29,0,.43a.55.55,0,0,0,0,.56,2.26,2.26,0,0,1,.16,1.43,3.13,3.13,0,0,0-.05.56c0,.09.1.18.14.28s-.12.25-.17.38a.65.65,0,0,0,0,.68,1,1,0,0,1,.1.18.44.44,0,0,1,0,.11c0,.07,0,.14,0,.21s-.06.29.12.3a.4.4,0,0,1,.3.11.27.27,0,0,0,.27.08l.12,0,.14,0a3,3,0,0,0,.46-.07.68.68,0,0,0,.23-.13s.1-.06.09-.1,0-.08,0-.06v0s0,0,0,0h0l0,0a.15.15,0,0,0,0,0s0,0,.08,0a.28.28,0,0,0,.14,0l.82-.15c.83.09.82.1.92.21s.08.09.09.17a1.14,1.14,0,0,1,0,.3,1.12,1.12,0,0,1-.24.47,2.77,2.77,0,0,1-.42.49l-.33.24a2.32,2.32,0,0,1-.36.22,1.77,1.77,0,0,1-.41.17l-.22.06-.12,0h0l-.75.19c-.23,0-.47.08-.72.1a1.53,1.53,0,0,1-.42-.13c-.14-.08-.2-.3-.37-.28a.87.87,0,0,1-.64-.3c-.16-.17-.29-.37-.44-.55a1.62,1.62,0,0,1-.27-.32.41.41,0,0,1,0-.44,1.17,1.17,0,0,1-.19-.89c0-.19,0-.22,0-.31a.48.48,0,0,0-.05-.25,1.42,1.42,0,0,1-.1-.89,6.49,6.49,0,0,1,.25-.66,1.34,1.34,0,0,0,0-.61c0-.18-.22-.37-.28-.55a1.29,1.29,0,0,1,0-.53c0-.44.09-.89.18-1.33s.19-.88.28-1.32c0-.17.16-.34,0-.51s.06-.48-.28-.71c0,0,0,0,0-.05V216a2.27,2.27,0,0,1,.59-1.65,2.66,2.66,0,0,1,1.55-.67l.24,0h.24a2.32,2.32,0,0,0,.46,0,3.1,3.1,0,0,0,.41-.13c.24,0,.49-.1.75-.13l.09,0a3.43,3.43,0,0,1,1.27.64c.2.21.6.34.53.75.67.5.26,1.76.36,2s.17.17.13.26.11.32,0,.48-.08.42-.12.63a2.86,2.86,0,0,0,0,1.48c.25.78-.09,1.56,0,2.34,0,.09.09.18.09.28s-.14.13-.14.19a4.18,4.18,0,0,0,0,1.15,1.1,1.1,0,0,1-.17,1.15c-.05.06,0,.13,0,.2S159.28,225.11,158.4,225.19Z"/><path d="M153.52,132.1c.48.22.94.45,1.36.68.61.35.7.7.5,1a5.12,5.12,0,0,0-.44.64,10.81,10.81,0,0,0-.67,2.25,2.51,2.51,0,0,0,0,.44c0,.17.08.36,0,.49a20.69,20.69,0,0,0-1.66,3.56c-.39.84-.63,1.75-1.06,2.58-.23.43-.77.69-.93,1.14a14.13,14.13,0,0,1-3.13,4.44l-.58.6-.63.56a4.91,4.91,0,0,0-1.12,1.16c-.23.41-.77.48-1.16.69s-.89.4-1.31.64a7,7,0,0,0-1.24.77,3.92,3.92,0,0,1-2.2.69c-.34,0-.59.29-.93.31s-.93.11-1.39.15a7.69,7.69,0,0,0-1.37.22,9.54,9.54,0,0,1-1.64.14l-.88,0c-.29,0-.58-.07-.88-.08a5.55,5.55,0,0,1-1.22-.25c-.39-.13-.77-.29-1.15-.43a14.62,14.62,0,0,1-2.66-1.31,3.17,3.17,0,0,1-.73-.78,3.6,3.6,0,0,0-1-1,3.36,3.36,0,0,1-.92-1.26c0-.07,0-.22-.08-.24-1-.31-.81-1.42-1.2-2.11-.27-.48-.3-1.11-.72-1.48a4.75,4.75,0,0,1-.79-1.05,1.2,1.2,0,0,1-.22-1,.8.8,0,0,0-.4-.85c-.33-.19-.4-.5-.59-.76s-.44-.53-.65-.8a1.8,1.8,0,0,1-.21-.3c-.25-.49-.48-1-.71-1.48l-.71-1.58a7.82,7.82,0,0,1-.8-1.82,6.88,6.88,0,0,0-.22-1.57c-.12-.34-.21-.67-.38-1s-.28-.64-.38-.94c-.05-.15-.1-.3-.13-.44a.17.17,0,0,1,0-.15.91.91,0,0,1,.05-.1,10.09,10.09,0,0,1,1.79.76c.26.14.34.07.55.14l1.64.61a.73.73,0,0,0,.44.06,1.79,1.79,0,0,1,.9,0,5.28,5.28,0,0,1,.85.28,3.66,3.66,0,0,0,1.84.14,13.48,13.48,0,0,1,2.37-.13,22.45,22.45,0,0,1,2.35.15c.62,0,1.23.11,1.85.1a5.45,5.45,0,0,0,.91-.21,3.87,3.87,0,0,1,1.25.23,4,4,0,0,0,2.25-.13,10.78,10.78,0,0,1,2.5-.45,8.39,8.39,0,0,0,2-.17c1.2-.48,2.47-.32,3.69-.6,1-.27,2-.43,2.93-.72a7.42,7.42,0,0,0,1.39-.78.74.74,0,0,1,.27-.1,5.34,5.34,0,0,0,1.56-.74,5.77,5.77,0,0,1,1.79-.6,1.57,1.57,0,0,1,1.28.61c.37.36.73.65,1.09,1,.33,1.22.31,1.22,0,1.46a3.72,3.72,0,0,1-1.82.74c-.42.08-.8.26-1.22.36a20.06,20.06,0,0,0-3,1.06l-.06,0c-.8.28-1.61.48-2.41.73-.42.13-.84.3-1.26.42a3.18,3.18,0,0,1-.84.06c-.3,0-.64-.23-.91-.08-.84.5-1.78.29-2.66.47-.51.12-1,.43-1.57.09-1.1.55-2.28.06-3.39.39a10.29,10.29,0,0,1-3.06.22c-.76-.05-1.51-.32-2.26-.41a11,11,0,0,0-2.07-.13c-.63,0-1.28.27-1.92.31a8.22,8.22,0,0,1-1.81-.11l-1.14-.17-.28,0-.14,0h0l0,0a1.49,1.49,0,0,0-.29-.19l-.2-.11-.06,0h0l0,0a.27.27,0,0,0-.07.1.9.9,0,0,0-.05.38,2,2,0,0,0,0,.28,1.62,1.62,0,0,0,.39.73c.58.59.52,1.47,1.31,1.93.06,0,.05.1.08.15.89,1.92,2,3.7,3,5.5a17.13,17.13,0,0,0,1.53,2.7,7.05,7.05,0,0,0,1.19,1.3,8.37,8.37,0,0,0,2.12,1.07.3.3,0,0,1,.12.07,4.69,4.69,0,0,0,1.92.86,2.12,2.12,0,0,0,.65,0,.65.65,0,0,1,.63.2,5.33,5.33,0,0,1,1.91-.31,6.17,6.17,0,0,0,1.89-.23c.24-.09.41-.39.66-.4.49,0,.81-.46,1.32-.4a1.53,1.53,0,0,0,.9-.22l.4-.22a3.17,3.17,0,0,1,.4-.23,8,8,0,0,0,3.35-2.75c.67-1,1.4-1.89,2.11-2.85a15.49,15.49,0,0,0,1.87-3.11c.12-.27.12-.59.24-.85s.36-.27.42-.46a15.6,15.6,0,0,0,1.2-3.43,8.08,8.08,0,0,1,1.15-3.49,1.06,1.06,0,0,0,.09-.62C152,132.21,152.16,132.15,153.52,132.1Z"/></g></g></svg>