<svg xmlns="http://www.w3.org/2000/svg" viewBox="0 0 22.84 20.29"><defs><style>.cls-1{fill:#7fbbc9;}</style></defs><title>icon-finger</title><g id="レイヤー_2" data-name="レイヤー 2"><g id="レイヤー_2-2" data-name="レイヤー 2"><path class="cls-1" d="M21.29,8.91H13.05c-.63,0-2.17.13-2.76-.5-.93-1,.63-2.42.91-3.22a5.65,5.65,0,0,0,.34-4C10.92-.59,9-.29,8.72,1.52A11.61,11.61,0,0,1,5.57,6.9C4,8.31,2.69,9.42,1.93,10A5.74,5.74,0,0,0,0,14.14s-.38,3.14,1.82,4.77c1.81,1.34,3.64,1.38,6.61,1.38,2.26,0,4.52-.13,5.39-.13a1.54,1.54,0,0,0,1-2.7h.69a1.54,1.54,0,0,0,1-2.73A1.54,1.54,0,0,0,17.18,12h4.11a1.55,1.55,0,1,0,0-3.09Z"/></g></g></svg>