<svg xmlns="http://www.w3.org/2000/svg" viewBox="0 0 48.87 48.32"><title>icon-crown2</title><g id="レイヤー_2" data-name="レイヤー 2"><g id="レイヤー_1-2" data-name="レイヤー 1"><g id="レイヤー_2-2" data-name="レイヤー 2"><g id="レイヤー_2-2-2" data-name="レイヤー 2-2"><rect x="18.35" y="4.27" width="12.21" height="3.66" style="fill:#ddd"/><rect x="22.63" width="3.66" height="12.21" style="fill:#ddd"/><rect x="6.04" y="42.21" width="36.83" height="6.11" style="fill:#ddd"/><path d="M10.33,20.12c.77,6,3.89,13.35,6.49,18.78h4.62V17.71c0-3.65-3.55-5.11-6.66-4.51A5.93,5.93,0,0,0,10.33,20.12Z" style="fill:#ddd"/><path d="M6.35,18A.83.83,0,0,0,5,17.29a5.74,5.74,0,0,0-1.58,1.07c-4.38,4-5.54,10.24,2.26,20.54h7.06C10.67,34.22,7,26.79,6.39,19.47A8.67,8.67,0,0,1,6.35,18Z" style="fill:#ddd"/><path d="M38.58,20.5c-.77,6-3.89,13.35-6.49,18.78H27.47V18.1c0-3.65,3.55-5.11,6.66-4.51A5.94,5.94,0,0,1,38.58,20.5Z" style="fill:#ddd"/><path d="M42.56,18.34a.83.83,0,0,1,1.29-.67,5.74,5.74,0,0,1,1.58,1.07c4.38,4,5.54,10.24-2.26,20.54H36.12c2.13-4.68,5.77-12.1,6.41-19.43A8.58,8.58,0,0,0,42.56,18.34Z" style="fill:#ddd"/><circle cx="24.46" cy="37.69" r="1.08" style="fill:#ddd"/><circle cx="24.46" cy="33.33" r="1.08" style="fill:#ddd"/><circle cx="24.46" cy="28.96" r="1.08" style="fill:#ddd"/><circle cx="24.46" cy="24.6" r="1.08" style="fill:#ddd"/><circle cx="24.46" cy="20.23" r="1.08" style="fill:#ddd"/><circle cx="24.46" cy="15.87" r="1.08" style="fill:#ddd"/></g></g></g></g></svg>