<svg xmlns="http://www.w3.org/2000/svg" viewBox="0 0 284.81 37.01"><defs><style>.cls-1{fill:#f98ab7;}</style></defs><title>logo</title><g id="レイヤー_2" data-name="レイヤー 2"><g id="レイヤー_2-2" data-name="レイヤー 2"><path class="cls-1" d="M24,23.41a22,22,0,0,1-.27,2.71q-.27,1.71-1.81,1.71a3.58,3.58,0,0,1-2.22-1.22Q12.82,20.09,3.9,7.79l-.08,3.84L3.76,15.5q0,1.41.06,4.22t.06,4.23q0,4.56-1.76,4.56a1.9,1.9,0,0,1-1.47-.59,1.77,1.77,0,0,1-.49-1.25q0-.71.11-2.15t.11-2.15q0-1,.07-3.14t.07-3.14q0-1.12-.05-3.38T.41,9.32q0-1.07-.2-3.18T0,3A1.94,1.94,0,0,1,.67,1.54,2.13,2.13,0,0,1,2.19.9q.9,0,2.22,2Q8.62,9.18,12,13.36a96.27,96.27,0,0,0,8.81,9.49q.05-.73,0-2.15l-.05-2.13a95.8,95.8,0,0,0-.58-11.84,17.93,17.93,0,0,0-.46-1.78,6.85,6.85,0,0,1-.34-1.8q0-2,1.8-2,2.95,0,2.95,11,0,1.88-.05,5.61T24,23.41Z"/><path class="cls-1" d="M40.35,17.28q0,1.22,0,3.66t0,3.66q0,.37.06,1.13t.06,1.13A1.57,1.57,0,0,1,40,28.06a1.68,1.68,0,0,1-1.2.47q-1.3,0-1.66-1.61A10.42,10.42,0,0,1,32.27,28a6.44,6.44,0,0,1-3.68-1,4.39,4.39,0,0,1-1.91-3.17,55.56,55.56,0,0,1-.66-8,31.66,31.66,0,0,1,.51-5.28,1.51,1.51,0,0,1,1.61-1.47,1.7,1.7,0,0,1,1.22.47,1.57,1.57,0,0,1,.49,1.19,19.77,19.77,0,0,1-.25,2.49,19.89,19.89,0,0,0-.25,2.61q0,2.83.19,4.84a16.7,16.7,0,0,0,.56,3.24,5.67,5.67,0,0,0,1.1.47,3.73,3.73,0,0,0,1.07.16,17.3,17.3,0,0,0,4.79-.73l0-3.44,0-3.29a54.35,54.35,0,0,1,.32-6.35A1.53,1.53,0,0,1,39,9.21a1.69,1.69,0,0,1,1.22.47,1.48,1.48,0,0,1,.46,1.19Z"/><path class="cls-1" d="M56.35,14.65q-.12,2.12-1.69,2.12T53.2,15.09q0-.32-.05-1.19l-.05-1.42A8.92,8.92,0,0,0,48.82,14a8.11,8.11,0,0,0-2.51,3.32l0,9.28a1.5,1.5,0,0,1-1.68,1.71q-1.49,0-1.49-1.71V14.7q0-.56,0-1.68t0-1.68q0-1.71,1.49-1.71,1.66,0,1.68,2.81a10.18,10.18,0,0,1,7.22-3.13,2.28,2.28,0,0,1,2,1,5.75,5.75,0,0,1,.68,3.12Q56.37,14.35,56.35,14.65Z"/><path class="cls-1" d="M69.89,14.13a1.39,1.39,0,0,1-1.3-.63,5.83,5.83,0,0,1-.44-1.83q-1.27.32-3.91,1.19-2.73,1.08-2.74,2.68a5.71,5.71,0,0,0,1,.27,16.35,16.35,0,0,1,5.79,1.91A5.76,5.76,0,0,1,71,22.87,4.54,4.54,0,0,1,68.65,27a9.86,9.86,0,0,1-5,1.15,12.11,12.11,0,0,1-4.23-.75q-2.61-.95-2.61-2.64a1.59,1.59,0,0,1,.53-1.19,1.71,1.71,0,0,1,1.21-.51,2.28,2.28,0,0,1,1.35.81,3.88,3.88,0,0,0,1.83.64,11.17,11.17,0,0,0,1.91.2,8.41,8.41,0,0,0,2.51-.34q1.58-.49,1.58-1.56,0-2.3-3.22-3.12l-1.76-.39a9.42,9.42,0,0,1-3.2-1.15,3.25,3.25,0,0,1-1.37-2.86,5.18,5.18,0,0,1,3.34-5,26,26,0,0,1,3.25-1.09A25,25,0,0,0,68,8.13a3.71,3.71,0,0,1,1.51-.3,1.6,1.6,0,0,1,1.19.47,1.69,1.69,0,0,1,.47,1.24A7.2,7.2,0,0,0,71.34,11a7.23,7.23,0,0,1,.21,1.44,1.69,1.69,0,0,1-.47,1.24A1.6,1.6,0,0,1,69.89,14.13Z"/><path class="cls-1" d="M81.86,27.95A9.57,9.57,0,0,1,75.67,26a7.23,7.23,0,0,1-2.59-5.93,12.36,12.36,0,0,1,2.13-7.38,7.25,7.25,0,0,1,6.2-3.25,9.72,9.72,0,0,1,4.59.95A3.82,3.82,0,0,1,88.18,14a3.87,3.87,0,0,1-1.91,3.08A27,27,0,0,1,82.68,19l-6.47,3.07a6.18,6.18,0,0,0,2.36,2.12,7.24,7.24,0,0,0,3.29.71,10.38,10.38,0,0,0,2.74-.44A4.36,4.36,0,0,0,87.18,23q.58-.91,1.24-.91a1.49,1.49,0,0,1,1.06.45,1.4,1.4,0,0,1,.47,1q0,1.88-3,3.24A12.39,12.39,0,0,1,81.86,27.95Zm-.46-15.43A4.34,4.34,0,0,0,78,14.12a10.79,10.79,0,0,0-2,4.82l5.2-2.47a22.32,22.32,0,0,0,4.37-2.59A5.77,5.77,0,0,0,81.41,12.52Z"/><path class="cls-1" d="M122.86,3.3a6.53,6.53,0,0,0-.25,2.08q0,.51,0,1.51t0,1.51q0,1.69-.3,5t-.3,5q0,1.29.19,3.86t.19,3.88A1.6,1.6,0,0,1,122,27.4a1.65,1.65,0,0,1-2.31,0,1.59,1.59,0,0,1-.47-1.17q0-1.3-.19-3.88t-.19-3.86q0-1.24.08-2.51a43.58,43.58,0,0,0-7.16.86l-7.11,1.39a42.93,42.93,0,0,1-.3,4.33,43.08,43.08,0,0,0-.3,4.34,1.63,1.63,0,0,1-.47,1.18,1.64,1.64,0,0,1-2.32,0,1.63,1.63,0,0,1-.47-1.18q0-1.79.3-5.36t.3-5.36q0-.93-.07-2.81t-.07-2.83q0-1.34.17-4t.17-4A1.62,1.62,0,0,1,102,1.32a1.66,1.66,0,0,1,2.32,0,1.62,1.62,0,0,1,.47,1.19q0,1.36-.18,4.06t-.18,4.06l.1,4.29,7.27-1.37a43.88,43.88,0,0,1,7.33-.85q.19-2.42.19-7.3a8.52,8.52,0,0,1,.42-2.61Q120.33,1,121.35,1a1.66,1.66,0,0,1,1.15.47A1.53,1.53,0,0,1,123,2.61,2.28,2.28,0,0,1,122.86,3.3Z"/><path class="cls-1" d="M139,28.29q-.32,0-1.17-.75a7.57,7.57,0,0,1-1.13-1.24,21.77,21.77,0,0,1-2.86,1.33,6.31,6.31,0,0,1-2.07.45q-4,0-5.78-2.24t-1.71-6.44a9.72,9.72,0,0,1,2.82-7,9,9,0,0,1,6.73-2.91,8.7,8.7,0,0,1,3.3.76q2.3.95,2.3,2.29a1.15,1.15,0,0,1-.34.81,12.34,12.34,0,0,0-.26,2.12q-.09,1.47-.11,3.78a13.82,13.82,0,0,0,.29,3.32,25.45,25.45,0,0,0,1.07,3q.12.3.39.9l.1.29a1.46,1.46,0,0,1-.47,1.12A1.57,1.57,0,0,1,139,28.29Zm-3.52-11.77a14.72,14.72,0,0,1,.09-1.58q.09-.86.28-1.82a8.3,8.3,0,0,0-1.08-.47,2.38,2.38,0,0,0-.72-.15,5.87,5.87,0,0,0-4.53,2.14,7.21,7.21,0,0,0-1.91,4.94,7.23,7.23,0,0,0,1,4.17,3.37,3.37,0,0,0,2.95,1.39,5.9,5.9,0,0,0,2.76-.59,10.15,10.15,0,0,0,1.71-1.29A61.5,61.5,0,0,1,135.51,16.51Z"/><path class="cls-1" d="M149.37,27.76a14.56,14.56,0,0,1-3.73-.54l0,8.1a1.67,1.67,0,0,1-.47,1.22,1.74,1.74,0,0,1-2.39,0,1.67,1.67,0,0,1-.47-1.22l.05-6.78V21.78q-.05-3.71-.25-6.76l-.25-3.44a4.29,4.29,0,0,1,.44-2,1.59,1.59,0,0,1,1.47-1,1.48,1.48,0,0,1,1.11.47,1.59,1.59,0,0,1,.45,1.14,5.46,5.46,0,0,1-.05.56q-.08.53-.12,1a12.94,12.94,0,0,1,2.81-1.5,7.49,7.49,0,0,1,2.59-.5,5.35,5.35,0,0,1,5.08,3.08,14,14,0,0,1,1.27,6.45,9.13,9.13,0,0,1-2,6A6.86,6.86,0,0,1,149.37,27.76Zm1.17-14.68a5.7,5.7,0,0,0-2.81.69,12,12,0,0,0-2.27,1.8q.22,3.85.22,8.08a10.21,10.21,0,0,0,3.69.71,3.72,3.72,0,0,0,3.24-1.58,6,6,0,0,0,1-3.56,10.89,10.89,0,0,0-.75-4.62A2.42,2.42,0,0,0,150.53,13.08Z"/><path class="cls-1" d="M166.53,27.76a14.56,14.56,0,0,1-3.73-.54l0,8.1a1.67,1.67,0,0,1-.47,1.22,1.74,1.74,0,0,1-2.39,0,1.67,1.67,0,0,1-.47-1.22l.05-6.78V21.78q-.05-3.71-.25-6.76L159,11.59a4.29,4.29,0,0,1,.44-2,1.59,1.59,0,0,1,1.47-1A1.48,1.48,0,0,1,162,9a1.59,1.59,0,0,1,.45,1.14,5.46,5.46,0,0,1-.05.56q-.08.53-.12,1a12.94,12.94,0,0,1,2.81-1.5,7.49,7.49,0,0,1,2.59-.5,5.35,5.35,0,0,1,5.08,3.08A14,14,0,0,1,174,19.22a9.13,9.13,0,0,1-2,6A6.86,6.86,0,0,1,166.53,27.76Zm1.17-14.68a5.7,5.7,0,0,0-2.81.69,12,12,0,0,0-2.27,1.8q.22,3.85.22,8.08a10.21,10.21,0,0,0,3.69.71,3.72,3.72,0,0,0,3.24-1.58,6,6,0,0,0,1-3.56,10.89,10.89,0,0,0-.75-4.62A2.42,2.42,0,0,0,167.69,13.08Z"/><path class="cls-1" d="M191.26,12.06,185.4,24.73q-2.17,4.62-3.32,7.74L181,35.76A1.57,1.57,0,0,1,179.43,37a1.77,1.77,0,0,1-1.23-.47,1.5,1.5,0,0,1-.52-1.16q0-1.69,3.66-9.81l-6.06-11.67-.76-1.24a2.74,2.74,0,0,1-.46-1.3,1.81,1.81,0,0,1,1.73-1.74,1.39,1.39,0,0,1,1.2.59,66.56,66.56,0,0,1,6.18,11.38l2.51-5.84q1.35-3,2.61-5.22a1.61,1.61,0,0,1,1.42-.95,1.76,1.76,0,0,1,1.23.49,1.54,1.54,0,0,1,.53,1.17A2.05,2.05,0,0,1,191.26,12.06Z"/><path class="cls-1" d="M223.88,28.79a2.24,2.24,0,0,1-1.37-.44,1.52,1.52,0,0,1-.68-1.25,17.67,17.67,0,0,1-1-3.34q-.2-1.29-1.34-7.3-.86-4.56-1.15-7.32a65.47,65.47,0,0,1-3.24,9.47,42.54,42.54,0,0,0-2.59,7,1.64,1.64,0,0,1,.2.76,1.49,1.49,0,0,1-.68,1.25,2.25,2.25,0,0,1-1.39.46q-2.29,0-2.29-2l-.53-2.15L206,15.62q-1.1-4.2-3.76-12a2.25,2.25,0,0,1-.12-.68q0-1.58,1.78-1.58a1.85,1.85,0,0,1,1.69,1.2A36.64,36.64,0,0,1,206.84,6q1,3.07,2,7.38l1.64,7.49a93.77,93.77,0,0,0,3.61-10.23q1.1-3.68,1.68-5.1,1.52-3.74,3-3.74A1.71,1.71,0,0,1,220.41,3,33.31,33.31,0,0,1,221.64,10q.34,2.78,1.15,6.67l1.46,6.66q2.27-5.45,5.67-14.75.19-.51.85-3.2A10.36,10.36,0,0,1,232,2.27a1.84,1.84,0,0,1,1.59-.93A1.5,1.5,0,0,1,235.28,3a8,8,0,0,1-.54,1.69l-.68,1.83-.93,3-5,12.23q-.69,2-2.39,5.86A2,2,0,0,1,223.88,28.79Z"/><path class="cls-1" d="M243.16,28.17a6.6,6.6,0,0,1-4.89-2.1,9,9,0,0,1-2.41-6.28A11,11,0,0,1,237.79,13a7.58,7.58,0,0,1,6.61-3.44,5.57,5.57,0,0,1,5.13,3.1,11.9,11.9,0,0,1,1.34,6,11,11,0,0,1-2,6.42A6.74,6.74,0,0,1,243.16,28.17Zm1-15.13a4.26,4.26,0,0,0-3.88,2.37,8.6,8.6,0,0,0-1.1,4.37,5.25,5.25,0,0,0,1.34,3.83,3.57,3.57,0,0,0,2.63,1.13,4.11,4.11,0,0,0,3-1.29,5.45,5.45,0,0,0,1.52-3.84Q247.95,13.06,244.17,13Z"/><path class="cls-1" d="M266.84,14.65q-.12,2.12-1.69,2.12t-1.46-1.68q0-.32-.05-1.19l-.05-1.42A8.92,8.92,0,0,0,259.3,14a8.11,8.11,0,0,0-2.51,3.32l0,9.28a1.5,1.5,0,0,1-1.68,1.71q-1.49,0-1.49-1.71V14.7q0-.56,0-1.68t0-1.68q0-1.71,1.49-1.71,1.66,0,1.68,2.81a10.18,10.18,0,0,1,7.22-3.13,2.28,2.28,0,0,1,2,1,5.75,5.75,0,0,1,.68,3.12Q266.85,14.35,266.84,14.65Z"/><path class="cls-1" d="M283,27.86a1.57,1.57,0,0,1-1.44-1,28.63,28.63,0,0,0-2.66-4l-3-4.08q-1,.78-3,2.19-.19,2.63-.19,5.11a1.69,1.69,0,0,1-.47,1.24,1.6,1.6,0,0,1-1.19.47q-1.71,0-1.71-2.3,0-1.41.19-4.21t.19-4.21q0-2.57.08-5.89t.08-5.85q0-.76-.08-1.8t-.08-1.8A1.69,1.69,0,0,1,270.2.47a1.74,1.74,0,0,1,2.39,0,1.69,1.69,0,0,1,.47,1.24q0,.78.08,1.84t.08,1.84l-.12,5.45q-.08,2.95-.05,5.89a47.2,47.2,0,0,0,4.44-3.86L281.22,9a1.71,1.71,0,0,1,2.93,1.17,1.72,1.72,0,0,1-.49,1.13,60.86,60.86,0,0,1-5.13,5.23l3.69,5q2.59,3.54,2.59,4.61a1.54,1.54,0,0,1-.53,1.17A1.76,1.76,0,0,1,283,27.86Z"/></g></g></svg>