<svg xmlns="http://www.w3.org/2000/svg" viewBox="0 0 32.45 42.25"><defs><style>.cls-1{fill:#7fbbc9;}</style></defs><title>q</title><g id="レイヤー_2" data-name="レイヤー 2"><g id="レイヤー_2-2" data-name="レイヤー 2"><path class="cls-1" d="M12.45,42.15a12.14,12.14,0,0,1-3.9-.94,9,9,0,0,1-3.32-2.46,19.43,19.43,0,0,1-4.34-8.6A41.34,41.34,0,0,1,0,20.25,32.39,32.39,0,0,1,.89,14,19.41,19.41,0,0,1,3.2,8.4l.72-.58A6.47,6.47,0,0,1,5.37,5.44,27.23,27.23,0,0,0,7.24,3.2,9.59,9.59,0,0,1,11.87.45,17,17,0,0,1,17.58.09q.58.15,1.23.36a2.21,2.21,0,0,1,1.08.79,6.75,6.75,0,0,1,.51.9,1.11,1.11,0,0,0,.79.61A22.76,22.76,0,0,1,25,4.86,17.05,17.05,0,0,1,28.42,8a19.87,19.87,0,0,1,3.32,6.5,19.89,19.89,0,0,1,.58,7.66,26.13,26.13,0,0,1-1.88,6.07,62.23,62.23,0,0,1-2.89,5.64q1.3.72,2.53,1.52a5.57,5.57,0,0,1,2,2.24l.29,2.67-.58.72h-.58a14.62,14.62,0,0,0-1.52-.22,2.16,2.16,0,0,1-1.37-.65l-.43-.94-3.61-1.88a16.77,16.77,0,0,1-5.2,3.9A11.82,11.82,0,0,1,12.45,42.15ZM16,35.57l2.6-2q-1.45-.58-2.85-1.3a7.2,7.2,0,0,1-2.42-2l-.14-1.88.14-1.73h.29l.43.14.58-.14a13.21,13.21,0,0,1,3.83,1.73,13.31,13.31,0,0,0,3.76,1.73,26.67,26.67,0,0,0,4-6.21,18.92,18.92,0,0,0,1.66-7.23,12.26,12.26,0,0,0-1.59-4,16.31,16.31,0,0,0-2.89-3.47,9.24,9.24,0,0,0-3.47-1.81Q18,6.81,16.28,6.23a.65.65,0,0,0-.43-.36,2.42,2.42,0,0,0-.58-.07A8.4,8.4,0,0,0,12.81,7q-1.08.8-2.1,1.66a27.64,27.64,0,0,0-4.55,7.15A20.64,20.64,0,0,0,4.5,24.15a26.36,26.36,0,0,0,1,6.29,14.12,14.12,0,0,0,3,5.42,2.71,2.71,0,0,0,1.73,1,8.09,8.09,0,0,0,2.17,0,7.09,7.09,0,0,0,1.84-.51Q15.12,36,16,35.57Z"/></g></g></svg>