<svg xmlns="http://www.w3.org/2000/svg" xmlns:xlink="http://www.w3.org/1999/xlink" viewBox="0 0 612.19 114.24"><defs><style>.cls-1{fill:#333;}.cls-2{fill:#f98ab7;}.cls-3{fill:#f90;}.cls-3,.cls-4{fill-rule:evenodd;}.cls-5{fill:#fff;}.cls-6{fill:url(#linear-gradient);}.cls-7{fill:url(#linear-gradient-2);}.cls-8{fill:url(#linear-gradient-3);}.cls-9{fill:none;stroke:#ff8ab7;stroke-miterlimit:10;stroke-width:2px;}</style><linearGradient id="linear-gradient" x1="129.94" y1="98.44" x2="141.37" y2="98.44" gradientTransform="translate(-26 -6)" gradientUnits="userSpaceOnUse"><stop offset="0" stop-color="#04582f"/><stop offset="1" stop-color="#56a733"/></linearGradient><linearGradient id="linear-gradient-2" x1="78.31" y1="92.44" x2="89.74" y2="92.44" gradientUnits="userSpaceOnUse"><stop offset="0" stop-color="#19264a"/><stop offset="1" stop-color="#085297"/></linearGradient><linearGradient id="linear-gradient-3" x1="91.13" y1="92.44" x2="102.55" y2="92.44" gradientUnits="userSpaceOnUse"><stop offset="0" stop-color="#53090e"/><stop offset="1" stop-color="#e51729"/></linearGradient></defs><title>text-btn</title><g id="レイヤー_2" data-name="レイヤー 2"><g id="レイヤー_2-2" data-name="レイヤー 2"><path class="cls-1" d="M16.45,41a28.91,28.91,0,0,1-5.36-2.09,19.53,19.53,0,0,1-4.75-3.39A8.85,8.85,0,0,1,5,33.41a20.89,20.89,0,0,1-.88-2.33H4a7,7,0,0,0-1.34.61,2.81,2.81,0,0,1-1.45.38l-.77-.38A2.28,2.28,0,0,1,.07,31a1.39,1.39,0,0,1,0-.73l.38-.77a5.88,5.88,0,0,1,1.47-.84,16.2,16.2,0,0,1,1.63-.54v-.38L3,24.65l.38-.77A2.28,2.28,0,0,1,4,23.54a1.4,1.4,0,0,1,.73,0l.77.38a7.33,7.33,0,0,1,.61,1.45,4.22,4.22,0,0,1,.15,1.61l.31.08a34.07,34.07,0,0,1,3.37-1q1.68-.42,3.44-.8.15-1.3.31-2.56a9.54,9.54,0,0,1,.61-2.41,2.28,2.28,0,0,1,.65-.34,1.4,1.4,0,0,1,.73,0l.77.38a1.87,1.87,0,0,1,.38.92,7.61,7.61,0,0,1,.08,1.07,4.22,4.22,0,0,0-.31,1.11q-.08.57-.15,1.19h.15q.77-.15,1.49-.34A5.84,5.84,0,0,1,19.59,24l.77.38a2.29,2.29,0,0,1,.34.65,1.4,1.4,0,0,1,0,.73l-.38.77a5.45,5.45,0,0,1-2,.69q-1.11.15-2.18.38-.23,1.3-.34,2.64a7.31,7.31,0,0,1-.65,2.49,2.29,2.29,0,0,1-.65.34,1.39,1.39,0,0,1-.73,0L13,32.69a2.18,2.18,0,0,1-.34-.69,2.65,2.65,0,0,1-.11-.77,6.7,6.7,0,0,0,.31-1.42q.08-.73.15-1.49h-.15a30.91,30.91,0,0,0-3,.77L6.88,30v.23l.92,2a6.36,6.36,0,0,0,1.3,1.84,18.74,18.74,0,0,0,4.17,2.53q2.26,1,4.48,1.76a2.9,2.9,0,0,1,.34.69,1.4,1.4,0,0,1,0,.73l-.38.77a1.73,1.73,0,0,1-.61.31Z"/><path class="cls-1" d="M34.54,40.84l-.77-.38a2.29,2.29,0,0,1-.34-.65,1.39,1.39,0,0,1,0-.73L34,38a9.08,9.08,0,0,0,.88-.84,10.56,10.56,0,0,0,.8-1q.15-.46.27-.92a2.58,2.58,0,0,0,0-1l-.46-.84A4.19,4.19,0,0,0,33.81,33q-1,0-1.88,0a16.43,16.43,0,0,0-2.87.54,12.72,12.72,0,0,1-2.87.46l-.77-.38a2.28,2.28,0,0,1-.34-.65,1.39,1.39,0,0,1,0-.73l.38-.77a28.43,28.43,0,0,1,4.44-1.15,23.72,23.72,0,0,1,4.75-.31,7.49,7.49,0,0,1,1.57.46,6.31,6.31,0,0,1,1.42.84l.23.23a5.33,5.33,0,0,1,1,1.88A5.5,5.5,0,0,1,39,35.59a5.1,5.1,0,0,1-.69,2,18.34,18.34,0,0,1-1.22,1.76l-.31.31-.38.38-.31.31a2,2,0,0,1-.69.46A1.54,1.54,0,0,1,34.54,40.84Z"/><path class="cls-1" d="M52.51,40.07l-.77-.38A2.28,2.28,0,0,1,51.4,39a1.52,1.52,0,0,1,0-.77A18.19,18.19,0,0,0,54,33.57a12.55,12.55,0,0,0,.69-5.4,6.13,6.13,0,0,0-.23-.92,1.48,1.48,0,0,0-.61-.77,1.44,1.44,0,0,0-.65-.15h-.73l-1.68.15q-.46,1.91-.8,3.87a19.42,19.42,0,0,1-1,3.71,2.29,2.29,0,0,1-.65.34,1.66,1.66,0,0,1-.8,0l-.77-.38a2.72,2.72,0,0,1-.36-.65,1.09,1.09,0,0,1,0-.73A16.08,16.08,0,0,0,47,30q.23-1.34.54-2.72h-.23q-.54.23-1.13.42a3,3,0,0,1-1.28.11l-.77-.38a2.28,2.28,0,0,1-.34-.65,1.39,1.39,0,0,1,0-.73l.38-.77a14.64,14.64,0,0,1,2-.77q1.05-.31,2.12-.54a9.33,9.33,0,0,0,.31-2.41,4.68,4.68,0,0,1,.54-2.26A2.75,2.75,0,0,1,49.8,19a1.28,1.28,0,0,1,.73-.06l.77.42a2.19,2.19,0,0,1,.34.69,1.85,1.85,0,0,1,0,.84q-.08.69-.11,1.34a6.9,6.9,0,0,1-.19,1.26h.23l2-.15a7.11,7.11,0,0,1,1.22.27,2.59,2.59,0,0,1,1.07.65l.61.61a5.56,5.56,0,0,1,1,2.6,16.56,16.56,0,0,1,.11,3,15.17,15.17,0,0,1-1.07,4.86A16.35,16.35,0,0,1,54,39.61a3.33,3.33,0,0,1-.65.38A1.38,1.38,0,0,1,52.51,40.07Zm17.49-9a3.77,3.77,0,0,1-.57-.19,3.08,3.08,0,0,1-.5-.27,28.12,28.12,0,0,0-1.68-2.79,24.54,24.54,0,0,0-2.1-2.64l-2.68-2.3a2.28,2.28,0,0,1-.34-.65,1.39,1.39,0,0,1,0-.73l.38-.77a2.28,2.28,0,0,1,.65-.34,1.4,1.4,0,0,1,.73,0,9.11,9.11,0,0,1,1.89,1.38q.9.84,1.82,1.61l1.07,1.22.23.46H69l1.53,2.3a6.4,6.4,0,0,1,1,2.53l-.38.77a1.14,1.14,0,0,1-.54.31Z"/><path class="cls-1" d="M87.29,37.66q-2.6-1.38-5.17-2.95t-5-3.33a1.6,1.6,0,0,1-.42-.73,2,2,0,0,1,0-.88L77,29h.15l1.15-1.84h.15l1.07-1.45Q80.78,24.42,82,23a28.2,28.2,0,0,1,2.56-2.68l.31-.31a6.93,6.93,0,0,1,1-.8A1.69,1.69,0,0,1,87,18.94l.77.38a2.29,2.29,0,0,1,.34.65,1.81,1.81,0,0,1,0,.84l-.38.77-.23.23-.38.15v.15l-.54.54-.31.31q-.69.61-1.22,1.19a9.82,9.82,0,0,0-1,1.26l-.54.69-.54.54-.54.54-.54.54-.38.38h-.15l-.23.46L80.25,30q2,1.3,4,2.49T88.36,35a3.37,3.37,0,0,1,.38.65,1.39,1.39,0,0,1,.08.8l-.38.77a1.13,1.13,0,0,1-.54.31Z"/><path class="cls-1" d="M106.1,43.36l-.77-.42a1.13,1.13,0,0,1-.31-.55,5.8,5.8,0,0,1-.11-.63l.08-.23q0-1.07,0-2t0-1.91h-.15l-4.32.38-.77-.42a2.28,2.28,0,0,1-.34-.65,1.18,1.18,0,0,1,0-.73l.38-.77a7,7,0,0,1,2.49-.55q1.34-.06,2.68-.25l0-.54L104.92,33l.11-.31h-.57q-.57.15-1.11.25a6.52,6.52,0,0,1-1.15.1,2.35,2.35,0,0,1-.56-.21q-.25-.13-.48-.29a2.28,2.28,0,0,1-.34-.65,1.39,1.39,0,0,1,0-.73l.19-.84q-.27-1.68-.42-3.5t-.27-3.58l.38-.77a5.41,5.41,0,0,1,2.41-.8q1.3-.11,2.56-.31v-.92l0-1h-1l-1.91.11a2.75,2.75,0,0,1-.57-.21,4.53,4.53,0,0,1-.5-.29,1.91,1.91,0,0,1-.33-.67,1.63,1.63,0,0,1,0-.75l.38-.77a4.11,4.11,0,0,1,1.88-.4q1,0,2-.06,0-.77,0-1.53a2.17,2.17,0,0,1,.48-1.34,2.22,2.22,0,0,1,.67-.34,1.48,1.48,0,0,1,.75,0l.77.42a1.61,1.61,0,0,1,.36,1.3,4.23,4.23,0,0,0,.06,1.45l1.07,0,1.53,0,.92.15a1.45,1.45,0,0,1,.8.42,2.29,2.29,0,0,1,.34.65,1.4,1.4,0,0,1,0,.73l-.42.8a1.79,1.79,0,0,1-.92.31,7.41,7.41,0,0,1-1.07,0l-1.15-.08-1.07.11-.08.69,0,1.07,2.26.06a3.2,3.2,0,0,1,2,.67,2.16,2.16,0,0,1,.27.61q.08.31.15.69l-.08,4v2.49l-.08.38a1.2,1.2,0,0,1,.19.5,2.2,2.2,0,0,1,0,.57L113,32a4.08,4.08,0,0,1-.88.46,2,2,0,0,1-1,.11l-.46-.11-2.53.11-.11,1.3.08.69,2.6,0,1.07,0,.73.38a2.23,2.23,0,0,1,.34.67,1.48,1.48,0,0,1,0,.75l-.42.73a3.88,3.88,0,0,1-2.07.52l-2.3-.06L108,40v2.07l-.46,1a2,2,0,0,1-.65.33A1.71,1.71,0,0,1,106.1,43.36Zm-.61-17.84v-1l.08-.19-.23,0-2,.27v.77l0,.38.38,0Zm-.27,4.17,0-1.07h-.5l-1,.15v.38l.11.54.31.08Zm5-.27,0-.61.08-.38-1.45,0-.54.08,0,1.07h.15Zm0-4V24.26l-1.68,0-.08,1.15ZM128.72,42.9a3.72,3.72,0,0,1-.57-.19,3,3,0,0,1-.5-.27l-1.49-2.79-.31,0-5,.75q-2.47.36-5,.67l-.88-.5a1.94,1.94,0,0,1-.33-.65,2.7,2.7,0,0,1-.1-.73,36.38,36.38,0,0,1,2.45-4.42l2.76-4.23h-.61l-3.22.11a2.73,2.73,0,0,1-.57-.21,2.55,2.55,0,0,1-.46-.29,1.91,1.91,0,0,1-.33-.67,1.63,1.63,0,0,1,0-.75L115,28a21.88,21.88,0,0,1,4.13-.38q2.14,0,4.32-.08l5.55.19.69.19a1.73,1.73,0,0,1,.61.31,4.08,4.08,0,0,1,.31.69,1.18,1.18,0,0,1,0,.73l-.38.73a2.32,2.32,0,0,1-.73.33,3.14,3.14,0,0,1-.77.1l-.08-.08-5.24-.19a10,10,0,0,1-.94,1.63l-1.13,1.59a7.27,7.27,0,0,0-.82,1.19,7.34,7.34,0,0,1-.86,1.22L119,37.58h.54l5.05-.8,0-.23-.71-1.11a1.74,1.74,0,0,1-.25-1.26l.42-.73a1.92,1.92,0,0,1,.67-.33,1.64,1.64,0,0,1,.75,0l.77.42q1.15,2,2.26,4a24.09,24.09,0,0,1,1.8,4.23l-.42.73a1.15,1.15,0,0,1-.54.25Zm-2.41-19.48-.08-.08h-9l-.77-.38a2.28,2.28,0,0,1-.34-.65,1.39,1.39,0,0,1,0-.73l.38-.77a3.1,3.1,0,0,1,.5-.27,3.77,3.77,0,0,1,.57-.19h9a3.82,3.82,0,0,1,.57.19,3.13,3.13,0,0,1,.5.27,2.29,2.29,0,0,1,.34.65,1.4,1.4,0,0,1,0,.73l-.38.77a1.73,1.73,0,0,1-.61.31Z"/><path class="cls-1" d="M142.26,43.33l-.77-.38a12.53,12.53,0,0,1-.5-3.89q.08-1.82,0-4.19h-.15a23.05,23.05,0,0,1-2.83.73l-2.87.54-.77-.38a2.29,2.29,0,0,1-.34-.65,1.39,1.39,0,0,1,0-.73l.38-.77a4.44,4.44,0,0,1,1.34-.56l1.42-.33v-.15l-.27-1.38V27.79l.08-1.07-.11-.92.31-2.91,0-3.37a2.82,2.82,0,0,1-.69-.08,1.13,1.13,0,0,1-.54-.31,3,3,0,0,1-.34-.67,1.31,1.31,0,0,1,0-.71l.38-.8a9.12,9.12,0,0,1,4.19-1q2.28,0,4.5-.17l.77.38a2.29,2.29,0,0,1,.34.65,1.4,1.4,0,0,1,0,.73l-.38.77-.77.38-.08.08,0,3.71q-.23,2.22-.36,4.5T144,31.54l.69.31a2.29,2.29,0,0,1,.34.65,1.4,1.4,0,0,1,0,.73l-.46.84-.61.31V37l0,5.09-.34.73a3.37,3.37,0,0,1-.65.38A1.39,1.39,0,0,1,142.26,43.33ZM141,31.8l.19-3.14H140a2.48,2.48,0,0,0-.19,1.15q0,.61,0,1.22l.19.92h.42Zm.38-6.28V24L141,24l-1.11.15v1.45h1.19Zm.23-4.59,0-2-1.42,0,0,2.14h.73Zm21.32,23.27-.77-.38A19.25,19.25,0,0,1,160,41.3a10.09,10.09,0,0,1-1.15-3l-.15,0-.38.5a3.29,3.29,0,0,1-.78.54,1.61,1.61,0,0,1-.94.11l-.8-.34a2.6,2.6,0,0,1-.36-.67,1.15,1.15,0,0,1,0-.75l.46-.92,1.3-1.26.61-.54,0-.61a30.83,30.83,0,0,1-.94-3,15.9,15.9,0,0,1-.48-3.22q-1.49,0-2.89-.08t-2.85,0q-1.19.11-2.39.17a13.11,13.11,0,0,0-2.35.33l-.8-.38a1.81,1.81,0,0,1-.34-.61,1.39,1.39,0,0,1,0-.73L145,26a1.52,1.52,0,0,1,.88-.54,7.77,7.77,0,0,1,1.07-.15V25a4.94,4.94,0,0,1-.21-1.61,15.41,15.41,0,0,0-.06-1.72,1.31,1.31,0,0,1-.55-.11,3.46,3.46,0,0,1-.48-.27,2.28,2.28,0,0,1-.34-.65,1.73,1.73,0,0,1-.08-.73l.34-.77a2.18,2.18,0,0,1,1.42-.5h1.57v-.15l-.19-2.6.38-.77a2.89,2.89,0,0,1,.63-.36,1.43,1.43,0,0,1,.78-.06l.77.38a3.62,3.62,0,0,1,.52,1.65q.06.88.06,1.8.84,0,1.68,0a2.24,2.24,0,0,1,1.45.5,1.91,1.91,0,0,1,.38.65,1.74,1.74,0,0,1,.08.73l-.38.77-.73.42-.73,3.52,2.72,0,0-2.68L156,22l0-.84a22.62,22.62,0,0,1-.34-3,28.25,28.25,0,0,0-.31-3q.08-.54.11-1.07a1.61,1.61,0,0,1,.34-.92,2.74,2.74,0,0,1,.65-.36,1.28,1.28,0,0,1,.73-.06l.77.38a1.3,1.3,0,0,1,.42.92q0,.57,0,1.11l-.08.31q.27,1.57.38,3.23T159,22l-.08.23.11,2.22-.08.69q1.11.08,2.18.06a4.53,4.53,0,0,1,2,.4,1.68,1.68,0,0,1,.42.65,1.4,1.4,0,0,1,0,.73l-.38.77a1.51,1.51,0,0,1-.69.38,3.33,3.33,0,0,1-.88.11l-2.33-.11v.23a10.89,10.89,0,0,0,.34,2.07q.27,1,.54,1.91h.15a12.87,12.87,0,0,0,1.38-1.53L163,29.24a2.21,2.21,0,0,1,.65-.4,1.28,1.28,0,0,1,.73-.06l.77.38a3,3,0,0,1,.34.67,1.63,1.63,0,0,1,.08.71,4.12,4.12,0,0,1-.59,1,5.67,5.67,0,0,0-.63,1L161.89,35h-.15l-.31.46a.3.3,0,0,0-.23.31v.46a16.54,16.54,0,0,1,.8,1.89,15.42,15.42,0,0,0,1.34,2.62l.69.69v.15l.15,0a2.75,2.75,0,0,1,.36.65,1.68,1.68,0,0,1,.1.77l-.38.77a2.22,2.22,0,0,1-.65.4A1.28,1.28,0,0,1,162.89,44.21ZM148.5,42.48q-.46-.08-.88-.11a1.24,1.24,0,0,1-.73-.31,2.51,2.51,0,0,1-.46-1.19,11.35,11.35,0,0,1-.08-1.34q.23-2,.44-3.92a27.84,27.84,0,0,0,.13-4l-.11-1.22.38-.8a8.17,8.17,0,0,1,2-.54,9.87,9.87,0,0,1,2.12-.08l.92.17a2,2,0,0,1,.84.4l.23.23,1,1.76v3.22l-.08.69.11,3-.08.42.15,2.07-.38.77a2.29,2.29,0,0,1-.65.34,2,2,0,0,1-.8.08l-.31-.08Zm2.72-3.37v-.73l.08-1.22H150l-.42.08-.08,1.49.08.61h.27Zm-.57-14.2-.15-.77.69-2.64h-1.45v.23a6.7,6.7,0,0,1,.19,1.63q0,.86.08,1.7h.38Zm.61,9.26v-2a.64.64,0,0,0-.61-.27q-.38,0-.69,0v2.22Zm12.21-11.52a3.72,3.72,0,0,1-.57-.19,3,3,0,0,1-.5-.27,10.26,10.26,0,0,0-1.17-2.14,4.36,4.36,0,0,1-.78-2.33l.38-.77a2.28,2.28,0,0,1,.65-.34,1.4,1.4,0,0,1,.73,0L163,17a17.74,17.74,0,0,0,1.24,2.1,4.53,4.53,0,0,1,.78,2.33l-.38.77a1.29,1.29,0,0,1-.54.33Z"/><path class="cls-1" d="M182.89,40.91a3.72,3.72,0,0,1-.57-.19,3.07,3.07,0,0,1-.5-.27,2.29,2.29,0,0,1-.34-.65,1.39,1.39,0,0,1,0-.73,10.52,10.52,0,0,0,.84-2,15,15,0,0,0,.46-2.2h-.23l-1.45.23a5.37,5.37,0,0,1-1.3-.31,3.82,3.82,0,0,1-1.15-.69l-.46-.46a4.34,4.34,0,0,1-.84-1.76,9.16,9.16,0,0,1-.23-2.07,5.43,5.43,0,0,1,.34-1.38,4.21,4.21,0,0,1,.73-1.22,6.66,6.66,0,0,1,2-1.15,5,5,0,0,1,2.33-.23l.61.15V23.73l-.08-.38h-.69q-3.14.23-6.2.65t-6,1.11a3.43,3.43,0,0,1-.61-.19,3.06,3.06,0,0,1-.5-.27,2.28,2.28,0,0,1-.34-.65,1.39,1.39,0,0,1,0-.73l.38-.77A43.71,43.71,0,0,1,175.73,21q3.48-.46,7-.69V19.6l-.38-3.18.38-.77a2.28,2.28,0,0,1,.65-.34,1.4,1.4,0,0,1,.73,0l.77.38a5.3,5.3,0,0,1,.61,2.2,17.7,17.7,0,0,0,.31,2.35h2l.08-.08h3.64l.77.38a3.37,3.37,0,0,1,.38.65,1.39,1.39,0,0,1,.08.8l-.38.77a1.83,1.83,0,0,1-.88.38,6.73,6.73,0,0,1-1,.08l-2.49-.08-2,.08v.15l.08.08v4.9L185.88,30l.15.61v3.44q-.31,1.68-.69,3.31a10,10,0,0,1-1.3,3.08,1.13,1.13,0,0,1-.54.31ZM182,31.84a4.21,4.21,0,0,0,.57-1.11,4,4,0,0,0,.19-1.26.81.81,0,0,0-.27-.38l-.42-.31h-1l-.92.84-.08.84q.08.31.15.65a1.14,1.14,0,0,0,.31.57l.15.08v.15l1.07.08Z"/><path class="cls-1" d="M207.26,39.31a4,4,0,0,1-1.57-.31,4.5,4.5,0,0,1-1.34-.88,3.72,3.72,0,0,1-.77-1.34,4,4,0,0,1-.15-1.57,4.22,4.22,0,0,1,1.22-2.53,4.55,4.55,0,0,1,2.18-1.22,7.6,7.6,0,0,1,2.64-.15,3.11,3.11,0,0,1,1,.34q.5.27,1,.5a3.08,3.08,0,0,0,.46-1.3,6.94,6.94,0,0,0,0-1.45l-.46-.77a3.42,3.42,0,0,0-1.57-.92,5.67,5.67,0,0,0-1.88-.15,5.08,5.08,0,0,0-2.37.73q-1.07.65-2.14,1.34l-.08.15-.84.92-.54.46a3,3,0,0,1-.69.38,1.54,1.54,0,0,1-.84.08l-.77-.38a2.28,2.28,0,0,1-.34-.65,1.39,1.39,0,0,1,0-.73l.84-1.22q1.91-1.84,3.75-3.83a20.6,20.6,0,0,0,3.06-4.29L206,20.44l-3.6.23-.77-.38a2.28,2.28,0,0,1-.34-.65,1.52,1.52,0,0,1,0-.77l.38-.77a6.41,6.41,0,0,1,2.56-.57q1.42,0,2.79-.11a9,9,0,0,1,1.19.23,4.67,4.67,0,0,1,1.11.46l.31.31a2,2,0,0,1,.5,1.24q0,.71,0,1.47a11.57,11.57,0,0,1-.92,1.76q-.54.84-1.15,1.68a7,7,0,0,1,5.66,1.91l.23.46h.15a4.1,4.1,0,0,1,.8,2.11,15.19,15.19,0,0,1,0,2.41l-.46,1.38a9.91,9.91,0,0,1-.54,1.3l.23.15v.15h.15l.15.38.23.15a1.12,1.12,0,0,1,.34.69q0,.38,0,.77l-.38.77a2.29,2.29,0,0,1-.65.34,1.39,1.39,0,0,1-.73,0l-.77-.38-.31-.46h-.23l-.38.23v.15l-.38.38a8.11,8.11,0,0,1-1.91,1.21A7.81,7.81,0,0,1,207.26,39.31Zm1.61-3.71.46-.46.38-.46a1.26,1.26,0,0,0-.92-.38h-1.07l-1.15.77-.15.77a1.58,1.58,0,0,0,.5.34.88.88,0,0,0,.57,0Z"/><path class="cls-1" d="M224,28.93l-.8-.38a2.29,2.29,0,0,1-.34-.65,1.66,1.66,0,0,1,0-.8l1.88-3.67h-.31l-1,.08-.77-.38a2.28,2.28,0,0,1-.34-.65,1.39,1.39,0,0,1,0-.73l.38-.77a4.33,4.33,0,0,1,1.74-.57q1-.11,1.89-.27a7.18,7.18,0,0,0,.61-1.47,4.4,4.4,0,0,1,.77-1.47,2.28,2.28,0,0,1,.65-.34,1.4,1.4,0,0,1,.73,0l.77.38a2.29,2.29,0,0,1,.34.65,1.67,1.67,0,0,1,0,.8l-.23.73h.23q.77-.23,1.61-.4a6.18,6.18,0,0,1,1.76-.1l.84.5a2.28,2.28,0,0,1,.34.65,1.4,1.4,0,0,1,0,.73l-.38.77a1.73,1.73,0,0,1-.61.31l-.69.15-.69-.08-3.9.84q-.69,1.45-1.45,2.95a29.24,29.24,0,0,1-1.68,2.87,2.29,2.29,0,0,1-.65.34A1.39,1.39,0,0,1,224,28.93Zm10,12.36a3.82,3.82,0,0,1-1.53-.46,7.45,7.45,0,0,1-1.3-.92,4.27,4.27,0,0,1-1-1.7,7,7,0,0,1-.27-1.93,10.57,10.57,0,0,1,.42-1.61,5.1,5.1,0,0,1,.8-1.45l.31-.31a4.55,4.55,0,0,1,2.11-1.22,8.38,8.38,0,0,1,2.56-.23V28.63l-.15-3,.38-.77a2.28,2.28,0,0,1,.65-.34,1.4,1.4,0,0,1,.73,0l.77.38a3.45,3.45,0,0,1,.5,1.65q0,.88.11,1.8v3.06q1.07.23,2.14.5a4.4,4.4,0,0,1,1.91,1,1.91,1.91,0,0,1,.38.65,1.4,1.4,0,0,1,0,.73l-.42.77a2.29,2.29,0,0,1-.65.34,1.66,1.66,0,0,1-.8,0,7.8,7.8,0,0,0-1.3-.65,4,4,0,0,0-1.45-.27,20.28,20.28,0,0,1-.31,2.6,6.05,6.05,0,0,1-1,2.33l-.54.54a7.12,7.12,0,0,1-1.45.88A5.11,5.11,0,0,1,234.07,41.3Zm1.07-3.56a2.85,2.85,0,0,0,.73-1.53q.11-.84.19-1.76h-1.15l-1.07.38V35l-.61.69L233,36.74l.38,1,.92.46Zm9.68-12.94a1.59,1.59,0,0,1-.71-.34l-.63-.5-2-1.53-.23-.23-.92-.69a4.28,4.28,0,0,1-.5-.77,1.53,1.53,0,0,1-.11-.92l.38-.77a2.28,2.28,0,0,1,.65-.34,1.4,1.4,0,0,1,.73,0l.77.38v.15l1.07.69.23.23.88.69V21l1,.54.23.23v.15h.15a3.55,3.55,0,0,1,.61.8,1.5,1.5,0,0,1,.15,1l-.38.77a2.28,2.28,0,0,1-.65.34A1.39,1.39,0,0,1,244.83,24.8Z"/><path class="cls-1" d="M265.06,41.6a3.74,3.74,0,0,1-.57-.19,3.08,3.08,0,0,1-.5-.27,2.28,2.28,0,0,1-.34-.65,1.39,1.39,0,0,1,0-.73l.46-.92.46-.5a10.59,10.59,0,0,0,1.26-1.53q.57-.84,1-1.68l.08-1.45a4.1,4.1,0,0,0-.23-.65,1.89,1.89,0,0,0-.38-.57,1.67,1.67,0,0,0-1-.34q-.57,0-1.11,0a11.27,11.27,0,0,0-2.49,1.07,6.55,6.55,0,0,1-2.64.84,3.29,3.29,0,0,1-1.76-.92,3.76,3.76,0,0,1-.84-1.57q-.23-.88-.38-1.8v-4q.15-.84.27-1.68a2.48,2.48,0,0,1,.73-1.45,2.28,2.28,0,0,1,.65-.34,1.4,1.4,0,0,1,.73,0l.77.38a2.29,2.29,0,0,1,.34.65,1.4,1.4,0,0,1,0,.73,3.23,3.23,0,0,0-.31,1,5.74,5.74,0,0,1-.23,1v3.6l.38,1.22h.38a12.28,12.28,0,0,1,2.79-1.34,8,8,0,0,1,3.25-.34,6.42,6.42,0,0,1,1.34.46,5.28,5.28,0,0,1,1.19.77l.46.54a4.65,4.65,0,0,1,.88,2,9.65,9.65,0,0,1,.11,2.3,5.45,5.45,0,0,1-.73,2.11q-.57,1-1.26,1.91l-.46.54h-.15l-.46.77-.46.54h-.15v.15a1.14,1.14,0,0,1-.54.31ZM261.54,21a21.14,21.14,0,0,0-2-1,20.78,20.78,0,0,1-2-1,2.9,2.9,0,0,1-.34-.69,1.39,1.39,0,0,1,0-.73l.38-.77a2.29,2.29,0,0,1,.65-.34,1.67,1.67,0,0,1,.8,0q.92.38,1.88.73a6.1,6.1,0,0,1,1.8,1A3.17,3.17,0,0,1,263,19a1.47,1.47,0,0,1,.08.82l-.38.77a1.13,1.13,0,0,1-.54.31Z"/><path class="cls-1" d="M281.73,40a4.9,4.9,0,0,1-1.34-.52,5.35,5.35,0,0,1-1.19-.9,3.63,3.63,0,0,1-.77-1.42,8.89,8.89,0,0,1-.31-1.65q.23-1.15.54-2.18a5.46,5.46,0,0,1,1.07-2,7.07,7.07,0,0,1,1.49-1.15q.8-.46,1.57-1l.92-.31v-1l-.23-2.83H283a11.68,11.68,0,0,0-1.91.15l-1.84.31-.8-.19a2.6,2.6,0,0,1-.77-.34,2.28,2.28,0,0,1-.34-.65,1.39,1.39,0,0,1,0-.73l.38-.77a11.32,11.32,0,0,1,2.49-.5q1.3-.11,2.6-.19V22a4.53,4.53,0,0,0-.38-1.44,3.59,3.59,0,0,1-.31-1.51l.38-.77a2.29,2.29,0,0,1,.65-.34,1.4,1.4,0,0,1,.73,0l.77.38a5,5,0,0,1,.77,1.7q.23.94.38,1.93h.61a8.86,8.86,0,0,1,1.49-.19q.8,0,1.57,0l.77.38a2.29,2.29,0,0,1,.34.65,1.4,1.4,0,0,1,0,.73l-.38.77a2.8,2.8,0,0,1-1.76.5,6.79,6.79,0,0,0-1.91.19l-.08,1.07.23,2.22h.38q.92-.15,1.84-.23t1.91-.08a11.2,11.2,0,0,1,2.22.69,11.8,11.8,0,0,1,2.07,1.15l.92.92a5.21,5.21,0,0,1,1.24,2.26,9,9,0,0,1,.25,2.72,8.77,8.77,0,0,1-.17,1.76,5.09,5.09,0,0,1-.63,1.61,3.33,3.33,0,0,1-.65.38,1.38,1.38,0,0,1-.8.08l-.77-.38a2.28,2.28,0,0,1-.34-.65,1.66,1.66,0,0,1,0-.8,3.64,3.64,0,0,0,.31-1.49,15.63,15.63,0,0,1,.08-1.57,3.82,3.82,0,0,0-.42-1.42,3.73,3.73,0,0,0-1-1.19,8,8,0,0,0-1.76-.84,5.1,5.1,0,0,0-2-.23l-2.45.31a15,15,0,0,1-.38,4.06,9.37,9.37,0,0,1-1.68,3.52l-.38.38a4.32,4.32,0,0,1-1.26.67A4.57,4.57,0,0,1,281.73,40Zm.77-3.25a6.11,6.11,0,0,0,1.07-2.11,9.05,9.05,0,0,0,.31-2.41h-.15l-1.15.61V33l-.54.46h-.15a7.6,7.6,0,0,0-.5,1.26,4.71,4.71,0,0,0-.19,1.34l.23.61.84.23Zm15-10.41-.8-.38a3.91,3.91,0,0,0-1.11-.77,7.54,7.54,0,0,1-1.19-.69,2.28,2.28,0,0,1-.34-.65,1.39,1.39,0,0,1,0-.73l.38-.77a2.28,2.28,0,0,1,.65-.34,1.67,1.67,0,0,1,.8,0l2.79,1.45a3.84,3.84,0,0,1,.5.8,1.69,1.69,0,0,1,.11,1l-.38.77a2.29,2.29,0,0,1-.65.34A1.39,1.39,0,0,1,297.54,26.33Z"/><path class="cls-1" d="M310.34,42.67l-.77-.42a2.91,2.91,0,0,1-.5-1.51q0-.82-.08-1.7l0-3.41-.11-.08,0-4.75h-.15A23.38,23.38,0,0,1,306.69,33q-1.13,1-2.2,2.07a1.81,1.81,0,0,1-.73.38,1.71,1.71,0,0,1-.88,0l-.77-.34a2.36,2.36,0,0,1-.34-.63,1.31,1.31,0,0,1,0-.71l.42-.73a54.34,54.34,0,0,0,5.07-4.78A55.07,55.07,0,0,0,311.61,23h-.15q-1.61.54-3.23,1a24.23,24.23,0,0,1-3.31.69l-1-.42a2.36,2.36,0,0,1-.34-.63,1.12,1.12,0,0,1,0-.71l.38-.73q2.83-.77,5.57-1.59a25.49,25.49,0,0,1,5.72-1l.77.38a2.37,2.37,0,0,1,.34.63,1.2,1.2,0,0,1,0,.67,11.9,11.9,0,0,1-1.59,2.55q-1,1.21-1.82,2.39l2.22,1q1.11.48,2.18,1.05a2.38,2.38,0,0,1,.34.63,1.32,1.32,0,0,1,0,.71l-.42.73a2.44,2.44,0,0,1-.65.29,1.85,1.85,0,0,1-.8,0,9.19,9.19,0,0,1-1.93-.77,10.4,10.4,0,0,0-2-.8v.57l.08.08L312,35.44l.08.08,0,3.41.11,2.68-.38.69a2.3,2.3,0,0,1-.65.34A1.39,1.39,0,0,1,310.34,42.67Zm1-24.34-1.07-.69-2.91-3-.08-.92.42-.77a2.28,2.28,0,0,1,.65-.34,1.4,1.4,0,0,1,.73,0l.8.42,2.33,2.22q.31.46.65.92a1.31,1.31,0,0,1,.23,1.07l-.38.77a2.3,2.3,0,0,1-.65.34A1.39,1.39,0,0,1,311.38,18.33Zm22,25.49a11.18,11.18,0,0,1-5.21-2.6l-.46-.54a7.36,7.36,0,0,1-1.86-3.77q-.36-2.12-.63-4l.15-1.45,0-3.29h-.54a28,28,0,0,1-2.72,7.43,50.34,50.34,0,0,1-4.29,6.74h-.15v.15a2.29,2.29,0,0,1-.65.34,1.43,1.43,0,0,1-.8,0l-.77-.38a2.37,2.37,0,0,1-.34-.63,1.31,1.31,0,0,1,0-.71l.38-.77a30.9,30.9,0,0,0,2.6-3.69q1.19-2,2.14-3.92a18.9,18.9,0,0,1,.9-2.11,8.64,8.64,0,0,0,.75-2.18h-.15l-.84.08a3.74,3.74,0,0,1-.57-.19,1.59,1.59,0,0,1-.5-.34l-.23-.23a40.65,40.65,0,0,1-.78-5.43A20.3,20.3,0,0,0,317.73,17l.38-.77a3.7,3.7,0,0,1,.73-.34,1.4,1.4,0,0,1,.73,0l.54.08a34.6,34.6,0,0,1,5-.77Q327.6,15,330.4,15a4.6,4.6,0,0,1,1.19.15,3.44,3.44,0,0,1,1.11.54,1.43,1.43,0,0,1,.44.84,3.76,3.76,0,0,1,0,1q-.57,2.56-.9,5.05a31.88,31.88,0,0,1-1.05,4.94,2.6,2.6,0,0,1-1.26.46,9.16,9.16,0,0,1-1.45,0l0,3.48.27,3.67a5.11,5.11,0,0,0,.23,1.51,5.72,5.72,0,0,0,.61,1.36h.15l.46.54.46.54a2.77,2.77,0,0,0,.71.69l.78.5,1.38.44a8.42,8.42,0,0,1,1.3.52,1.81,1.81,0,0,1,.34.61,1.4,1.4,0,0,1,0,.73l-.42.77a1.49,1.49,0,0,1-.61.29Zm-4.52-18.75v-.54q.34-1.61.57-3.22T329.9,18h-2.18q-1.61.08-3.22.25a20.73,20.73,0,0,0-3.06.55l-.08.23q.19,1.61.48,3.14a14,14,0,0,1,.21,3.22h.77l3-.21Q327.34,25.07,328.91,25.07Z"/><path class="cls-1" d="M345.12,37.89A5.3,5.3,0,0,1,343.7,37q-.65-.54-1.26-1.07a24.35,24.35,0,0,1-2.93-5.51,38.35,38.35,0,0,1-1.7-6,3.77,3.77,0,0,1,.19-.57,3.07,3.07,0,0,1,.27-.5,2.28,2.28,0,0,1,.65-.34,1.4,1.4,0,0,1,.73,0l.8.38q.77,2.68,1.68,5.32a30.26,30.26,0,0,0,2.37,5.17l1.91,1.38a3.36,3.36,0,0,1,.38.65,1.39,1.39,0,0,1,.08.8l-.38.77a2.29,2.29,0,0,1-.65.34A1.39,1.39,0,0,1,345.12,37.89Zm15.35-6.2a4.53,4.53,0,0,1-.59-.19,2.79,2.79,0,0,1-.52-.27,18.12,18.12,0,0,0-1.15-3.67,13.22,13.22,0,0,0-2.07-3.29l-.69-.46a2.28,2.28,0,0,1-.34-.65,1.39,1.39,0,0,1,0-.73l.38-.77a2.29,2.29,0,0,1,.65-.34,1.67,1.67,0,0,1,.8,0l1.07.54.38.38.46.54A25.42,25.42,0,0,1,361,26.37a10,10,0,0,1,1,4.1l-.38.77a1.13,1.13,0,0,1-.54.31Z"/><path class="cls-1" d="M394,30.16A7.48,7.48,0,0,1,392.45,29a9.59,9.59,0,0,0-1.61-1.22l-.23-.23-.23-.23L388.24,25l-1.68-2-1.07-1.15-1.91-2.22a12.46,12.46,0,0,0-1.38-1.59q-.77-.75-1.53-1.44h-.23l-1.22,1.84-3.67,4.1h-.15l-.54.77-.23.08-.38.54-.92.92h-.15l-1.38,1.68-.23.08-.34.46-.23.08-1,1.15-.38.38-.54.61-.38.15v.15A2.29,2.29,0,0,1,368,30a1.39,1.39,0,0,1-.73,0l-.77-.38a2.28,2.28,0,0,1-.34-.65,1.66,1.66,0,0,1,0-.8l.38-.77.23-.23.46-.46,1.68-1.61.54-.54,1.61-1.76,1.49-1.45.77-.84a24.54,24.54,0,0,0,2.79-3,38.23,38.23,0,0,0,2.33-3.27l.54-1,.38-.15V13a2.28,2.28,0,0,1,.65-.34,1.4,1.4,0,0,1,.73,0l.77.38.38.38.77.84.46.54.61.54v.15h.15l1.07,1.07.46.54.54.61.84,1,.54.65.54.61.69.77,1.15,1.22.69,1.07h.15v.15h.15l1.19,1.3.54.54.31.31.61.54v.15l.46.23.54.46v.15l.46.23.92,1,.08,1-.38.77a2.28,2.28,0,0,1-.65.34A1.39,1.39,0,0,1,394,30.16ZM371.28,43.21a3.78,3.78,0,0,1-.57-.19,3,3,0,0,1-.5-.27,2.28,2.28,0,0,1-.34-.65,1.39,1.39,0,0,1,0-.73l.38-.77a6.52,6.52,0,0,1,2.28-.46q1.05,0,2.43-.08v-.15a5.83,5.83,0,0,0-1-2.09,4.33,4.33,0,0,1-.88-2.16l.38-.77a2.28,2.28,0,0,1,.65-.34,1.4,1.4,0,0,1,.73,0l.77.38q.77,1.07,1.42,2.18a5.38,5.38,0,0,1,.73,2.45l-.08.46h1.3v-.23l-.08-.69.08-.08V32.61h-.31l-.08.08H375.3l-2.83.31-.77-.38a2.72,2.72,0,0,1-.36-.65,1.09,1.09,0,0,1,0-.73l.38-.77a4.3,4.3,0,0,1,1.72-.57q1-.11,1.88-.19h3.14l.46-.08V26.48h-.23l-3,.31-.77-.38a2.28,2.28,0,0,1-.34-.65,1.39,1.39,0,0,1,0-.73l.38-.77a7.08,7.08,0,0,1,2.87-.65,22.92,22.92,0,0,0,3-.27h3.06l.69-.08.77.38a2.29,2.29,0,0,1,.34.65,1.67,1.67,0,0,1,0,.8l-.38.77a2.83,2.83,0,0,1-1.61.46h-1.84v3.29h.92l4.82-.23.84.46a2.29,2.29,0,0,1,.34.65,1.4,1.4,0,0,1,0,.73l-.38.77a8.55,8.55,0,0,1-3.18.5,30.34,30.34,0,0,0-3.41.11v6.7l-.08.61h.38l1.38-.08v-.23a1.18,1.18,0,0,1-.19-.5,4,4,0,0,1,0-.57q.69-1.26,1.3-2.53a12.74,12.74,0,0,1,1.53-2.41,2.27,2.27,0,0,1,.65-.34,1.4,1.4,0,0,1,.73,0l.77.38a2.29,2.29,0,0,1,.34.65,1.4,1.4,0,0,1,0,.73,21,21,0,0,0-1.38,2.39q-.61,1.24-1.3,2.47a19.33,19.33,0,0,1,2.72,0,6.71,6.71,0,0,1,2.53.73,3.36,3.36,0,0,1,.38.65,1.39,1.39,0,0,1,.08.8l-.38.77a2.23,2.23,0,0,1-.67.34,1.76,1.76,0,0,1-.82,0l-1.3-.08-6.2-.31-2.76.15h-3.9Z"/><path class="cls-1" d="M412.87,41.91a26.48,26.48,0,0,1-3.33-.4A4.82,4.82,0,0,1,406.9,40a4.23,4.23,0,0,1-1.49-2,6.58,6.58,0,0,1-.27-2.35,4.49,4.49,0,0,1,.92-2.22q.77-1,1.61-1.91l.46-.46,1.45-1v-.23a3.31,3.31,0,0,1-.38-.65,1.29,1.29,0,0,0-.54-.57,6.89,6.89,0,0,0-1.26-.19,1.85,1.85,0,0,1-1.11-.42,2.28,2.28,0,0,1-.34-.65,1.66,1.66,0,0,1,0-.8l.84-2.45h-.54l-2.22.46L402.92,24a2.28,2.28,0,0,1-.34-.65,1.4,1.4,0,0,1,0-.73l.38-.77a9.46,9.46,0,0,1,2.41-.57,18.7,18.7,0,0,0,2.49-.42q.31-1.22.69-2.43a15.62,15.62,0,0,1,.92-2.28,2.29,2.29,0,0,1,.65-.34,1.4,1.4,0,0,1,.73,0l.77.38a2.28,2.28,0,0,1,.34.65,1.67,1.67,0,0,1,0,.8l-.84,2.72h.31a17.54,17.54,0,0,1,2.22-.42l2.22-.27.77.38a2.29,2.29,0,0,1,.34.65,1.67,1.67,0,0,1,0,.8l-.38.77a17.82,17.82,0,0,1-3.25.73q-1.57.19-3.33.57l-.54,2.22a2,2,0,0,1,.8.31q.34.23.73.54l.31.31.77,1.22h.31a6.16,6.16,0,0,1,2.45-.77l.77.38a2.29,2.29,0,0,1,.34.65,1.4,1.4,0,0,1,0,.73l-.38.77-1.19.54-1.19.54v.31q.23,1.07.54,2.18a11.34,11.34,0,0,1,.38,2.26l-.38.77a2.29,2.29,0,0,1-.65.34,1.66,1.66,0,0,1-.8,0l-.77-.38a4.3,4.3,0,0,1-.5-1.49,10.73,10.73,0,0,0-.34-1.57l-.31-.08a5.49,5.49,0,0,0-1.88,1.49,2.46,2.46,0,0,0-.42,1.65,2.94,2.94,0,0,0,.27.84,4.28,4.28,0,0,0,.5.77,10.67,10.67,0,0,0,2.87.86,7.32,7.32,0,0,0,2.49-.29l.84.08.77.38a2.29,2.29,0,0,1,.34.65,1.4,1.4,0,0,1,0,.73l-.38.77-1.42.46A5.19,5.19,0,0,1,412.87,41.91Z"/><path class="cls-1" d="M437.77,40.61a11.55,11.55,0,0,1-1.91-.46A4.12,4.12,0,0,1,434.18,39a14.24,14.24,0,0,1-1.65-2.72,13,13,0,0,1-1-3,11.18,11.18,0,0,1-1.34-.23,3.32,3.32,0,0,1-1.19-.54,2.29,2.29,0,0,1-.34-.65,1.39,1.39,0,0,1,0-.73l.38-.77a2.28,2.28,0,0,1,.65-.34,1.67,1.67,0,0,1,.8,0l.77.23V29l-.08-2.37.15-1.38h-.15l-1.3.15-.77-.38a2.29,2.29,0,0,1-.34-.65,1.39,1.39,0,0,1,0-.73l.38-.77a2.56,2.56,0,0,1,1.22-.46l1.38-.15a9.83,9.83,0,0,1,.73-2.81,18.32,18.32,0,0,1,1.34-2.58,2.27,2.27,0,0,1,.65-.34,1.4,1.4,0,0,1,.73,0l.77.38a2.28,2.28,0,0,1,.34.65,1.67,1.67,0,0,1,0,.8q-.46.92-.88,1.82a9.47,9.47,0,0,0-.65,1.89q.92.08,1.84.19a4.27,4.27,0,0,1,1.68.57,2.3,2.3,0,0,1,.34.65,1.67,1.67,0,0,1,0,.8l-.38.77a2.29,2.29,0,0,1-.65.34,1.4,1.4,0,0,1-.73,0,7.08,7.08,0,0,0-1.26-.34,4.7,4.7,0,0,0-1.34,0l-.15,3.9.08,1.07h.54l1.72-.65a5.1,5.1,0,0,1,1.88-.34l.77.38a2.29,2.29,0,0,1,.34.65,1.4,1.4,0,0,1,0,.73l-.38.77a17.86,17.86,0,0,1-2.18.92,11.49,11.49,0,0,1-2.33.54v.31a14,14,0,0,0,.77,2,11.53,11.53,0,0,0,1.07,1.8q.46.23,1,.42a2.26,2.26,0,0,0,1.11.11,5.38,5.38,0,0,0,1.88-.84,12.07,12.07,0,0,0,1.65-1.38q.84-1.07,1.57-2.18a4.44,4.44,0,0,0,.73-2.49l-.08-.69.38-.77a2.18,2.18,0,0,1,.69-.34,1.85,1.85,0,0,1,.84,0l.8.38a1.57,1.57,0,0,1,.34.88q0,.5,0,1a7.87,7.87,0,0,1-1.28,3.79,23.14,23.14,0,0,1-2.58,3.25,11.4,11.4,0,0,1-2.64,1.74A7.16,7.16,0,0,1,437.77,40.61Z"/><path class="cls-1" d="M467.34,41.6a3.75,3.75,0,0,1-.57-.19,3.08,3.08,0,0,1-.5-.27,2.28,2.28,0,0,1-.34-.65,1.39,1.39,0,0,1,0-.73l.46-.92.46-.5a10.61,10.61,0,0,0,1.26-1.53q.57-.84,1-1.68l.08-1.45A4.09,4.09,0,0,0,469,33a1.89,1.89,0,0,0-.38-.57,1.67,1.67,0,0,0-1-.34q-.57,0-1.11,0A11.28,11.28,0,0,0,464,33.14a6.55,6.55,0,0,1-2.64.84,3.29,3.29,0,0,1-1.76-.92,3.75,3.75,0,0,1-.84-1.57q-.23-.88-.38-1.8v-4q.15-.84.27-1.68a2.48,2.48,0,0,1,.73-1.45,2.28,2.28,0,0,1,.65-.34,1.4,1.4,0,0,1,.73,0l.77.38a2.29,2.29,0,0,1,.34.65,1.4,1.4,0,0,1,0,.73,3.23,3.23,0,0,0-.31,1,5.77,5.77,0,0,1-.23,1v3.6l.38,1.22h.38a12.28,12.28,0,0,1,2.79-1.34,8,8,0,0,1,3.25-.34,6.41,6.41,0,0,1,1.34.46,5.28,5.28,0,0,1,1.19.77l.46.54a4.65,4.65,0,0,1,.88,2,9.65,9.65,0,0,1,.11,2.3,5.44,5.44,0,0,1-.73,2.11q-.57,1-1.26,1.91l-.46.54h-.15l-.46.77-.46.54h-.15v.15a1.14,1.14,0,0,1-.54.31ZM463.82,21a21.16,21.16,0,0,0-2-1,20.76,20.76,0,0,1-2-1,2.89,2.89,0,0,1-.34-.69,1.39,1.39,0,0,1,0-.73l.38-.77a2.28,2.28,0,0,1,.65-.34,1.67,1.67,0,0,1,.8,0q.92.38,1.88.73a6.1,6.1,0,0,1,1.8,1,3.17,3.17,0,0,1,.38.67,1.47,1.47,0,0,1,.08.82l-.38.77a1.14,1.14,0,0,1-.54.31Z"/><path class="cls-1" d="M486.93,40.84l-.77-.38a2.28,2.28,0,0,1-.34-.65,1.39,1.39,0,0,1,0-.73l.61-1.11a9.07,9.07,0,0,0,.88-.84,10.55,10.55,0,0,0,.8-1q.15-.46.27-.92a2.58,2.58,0,0,0,0-1l-.46-.84A4.19,4.19,0,0,0,486.2,33q-1,0-1.88,0a16.43,16.43,0,0,0-2.87.54,12.72,12.72,0,0,1-2.87.46l-.77-.38a2.28,2.28,0,0,1-.34-.65,1.39,1.39,0,0,1,0-.73l.38-.77a28.43,28.43,0,0,1,4.44-1.15,23.71,23.71,0,0,1,4.75-.31,7.49,7.49,0,0,1,1.57.46,6.31,6.31,0,0,1,1.42.84l.23.23a5.33,5.33,0,0,1,1,1.88,5.49,5.49,0,0,1,.15,2.26,5.1,5.1,0,0,1-.69,2,18.29,18.29,0,0,1-1.22,1.76l-.31.31-.38.38-.31.31a2,2,0,0,1-.69.46A1.54,1.54,0,0,1,486.93,40.84Z"/><path class="cls-1" d="M510.72,41.76l-.77-.38a2.28,2.28,0,0,1-.34-.65,1.4,1.4,0,0,1,0-.73q.92-1.53,1.8-3.12a6.55,6.55,0,0,0,.8-3.5l-.38-1.3L510,32a11,11,0,0,0-2,.65,6.05,6.05,0,0,1-2,.5,4,4,0,0,1-.65-.23,1.88,1.88,0,0,1-.57-.38,2.62,2.62,0,0,1-.46-.88,2.34,2.34,0,0,1-.08-1,18.38,18.38,0,0,1,.69-2.95q.46-1.42.84-2.87h-.15a26.71,26.71,0,0,0-2.64.57l-2.56.73a3.74,3.74,0,0,1-.57-.19,3.07,3.07,0,0,1-.5-.27A1.89,1.89,0,0,1,499,25a1.66,1.66,0,0,1,0-.8l.42-.77a16.46,16.46,0,0,1,3.71-1.11,35.56,35.56,0,0,0,3.79-.88,5.38,5.38,0,0,0,.65-1.68,4.5,4.5,0,0,1,.73-1.68,1.9,1.9,0,0,1,.65-.38,1.4,1.4,0,0,1,.73,0l.77.42a2.29,2.29,0,0,1,.34.65,1.67,1.67,0,0,1,0,.8l-.46,1.38h.31a17.83,17.83,0,0,1,3.33-.46l3.48-.15.77.38a2.29,2.29,0,0,1,.34.65,1.4,1.4,0,0,1,0,.73l-.38.77a18.54,18.54,0,0,1-4.52.69,18.59,18.59,0,0,0-4.52.69l-1.61,5.36H508a6.07,6.07,0,0,1,1.8-.5,10,10,0,0,1,2,0q.61.15,1.15.34a3.28,3.28,0,0,1,1,.57v.15H514a5.57,5.57,0,0,1,.88,1.84,7.94,7.94,0,0,1,.27,2.07,9.91,9.91,0,0,1-.92,3.92,19,19,0,0,1-2.07,3.39,3.34,3.34,0,0,1-.65.38A1.38,1.38,0,0,1,510.72,41.76Z"/><path class="cls-1" d="M529.15,40.15l-.77-.38v-.15h-.15l-2-3.25H526q-.61.46-1.22,1a1.94,1.94,0,0,1-1.45.42l-.77-.38a2.28,2.28,0,0,1-.34-.65,1.39,1.39,0,0,1,0-.73l.38-.77,2.3-1.61v-.15a6,6,0,0,0-.8-1.42,2.06,2.06,0,0,1-.42-1.49l.38-.77a2.28,2.28,0,0,1,.65-.34,1.4,1.4,0,0,1,.73,0l.77.38,1.22,2.14h.15a5,5,0,0,1,1.3-.57,2.75,2.75,0,0,0,1.22-.73l.08-1.3q-.15-.61-.34-1.19a4,4,0,0,1-.19-1.26l.38-.77a2.28,2.28,0,0,1,.65-.34,1.4,1.4,0,0,1,.73,0l.77.38a5.43,5.43,0,0,1,.65,1.65q.19.88.34,1.8h.38l.46-.15h3.67a5,5,0,0,1,1.45.54A4,4,0,0,1,540.33,31a2.63,2.63,0,0,1,.59,1.22,5,5,0,0,1,.06,1.45,4,4,0,0,1-.52,1.68,7,7,0,0,1-1.13,1.45l-1.22,1.07-.23.23a1.9,1.9,0,0,1-.65.38,1.39,1.39,0,0,1-.73,0l-.77-.42a2.28,2.28,0,0,1-.34-.65,1.66,1.66,0,0,1,0-.8l.38-.77q.54-.46,1.11-.88a3.7,3.7,0,0,0,1-1l.15-1.15-.69-.46h-3.14a9.91,9.91,0,0,0-2.72,1,26.17,26.17,0,0,1-2.56,1.22l-.08.23,1.61,2.68h.15a2.24,2.24,0,0,1,.34.67,1.76,1.76,0,0,1,0,.82l-.38.77a2.3,2.3,0,0,1-.65.34A1.39,1.39,0,0,1,529.15,40.15Z"/><path class="cls-1" d="M548.85,40a4.9,4.9,0,0,1-1.34-.52,5.36,5.36,0,0,1-1.19-.9,3.64,3.64,0,0,1-.77-1.42,8.89,8.89,0,0,1-.31-1.65q.23-1.15.54-2.18a5.46,5.46,0,0,1,1.07-2,7.06,7.06,0,0,1,1.49-1.15q.8-.46,1.57-1l.92-.31v-1l-.23-2.83h-.46a11.68,11.68,0,0,0-1.91.15l-1.84.31-.8-.19a2.6,2.6,0,0,1-.77-.34,2.29,2.29,0,0,1-.34-.65,1.39,1.39,0,0,1,0-.73l.38-.77a11.32,11.32,0,0,1,2.49-.5q1.3-.11,2.6-.19V22a4.53,4.53,0,0,0-.38-1.44,3.59,3.59,0,0,1-.31-1.51l.38-.77a2.28,2.28,0,0,1,.65-.34,1.4,1.4,0,0,1,.73,0l.77.38a5,5,0,0,1,.77,1.7q.23.94.38,1.93h.61A8.86,8.86,0,0,1,555,21.7q.8,0,1.57,0l.77.38a2.28,2.28,0,0,1,.34.65,1.4,1.4,0,0,1,0,.73l-.38.77a2.79,2.79,0,0,1-1.76.5,6.79,6.79,0,0,0-1.91.19l-.08,1.07.23,2.22h.38q.92-.15,1.84-.23t1.91-.08a11.2,11.2,0,0,1,2.22.69,11.81,11.81,0,0,1,2.07,1.15l.92.92a5.21,5.21,0,0,1,1.24,2.26,9,9,0,0,1,.25,2.72,8.75,8.75,0,0,1-.17,1.76,5.09,5.09,0,0,1-.63,1.61,3.34,3.34,0,0,1-.65.38,1.38,1.38,0,0,1-.8.08l-.77-.38a2.28,2.28,0,0,1-.34-.65,1.66,1.66,0,0,1,0-.8,3.64,3.64,0,0,0,.31-1.49,15.63,15.63,0,0,1,.08-1.57,3.82,3.82,0,0,0-.42-1.42,3.73,3.73,0,0,0-1-1.19,8,8,0,0,0-1.76-.84,5.1,5.1,0,0,0-2-.23l-2.45.31a15,15,0,0,1-.38,4.06,9.36,9.36,0,0,1-1.68,3.52l-.38.38a4.32,4.32,0,0,1-1.26.67A4.57,4.57,0,0,1,548.85,40Zm.77-3.25a6.11,6.11,0,0,0,1.07-2.11,9,9,0,0,0,.31-2.41h-.15l-1.15.61V33l-.54.46H549a7.63,7.63,0,0,0-.5,1.26,4.71,4.71,0,0,0-.19,1.34l.23.61.84.23Zm15-10.41-.8-.38a3.92,3.92,0,0,0-1.11-.77,7.56,7.56,0,0,1-1.19-.69,2.28,2.28,0,0,1-.34-.65,1.39,1.39,0,0,1,0-.73l.38-.77a2.28,2.28,0,0,1,.65-.34,1.67,1.67,0,0,1,.8,0l2.79,1.45a3.84,3.84,0,0,1,.5.8,1.69,1.69,0,0,1,.11,1l-.38.77a2.29,2.29,0,0,1-.65.34A1.39,1.39,0,0,1,564.65,26.33Z"/><path class="cls-1" d="M582,41.68l-.77-.38a2.29,2.29,0,0,1-.34-.65,1.66,1.66,0,0,1,0-.8,33.14,33.14,0,0,0,2.33-5,15.85,15.85,0,0,0,1-5.51,5.41,5.41,0,0,0-.31-1.3,8,8,0,0,0-.54-1.15,7,7,0,0,0-1.8-.54,8.88,8.88,0,0,0-2-.08l-3.6,1.15v.15q-.54.31-1,.61a1.67,1.67,0,0,1-1.15.23L573,28a2.28,2.28,0,0,1-.34-.65,1.39,1.39,0,0,1,0-.73l.61-1a13,13,0,0,1,4-1.91,13.85,13.85,0,0,1,4.63-.46q.92.23,1.84.54a5.44,5.44,0,0,1,1.68.92A6.54,6.54,0,0,1,587,27.86a13.47,13.47,0,0,1,.19,3.67,30.62,30.62,0,0,1-1.34,5,24.84,24.84,0,0,1-2.26,4.65h-.15v.15a2.29,2.29,0,0,1-.65.34A1.39,1.39,0,0,1,582,41.68Zm.31-20.86q-1.3-.61-2.56-1.36T577.27,18a2.29,2.29,0,0,1-.34-.65,1.4,1.4,0,0,1,0-.73l.38-.77a2.28,2.28,0,0,1,.65-.34,1.67,1.67,0,0,1,.8,0q1.22.61,2.45,1.26t2.37,1.34a2,2,0,0,1,.46.71,1.63,1.63,0,0,1,.08.86l-.38.77a2.29,2.29,0,0,1-.65.34A1.39,1.39,0,0,1,582.32,20.82Z"/><path class="cls-2" d="M211,87.22a2.49,2.49,0,0,1-.37-.12,2,2,0,0,1-.32-.18,1.19,1.19,0,0,1-.25-.57,4.4,4.4,0,0,1-.05-.68h-.35l-2.29.32q-1.14.18-2.29.28a2.47,2.47,0,0,1-.37-.12,2,2,0,0,1-.32-.18,1.49,1.49,0,0,1-.22-.43.91.91,0,0,1,0-.47l.25-.5a1.81,1.81,0,0,1,.88-.28l.92-.07V84l-.1-.93v-2.5L206,80l.1-2.9H204.4A2.43,2.43,0,0,1,204,77a2,2,0,0,1-.32-.18.91.91,0,0,1-.18-.47,1.81,1.81,0,0,1,0-.53l.25-.5q2-.2,3.44-.27l2.89-.18h2.3l0-.05h2.2l3.8-.15,2.09.07a2.27,2.27,0,0,1,1.09.32,1.5,1.5,0,0,1,.23.43.91.91,0,0,1,0,.48l-.25.5a1.1,1.1,0,0,1-.42.2l-.47.1-3-.15-2.95.15h-2.2l-.35.05,0,.95,0,.05V80l-.1,1.05.05,1.25-.1,1.1a.77.77,0,0,1,.35.07l.3.18a1.46,1.46,0,0,1,.22.44,1,1,0,0,1,0,.49l-.25.5a2,2,0,0,1-.32.17.94.94,0,0,1-.37.08v.85a1.13,1.13,0,0,1-.25.75.74.74,0,0,1-.35.2Zm-3.15-13.52a1.35,1.35,0,0,1-.42-.52,1.75,1.75,0,0,1-.08-.55,3,3,0,0,0,0-.57l-.25-1.87v-2q0-.25.13-.5a1.43,1.43,0,0,1,.22-.45h.1l.2-.45a1.87,1.87,0,0,1,.7-.27l.8-.12h3.45l1.5-.05,1.53.07a2.87,2.87,0,0,1,1.37.38,5.73,5.73,0,0,1,.5,2.4q0,1.3.1,2.57l-.2.6a.78.78,0,0,1,.13.32,2.7,2.7,0,0,1,0,.38l-.25.5a1.43,1.43,0,0,1-.87.3q-.48,0-1,.05h-5.6a5.36,5.36,0,0,0-1,.1A1.19,1.19,0,0,1,207.87,73.69Zm2.35,6.8v-.55l0-.15h-1.15l-1.05.15,0,.4,0,.35h.25Zm-.1,3.15V83l0-.55h-.45l-1.65.25v.2l.1,1h.2Zm.1-5.8V77l0-.2h-.1l-2,.15v1h.1a5.81,5.81,0,0,1,1-.12Zm5.4-8.72v-.55l0-.2-2.75-.1,0,.05h-3.45l-.3.05v1h.4l1.8-.25Zm.2,2.78v-.1l-.1-.7h-4.4l-2.1.25v.5l.05.15h.5l.05-.05h5.55ZM214,87l-.5-.25a1.49,1.49,0,0,1-.22-.43.91.91,0,0,1,0-.48l.25-.5q.55-.3,1.07-.62a4.48,4.48,0,0,0,1-.82l.2-.42-.9-1.18a2.35,2.35,0,0,1-.5-1.32l.25-.5a1.49,1.49,0,0,1,.42-.23.92.92,0,0,1,.47,0l.5.25a4,4,0,0,1,.45.68,1.79,1.79,0,0,0,.55.63q.25-.55.47-1.1a5.35,5.35,0,0,0,.32-1.15h-1.45l-1.6.05a2.43,2.43,0,0,1-.37-.12,2,2,0,0,1-.33-.18,1.49,1.49,0,0,1-.22-.43.91.91,0,0,1,0-.47l.25-.5a1.6,1.6,0,0,1,1.05-.25,4.36,4.36,0,0,0,1.15-.05h2.55l.46.1a1.12,1.12,0,0,1,.41.2.78.78,0,0,1,.22.5q0,.3,0,.6a9.73,9.73,0,0,1-.59,2.38,13.27,13.27,0,0,1-1.09,2.17h.1l.15.15.55.47v.1l1.63.8a1.5,1.5,0,0,1,.22.42.91.91,0,0,1,0,.48l-.25.5a1.49,1.49,0,0,1-.43.22,1.09,1.09,0,0,1-.53,0,5.81,5.81,0,0,1-1-.4,9.46,9.46,0,0,1-.94-.55l-.75-.6-.1.15-.4.4q-.6.45-1.2.85A2.72,2.72,0,0,1,214,87Z"/><path class="cls-2" d="M232,86.52l-.53-.25a1.49,1.49,0,0,1-.22-.43,1.08,1.08,0,0,1,0-.52,38.35,38.35,0,0,0,3.45-5,21.94,21.94,0,0,0,2.28-5.65h-.4l-.05.05h-2.3l-2.77.2a2.44,2.44,0,0,1-.37-.12,2,2,0,0,1-.32-.18,1.49,1.49,0,0,1-.22-.42.91.91,0,0,1,0-.48l.25-.5a4.74,4.74,0,0,1,1.64-.32q.89,0,1.74-.12h2.35l.8-.05.15-4.22-.05-.3a2.49,2.49,0,0,1,.13-.37,2,2,0,0,1,.18-.32,1.5,1.5,0,0,1,.42-.22.91.91,0,0,1,.47,0l.5.25a2.41,2.41,0,0,1,.33,1.32q0,.73,0,1.43l-.15,2.42h2.5l.35.05,1-.05q.65.05,1.36.05a2.3,2.3,0,0,1,1.26.35,1.49,1.49,0,0,1,.22.43.91.91,0,0,1,0,.47l-.25.5a1.12,1.12,0,0,1-.4.2l-.45.1a8.25,8.25,0,0,0-1.3-.1q-.67,0-1.32-.05l-.6.05-.05-.05h-2v.1q1.15,2.5,2.47,4.95a40.22,40.22,0,0,0,3,4.72h.1a5.49,5.49,0,0,1,.45.63,1.19,1.19,0,0,1,.15.78l-.25.5a1.5,1.5,0,0,1-.42.22,1,1,0,0,1-.5,0l-.5-.25a39.51,39.51,0,0,1-3.07-4.49,50.79,50.79,0,0,1-2.52-4.89h-.1a30,30,0,0,1-1.15,2.85,21.41,21.41,0,0,1-1.5,2.7h-.1a10.32,10.32,0,0,1-.7,1.19q-.4.59-.8,1.14H234l-.3.5h-.1l-.45.7H233l-.1.25a2.19,2.19,0,0,1-.43.25A.9.9,0,0,1,232,86.52Z"/><path class="cls-2" d="M261.2,86.49a4.6,4.6,0,0,1-1.59-.86l-1.44-1.17a1.61,1.61,0,0,1-.21-.53,1.44,1.44,0,0,1,0-.59l.36-.58a1.33,1.33,0,0,1,.54-.24,1.51,1.51,0,0,1,.67,0l.64.42.06.18.3.12,0,.12a3.75,3.75,0,0,1,.68.44,1.29,1.29,0,0,0,.74.29,2.79,2.79,0,0,0,.79-.33,1.75,1.75,0,0,0,.54-.54,3.31,3.31,0,0,0,.39-1.33l.12-1.45a5.23,5.23,0,0,0-.36-1.38,4.19,4.19,0,0,0-.85-1.26,3.85,3.85,0,0,0-.86-.26,1.56,1.56,0,0,1-.8-.41,2.91,2.91,0,0,1-.26-.61,1,1,0,0,1,0-.58l.36-.61a11.68,11.68,0,0,0,1.24-.45,4.72,4.72,0,0,0,1.15-.7,3.49,3.49,0,0,0,1-1.39,4.1,4.1,0,0,0,.23-1.7l-.39-.67a1.85,1.85,0,0,0-.82-.35,6.35,6.35,0,0,0-1-.08,2.5,2.5,0,0,0-.92.42,1.26,1.26,0,0,1-1,.21l-.61-.33a1.4,1.4,0,0,1-.23-.56,1.66,1.66,0,0,1,0-.59l.33-.58a4.15,4.15,0,0,1,1.86-.89,6.13,6.13,0,0,1,2.23,0q.45.15.89.33a3.69,3.69,0,0,1,.86.51l.42.51A3.21,3.21,0,0,1,266.9,71a11.49,11.49,0,0,1-.11,2.12,5,5,0,0,1-.74,1.54L265,76l-.45.39.24.18A7,7,0,0,1,266,79.47a10.44,10.44,0,0,1,0,3.12,7.17,7.17,0,0,1-.42,1.36,6.06,6.06,0,0,1-.7,1.21l-.64.61a7.7,7.7,0,0,1-1.39.59A4,4,0,0,1,261.2,86.49Z"/><path class="cls-2" d="M276.79,85.25a3.94,3.94,0,0,1-1-.44,4.29,4.29,0,0,1-.89-.74l-.21-.27a7.26,7.26,0,0,1-1.26-3.39,27.79,27.79,0,0,1-.14-3.81,16,16,0,0,1,1-4,10.28,10.28,0,0,1,2.29-3.41,4.2,4.2,0,0,1,1.29-.74,2.54,2.54,0,0,1,1.53,0q.39.15.8.35a2.6,2.6,0,0,1,.77.59l.73.88a13,13,0,0,1,.79,2.3A17.89,17.89,0,0,1,282.9,75l-.15,2.88a11.61,11.61,0,0,1-.89,3.36,13.77,13.77,0,0,1-1.77,2.94l-.39.36a5.43,5.43,0,0,1-1.38.61A4.31,4.31,0,0,1,276.79,85.25Zm.82-2.48.88-.48a8.55,8.55,0,0,0,1.6-3.27,16.2,16.2,0,0,0,.45-3.94,14,14,0,0,0-.29-1.73,11.07,11.07,0,0,0-.53-1.67l-.12-.09-.39-.61-.61-.12a1.4,1.4,0,0,0-.59.42l-.44.51a5,5,0,0,0-.59.79l-.53.85a17.36,17.36,0,0,0-.59,2.18,15.56,15.56,0,0,0-.29,2.3q.06,1.12.18,2.23a4.65,4.65,0,0,0,.7,2l.36.3.12.24.61.12Z"/><path class="cls-2" d="M288.78,89.88l-.67-.36a.93.93,0,0,1-.15-.36,2.59,2.59,0,0,1,0-.42l.67-1.21a2,2,0,0,1-.91-.21,3,3,0,0,1-.79-.58,1.6,1.6,0,0,1-.36-.54,1.77,1.77,0,0,1-.12-.67,2,2,0,0,1,.21-.67,4.15,4.15,0,0,1,.39-.58,2.57,2.57,0,0,1,.91-.51,2.73,2.73,0,0,1,1.09-.09,5,5,0,0,0,.7.18,1,1,0,0,1,.58.36,6.3,6.3,0,0,1,.39,1,2.83,2.83,0,0,1,.09,1.1q-.18.91-.42,1.79a3.24,3.24,0,0,1-1,1.54Z"/><path class="cls-2" d="M301.4,85.25a3.94,3.94,0,0,1-1-.44,4.29,4.29,0,0,1-.89-.74l-.21-.27A7.26,7.26,0,0,1,298,80.4a27.79,27.79,0,0,1-.14-3.81,16,16,0,0,1,1-4,10.28,10.28,0,0,1,2.29-3.41,4.2,4.2,0,0,1,1.29-.74,2.54,2.54,0,0,1,1.53,0q.39.15.8.35a2.6,2.6,0,0,1,.77.59l.73.88a12.93,12.93,0,0,1,.79,2.3,17.83,17.83,0,0,1,.39,2.42l-.15,2.88a11.6,11.6,0,0,1-.89,3.36,13.77,13.77,0,0,1-1.77,2.94l-.39.36a5.43,5.43,0,0,1-1.38.61A4.31,4.31,0,0,1,301.4,85.25Zm.82-2.48.88-.48A8.54,8.54,0,0,0,304.7,79a16.2,16.2,0,0,0,.45-3.94,14,14,0,0,0-.29-1.73,11,11,0,0,0-.53-1.67l-.12-.09-.39-.61-.61-.12a1.4,1.4,0,0,0-.59.42l-.44.51a5,5,0,0,0-.59.79l-.53.85a17.36,17.36,0,0,0-.59,2.18,15.56,15.56,0,0,0-.29,2.3q.06,1.12.18,2.23a4.65,4.65,0,0,0,.7,2l.36.3.12.24.61.12Z"/><path class="cls-2" d="M316.9,85.25a3.94,3.94,0,0,1-1-.44,4.29,4.29,0,0,1-.89-.74l-.21-.27a7.26,7.26,0,0,1-1.26-3.39,27.75,27.75,0,0,1-.14-3.81,16,16,0,0,1,1-4,10.28,10.28,0,0,1,2.29-3.41,4.2,4.2,0,0,1,1.29-.74,2.54,2.54,0,0,1,1.53,0q.39.15.8.35a2.6,2.6,0,0,1,.77.59l.73.88a13,13,0,0,1,.79,2.3A17.87,17.87,0,0,1,323,75l-.15,2.88a11.61,11.61,0,0,1-.89,3.36,13.77,13.77,0,0,1-1.77,2.94l-.39.36a5.43,5.43,0,0,1-1.38.61A4.31,4.31,0,0,1,316.9,85.25Zm.82-2.48.88-.48A8.55,8.55,0,0,0,320.2,79a16.2,16.2,0,0,0,.45-3.94,14,14,0,0,0-.29-1.73,11.07,11.07,0,0,0-.53-1.67l-.12-.09-.39-.61-.61-.12a1.4,1.4,0,0,0-.59.42l-.44.51a5,5,0,0,0-.59.79l-.53.85a17.36,17.36,0,0,0-.59,2.18,15.57,15.57,0,0,0-.29,2.3q.06,1.12.18,2.23a4.65,4.65,0,0,0,.7,2l.36.3.12.24.61.12Z"/><path class="cls-2" d="M332.4,85.25a3.94,3.94,0,0,1-1-.44,4.29,4.29,0,0,1-.89-.74l-.21-.27A7.26,7.26,0,0,1,329,80.4a27.75,27.75,0,0,1-.14-3.81,16,16,0,0,1,1-4,10.28,10.28,0,0,1,2.29-3.41,4.2,4.2,0,0,1,1.29-.74,2.54,2.54,0,0,1,1.53,0q.39.15.8.35a2.6,2.6,0,0,1,.77.59l.73.88a13,13,0,0,1,.79,2.3,17.87,17.87,0,0,1,.39,2.42l-.15,2.88a11.61,11.61,0,0,1-.89,3.36,13.77,13.77,0,0,1-1.77,2.94l-.39.36a5.43,5.43,0,0,1-1.38.61A4.31,4.31,0,0,1,332.4,85.25Zm.82-2.48.88-.48A8.55,8.55,0,0,0,335.7,79a16.2,16.2,0,0,0,.45-3.94,14,14,0,0,0-.29-1.73,11.07,11.07,0,0,0-.53-1.67l-.12-.09-.39-.61-.61-.12a1.4,1.4,0,0,0-.59.42l-.44.51a5,5,0,0,0-.59.79l-.53.85a17.36,17.36,0,0,0-.59,2.18,15.57,15.57,0,0,0-.29,2.3q.06,1.12.18,2.23a4.65,4.65,0,0,0,.7,2l.36.3.12.24.61.12Z"/><path class="cls-2" d="M360.72,86.17l-.37-.11a2.14,2.14,0,0,1-.35-.16,1.66,1.66,0,0,1-.24-.45,1.09,1.09,0,0,1,0-.55,6.74,6.74,0,0,0,.09-1.24q0-.64,0-1.29l-.08-.05-.07-3.55-.07-.55-.35,0-.48.1-6.45-.2-3.3.07-.8,0-1.53.12v1.25l.08,1.2-.05.05.07,3.77-.27.55a1.8,1.8,0,0,1-.43.24.83.83,0,0,1-.48,0l-.5-.25-.27-.47-.07-4,0-1.05-.07-1.1,0-.35-.07-1.12a13.43,13.43,0,0,0,.11-1.93q0-1,.06-1.92l-.07-2.57.25-.52a6.72,6.72,0,0,1,2.64-.65l2.86-.17,4.38-.1q1.55.08,3.16.06a8.53,8.53,0,0,1,3,.51,3.1,3.1,0,0,1,.43,1.31q.07.74.17,1.44l.05,2.25a14.09,14.09,0,0,1-.07,1.87,14.2,14.2,0,0,0-.07,1.9l.05.05.07,3.5.05.05,0,2.22q-.05.4-.06.77a1.2,1.2,0,0,1-.26.7.6.6,0,0,1-.32.2Zm-8.57-10-.05-1.25.05-.05-.08-3.3.05-.3-1.6,0-1.9.13q-1,.05-1.9.18,0,1.2,0,2.37t0,2.38h.43l1.92-.15.07.05Zm7.55,0,0-.15.07-1.3-.05-2.05-.12-1.4L354,71.22l.07,3.7v1.3q1.2.08,2.4.1t2.45,0Z"/><path class="cls-2" d="M379.7,84.52l-.5-.25a1.45,1.45,0,0,1-.23-.44,1.14,1.14,0,0,1,0-.54l.25-.5a8.27,8.27,0,0,0,.65-1l.6-1.07a9.74,9.74,0,0,0,.4-1.3,4.8,4.8,0,0,0,.1-1.4,3,3,0,0,0-.4-1.35,5.7,5.7,0,0,0-.9-1.15,3.37,3.37,0,0,0-1.45-.65,9.23,9.23,0,0,0-1.7-.15,10.63,10.63,0,0,1-.32,3.37,9.85,9.85,0,0,1-1.37,3h-.1l-.15.3-.4.45-.3.3-.3.15v.1a3.16,3.16,0,0,1-1.25.63,4.65,4.65,0,0,1-1.45.13,3.63,3.63,0,0,1-.75-.27,3.33,3.33,0,0,1-.65-.43,2.71,2.71,0,0,1-.61-1.37,11,11,0,0,1-.11-1.57,6.48,6.48,0,0,1,.66-2.42,10.59,10.59,0,0,1,1.41-2.12A6.35,6.35,0,0,1,373,73.39a9.93,9.93,0,0,1,2.6-.65,18.41,18.41,0,0,1,2.55.18,6.37,6.37,0,0,1,2.3.77l.6.5v.1h.1l.5.55a4.85,4.85,0,0,1,1.05,2,7.08,7.08,0,0,1,.18,2.32,8.67,8.67,0,0,1-.79,2.6,19.31,19.31,0,0,1-1.39,2.38l-.15.15a1.49,1.49,0,0,1-.43.22A.91.91,0,0,1,379.7,84.52Zm-7.45-3.62a4.55,4.55,0,0,0,.8-.8,7.09,7.09,0,0,0,.6-.9,7.77,7.77,0,0,0,.72-2,8.68,8.68,0,0,0,.18-2.2h-.2l-.57.2a3,3,0,0,0-.53.25v.1l-1.1.75A8.31,8.31,0,0,0,371,78.22a4.7,4.7,0,0,0-.32,2.22l.15.6a.77.77,0,0,0,.3.13l.35,0Z"/><path class="cls-2" d="M405.69,86.69l-.5-.25A1.54,1.54,0,0,1,405,86a1,1,0,0,1,0-.51,9.18,9.18,0,0,0,.39-2q.09-1.06.21-2.11l0-3.25q-.05-.6-.06-1.23a5.17,5.17,0,0,0-.16-1.2q-1-.17-2.07-.27a18.35,18.35,0,0,0-2.15-.07v.15q0,.48.1.88t.13.8h.1v.1h.1l.65.48a7.67,7.67,0,0,0,1.22.3,3.33,3.33,0,0,1,1.18.42,1.5,1.5,0,0,1,.23.43.92.92,0,0,1,0,.48l-.27.5a1.84,1.84,0,0,1-.45.2,1.2,1.2,0,0,1-.55,0,11.57,11.57,0,0,1-1.76-.44,5.2,5.2,0,0,1-1.61-.89l-.25-.25a3.19,3.19,0,0,1-.61-1.47,12.42,12.42,0,0,1-.11-1.73h-1.68l-.7,0v.25l.1.77q-.25.5-.51,1t-.56.93h-.1l-.6.95h-.1l-.28.43-.25.25-.45.4H394v.1a1.49,1.49,0,0,1-.43.22,1.08,1.08,0,0,1-.52,0l-.5-.25a1.9,1.9,0,0,1-.23-.45.91.91,0,0,1,0-.48l.27-.47.2-.2.5-.45q.45-.5.86-1a9.07,9.07,0,0,0,.71-1.1l.2-.75-.15,0-1.72.19a7.83,7.83,0,0,0-1.7.36v.35l0,.05,0,2.45.07,1.2-.05,4.67.05.75-.25.5a2,2,0,0,1-.42.2.91.91,0,0,1-.48,0l-.5-.25a1.17,1.17,0,0,1-.25-.52l-.1-.57,0-4.72L389.55,79l0-2.4-.05-.55a2.35,2.35,0,0,0,.22-.87,1.39,1.39,0,0,1,.3-.8,23.88,23.88,0,0,1,2.36-.54,18.77,18.77,0,0,1,2.51-.26v-.2a2.89,2.89,0,0,0-.24-1.26,5.15,5.15,0,0,1-.39-1.24h-.85a3.3,3.3,0,0,1-.89.09h-.94a2.44,2.44,0,0,1-.37-.12,1.31,1.31,0,0,1-.32-.2,1.26,1.26,0,0,1-.21-.43,1,1,0,0,1,0-.47l.25-.5a20.36,20.36,0,0,1,3.18-.35l3.25-.07v-.4L397.3,67a3.21,3.21,0,0,0,.15-.6,1.19,1.19,0,0,1,.25-.57,1.49,1.49,0,0,1,.43-.22,1,1,0,0,1,.5,0l.5.25a1.49,1.49,0,0,1,.23.43.92.92,0,0,1,0,.47l-.1.65.08,1.35.45,0,.05-.05,3.7,0a4.81,4.81,0,0,0,1.16.06,1.68,1.68,0,0,1,1.06.26,2.22,2.22,0,0,1,.25.43.91.91,0,0,1,0,.52l-.27.5a1.12,1.12,0,0,1-.59.24,3.77,3.77,0,0,1-.69,0l-1.9-.07a5,5,0,0,1-.44,1.39,6.43,6.43,0,0,0-.49,1.36q1.35.08,2.66.19a6.61,6.61,0,0,1,2.41.66,5.14,5.14,0,0,1,.63,1.79,10.94,10.94,0,0,1,.13,2l0,3.55q-.13,1.25-.26,2.54a7.17,7.17,0,0,1-.64,2.34,1.5,1.5,0,0,1-.43.23A.91.91,0,0,1,405.69,86.69Zm-9.9-.87-.5-.25-.1-.25h-.1a1.41,1.41,0,0,1-.27-.59,4.66,4.66,0,0,1-.1-.69l0-2.62a.77.77,0,0,1-.12-.32,2.62,2.62,0,0,1,0-.37l.25-.5a4.82,4.82,0,0,1,2.23-.54h2.45a8.12,8.12,0,0,0,1.1.07,1.76,1.76,0,0,1,1,.3,5.31,5.31,0,0,1,.49,2.13q0,1.18,0,2.32l-.1.45a1.1,1.1,0,0,1-.2.42,8.92,8.92,0,0,1-3,.41Q397.3,85.74,395.8,85.82Zm4.1-12.4v-.1l-.1-.4.77-2.27h-.75l-3.57.13v.1a3,3,0,0,1,.46,1.2q.06.55.11,1.35l.7,0,0-.05Zm.3,10.35v-1l-.07-1.1-2.27-.07-1.15.07,0,2.13,1.25,0Z"/><path class="cls-2" d="M416.94,85.42l-.65-.3a1.78,1.78,0,0,1-.35-.91q-.05-.51-.05-1l.05-1.6-.3-2.9a2.47,2.47,0,0,1,.13-.37,2,2,0,0,1,.18-.32,1.49,1.49,0,0,1,.43-.22.91.91,0,0,1,.47,0l.63.1,2.55-.2a10.25,10.25,0,0,0,1.45.1,2.63,2.63,0,0,1,1.35.35,3.9,3.9,0,0,1,.3,1.55q0,.85,0,1.65l0,.4.1.45v2l-.25.5-.35.4a.74.74,0,0,1-.35.2l-.4.1h-2.45l-.8,0Zm4.32-2V82.34l-.1-1.15.05-.7-.05-.8-1.85-.1-1.6.15v.2a10.66,10.66,0,0,1,.18,1.65q0,.85,0,1.7l-.05.15H418l1.45-.1Zm4.6-7.82a12.51,12.51,0,0,0-1.71-.24q-.89-.06-1.79-.09l-1.82.15-.48-.27a1.08,1.08,0,0,1-.24-.55,5.22,5.22,0,0,1,0-.65l.1-1.65-.2-2.5.43-.75a12.09,12.09,0,0,1,2.66-.26h2.74q.55.05,1.09.15a3.25,3.25,0,0,1,1,.35,1,1,0,0,1,.19.4l.09.45-.05,2.35v1.15l0,.35,0,.6-.25.5q-.4.15-.81.34A1.81,1.81,0,0,1,425.87,75.57Zm0-2.1,0-.85,0-1.85-1.37-.08-2.8.08v.38q0,.55.09,1.09a5.3,5.3,0,0,1,0,1.09h2.13Zm2.92,12a8.31,8.31,0,0,0-1.1-.12l-1.15,0-.9.1a2.44,2.44,0,0,1-.37-.12,2,2,0,0,1-.32-.18,1.05,1.05,0,0,1-.23-.6,3,3,0,0,0-.12-.68v-3.2l-.15-2.2a2.46,2.46,0,0,1,.13-.37,2,2,0,0,1,.18-.33,1,1,0,0,1,.68-.25,2.63,2.63,0,0,0,.72-.1h4.13l1.12.2a2.28,2.28,0,0,1,1,.45.75.75,0,0,1,.22.48,4.85,4.85,0,0,0,.07.52v2.1a10.91,10.91,0,0,0-.1,2.11,3.76,3.76,0,0,1-.4,2l-.5.25Zm1.88-2v-1.4l.1-2.65-.73-.1h-3.6v.1l.1,1.05v2.85q1.05,0,2.05.1A14.19,14.19,0,0,0,430.69,83.49Z"/><path class="cls-2" d="M450.27,87.82l-.5-.25a1.5,1.5,0,0,1-.22-.42,1.09,1.09,0,0,1,0-.53l.25-.5a2.57,2.57,0,0,0,.93-.7q.38-.45.73-.95a7.2,7.2,0,0,0,.77-1.69,5.42,5.42,0,0,0,.22-1.89h-1.7l-.55.05a6.38,6.38,0,0,1-.8,1.81q-.55.86-1.15,1.71l-.55.6h-.1v.1l-.2.2-.25.25-.5.5-.6.38a1.08,1.08,0,0,1-.7.13l-.5-.25a1.49,1.49,0,0,1-.23-.43.91.91,0,0,1,0-.47l.25-.5.4-.2.15-.25.25-.25.45-.45a10.81,10.81,0,0,0,1.1-1.29,6.62,6.62,0,0,0,.8-1.44h-.2l-2.05.25a2.46,2.46,0,0,1-.37-.12A2,2,0,0,1,445,81l-.1-.2h-.1l-.25.3-.55.35v.1q-.67.4-1.32.88a2.69,2.69,0,0,1-1.45.53l-.5-.25a1.49,1.49,0,0,1-.22-.43.91.91,0,0,1,0-.48l.25-.5q.65-.35,1.25-.75a14,14,0,0,0,1.2-.9l1.18-1.2.9-1.2h-.8q-.6.1-1.24.15t-1.29,0l-.5-.25a1.49,1.49,0,0,1-.22-.42.91.91,0,0,1,0-.48l.25-.5a13.34,13.34,0,0,1,2.64-.45q1.39-.1,2.79-.15l.45-1.3h-.8l-.8.05-.62-.1a1.19,1.19,0,0,1-.57-.25,1.49,1.49,0,0,1-.23-.42.91.91,0,0,1,0-.48l.25-.5a1,1,0,0,1,.57-.22l.68,0,.65.05,1.7-.05a9.07,9.07,0,0,0,.3-1.31l.2-1.31v-2.3a2.46,2.46,0,0,1,.13-.37,2,2,0,0,1,.18-.32,1.49,1.49,0,0,1,.43-.23.91.91,0,0,1,.47,0l.5.25.25.5v2.7a6.35,6.35,0,0,0-.2,1.14,6.41,6.41,0,0,1-.2,1.14h.5l2.1-.15.5.25a1.49,1.49,0,0,1,.22.43,1.09,1.09,0,0,1,0,.52l-.25.5a1.06,1.06,0,0,1-.7.25,6.46,6.46,0,0,0-.8.05v.15l.15.35h.1l.5.8h1.7l1.35-.05,1,.1a2.12,2.12,0,0,1,.94.3,1.49,1.49,0,0,1,.22.43.91.91,0,0,1,0,.48l-.25.5a1.13,1.13,0,0,1-.4.2l-.45.1-2.32-.15-.3.05V77l.8.9.5.55.25.25v.1l.3.15a2.08,2.08,0,0,0,.51.45l.61.4v.1q.5.25,1,.45a3.94,3.94,0,0,1,.95.55,2.22,2.22,0,0,1,.25.43.91.91,0,0,1,.05.52l-.25.5a1.5,1.5,0,0,1-.43.23,1.08,1.08,0,0,1-.53,0,17.26,17.26,0,0,1-1.79-.93,13.81,13.81,0,0,1-1.69-1.17l-.3-.25v.15l0,1.4a8.92,8.92,0,0,1-1.7,4.27h-.1l-.3.55L452,87l-.8.57A1.31,1.31,0,0,1,450.27,87.82Zm-3.75-16-.5-.25-.6-.65a2.91,2.91,0,0,1-.47-.76,1.91,1.91,0,0,0-.53-.71,1.49,1.49,0,0,1-.22-.43.91.91,0,0,1,0-.47l.25-.5a1.49,1.49,0,0,1,.43-.23,1.09,1.09,0,0,1,.53,0l.75.4q.3.5.55,1a2.7,2.7,0,0,0,.75.9,1.46,1.46,0,0,1,.23.44,1.15,1.15,0,0,1,0,.54l-.25.5a1.49,1.49,0,0,1-.43.22A.91.91,0,0,1,446.52,71.84Zm6.55,7.1L451.57,77h-.7l-3,.15-.35.65h-.1l-.15.3-.35.4h-.1l-.25.5-.25.35h.15q1-.15,2.1-.25t2.1-.15h2.15l.2.05Zm-2.9-3.85V75l-.32-.53a.89.89,0,0,1-.12-.62h-.15a3.19,3.19,0,0,0-.32.63,3.08,3.08,0,0,0-.18.68h.9Zm2.25-3.6a2.44,2.44,0,0,1-.37-.12,2,2,0,0,1-.32-.18,1.49,1.49,0,0,1-.22-.42,1,1,0,0,1,0-.5l1.4-2.75a1.48,1.48,0,0,1,.42-.22.91.91,0,0,1,.48,0l.5.25a1.49,1.49,0,0,1,.22.43,1.09,1.09,0,0,1,0,.52,9.73,9.73,0,0,1-.62,1.39l-.73,1.34a.74.74,0,0,1-.35.2Z"/><path class="cls-1" d="M468.92,84.07l-.5-.28a1.49,1.49,0,0,1-.23-.42.91.91,0,0,1,0-.48,12.53,12.53,0,0,0,1.27-2.6,7.42,7.42,0,0,0,.38-2.95l-.45-.8a.75.75,0,0,0-.35-.2,1,1,0,0,0-.45,0l-.95.15q-.2,1.25-.45,2.47a14.41,14.41,0,0,1-.7,2.37,1.46,1.46,0,0,1-.44.23,1,1,0,0,1-.49,0l-.5-.25a.74.74,0,0,1-.2-.37l-.1-.43.8-3.4h-.2l-1.2.2-.5-.25a1.49,1.49,0,0,1-.22-.43.91.91,0,0,1,0-.47l.25-.5a9.17,9.17,0,0,1,1.13-.43q.57-.17,1.13-.37a5.24,5.24,0,0,0,.15-1.45,2.77,2.77,0,0,1,.28-1.35,1.49,1.49,0,0,1,.42-.23.91.91,0,0,1,.48,0l.5.25a1.46,1.46,0,0,1,.27.77q0,.43,0,.88l-.1.75h.1l1.45-.1a2.3,2.3,0,0,1,.67.32l.63.43.25.25a4,4,0,0,1,.68,1.55,5.86,5.86,0,0,1,.07,1.8,11.89,11.89,0,0,1-.55,2.43,10.87,10.87,0,0,1-1,2.22h-.1l-.15.3a1.2,1.2,0,0,1-.45.32A1,1,0,0,1,468.92,84.07Zm9.87-4.32-.53-.25-1.5-2.3A13.39,13.39,0,0,0,475,75a2.68,2.68,0,0,1-.43-.55,1.08,1.08,0,0,1-.12-.7l.25-.5a1.49,1.49,0,0,1,.43-.23.91.91,0,0,1,.47,0l.5.25.2.2.25.25.2.2.95,1.2q.6,1,1.26,1.88a6.39,6.39,0,0,1,1,2l-.25.5a1.49,1.49,0,0,1-.43.23A.91.91,0,0,1,478.79,79.74Zm1-4-.5-.25a2.38,2.38,0,0,0-.59-.8,3.53,3.53,0,0,1-.64-.75l-.05-.6.25-.5a1.45,1.45,0,0,1,.44-.23,1,1,0,0,1,.49,0l.5.25.65.65q.25.35.45.7a1.29,1.29,0,0,1,.15.8l-.25.5a1.5,1.5,0,0,1-.43.22A.91.91,0,0,1,479.79,75.74Zm1.95-1.3-.6-.35q-.25-.35-.48-.72a1.39,1.39,0,0,1-.17-.87l.25-.5a1.49,1.49,0,0,1,.42-.22.91.91,0,0,1,.48,0l.5.25a5.21,5.21,0,0,0,.5.8,1.24,1.24,0,0,1,.25.9l-.25.5a1.5,1.5,0,0,1-.43.23A.91.91,0,0,1,481.74,74.44Z"/><path class="cls-1" d="M494.09,85.17a7.52,7.52,0,0,1-1.25-.3,2.69,2.69,0,0,1-1.1-.72,9.31,9.31,0,0,1-1.08-1.77,8.51,8.51,0,0,1-.62-2,7.29,7.29,0,0,1-.87-.15,2.17,2.17,0,0,1-.78-.35,1.49,1.49,0,0,1-.22-.42.91.91,0,0,1,0-.48l.25-.5a1.49,1.49,0,0,1,.43-.22,1.09,1.09,0,0,1,.52,0l.5.15v-.8l0-1.55.1-.9h-.1l-.85.1-.5-.25a1.49,1.49,0,0,1-.22-.43.91.91,0,0,1,0-.48l.25-.5a1.67,1.67,0,0,1,.8-.3l.9-.1a6.42,6.42,0,0,1,.48-1.84,12,12,0,0,1,.88-1.69,1.49,1.49,0,0,1,.42-.22.91.91,0,0,1,.48,0l.5.25a1.49,1.49,0,0,1,.22.43,1.09,1.09,0,0,1,0,.52q-.3.6-.57,1.19a6.18,6.18,0,0,0-.43,1.24l1.2.13a2.79,2.79,0,0,1,1.1.38,1.49,1.49,0,0,1,.23.42,1.09,1.09,0,0,1,0,.53l-.25.5a1.5,1.5,0,0,1-.42.22.91.91,0,0,1-.48,0,4.64,4.64,0,0,0-.82-.23,3.07,3.07,0,0,0-.87,0l-.1,2.55,0,.7h.35l1.13-.42a3.33,3.33,0,0,1,1.22-.23l.5.25a1.49,1.49,0,0,1,.23.43.92.92,0,0,1,0,.47l-.25.5a11.68,11.68,0,0,1-1.43.6,7.51,7.51,0,0,1-1.52.35v.2a9.17,9.17,0,0,0,.5,1.28,7.51,7.51,0,0,0,.7,1.17q.3.15.63.28a1.48,1.48,0,0,0,.73.07,3.52,3.52,0,0,0,1.22-.55,7.87,7.87,0,0,0,1.07-.9q.55-.7,1-1.43a2.9,2.9,0,0,0,.47-1.62l-.05-.45.25-.5a1.43,1.43,0,0,1,.45-.22,1.21,1.21,0,0,1,.55,0l.52.25a1,1,0,0,1,.23.57q0,.33,0,.68a5.14,5.14,0,0,1-.84,2.47,15.09,15.09,0,0,1-1.69,2.13,7.44,7.44,0,0,1-1.72,1.14A4.67,4.67,0,0,1,494.09,85.17Z"/><path class="cls-1" d="M516,85.82a2.47,2.47,0,0,1-.37-.12,2,2,0,0,1-.32-.18,1.49,1.49,0,0,1-.22-.43.91.91,0,0,1,0-.48l.3-.6.3-.32a6.94,6.94,0,0,0,.82-1q.38-.55.67-1.1l.05-.95a2.65,2.65,0,0,0-.15-.42,1.23,1.23,0,0,0-.25-.37,1.09,1.09,0,0,0-.62-.23l-.73,0a7.36,7.36,0,0,0-1.62.7,4.28,4.28,0,0,1-1.73.55,2.15,2.15,0,0,1-1.15-.6,2.45,2.45,0,0,1-.55-1q-.15-.57-.25-1.18v-2.6q.1-.55.18-1.1a1.62,1.62,0,0,1,.48-.95,1.49,1.49,0,0,1,.42-.22.91.91,0,0,1,.48,0l.5.25a1.5,1.5,0,0,1,.22.43.91.91,0,0,1,0,.48,2.1,2.1,0,0,0-.2.65,3.76,3.76,0,0,1-.15.65v2.35l.25.8h.25a8,8,0,0,1,1.82-.87,5.24,5.24,0,0,1,2.13-.22,4.19,4.19,0,0,1,.88.3,3.44,3.44,0,0,1,.77.5l.3.35a3,3,0,0,1,.57,1.3,6.3,6.3,0,0,1,.07,1.5,3.55,3.55,0,0,1-.47,1.38q-.37.63-.82,1.25l-.3.35h-.1l-.3.5-.3.35h-.1v.1a.74.74,0,0,1-.35.2Zm-2.3-13.42a13.82,13.82,0,0,0-1.32-.62,13.65,13.65,0,0,1-1.32-.62,1.89,1.89,0,0,1-.23-.45.91.91,0,0,1,0-.47l.25-.5a1.49,1.49,0,0,1,.42-.23,1.09,1.09,0,0,1,.53,0q.6.25,1.22.48a4,4,0,0,1,1.18.67,2.08,2.08,0,0,1,.25.44,1,1,0,0,1,.05.54l-.25.5a.74.74,0,0,1-.35.2Z"/><path class="cls-1" d="M537.69,84.79a3.64,3.64,0,0,1-1.82,0,3.31,3.31,0,0,1-1.07-.66,1.55,1.55,0,0,1-.43-.71,6.19,6.19,0,0,1-.15-.79l.08-1.7h-.1a4.4,4.4,0,0,0-1.3.59q-.58.39-1.15.84l-.05.1-.55.35v.1l-.9.68-.3.15-.15.32-.55.38a1.1,1.1,0,0,1-.67.15l-.5-.25a1.21,1.21,0,0,1-.25-.44,1,1,0,0,1,0-.49,3.05,3.05,0,0,1,.59-.93,6.44,6.44,0,0,0,.69-.9l.6-.6h.1q1-1.27,2-2.55t2-2.52l-1.27,0-3.1.63-.5-.22a1.49,1.49,0,0,1-.22-.43.91.91,0,0,1,0-.48l.35-.6a22.4,22.4,0,0,1,2.41-.68,11.49,11.49,0,0,1,2.54-.2,7.66,7.66,0,0,1,.78.24,2.27,2.27,0,0,1,.67.39,2.37,2.37,0,0,1,.35.67,1.74,1.74,0,0,1,.07.78,6.13,6.13,0,0,1-.24.75,2.36,2.36,0,0,1-.39.65l-.3.35h-.1l-.15.3h-.1l-.15.32L534,79h.15l1-.07.65.35v.1h.1a1.33,1.33,0,0,1,.39,1q0,.61,0,1.16-.13,1.1.13,1.26a1.51,1.51,0,0,0,.95.06l1.15-.15.45-.07.5.15a3.75,3.75,0,0,1,.23.54,1.15,1.15,0,0,1,0,.54l-.23.5a2,2,0,0,1-.82.34A5.08,5.08,0,0,1,537.69,84.79Zm-4.07-12.45-1.6-.7q-.8-.35-1.6-.78a1.49,1.49,0,0,1-.22-.43.91.91,0,0,1,0-.47l.25-.5a1.49,1.49,0,0,1,.43-.23,1.09,1.09,0,0,1,.52,0l1.52.63a9.59,9.59,0,0,1,1.48.77,1.46,1.46,0,0,1,.22.44,1,1,0,0,1,0,.49l-.25.5a.74.74,0,0,1-.35.2Z"/><path class="cls-1" d="M553.14,84.32a2.61,2.61,0,0,1-1-.2,2.94,2.94,0,0,1-.87-.58,2.42,2.42,0,0,1-.5-.87,2.59,2.59,0,0,1-.1-1,2.76,2.76,0,0,1,.8-1.65,3,3,0,0,1,1.43-.8,5,5,0,0,1,1.72-.1,2,2,0,0,1,.68.22q.32.18.67.33a2,2,0,0,0,.3-.85,4.54,4.54,0,0,0,0-.95l-.3-.5a2.23,2.23,0,0,0-1-.6,3.71,3.71,0,0,0-1.22-.1,3.32,3.32,0,0,0-1.55.47l-1.4.88-.05.1-.55.6-.35.3a2,2,0,0,1-.45.25,1,1,0,0,1-.55.05l-.5-.25a1.49,1.49,0,0,1-.23-.43.91.91,0,0,1,0-.47l.55-.8q1.25-1.2,2.45-2.5a13.45,13.45,0,0,0,2-2.8l-.7-.05-2.35.15-.5-.25a1.49,1.49,0,0,1-.23-.43,1,1,0,0,1,0-.5l.25-.5a4.19,4.19,0,0,1,1.68-.37L553,70a5.86,5.86,0,0,1,.77.15,3,3,0,0,1,.72.3l.2.2a1.33,1.33,0,0,1,.32.81q0,.46,0,1a7.53,7.53,0,0,1-.6,1.15q-.35.55-.75,1.1a4.6,4.6,0,0,1,3.7,1.25l.15.3h.1a2.68,2.68,0,0,1,.53,1.37,10,10,0,0,1,0,1.57l-.3.9a6.49,6.49,0,0,1-.35.85l.15.1v.1h.1l.1.25.15.1a.73.73,0,0,1,.22.45c0,.17,0,.33,0,.5l-.25.5a1.49,1.49,0,0,1-.43.22.91.91,0,0,1-.48,0l-.5-.25-.2-.3h-.15l-.25.15v.1l-.25.25a5.29,5.29,0,0,1-1.25.79A5.11,5.11,0,0,1,553.14,84.32Zm1.05-2.43.3-.3.25-.3a.82.82,0,0,0-.6-.25h-.7l-.75.5-.1.5a1,1,0,0,0,.32.22.57.57,0,0,0,.38,0Z"/><path class="cls-1" d="M205.77,110.67a3.2,3.2,0,0,1-.87-.34,3.49,3.49,0,0,1-.78-.59,2.37,2.37,0,0,1-.5-.93,5.81,5.81,0,0,1-.2-1.07q.15-.75.35-1.42a3.56,3.56,0,0,1,.7-1.27,4.61,4.61,0,0,1,1-.75q.52-.3,1-.65l.6-.2v-.65l-.15-1.85h-.3a7.62,7.62,0,0,0-1.25.1l-1.2.2-.53-.12a1.7,1.7,0,0,1-.5-.22,1.5,1.5,0,0,1-.22-.43.91.91,0,0,1,0-.48l.25-.5a7.41,7.41,0,0,1,1.63-.32l1.7-.12v-.15a3,3,0,0,0-.25-.94,2.34,2.34,0,0,1-.2-1l.25-.5a1.5,1.5,0,0,1,.43-.22.91.91,0,0,1,.47,0l.5.25a3.29,3.29,0,0,1,.5,1.11q.15.61.25,1.26h.4a5.81,5.81,0,0,1,1-.12l1,0,.5.25a1.5,1.5,0,0,1,.22.43.91.91,0,0,1,0,.47l-.25.5a1.83,1.83,0,0,1-1.15.32,4.44,4.44,0,0,0-1.25.13l0,.7.15,1.45h.25q.6-.1,1.2-.15t1.25-.05a7.32,7.32,0,0,1,1.45.45,7.7,7.7,0,0,1,1.35.75l.6.6a3.4,3.4,0,0,1,.81,1.47,5.87,5.87,0,0,1,.16,1.77,5.73,5.73,0,0,1-.11,1.15,3.32,3.32,0,0,1-.41,1.05,2.18,2.18,0,0,1-.43.25.9.9,0,0,1-.53.05l-.5-.25a1.49,1.49,0,0,1-.23-.43,1.08,1.08,0,0,1,0-.52,2.38,2.38,0,0,0,.2-1,10.19,10.19,0,0,1,.05-1,2.49,2.49,0,0,0-.28-.93,2.44,2.44,0,0,0-.68-.77,5.23,5.23,0,0,0-1.15-.55,3.33,3.33,0,0,0-1.3-.15l-1.6.2a9.82,9.82,0,0,1-.25,2.65,6.11,6.11,0,0,1-1.1,2.3l-.25.25a2.83,2.83,0,0,1-.82.44A3,3,0,0,1,205.77,110.67Zm.5-2.12a4,4,0,0,0,.7-1.37,5.91,5.91,0,0,0,.2-1.57h-.1l-.75.4v.1l-.35.3h-.1a5,5,0,0,0-.33.82,3.08,3.08,0,0,0-.12.88l.15.4.55.15Zm9.82-6.8-.52-.25a2.56,2.56,0,0,0-.72-.5,4.92,4.92,0,0,1-.78-.45,1.49,1.49,0,0,1-.22-.43.91.91,0,0,1,0-.47l.25-.5a1.49,1.49,0,0,1,.42-.23,1.09,1.09,0,0,1,.53,0l1.82.95a2.51,2.51,0,0,1,.32.52,1.11,1.11,0,0,1,.08.63l-.25.5a1.5,1.5,0,0,1-.43.23A.91.91,0,0,1,216.1,101.74Z"/><path class="cls-1" d="M226.62,112.92l-.5-.25a1.5,1.5,0,0,1-.3-.93v-1l.05-1.87-.15-1.9.1-1,0-.05v-2.5l-.05-.75h-.15l-.3.35-.4.35-.35.35h-.1l-.1.25a1.5,1.5,0,0,1-.43.23,1.08,1.08,0,0,1-.52,0l-.5-.25a1.49,1.49,0,0,1-.23-.43.91.91,0,0,1,0-.47.89.89,0,0,1,.25-.5,5.5,5.5,0,0,0,.4-.45,25.83,25.83,0,0,0,2.51-2.45q1.16-1.3,2.36-2.6a1.49,1.49,0,0,1,.43-.23.91.91,0,0,1,.47,0l.5.25a1.5,1.5,0,0,1,.22.42.91.91,0,0,1,0,.48,1.55,1.55,0,0,1-.32.55,3.27,3.27,0,0,0-.37.5l-1.75,1.9h0a1.79,1.79,0,0,1,.33,1.13,9.87,9.87,0,0,0,0,1.22v2.5l.05.7-.05,1.75.1.5v2.12a3.1,3.1,0,0,0-.05,1,1.12,1.12,0,0,1-.25.88,1.5,1.5,0,0,1-.42.22A1,1,0,0,1,226.62,112.92Zm-1.85-15.37-.5-.25a1.45,1.45,0,0,1-.22-.44,1.14,1.14,0,0,1,0-.54l.25-.5,1.35-1.2,1.13-1a1.49,1.49,0,0,1,.42-.22.91.91,0,0,1,.47,0l.5.25a1.5,1.5,0,0,1,.22.43.91.91,0,0,1,0,.48,1.55,1.55,0,0,1-.32.55l-.47.5-.6.4-.2.3L226,97l-.3.15v.1a1.5,1.5,0,0,1-.43.22A.91.91,0,0,1,224.77,97.55Zm12.92,16.67-.5-.25a.74.74,0,0,1-.2-.37l-.1-.42a15.5,15.5,0,0,0,.6-3.12q.15-1.65.2-3.3l0-.15H235.8l-.92.1h-2.05l-2.35.2a2.43,2.43,0,0,1-.37-.12,2,2,0,0,1-.32-.18,1.48,1.48,0,0,1-.22-.43.91.91,0,0,1,0-.47l.25-.5a4.1,4.1,0,0,1,1.5-.32,15.27,15.27,0,0,0,1.55-.12h2l2.67-.1v-.25l-.05-.5.25-.5a1.49,1.49,0,0,1,.43-.22.91.91,0,0,1,.47,0l.5.25a1.11,1.11,0,0,1,.35.6,3.34,3.34,0,0,1,.07.7h1.2a2.1,2.1,0,0,1,1.1.3,1.49,1.49,0,0,1,.22.43.91.91,0,0,1,0,.47l-.25.5a1.17,1.17,0,0,1-.53.25,3.18,3.18,0,0,1-.57.05l-1-.05q-.05,1.9-.2,3.77a11.11,11.11,0,0,1-.87,3.55,1.5,1.5,0,0,1-.43.23A.91.91,0,0,1,237.7,114.22Zm-7.1-11a2.43,2.43,0,0,1-.37-.12,2,2,0,0,1-.32-.18,1.49,1.49,0,0,1-.23-.42.91.91,0,0,1,0-.48l.25-.5a12.75,12.75,0,0,1,2.3-.4l2.4-.2h3l.05,0h2.27l.9,0,.4.1a.75.75,0,0,1,.35.2,1.5,1.5,0,0,1,.22.43.91.91,0,0,1,0,.48l-.25.5a1.1,1.1,0,0,1-.42.2l-.47.1-.65-.05-.05.05h-2.42l0-.05h-2.85l-2,.2Q231.6,103.19,230.6,103.24Zm3.85,7.57a12.32,12.32,0,0,1-1.5-.72q-.75-.42-1.45-.9a1.49,1.49,0,0,1-.22-.42.91.91,0,0,1,0-.48l.25-.5a1.49,1.49,0,0,1,.43-.22,1.09,1.09,0,0,1,.53,0l2.7,1.5a2.07,2.07,0,0,1,.25.44,1,1,0,0,1,.05.54l-.25.5a.74.74,0,0,1-.35.2Zm-1.95-10.27-.5-.25a1.5,1.5,0,0,1-.3-.92v-1l0-.05V95.47l0-1.3a1.53,1.53,0,0,1,.22-.57l.32-.52a1.37,1.37,0,0,1,1-.25,3.79,3.79,0,0,0,1.07-.05H238l.6.1a1.36,1.36,0,0,1,.57.25,1.06,1.06,0,0,1,.28.48,1.33,1.33,0,0,1,0,.57l-.05.35.25,2.87q-.05.75-.15,1.48a2.42,2.42,0,0,1-.57,1.27,2,2,0,0,1-1.28.3,6.78,6.78,0,0,0-1.42,0h-3.3Zm5-4.77v-.1l0-.95h-3.15l-.7.05v.65l0,.4h.5l2.85-.1Zm0,2.73v-.1l.05-.55a4.46,4.46,0,0,0-1.17-.15H235.2l-1.5.1,0,.75h2.45Z"/><path class="cls-1" d="M248.6,103.44l-.53-.25a1.49,1.49,0,0,1-.22-.43,1.08,1.08,0,0,1,0-.52l1.22-2.4h-.2l-.62.05-.5-.25a1.49,1.49,0,0,1-.22-.43.91.91,0,0,1,0-.47l.25-.5a2.82,2.82,0,0,1,1.14-.37q.64-.08,1.24-.18a4.7,4.7,0,0,0,.4-1,2.87,2.87,0,0,1,.5-1,1.5,1.5,0,0,1,.42-.22.91.91,0,0,1,.47,0l.5.25a1.5,1.5,0,0,1,.22.43,1.09,1.09,0,0,1,0,.52l-.15.48h.15q.5-.15,1-.26a4,4,0,0,1,1.15-.06l.55.32a1.49,1.49,0,0,1,.23.43.91.91,0,0,1,0,.47l-.25.5a1.13,1.13,0,0,1-.4.2l-.45.1-.45-.05-2.55.55q-.45,1-.95,1.92a19.06,19.06,0,0,1-1.1,1.88,1.5,1.5,0,0,1-.42.23A.91.91,0,0,1,248.6,103.44Zm6.55,8.07a2.5,2.5,0,0,1-1-.3,4.87,4.87,0,0,1-.85-.6,2.79,2.79,0,0,1-.62-1.11,4.56,4.56,0,0,1-.18-1.26,6.89,6.89,0,0,1,.28-1,3.33,3.33,0,0,1,.53-.95l.2-.2a3,3,0,0,1,1.38-.8,5.47,5.47,0,0,1,1.67-.15v-1.85l-.1-1.95.25-.5a1.49,1.49,0,0,1,.42-.22.91.91,0,0,1,.47,0l.5.25a2.25,2.25,0,0,1,.32,1.07q0,.58.08,1.18v2l1.4.32a2.87,2.87,0,0,1,1.25.67,1.25,1.25,0,0,1,.25.43.91.91,0,0,1,0,.48l-.28.5a1.5,1.5,0,0,1-.43.22,1.08,1.08,0,0,1-.52,0,5.08,5.08,0,0,0-.85-.43,2.6,2.6,0,0,0-.95-.18,13.27,13.27,0,0,1-.2,1.7,4,4,0,0,1-.65,1.52l-.35.35a4.64,4.64,0,0,1-1,.57A3.34,3.34,0,0,1,255.15,111.52Zm.7-2.32a1.86,1.86,0,0,0,.47-1q.07-.55.13-1.15h-.75l-.7.25v.1l-.4.45-.15.7.25.65.6.3Zm6.32-8.45a1,1,0,0,1-.46-.22l-.41-.32-1.3-1-.15-.15-.6-.45a2.79,2.79,0,0,1-.33-.5,1,1,0,0,1-.07-.6l.25-.5a1.49,1.49,0,0,1,.42-.23.91.91,0,0,1,.47,0l.5.25v.1l.7.45.15.15.58.45v.1l.65.35.15.15v.1h.1a2.32,2.32,0,0,1,.4.53,1,1,0,0,1,.1.62l-.25.5a1.5,1.5,0,0,1-.42.23A.91.91,0,0,1,262.17,100.74Z"/><path class="cls-1" d="M272.57,112.87l-.5-.28a.74.74,0,0,1-.2-.36,3.79,3.79,0,0,1-.08-.41l.05-.15q0-.7,0-1.28t0-1.25h-.1l-2.82.25-.5-.28a1.49,1.49,0,0,1-.22-.42.77.77,0,0,1,0-.48l.25-.5a4.55,4.55,0,0,1,1.62-.36q.87,0,1.75-.16l0-.35-.05-.75.08-.2h-.37q-.37.1-.72.16a4.26,4.26,0,0,1-.75.06,1.54,1.54,0,0,1-.36-.14l-.31-.19a1.49,1.49,0,0,1-.22-.42.91.91,0,0,1,0-.48l.13-.55q-.18-1.1-.27-2.29t-.18-2.34l.25-.5a3.53,3.53,0,0,1,1.57-.52q.85-.08,1.67-.2v-.6l0-.62h-.67l-1.25.07a1.79,1.79,0,0,1-.37-.14l-.32-.19a1.25,1.25,0,0,1-.21-.44,1.06,1.06,0,0,1,0-.49l.25-.5a2.68,2.68,0,0,1,1.22-.26q.65,0,1.32,0,0-.5,0-1a1.42,1.42,0,0,1,.31-.87,1.44,1.44,0,0,1,.44-.22,1,1,0,0,1,.49,0l.5.27a1,1,0,0,1,.24.85,2.76,2.76,0,0,0,0,.95l.7,0,1,0,.6.1a1,1,0,0,1,.53.27,1.5,1.5,0,0,1,.22.43.91.91,0,0,1,0,.47L277,97a1.17,1.17,0,0,1-.6.2,4.85,4.85,0,0,1-.7,0l-.75-.05-.7.07-.05.45,0,.7,1.47,0a2.09,2.09,0,0,1,1.27.44,1.41,1.41,0,0,1,.18.4q0,.2.1.45l-.05,2.6V104l0,.25a.79.79,0,0,1,.13.33,1.44,1.44,0,0,1,0,.38l-.25.5a2.68,2.68,0,0,1-.57.3,1.32,1.32,0,0,1-.68.07l-.3-.07-1.65.07-.07.85,0,.45,1.7,0,.7,0,.47.25a1.46,1.46,0,0,1,.22.44,1,1,0,0,1,0,.49l-.28.47a2.54,2.54,0,0,1-1.35.34l-1.5,0,0,1.63V112l-.3.63a1.28,1.28,0,0,1-.42.21A1.12,1.12,0,0,1,272.57,112.87Zm-.4-11.65v-.65l.05-.12-.15,0-1.28.18v.5l0,.25.25,0Zm-.17,2.72,0-.7h-.32l-.65.1v.25l.08.35.2.05Zm3.27-.18,0-.4,0-.25-.95,0-.35,0,0,.7h.1Zm0-2.62v-.75l-1.1,0,0,.75Zm12,11.42a2.43,2.43,0,0,1-.37-.12,2,2,0,0,1-.32-.18l-1-1.82-.2,0-3.26.49q-1.61.24-3.24.44l-.57-.33a1.26,1.26,0,0,1-.21-.42,1.76,1.76,0,0,1-.06-.48,23.75,23.75,0,0,1,1.6-2.89l1.8-2.76h-.4l-2.1.08a1.79,1.79,0,0,1-.37-.14,1.65,1.65,0,0,1-.3-.19,1.25,1.25,0,0,1-.21-.44,1.06,1.06,0,0,1,0-.49l.28-.48a14.3,14.3,0,0,1,2.7-.25q1.4,0,2.82,0l3.62.12.45.13a1.13,1.13,0,0,1,.4.2,2.65,2.65,0,0,1,.2.45.77.77,0,0,1,0,.47l-.25.48a1.51,1.51,0,0,1-.47.21,2.05,2.05,0,0,1-.5.06l-.05-.05-3.42-.12a6.49,6.49,0,0,1-.61,1.06l-.74,1a4.75,4.75,0,0,0-.54.77,4.79,4.79,0,0,1-.56.8l-.47.95h.35l3.3-.52,0-.15-.46-.72a1.14,1.14,0,0,1-.16-.82l.28-.48a1.25,1.25,0,0,1,.44-.21,1.07,1.07,0,0,1,.49,0l.5.28q.75,1.3,1.47,2.64a15.72,15.72,0,0,1,1.17,2.76l-.27.48a.75.75,0,0,1-.35.16Zm-1.57-12.72-.05-.05h-5.87l-.5-.25a1.49,1.49,0,0,1-.22-.42.91.91,0,0,1,0-.48l.25-.5a2,2,0,0,1,.32-.18,2.52,2.52,0,0,1,.38-.12h5.87a2.54,2.54,0,0,1,.37.13,2,2,0,0,1,.33.18,1.5,1.5,0,0,1,.22.43.91.91,0,0,1,0,.47l-.25.5a1.13,1.13,0,0,1-.4.2Z"/><path class="cls-1" d="M298.74,112.84l-.5-.25a8.19,8.19,0,0,1-.32-2.54q0-1.19,0-2.74h-.1a15.06,15.06,0,0,1-1.85.47l-1.87.35-.5-.25a1.5,1.5,0,0,1-.22-.43.91.91,0,0,1,0-.47l.25-.5a2.9,2.9,0,0,1,.88-.36l.92-.21v-.1l-.17-.9v-2.23l.05-.7-.08-.6.2-1.9,0-2.2a1.85,1.85,0,0,1-.45-.05.74.74,0,0,1-.35-.2,2,2,0,0,1-.22-.44.86.86,0,0,1,0-.46l.25-.52a6,6,0,0,1,2.74-.66q1.49,0,2.94-.11l.5.25a1.49,1.49,0,0,1,.22.42.91.91,0,0,1,0,.48l-.25.5-.5.25,0,.05,0,2.42q-.15,1.45-.24,2.94t-.11,3l.45.2a1.5,1.5,0,0,1,.22.43.91.91,0,0,1,0,.48l-.3.55-.4.2v1.75l0,3.32-.22.48a2.21,2.21,0,0,1-.42.25A.91.91,0,0,1,298.74,112.84Zm-.85-7.52.13-2.05h-.72a1.62,1.62,0,0,0-.12.75q0,.4,0,.8l.13.6h.28Zm.25-4.1v-1l-.2,0-.72.1v.95H298Zm.15-3,0-1.3-.92,0,0,1.4h.47Zm13.92,15.2-.5-.25a12.56,12.56,0,0,1-1.37-1.65,6.58,6.58,0,0,1-.75-2l-.1,0-.25.33a2.17,2.17,0,0,1-.51.35,1.05,1.05,0,0,1-.61.07l-.52-.22a1.7,1.7,0,0,1-.24-.44.75.75,0,0,1,0-.49l.3-.6.85-.83.4-.35,0-.4a20.13,20.13,0,0,1-.61-2,10.35,10.35,0,0,1-.31-2.1q-1,0-1.89-.05t-1.86,0q-.78.07-1.56.11a8.57,8.57,0,0,0-1.54.21l-.53-.25a1.18,1.18,0,0,1-.22-.4.91.91,0,0,1,0-.48l.22-.5a1,1,0,0,1,.57-.35,5.11,5.11,0,0,1,.7-.1v-.2a3.23,3.23,0,0,1-.14-1.05,10.09,10.09,0,0,0,0-1.12.85.85,0,0,1-.36-.07,2.26,2.26,0,0,1-.31-.18,1.48,1.48,0,0,1-.22-.43,1.13,1.13,0,0,1-.05-.47l.22-.5a1.43,1.43,0,0,1,.92-.32h1v-.1l-.12-1.7.25-.5a1.89,1.89,0,0,1,.41-.24.93.93,0,0,1,.51,0l.5.25a2.36,2.36,0,0,1,.34,1.07q0,.58,0,1.18l1.1,0a1.46,1.46,0,0,1,1,.32,1.25,1.25,0,0,1,.25.43,1.14,1.14,0,0,1,0,.48l-.25.5-.47.27-.48,2.3,1.77,0,0-1.75,0-.3,0-.55a14.79,14.79,0,0,1-.23-1.94,18.58,18.58,0,0,0-.2-1.94q0-.35.07-.7a1.05,1.05,0,0,1,.23-.6A1.79,1.79,0,0,1,308,93a.84.84,0,0,1,.48,0l.5.25a.85.85,0,0,1,.27.6q0,.38,0,.72l0,.2q.17,1,.25,2.11t.2,2.14l-.05.15.08,1.45-.05.45q.73.05,1.43,0a3,3,0,0,1,1.3.26,1.09,1.09,0,0,1,.27.43.91.91,0,0,1,0,.47l-.25.5a1,1,0,0,1-.45.25,2.18,2.18,0,0,1-.58.07l-1.52-.07v.15a7.12,7.12,0,0,0,.23,1.35q.17.65.35,1.25h.1a8.45,8.45,0,0,0,.9-1l.8-1.05a1.45,1.45,0,0,1,.42-.26.84.84,0,0,1,.48,0l.5.25a2,2,0,0,1,.23.44,1.06,1.06,0,0,1,0,.46,2.68,2.68,0,0,1-.39.68,3.69,3.69,0,0,0-.41.65l-1.57,1.6h-.1l-.2.3a.2.2,0,0,0-.15.2v.3a10.74,10.74,0,0,1,.52,1.24,10.07,10.07,0,0,0,.88,1.71l.45.45v.1l.1,0a1.79,1.79,0,0,1,.24.43,1.1,1.1,0,0,1,.06.5l-.25.5a1.45,1.45,0,0,1-.43.26A.84.84,0,0,1,312.22,113.42Zm-9.4-1.12-.57-.08a.81.81,0,0,1-.47-.2,1.64,1.64,0,0,1-.3-.77,7.41,7.41,0,0,1-.05-.87q.15-1.27.29-2.56a18.18,18.18,0,0,0,.09-2.61l-.08-.8.25-.52a5.34,5.34,0,0,1,1.29-.35,6.46,6.46,0,0,1,1.39,0l.6.11a1.3,1.3,0,0,1,.55.26l.15.15.63,1.15v2.1l-.05.45.08,1.95,0,.27.1,1.35-.25.5a1.49,1.49,0,0,1-.42.23,1.31,1.31,0,0,1-.52.05l-.2-.05Zm1.77-2.2v-.48l.05-.8h-.85l-.28.05-.05,1,.05.4h.17Zm-.37-9.27-.1-.5.45-1.73h-.95v.15a4.37,4.37,0,0,1,.13,1.06q0,.56.05,1.11H304Zm.4,6v-1.3a.42.42,0,0,0-.4-.18l-.45,0v1.45Zm8-7.52a2.42,2.42,0,0,1-.37-.12,2,2,0,0,1-.33-.18,6.69,6.69,0,0,0-.76-1.4,2.85,2.85,0,0,1-.51-1.52l.25-.5a1.49,1.49,0,0,1,.42-.23.92.92,0,0,1,.48,0l.5.25a11.61,11.61,0,0,0,.81,1.38,3,3,0,0,1,.51,1.52l-.25.5a.84.84,0,0,1-.35.21Z"/><path class="cls-1" d="M328.94,112.07l-.5-.25q-.4-1.4-.85-2.79l-.9-2.79h-.3a15.06,15.06,0,0,0-2.5.5,15.07,15.07,0,0,1-2.5.5l-.5-.25a1.49,1.49,0,0,1-.22-.43.91.91,0,0,1,0-.48l.25-.5a19.84,19.84,0,0,1,2.5-.75,23.16,23.16,0,0,1,2.65-.45v-.2l-1-3.2-.45,0-1.32.22a7.52,7.52,0,0,1-1.37.13l-.5-.25a1.49,1.49,0,0,1-.22-.43.91.91,0,0,1,0-.47l.25-.5a4.24,4.24,0,0,1,1.52-.43l1.63-.18v-.1a11.82,11.82,0,0,0-.47-1.27,6.69,6.69,0,0,1-.43-1.35l.25-.5a1.49,1.49,0,0,1,.43-.22.91.91,0,0,1,.47,0l.5.25a3.57,3.57,0,0,1,.75,1.44q.2.79.45,1.54h.25l2.45-.3.5.25a1.49,1.49,0,0,1,.22.42.91.91,0,0,1,0,.48l-.25.5a4.21,4.21,0,0,1-1.25.4q-.65.1-1.35.15v.15l.95,3.3h.4l4.2-.55.52.25a1.49,1.49,0,0,1,.23.42.92.92,0,0,1,0,.48l-.25.5a9.19,9.19,0,0,1-2.2.52l-2.27.27v.15q.4,1.25.88,2.49a8.13,8.13,0,0,1,.52,2.64l-.25.5a1.49,1.49,0,0,1-.42.23A.91.91,0,0,1,328.94,112.07Z"/><path class="cls-1" d="M343,111.52a2.42,2.42,0,0,1-.37-.12,2,2,0,0,1-.33-.17,19.92,19.92,0,0,1-1.07-2.71q-.43-1.36-.82-2.71h-.2a6.49,6.49,0,0,0-.77.35,1.38,1.38,0,0,1-.82.15l-.5-.25a1.49,1.49,0,0,1-.23-.42.91.91,0,0,1,0-.48l.25-.5a7.91,7.91,0,0,1,1.7-.8l.05-.15a6.49,6.49,0,0,0-.35-.85,2,2,0,0,1-.2-.9l.25-.5a1.49,1.49,0,0,1,.43-.22.91.91,0,0,1,.47,0l.5.25a8,8,0,0,1,.45.83,4,4,0,0,1,.3.92h.15q.95-.3,1.95-.52t2-.37l1.5-.1a1.89,1.89,0,0,1,.52.2,4,4,0,0,1,.48.3,1.11,1.11,0,0,1,.2.43,1.39,1.39,0,0,1,0,.52l-.35.9a7.74,7.74,0,0,1-.55.85h-.1l-.15.3h-.1l-.15.3H347l-.15.3-.5.6-.3.15v.1l-.15.15a3.8,3.8,0,0,1-.5.43.81.81,0,0,1-.6.13l-.5-.25a1.49,1.49,0,0,1-.22-.43.91.91,0,0,1,0-.47l.5-.8a7.42,7.42,0,0,0,.85-.77,6.72,6.72,0,0,0,.7-.87h-.25q-.9.15-1.82.35a14.67,14.67,0,0,0-1.77.5v.2q.4,1.35.88,2.65t.87,2.77l-.25.5a.74.74,0,0,1-.35.2Z"/><path class="cls-1" d="M358.92,100.94l-.5-.25-1.55-1.4-.85-.75a1.49,1.49,0,0,1-.23-.42,1,1,0,0,1,0-.5l.25-.5a1.49,1.49,0,0,1,.43-.23.91.91,0,0,1,.47,0,1.62,1.62,0,0,1,.65.38l.6.55.05.15,1.55,1.25a2,2,0,0,1,.25.45,1,1,0,0,1,.05.55l-.25.5a1.5,1.5,0,0,1-.43.22A.91.91,0,0,1,358.92,100.94Zm-1.6,9.3-.52-.12a1.39,1.39,0,0,1-.47-.22,1.49,1.49,0,0,1-.23-.43.91.91,0,0,1,0-.48l.25-.5a13.26,13.26,0,0,0,4.67-1.37,17.2,17.2,0,0,0,4.07-2.87l1.65-1.65.92-.8a.67.67,0,0,1,.08-.3,2.79,2.79,0,0,1,.17-.3,1.05,1.05,0,0,1,.48-.27,1.33,1.33,0,0,1,.57,0l.5.25a1.49,1.49,0,0,1,.22.42.91.91,0,0,1,0,.48,2,2,0,0,1-.3.63l-.4.57h-.1v.1l-.6.55-.45.5-.15.15q-.78.6-1.47,1.22t-1.4,1.32a23.79,23.79,0,0,1-3.55,2.07A11.76,11.76,0,0,1,357.32,110.24Z"/><path class="cls-1" d="M388.34,108.34a1.74,1.74,0,0,1-.67-.35,7.17,7.17,0,0,0-.6-.45q-.6-.5-1.2-1.1a9.07,9.07,0,0,0-1.25-1.05q-.45-.4-.95-.8a12.11,12.11,0,0,0-1-.75,7.82,7.82,0,0,0-.78-.68q-.43-.32-.87-.62l-.9-.43a2,2,0,0,0-1.05-.18q-.7.4-1.42.78a3.89,3.89,0,0,0-1.27,1.07l-.85.7-.27.25-.6.47a1,1,0,0,1-.75.18l-.5-.25a1.49,1.49,0,0,1-.22-.43.91.91,0,0,1,0-.47l.25-.5.55-.55a26.46,26.46,0,0,1,2.76-2.22,5.37,5.37,0,0,1,3.31-1,7.12,7.12,0,0,1,1.67.7,17.19,17.19,0,0,1,1.52,1v.1l.3.15v.1l.45.25,1.7,1.3v.1l.3.15v.1l.65.4.15.15.5.5.87.75v.1l.3.15.85.65a1.49,1.49,0,0,1,.22.43,1.09,1.09,0,0,1,0,.52l-.25.5a1.5,1.5,0,0,1-.43.23A.91.91,0,0,1,388.34,108.34Zm-.77-9.55a5.3,5.3,0,0,1-.82-.25A2.18,2.18,0,0,1,386,98a5.08,5.08,0,0,1-.65-1,2.47,2.47,0,0,1-.2-1.24,1.7,1.7,0,0,1,.4-.92,3.82,3.82,0,0,0,.55-.87,1.82,1.82,0,0,1,.82-.4,4.73,4.73,0,0,1,1-.1,2.08,2.08,0,0,1,1,.25q.45.25.9.55l.2.2a2.55,2.55,0,0,1,.48.95,3.37,3.37,0,0,1,.07,1.1q-.15.4-.32.81a5.82,5.82,0,0,1-.43.81l-.2.2a1.77,1.77,0,0,1-.95.43A5,5,0,0,1,387.57,98.79Zm.77-2,.3-.85-.1-.2-.44-.2a.82.82,0,0,0-.49,0l-.2.3-.25.1-.05.3.5.6.68.05Z"/><path class="cls-1" d="M395.17,103.72l-.39-.15a1.82,1.82,0,0,1-.34-.18,2,2,0,0,1-.2-.42,1,1,0,0,1,0-.5l.28-.5a8.58,8.58,0,0,1,2.17-.35l2.25-.05,2.17,0,1.25,0,.8.13,2.6.05.5.11a1.25,1.25,0,0,1,.45.21,2.41,2.41,0,0,1,.21.44,1,1,0,0,1,0,.54l-.3.5a.72.72,0,0,1-.5.21h-.6l-.05,0-2.55-.05-1.75-.12-.05,0-2.22,0Z"/><path class="cls-1" d="M416.44,100.94l-.5-.25-1.55-1.4-.85-.75a1.49,1.49,0,0,1-.23-.42,1,1,0,0,1,0-.5l.25-.5a1.49,1.49,0,0,1,.43-.23.91.91,0,0,1,.47,0,1.62,1.62,0,0,1,.65.38l.6.55.05.15,1.55,1.25a2,2,0,0,1,.25.45,1,1,0,0,1,.05.55l-.25.5a1.5,1.5,0,0,1-.43.22A.91.91,0,0,1,416.44,100.94Zm-1.6,9.3-.52-.12a1.39,1.39,0,0,1-.47-.22,1.49,1.49,0,0,1-.23-.43.91.91,0,0,1,0-.48l.25-.5a13.26,13.26,0,0,0,4.67-1.37,17.2,17.2,0,0,0,4.07-2.87l1.65-1.65.92-.8a.67.67,0,0,1,.08-.3,2.79,2.79,0,0,1,.17-.3,1.05,1.05,0,0,1,.48-.27,1.33,1.33,0,0,1,.57,0l.5.25a1.49,1.49,0,0,1,.22.42.91.91,0,0,1,0,.48,2,2,0,0,1-.3.63l-.4.57h-.1v.1l-.6.55-.45.5-.15.15q-.78.6-1.47,1.22t-1.4,1.32a23.79,23.79,0,0,1-3.55,2.07A11.76,11.76,0,0,1,414.84,110.24Z"/><path class="cls-1" d="M432.56,109.92l-.5-.27a7.7,7.7,0,0,1-.7-2.48,18.34,18.34,0,0,1-.1-2.72q0-1.4.13-2.82a6.58,6.58,0,0,1,.67-2.62,2.18,2.18,0,0,1,.43-.25.91.91,0,0,1,.53-.05l.52.25a1.49,1.49,0,0,1,.22.43.91.91,0,0,1,0,.47,10.8,10.8,0,0,0-.48,3q0,1.6-.07,3.2a9.34,9.34,0,0,0,.23,1.55q.17.75.27,1.5l-.25.5a1.22,1.22,0,0,1-.44.25A1,1,0,0,1,432.56,109.92Zm9.17.75a2,2,0,0,1-.75-.25,4.47,4.47,0,0,1-.65-.45,3.1,3.1,0,0,1-.6-1.27,5.22,5.22,0,0,1-.1-1.45,5,5,0,0,1,.27-.92,2.36,2.36,0,0,1,.52-.77,5.09,5.09,0,0,1,1.18-.73,2.89,2.89,0,0,1,1.38-.23v-.3l-.1-2.4h-.4l-1.72.2-1.73.2-.47-.1a.87.87,0,0,1-.43-.25,1.49,1.49,0,0,1-.23-.42.91.91,0,0,1,0-.48l.25-.5a16.64,16.64,0,0,1,2.3-.35q1.2-.1,2.35-.25v-.35l-.15-1.95a2.47,2.47,0,0,1,.13-.37,3.41,3.41,0,0,1,.18-.35,1.49,1.49,0,0,1,.43-.23.91.91,0,0,1,.47,0l.5.25a3.08,3.08,0,0,1,.3,1.35,10,10,0,0,0,.1,1.43h.35l1.82-.15.5.25a1.5,1.5,0,0,1,.23.43,1.09,1.09,0,0,1,0,.52l-.25.5a2.54,2.54,0,0,1-1.24.3,8.82,8.82,0,0,0-1.34.1v.7l.15,2.35,1,.32a4.16,4.16,0,0,1,1,.48,2.21,2.21,0,0,1,.25.42.91.91,0,0,1,.05.53l-.25.5a1.49,1.49,0,0,1-.43.22,1.08,1.08,0,0,1-.52,0l-1.28-.5a12.32,12.32,0,0,1-.2,1.57,3.72,3.72,0,0,1-.6,1.42l-.25.28a3.33,3.33,0,0,1-.95.52A3.16,3.16,0,0,1,441.74,110.67Zm.65-2.18a1.8,1.8,0,0,0,.35-.92l.1-1h-.35l-.65.35a2.08,2.08,0,0,0-.23.52,1.53,1.53,0,0,0,0,.63l.15.55.35.05Z"/><path class="cls-1" d="M459.76,111.27a24.33,24.33,0,0,1-2.57-.44,6,6,0,0,1-2.32-1.09,3.55,3.55,0,0,1-.35-.52,1,1,0,0,1-.1-.62l.25-.5a1.49,1.49,0,0,1,.43-.23.92.92,0,0,1,.48,0l.5.25a1,1,0,0,0,.37.38l.43.23a11.77,11.77,0,0,0,2.18.5,13.31,13.31,0,0,0,2.32.1l1.85-.25.5.25a1.49,1.49,0,0,1,.22.43.91.91,0,0,1,0,.47l-.25.5a5.75,5.75,0,0,1-1.9.53A13.88,13.88,0,0,1,459.76,111.27Zm1.8-9.62-.5-.25a2.61,2.61,0,0,0-.6-.53l-.7-.42q-1-.55-2.1-1a18.27,18.27,0,0,0-2.2-.82,1.45,1.45,0,0,1-.23-.44,1,1,0,0,1,0-.49l.25-.5a1.17,1.17,0,0,1,.52-.25,3.53,3.53,0,0,1,.63-.05,16.7,16.7,0,0,1,2.7,1.14q1.3.69,2.55,1.44l.5.4v.1h.1a1.49,1.49,0,0,1,.23.42,1.09,1.09,0,0,1,0,.53l-.25.5a1.5,1.5,0,0,1-.43.22A.91.91,0,0,1,461.56,101.64Z"/><path class="cls-1" d="M480.16,111.82l-.5-.25a1.49,1.49,0,0,1-.23-.43.91.91,0,0,1,0-.47q.6-1,1.17-2a4.28,4.28,0,0,0,.53-2.29l-.25-.85-1.15-.05a7.16,7.16,0,0,0-1.27.43,4,4,0,0,1-1.32.32,2.58,2.58,0,0,1-.43-.15,1.23,1.23,0,0,1-.37-.25,1.71,1.71,0,0,1-.3-.57,1.52,1.52,0,0,1-.05-.67,12,12,0,0,1,.45-1.93q.3-.92.55-1.87h-.1a17.54,17.54,0,0,0-1.72.38l-1.68.48a2.44,2.44,0,0,1-.37-.12,2,2,0,0,1-.32-.18,1.24,1.24,0,0,1-.25-.43,1.08,1.08,0,0,1,0-.52l.27-.5a10.73,10.73,0,0,1,2.43-.72,23.25,23.25,0,0,0,2.47-.58,3.52,3.52,0,0,0,.43-1.1,2.94,2.94,0,0,1,.47-1.1,1.25,1.25,0,0,1,.43-.25.91.91,0,0,1,.47,0l.5.27a1.5,1.5,0,0,1,.23.43,1.09,1.09,0,0,1,0,.53l-.3.9h.2a11.63,11.63,0,0,1,2.17-.3l2.27-.1.5.25a1.5,1.5,0,0,1,.23.43.91.91,0,0,1,0,.48l-.25.5a12.12,12.12,0,0,1-2.95.45,12.14,12.14,0,0,0-2.95.45l-1.05,3.5h.25a4,4,0,0,1,1.18-.33,6.52,6.52,0,0,1,1.27,0q.4.1.75.23a2.14,2.14,0,0,1,.65.38v.1h.1a3.64,3.64,0,0,1,.57,1.2,5.18,5.18,0,0,1,.18,1.35,6.47,6.47,0,0,1-.6,2.56,12.38,12.38,0,0,1-1.35,2.21,2.19,2.19,0,0,1-.43.25A.9.9,0,0,1,480.16,111.82Z"/><path class="cls-1" d="M501.71,111.72a2.47,2.47,0,0,1-.37-.12,2,2,0,0,1-.32-.18,1.49,1.49,0,0,1-.22-.43.91.91,0,0,1,0-.48l.3-.6.3-.32a6.94,6.94,0,0,0,.82-1q.38-.55.67-1.1l.05-.95a2.65,2.65,0,0,0-.15-.42,1.23,1.23,0,0,0-.25-.37,1.09,1.09,0,0,0-.62-.23l-.73,0a7.36,7.36,0,0,0-1.62.7,4.28,4.28,0,0,1-1.73.55,2.15,2.15,0,0,1-1.15-.6,2.45,2.45,0,0,1-.55-1q-.15-.57-.25-1.18v-2.6q.1-.55.18-1.1a1.62,1.62,0,0,1,.48-.95,1.49,1.49,0,0,1,.42-.22.91.91,0,0,1,.48,0l.5.25a1.5,1.5,0,0,1,.22.43.91.91,0,0,1,0,.48,2.1,2.1,0,0,0-.2.65,3.76,3.76,0,0,1-.15.65v2.35l.25.8h.25a8,8,0,0,1,1.82-.87,5.24,5.24,0,0,1,2.13-.22,4.19,4.19,0,0,1,.88.3,3.44,3.44,0,0,1,.77.5l.3.35a3,3,0,0,1,.57,1.3,6.3,6.3,0,0,1,.07,1.5,3.55,3.55,0,0,1-.47,1.38q-.37.63-.82,1.25l-.3.35h-.1l-.3.5-.3.35h-.1v.1a.74.74,0,0,1-.35.2Zm-2.3-13.42a13.82,13.82,0,0,0-1.32-.62,13.65,13.65,0,0,1-1.32-.62,1.89,1.89,0,0,1-.23-.45.91.91,0,0,1,0-.47l.25-.5a1.49,1.49,0,0,1,.42-.23,1.09,1.09,0,0,1,.53,0q.6.25,1.22.48a4,4,0,0,1,1.18.67,2.08,2.08,0,0,1,.25.44,1,1,0,0,1,.05.54l-.25.5a.74.74,0,0,1-.35.2Z"/><path class="cls-1" d="M519.34,112.17q-.35,0-.68-.12a1.05,1.05,0,0,1-.57-.37l-.43-.93a2.42,2.42,0,0,1-.22-1.05l.05-.2h.45a1.57,1.57,0,0,1,.55.2,1.71,1.71,0,0,1,.45.4,6.92,6.92,0,0,1,.61.75,1.17,1.17,0,0,1,.19.88l-.2.45Zm.15-3.68a1,1,0,0,1-.34-.15,1.72,1.72,0,0,1-.29-.27,1.84,1.84,0,0,1-.21-.5,1.34,1.34,0,0,1,0-.55q.5-2.82.85-5.75t.88-5.8l.43,0,.72.43a1,1,0,0,1,.11.4q0,.2,0,.4a59.73,59.73,0,0,0-.9,5.94,38.37,38.37,0,0,1-1.05,5.86Z"/><path class="cls-3" d="M80.92,102.82c-4.48,3.31-11,5.06-16.57,5.06a30,30,0,0,1-20.24-7.72c-.42-.38,0-.9.46-.6a40.73,40.73,0,0,0,20.25,5.37,40.28,40.28,0,0,0,15.44-3.16C81,101.45,81.66,102.27,80.92,102.82Z"/><path class="cls-3" d="M82.78,100.69c-.57-.73-3.79-.35-5.23-.17-.44.05-.51-.33-.11-.61,2.56-1.8,6.77-1.28,7.25-.68s-.13,4.82-2.53,6.83c-.37.31-.72.14-.56-.26C82.15,104.45,83.36,101.42,82.78,100.69Z"/><path class="cls-4" d="M38.4,88V86.58a.36.36,0,0,1,.37-.37h6.57a.37.37,0,0,1,.38.37v1.26a2.06,2.06,0,0,1-.49.92l-3.4,4.86a7.29,7.29,0,0,1,3.75.8.67.67,0,0,1,.35.57v1.56c0,.22-.24.46-.48.33a7.56,7.56,0,0,0-6.94,0c-.23.12-.47-.12-.47-.34V95.07a1.77,1.77,0,0,1,.24-1l3.94-5.65H38.78A.37.37,0,0,1,38.4,88Z"/><path class="cls-4" d="M14.44,97.19h-2a.38.38,0,0,1-.36-.34V86.6a.38.38,0,0,1,.39-.37h1.86a.38.38,0,0,1,.36.34v1.34h0a2.74,2.74,0,0,1,5.22,0A3,3,0,0,1,25,87.14c.63.86.5,2.11.5,3.21v6.47a.38.38,0,0,1-.39.37h-2a.37.37,0,0,1-.36-.37V91.39a13.1,13.1,0,0,0-.06-1.92,1,1,0,0,0-1.17-.89,1.33,1.33,0,0,0-1.19.84,6.21,6.21,0,0,0-.19,2v5.43a.38.38,0,0,1-.39.37h-2a.37.37,0,0,1-.36-.37V91.39c0-1.14.19-2.83-1.23-2.83s-1.38,1.64-1.38,2.83v5.43A.38.38,0,0,1,14.44,97.19Z"/><path class="cls-4" d="M51.37,86c3,0,4.57,2.55,4.57,5.78s-1.77,5.61-4.57,5.61-4.49-2.55-4.49-5.72S48.47,86,51.37,86Zm0,2.09c-1.47,0-1.57,2-1.57,3.26s0,3.93,1.55,3.93S53,93.14,53,91.82a9.47,9.47,0,0,0-.3-2.72A1.25,1.25,0,0,0,51.38,88.11Z"/><path class="cls-4" d="M59.78,97.19h-2a.37.37,0,0,1-.36-.37V86.57a.38.38,0,0,1,.38-.33h1.85a.38.38,0,0,1,.36.29v1.57h0A2.72,2.72,0,0,1,62.78,86a2.62,2.62,0,0,1,2.33,1.21,6.52,6.52,0,0,1,.52,3.19v6.45a.38.38,0,0,1-.38.32h-2a.38.38,0,0,1-.36-.32V91.3c0-1.12.13-2.76-1.25-2.76a1.31,1.31,0,0,0-1.16.82,4.56,4.56,0,0,0-.32,1.94v5.52A.38.38,0,0,1,59.78,97.19Z"/><path class="cls-4" d="M33.16,92.3a3.92,3.92,0,0,1-.37,2.12,1.62,1.62,0,0,1-1.38.91c-.77,0-1.21-.58-1.21-1.45,0-1.7,1.53-2,3-2Zm2,4.87a.41.41,0,0,1-.47,0,4.88,4.88,0,0,1-1.15-1.33,4,4,0,0,1-3.29,1.45,2.84,2.84,0,0,1-3-3.11A3.39,3.39,0,0,1,29.41,91a13.82,13.82,0,0,1,3.76-.69V90a2.56,2.56,0,0,0-.24-1.45A1.33,1.33,0,0,0,31.8,88a1.52,1.52,0,0,0-1.61,1.2.42.42,0,0,1-.35.37l-1.94-.21a.35.35,0,0,1-.3-.42c.45-2.35,2.57-3.06,4.47-3.06a4.53,4.53,0,0,1,3,1c1,.91.88,2.12.88,3.44v3.11a2.73,2.73,0,0,0,.75,1.85.38.38,0,0,1,0,.53c-.41.34-1.13,1-1.53,1.33Z"/><path class="cls-4" d="M7,92.3a3.92,3.92,0,0,1-.37,2.12,1.62,1.62,0,0,1-1.38.91c-.77,0-1.21-.58-1.21-1.45,0-1.7,1.53-2,3-2Zm2,4.87a.41.41,0,0,1-.47,0,4.86,4.86,0,0,1-1.15-1.33,4,4,0,0,1-3.29,1.45,2.84,2.84,0,0,1-3-3.11A3.39,3.39,0,0,1,3.22,91,13.82,13.82,0,0,1,7,90.26V90a2.56,2.56,0,0,0-.24-1.45A1.34,1.34,0,0,0,5.61,88,1.52,1.52,0,0,0,4,89.24a.42.42,0,0,1-.35.37l-1.94-.21a.35.35,0,0,1-.3-.42c.44-2.35,2.57-3.06,4.47-3.06a4.53,4.53,0,0,1,3,1c1,.91.88,2.12.88,3.44v3.11a2.73,2.73,0,0,0,.75,1.85.38.38,0,0,1,0,.53c-.41.34-1.13,1-1.53,1.33Z"/><path class="cls-5" d="M117.68,102a6.48,6.48,0,0,1-6.48,6.48H76V82.87a6.49,6.49,0,0,1,6.48-6.48h35.2Z"/><path class="cls-6" d="M106.2,95.45h2.68l.32,0a1.22,1.22,0,0,0,0-2.38l-.32,0H106.2Zm2.37-16.91a4.64,4.64,0,0,0-4.64,4.64V88h6.56l.45,0c1.48.08,2.57.84,2.57,2.16a2.2,2.2,0,0,1-2.1,2.13v.05c1.5.1,2.65.93,2.65,2.23s-1.26,2.32-2.94,2.32h-7.19v9.44h6.8a4.63,4.63,0,0,0,4.63-4.63V78.54Zm1.26,12a1.1,1.1,0,0,0-.94-1.11l-.26,0H106.2v2.26h2.43l.26,0A1.1,1.1,0,0,0,109.84,90.51Z"/><path class="cls-7" d="M82.95,78.54a4.64,4.64,0,0,0-4.64,4.64V94.62a9.25,9.25,0,0,0,4,1,2.24,2.24,0,0,0,2.49-2.29V88h4v5.37c0,2.1-1.29,3.79-5.71,3.79a19.94,19.94,0,0,1-4.76-.58v9.76h6.8a4.63,4.63,0,0,0,4.63-4.63V78.54Z"/><path class="cls-8" d="M95.76,78.54a4.64,4.64,0,0,0-4.63,4.64v6.06c1.18-1,3.2-1.63,6.5-1.49a21,21,0,0,1,3.64.55v2a9,9,0,0,0-3.5-1c-2.5-.19-4,1-4,3.2s1.51,3.39,4,3.19a9.13,9.13,0,0,0,3.5-1v2a20.86,20.86,0,0,1-3.64.55c-3.29.15-5.32-.48-6.5-1.49v10.69h6.8a4.62,4.62,0,0,0,4.62-4.63V78.54Z"/><image width="1200" height="480" transform="translate(127.58 80.99) scale(0.05)" xlink:href="../../design/ranking/quo.jpg"/><path class="cls-1" d="M606.91,15.86a8.22,8.22,0,0,0,2.44,6.55c1.51,1.7,3.13,4.12,2.79,6.74a13.34,13.34,0,0,1-3.22,6.5l-.73-.09a14.65,14.65,0,0,0,2.51-5.63,6.58,6.58,0,0,0-4.27-7.1l-1.8,14a4.89,4.89,0,0,1-5.71,4.08c-1.28-.17-2.5-1-2.33-2.4.26-2,3-3.52,5.32-3.23a4.13,4.13,0,0,1,1.71.59l2.59-20.1Z"/><path class="cls-9" d="M352.91,4.55c-.46-.39-1.07-.57-1.56-.92a1.27,1.27,0,0,1-.54-1.56,1.61,1.61,0,0,1,.63-.51A3.22,3.22,0,0,1,353,1a1.11,1.11,0,0,1,1.14,1,1.5,1.5,0,0,1-.27.7,11.24,11.24,0,0,1-2.45,2.8"/><path class="cls-9" d="M289.91,4.55c-.46-.39-1.07-.57-1.56-.92a1.27,1.27,0,0,1-.54-1.56,1.61,1.61,0,0,1,.63-.51A3.22,3.22,0,0,1,290,1a1.11,1.11,0,0,1,1.14,1,1.5,1.5,0,0,1-.27.7,11.24,11.24,0,0,1-2.45,2.8"/><path class="cls-9" d="M378.91,4.55c-.46-.39-1.07-.57-1.56-.92a1.27,1.27,0,0,1-.54-1.56,1.61,1.61,0,0,1,.63-.51A3.22,3.22,0,0,1,379,1a1.11,1.11,0,0,1,1.14,1,1.5,1.5,0,0,1-.27.7,11.24,11.24,0,0,1-2.45,2.8"/><path class="cls-9" d="M320.91,4.55c-.46-.39-1.07-.57-1.56-.92a1.27,1.27,0,0,1-.54-1.56,1.61,1.61,0,0,1,.63-.51A3.22,3.22,0,0,1,321,1a1.11,1.11,0,0,1,1.14,1,1.5,1.5,0,0,1-.27.7,11.24,11.24,0,0,1-2.45,2.8"/></g></g></svg>