<svg xmlns="http://www.w3.org/2000/svg" viewBox="0 0 497.23 66.68"><defs><style>.cls-1{fill:#333;}</style></defs><title>text-kv-sub</title><g id="レイヤー_2" data-name="レイヤー 2"><g id="レイヤー_2-2" data-name="レイヤー 2"><path class="cls-1" d="M1.48,21l-.6-.35a1.88,1.88,0,0,1-.28-.54,1.18,1.18,0,0,1,0-.66Q2,17.77,3.47,16.15a18,18,0,0,0,2.46-3.52l-.38,0-2,.09-.47-.19a2.52,2.52,0,0,1-.41-.22,1.6,1.6,0,0,1-.27-.54,1.27,1.27,0,0,1,0-.6l.35-.63a8.11,8.11,0,0,1,2.38-.35,12.46,12.46,0,0,0,2.38-.22l1.2-2.05H8.45a8.51,8.51,0,0,1-1.14.17,9,9,0,0,1-1.2,0l-.63-.35a2.49,2.49,0,0,1-.25-.54,1.15,1.15,0,0,1,0-.6L5.55,6a5.77,5.77,0,0,1,2.18-.47,21.71,21.71,0,0,0,2.34-.19l.54-1.61h-.13L8.86,4a11.79,11.79,0,0,1-1.67.17l-.63-.35a1.6,1.6,0,0,1-.27-.54,1.27,1.27,0,0,1,0-.6l.35-.63a44.74,44.74,0,0,1,4.86-1A37.87,37.87,0,0,0,16.38,0l.6.35a1.61,1.61,0,0,1,.27.54,1.28,1.28,0,0,1,0,.6l-.32.63a4.71,4.71,0,0,1-1.89.79L13,3.25l0,.19a.61.61,0,0,1,.19.44v.51l-.35.76,1,0,.06-.06,2.78.06.47.19a1.66,1.66,0,0,1,.38.22,1.81,1.81,0,0,1,.28.57,1,1,0,0,1,0,.6l-.32.63a1.22,1.22,0,0,1-.51.24l-.57.11-.06-.06-2.53-.06-2.11.13a2.88,2.88,0,0,1-.55,1.12,4,4,0,0,0-.62,1.06l.82,0,4.7-.25q2.3-.13,4.74-.06l.38.09.57-.06.63.35a2.51,2.51,0,0,1,.25.54,1.15,1.15,0,0,1,0,.6l-.41.69a1.59,1.59,0,0,1-.76.27,8.25,8.25,0,0,1-.88,0L18.24,12l-4.7.25-4.64.25a17.52,17.52,0,0,1-1.42,2.4L5.87,17.2l-.41.41A10.54,10.54,0,0,1,4.29,19Q3.62,19.6,3,20.27l-.38.44a1.58,1.58,0,0,1-.55.27A1.35,1.35,0,0,1,1.48,21Zm7,6.38-.6-.32a1.41,1.41,0,0,1-.33-.62q-.08-.33-.14-.71V18.94a14.57,14.57,0,0,0,.16-2.18A5.18,5.18,0,0,1,8,14.68l.19-.13.28-.47a2.66,2.66,0,0,1,1.45-.36,6.26,6.26,0,0,0,1.52-.14l2.56.06,2.71,0a9.64,9.64,0,0,1,1,.17,2.26,2.26,0,0,1,.85.39,8.1,8.1,0,0,1,.55,2.92q0,1.56.14,3.08l-.06,2.56A14.92,14.92,0,0,0,19,24.91,4.52,4.52,0,0,1,18.56,27a1.81,1.81,0,0,1-.57.28,1.87,1.87,0,0,1-.69.06l-1.07,0-3.41.16-.69-.06a10.67,10.67,0,0,1-1.83,0A16.56,16.56,0,0,0,8.52,27.37Zm8-2.37,0-.82.06-.76-1.77-.13a16.18,16.18,0,0,1-2.51.13,12.24,12.24,0,0,0-2.51.19l0,1.42.25,0a3.16,3.16,0,0,0,1.4.06,5.69,5.69,0,0,1,1.47-.06l.06.06Zm.25-4.07v-.57l0-.63-.38,0-5.68.22-.41-.06-.41,0,0,1.2.13,0a24,24,0,0,1,3.14-.24l3.17,0Zm-.09-3.66v-.19l-.16-1.23-1.45,0-1,.09-2.62-.06-1.33.22,0,1.39h.13Z"/><path class="cls-1" d="M33.93,9.5a3.08,3.08,0,0,1-.47-.16A2.5,2.5,0,0,1,33,9.12a1.89,1.89,0,0,1-.28-.54,1.15,1.15,0,0,1,0-.6L33,7.36a17.63,17.63,0,0,1,3.71-.5l3.84-.13.63.32a1.9,1.9,0,0,1,.28.54,1.16,1.16,0,0,1,0,.6l-.32.63a12.66,12.66,0,0,1-3.61.51A34.53,34.53,0,0,0,33.93,9.5ZM35,25.76l-.63-.32a6.48,6.48,0,0,1-.54-2.51q0-1.37-.16-2.7a3.14,3.14,0,0,1,.16-.47,2.56,2.56,0,0,1,.22-.41,2,2,0,0,1,1.39-.6,15.4,15.4,0,0,0,1.67-.16h3l.76.38a1,1,0,0,1,.28.63q0,.38,0,.76A21.28,21.28,0,0,0,41,22.71a6.29,6.29,0,0,1-.38,2.23q-.44.19-.92.44a1.75,1.75,0,0,1-1,.19l-1.45-.06Zm.69-12.6q-.32-.06-.63-.16a1.79,1.79,0,0,1-.57-.28,1.88,1.88,0,0,1-.28-.54,1.15,1.15,0,0,1,0-.6L34.5,11a1.89,1.89,0,0,1,.54-.28,1.15,1.15,0,0,1,.6,0l.76.06.06-.06h2.62l.63.32a2.76,2.76,0,0,1,.32.54,1.15,1.15,0,0,1,.06.66l-.32.63-.63.32H36.45Zm-.32,4.36a3,3,0,0,1-.47-.16,2.54,2.54,0,0,1-.41-.22,1.88,1.88,0,0,1-.28-.54,1.15,1.15,0,0,1,0-.6l.32-.63A6.92,6.92,0,0,1,36.82,15q1.25,0,2.45-.06a3.2,3.2,0,0,1,.47.16,2.61,2.61,0,0,1,.41.22,1.89,1.89,0,0,1,.28.54,1.15,1.15,0,0,1,0,.6l-.32.63a1.43,1.43,0,0,1-.51.25l-.57.13-1.45-.06Zm2.05-12-.66-.32q-.38-.69-.73-1.45a4.59,4.59,0,0,1-.41-1.58l.32-.63a1.89,1.89,0,0,1,.54-.28,1.26,1.26,0,0,1,.63,0l.63.32q.38.69.73,1.45a4.63,4.63,0,0,1,.41,1.58l-.32.63a2.26,2.26,0,0,1-.54.3A.9.9,0,0,1,37.43,5.56ZM38.51,23v-.25l.06-1.74H37.24l-1,.13-.06.19.13,1.8h.19a3.51,3.51,0,0,1,1-.13Zm7.36-5.18-.79-.28a1.88,1.88,0,0,1-.35-1q0-.57,0-1.14l.13-2.15L44.69,12h-.13l-.13.19.19.06v.13l-.76.51A1.26,1.26,0,0,1,43,13l-.63-.32a1.89,1.89,0,0,1-.28-.54,1.37,1.37,0,0,1,0-.66l.32-.63a11.43,11.43,0,0,0,2-1.58q.57-.63,1.7-2a1.88,1.88,0,0,1,.54-.28,1.15,1.15,0,0,1,.6,0l.63.32a1.89,1.89,0,0,1,.28.54,1.15,1.15,0,0,1,0,.6l-.51,1h1.58a1,1,0,0,1,.09-.44,3.43,3.43,0,0,1,.22-.38l.19-.06.95-1.33L51.2,7l.06-.19L51,6.72a2.61,2.61,0,0,1-.28-.66,2.87,2.87,0,0,1-.09-.76h-2a1.65,1.65,0,0,1,0,.73,1.8,1.8,0,0,1-.28.57,1.89,1.89,0,0,1-.54.28,1.15,1.15,0,0,1-.6,0l-.63-.32a1.89,1.89,0,0,1-.28-.54,2,2,0,0,1-.09-.63H46l-1.39.06a3.08,3.08,0,0,1-.47-.16,2.55,2.55,0,0,1-.41-.22,1.88,1.88,0,0,1-.28-.54,1.15,1.15,0,0,1,0-.6l.32-.63a1.7,1.7,0,0,1,1-.32h1.14V2.84a2.29,2.29,0,0,1-.16-.63c0-.21,0-.44,0-.69L46,.88A1.87,1.87,0,0,1,46.49.6a1.15,1.15,0,0,1,.6,0l.63.32a3.74,3.74,0,0,1,.38.95l.25,1H51q.06-.63.06-1.23a1.8,1.8,0,0,1,.38-1.1A1.89,1.89,0,0,1,52,.22a1.15,1.15,0,0,1,.6,0l.66.32a1.26,1.26,0,0,1,.32.82v.95l-.06.44a7.41,7.41,0,0,0,1.2,0,1.47,1.47,0,0,1,1.07.35,1.89,1.89,0,0,1,.28.54,1.15,1.15,0,0,1,0,.6l-.32.63a2.18,2.18,0,0,1-1.23.38q-.66,0-1.39.06-.06.41-.09.79a1,1,0,0,1-.28.63L52.21,7l-.06.19.25.13a1.88,1.88,0,0,1,.28.54,1.15,1.15,0,0,1,0,.6l-.44.95q.57,0,1.18,0a1.45,1.45,0,0,1,1.06.35,1.15,1.15,0,0,1,.22.6,2.33,2.33,0,0,1,0,.66l-.32.13a1.89,1.89,0,0,1-1.06.25H52l.06.57q.5,0,1,0a1.51,1.51,0,0,1,.9.35,1,1,0,0,1,.16.38,2.75,2.75,0,0,1,0,.44,1,1,0,0,1-.25.38,1.89,1.89,0,0,1-1.1.19l-.76.06v.41h1.42l.57.25a.45.45,0,0,1,.13.36.46.46,0,0,0,.06.33l-.25.44a6.47,6.47,0,0,1-1.93.09v.44a3.1,3.1,0,0,0,1.25,0,1.12,1.12,0,0,1,1.12.38,1.11,1.11,0,0,1,.16.32,1.7,1.7,0,0,1,0,.38,1.16,1.16,0,0,1-.63.63l-1.61.06-1.64-.06-.88.06-2.21-.06ZM54,27.09a19.55,19.55,0,0,1-2.59-.79q-1.23-.47-2.43-1a7.11,7.11,0,0,1-1.74.88,13.69,13.69,0,0,1-1.93.51,3.13,3.13,0,0,1-.47-.16,2.56,2.56,0,0,1-.41-.22,1.89,1.89,0,0,1-.28-.54,1.15,1.15,0,0,1,0-.6l.32-.63a3.41,3.41,0,0,1,1.07-.44,11.4,11.4,0,0,0,1.14-.32v-.13l-.51-.38a1.89,1.89,0,0,1-.28-.54,1.15,1.15,0,0,1,0-.6l.32-.66a1.89,1.89,0,0,1,.54-.28,1.38,1.38,0,0,1,.66,0l.82.44v.13l.82.47a6.42,6.42,0,0,0,.88-.62,4.2,4.2,0,0,0,.76-.8H47l-1.58.06-.63-.32a1.88,1.88,0,0,1-.28-.54,1.15,1.15,0,0,1,0-.6l.32-.63a1.57,1.57,0,0,1,.95-.35q.57,0,1.07-.09h3.47l2.84-.13.66.32a1.81,1.81,0,0,1,.28.57,1.52,1.52,0,0,1,0,.69q-.32.69-.71,1.4a9.7,9.7,0,0,1-.9,1.34L52,23l-.38.19v.13l-.19.25a13.68,13.68,0,0,0,1.82.63,8.26,8.26,0,0,1,1.75.69,1.9,1.9,0,0,1,.28.54,1.16,1.16,0,0,1,0,.6l-.32.63a.94.94,0,0,1-.44.25ZM49.56,12v-.25l-.13-.25-2,.06-.32.06.06.38h2.34Zm.06,4v-.47a13.76,13.76,0,0,1-2.46,0v.51h.19Zm-.06-2.46H47.22v.51a14.41,14.41,0,0,1,2.34,0Z"/><path class="cls-1" d="M66.6,24.4a1.73,1.73,0,0,1-.47-.13,2.54,2.54,0,0,1-.41-.22l-.63-.63a2.22,2.22,0,0,1-.33-1.36,9.49,9.49,0,0,0,0-1.45q.13-2,.21-4T65,12.44q0-1.26,0-2.56t0-2.49l.32-.63a3.48,3.48,0,0,1,.82-1A8.36,8.36,0,0,0,67.2,4.67l.85-1h.16a5.52,5.52,0,0,1,.63-1l.79-1a1.88,1.88,0,0,1,.54-.28,1.15,1.15,0,0,1,.6,0l.63.32a1.88,1.88,0,0,1,.28.54,1.37,1.37,0,0,1,0,.66l-.54.95-.38.44h-.13l-.57,1-.6.63h-.13l-.19.38-.32.35-.69.76h.13A9.06,9.06,0,0,1,70,7.2q.9,0,1.85,0A8.31,8.31,0,0,1,73,7.24a1.93,1.93,0,0,1,1,.46,1.83,1.83,0,0,1,.44,1q.06.57.09,1.2-.13.95-.19,2a4.91,4.91,0,0,1-.51,1.91l-.57.51a7.81,7.81,0,0,1-2.76.47,17.76,17.76,0,0,0-3,.25l-.09,2.15h.13Q69,17,70.31,16.89t2.64-.13l1.07.51v.13h.13A3.09,3.09,0,0,1,74.62,19q0,.88,0,1.77-.06.69-.14,1.4a2.84,2.84,0,0,1-.46,1.28l-.38.32a1.81,1.81,0,0,1-.57.28,3.39,3.39,0,0,1-.69.13l-.06-.06H68.78ZM72,21.56v-.13l.13-1.83-.06-.38h-.63q-1.07.06-2.08.16t-2.05.28l-.13,2.08h.38l1-.19Zm-.25-9.41a7.24,7.24,0,0,0,.16-1.2q0-.63.09-1.26l-2.08-.06-1.18.16a7.19,7.19,0,0,0-1.18.28v.32l.06,2.08h.79a8.8,8.8,0,0,1,1.64-.22ZM81.75,26a3.13,3.13,0,0,1-.47-.16,2.54,2.54,0,0,1-.41-.22,1.5,1.5,0,0,1-.32-.73,5.54,5.54,0,0,1-.06-.85l.06-.06V17.77L80.49,17q.06-1.26.16-2.49a19.72,19.72,0,0,0,0-2.49l-.13-2.34H80.3L77.71,10l-.06,2.9.25,3.91-.32.63a1.89,1.89,0,0,1-.54.28,1.15,1.15,0,0,1-.6,0l-.63-.32a7.29,7.29,0,0,1-.57-2.9q0-1.58-.06-3.16l.13-1.77A4.32,4.32,0,0,1,75.76,8,11.23,11.23,0,0,1,78,7.45q1.2-.16,2.4-.28V6.35L80.37,5l.06-.38h-2a15.21,15.21,0,0,1-2.08.25l-.63-.32A1.89,1.89,0,0,1,75.47,4a1.15,1.15,0,0,1,0-.6l.51-.82a7.46,7.46,0,0,1,2.3-.41q1.23,0,2.49,0l1.58.13h3.76l.63.32a2.79,2.79,0,0,1,.32.54,1.15,1.15,0,0,1,.06.66l-.32.63-.63.32H82.83V6.12l.06.92q1.33.06,2.6.16A4.26,4.26,0,0,1,87.78,8v.13h.13V8.3H88A4.39,4.39,0,0,1,89,10a8.22,8.22,0,0,1,.35,1.93v2.78a9.14,9.14,0,0,1-.25,1.83,6.82,6.82,0,0,1-.76,1.64,1.88,1.88,0,0,1-.54.28,1.15,1.15,0,0,1-.6,0l-.63-.32a1.61,1.61,0,0,1-.38-.6,1.41,1.41,0,0,1-.06-.73l.32-.63a4.76,4.76,0,0,0,.44-1.86,20,20,0,0,0,0-2.24,8.2,8.2,0,0,1-.19-1,1.81,1.81,0,0,0-.44-1,3.07,3.07,0,0,0-1.56-.47q-.87,0-1.69-.09v1.14l.13,1.14v2.84l-.06,2.9.06.06L83,25l-.32.63a.93.93,0,0,1-.44.25Z"/><path class="cls-1" d="M102.12,26.33l-.63-.35a.93.93,0,0,1-.25-.46,4.76,4.76,0,0,1-.09-.52l.06-.19q0-.88,0-1.61t0-1.58h-.13l-3.57.32-.63-.35a1.89,1.89,0,0,1-.28-.54,1,1,0,0,1,0-.6l.32-.63A5.74,5.74,0,0,1,99,19.37q1.1,0,2.21-.21l0-.44-.06-.95.09-.25h-.47q-.47.13-.92.21a5.38,5.38,0,0,1-.95.08,1.94,1.94,0,0,1-.46-.17L98,17.39a1.89,1.89,0,0,1-.28-.54,1.15,1.15,0,0,1,0-.6l.16-.69q-.22-1.39-.35-2.89t-.22-3l.32-.63a4.46,4.46,0,0,1,2-.66q1.07-.09,2.11-.25V7.42l0-.79h-.85l-1.58.09a2.25,2.25,0,0,1-.47-.17,3.74,3.74,0,0,1-.41-.24,1.58,1.58,0,0,1-.27-.55,1.34,1.34,0,0,1,0-.62l.32-.63A3.39,3.39,0,0,1,100,4.18q.82,0,1.67,0,0-.63,0-1.26a1.79,1.79,0,0,1,.39-1.1,1.83,1.83,0,0,1,.55-.28,1.22,1.22,0,0,1,.62,0l.63.35a1.33,1.33,0,0,1,.3,1.07,3.49,3.49,0,0,0,0,1.2l.88,0,1.26,0,.76.13a1.2,1.2,0,0,1,.66.35,1.89,1.89,0,0,1,.28.54,1.15,1.15,0,0,1,0,.6l-.35.66a1.47,1.47,0,0,1-.76.25,6.14,6.14,0,0,1-.88,0l-.95-.06-.88.09-.06.57,0,.88,1.86,0a2.64,2.64,0,0,1,1.61.55,1.78,1.78,0,0,1,.22.51q.06.25.13.57L108,13v2.05l-.06.32a1,1,0,0,1,.16.41,1.81,1.81,0,0,1,0,.47l-.32.63a3.37,3.37,0,0,1-.73.38,1.67,1.67,0,0,1-.85.09l-.38-.09-2.08.09-.09,1.07.06.57,2.15,0,.88,0,.6.32a1.85,1.85,0,0,1,.28.55,1.22,1.22,0,0,1,0,.62l-.35.6a3.2,3.2,0,0,1-1.7.43l-1.89,0,0,2.05v1.7l-.38.79a1.61,1.61,0,0,1-.54.27A1.41,1.41,0,0,1,102.12,26.33Zm-.51-14.71V10.8l.06-.16-.19,0-1.61.22v.63l0,.32.32,0Zm-.22,3.44,0-.88H101l-.82.13v.32l.09.44.25.06Zm4.14-.22,0-.51.06-.32-1.2,0-.44.06,0,.88H104Zm0-3.31v-.95l-1.39,0-.06.95Zm15.22,14.43a3.08,3.08,0,0,1-.47-.16,2.5,2.5,0,0,1-.41-.22l-1.23-2.3-.25,0-4.12.62q-2,.3-4.09.55l-.73-.41a1.6,1.6,0,0,1-.27-.54,2.23,2.23,0,0,1-.08-.6,30,30,0,0,1,2-3.65l2.27-3.49h-.51l-2.65.09a2.27,2.27,0,0,1-.47-.17,2.09,2.09,0,0,1-.38-.24,1.57,1.57,0,0,1-.27-.55,1.34,1.34,0,0,1,0-.62l.35-.6a18.05,18.05,0,0,1,3.41-.32q1.77,0,3.57-.06l4.58.16.57.16a1.43,1.43,0,0,1,.51.25,3.37,3.37,0,0,1,.25.57,1,1,0,0,1,0,.6l-.32.6a1.91,1.91,0,0,1-.6.27,2.59,2.59,0,0,1-.63.08l-.06-.06-4.32-.16a8.23,8.23,0,0,1-.77,1.34l-.93,1.31a6,6,0,0,0-.68,1,6.06,6.06,0,0,1-.71,1l-.6,1.2h.44l4.17-.66,0-.19-.58-.92a1.44,1.44,0,0,1-.21-1l.35-.6a1.59,1.59,0,0,1,.55-.27,1.36,1.36,0,0,1,.62,0l.63.35q.95,1.64,1.86,3.33A19.87,19.87,0,0,1,122.07,25l-.35.6a1,1,0,0,1-.44.21Zm-2-16.07-.06-.06H111.3l-.63-.32a1.89,1.89,0,0,1-.28-.54,1.15,1.15,0,0,1,0-.6l.32-.63a2.56,2.56,0,0,1,.41-.22,3.13,3.13,0,0,1,.47-.16H119a3.17,3.17,0,0,1,.47.16,2.59,2.59,0,0,1,.41.22,1.88,1.88,0,0,1,.28.54,1.15,1.15,0,0,1,0,.6l-.32.63a1.42,1.42,0,0,1-.51.25Z"/><path class="cls-1" d="M135.17,26.3l-.63-.32a10.34,10.34,0,0,1-.41-3.2q.06-1.5,0-3.46H134a19,19,0,0,1-2.34.6l-2.37.44L128.7,20a1.89,1.89,0,0,1-.28-.54,1.15,1.15,0,0,1,0-.6l.32-.63a3.66,3.66,0,0,1,1.1-.46l1.17-.27v-.13l-.22-1.14V13.48l.06-.88-.09-.76.25-2.4,0-2.78a2.33,2.33,0,0,1-.57-.06.93.93,0,0,1-.44-.25,2.52,2.52,0,0,1-.28-.55,1.08,1.08,0,0,1,0-.58l.32-.66a7.53,7.53,0,0,1,3.46-.84q1.88,0,3.71-.14l.63.32a1.88,1.88,0,0,1,.28.54,1.15,1.15,0,0,1,0,.6l-.32.63-.63.32L137,6l0,3.06q-.19,1.83-.3,3.71t-.14,3.77l.57.25a1.89,1.89,0,0,1,.28.54,1.15,1.15,0,0,1,0,.6l-.38.69-.51.25v2.21l0,4.2-.28.6a2.79,2.79,0,0,1-.54.32A1.15,1.15,0,0,1,135.17,26.3Zm-1.07-9.5.16-2.59h-.92a2,2,0,0,0-.16.95q0,.51,0,1l.16.76h.35Zm.32-5.18V10.35l-.25,0-.92.13v1.2h1Zm.19-3.79,0-1.64-1.17,0,0,1.77h.6ZM152.18,27l-.63-.32a15.88,15.88,0,0,1-1.74-2.08,8.32,8.32,0,0,1-.95-2.49l-.13,0-.32.41a2.72,2.72,0,0,1-.65.44,1.32,1.32,0,0,1-.77.09l-.66-.28a2.15,2.15,0,0,1-.3-.55,1,1,0,0,1,0-.62l.38-.76,1.07-1,.5-.44,0-.51a25.4,25.4,0,0,1-.77-2.49,13.11,13.11,0,0,1-.39-2.65q-1.23,0-2.38-.06t-2.35,0q-1,.09-2,.14a10.81,10.81,0,0,0-1.94.27l-.66-.32a1.49,1.49,0,0,1-.28-.51,1.15,1.15,0,0,1,0-.6l.28-.63a1.25,1.25,0,0,1,.73-.44,6.35,6.35,0,0,1,.88-.13v-.25a4.07,4.07,0,0,1-.17-1.33,12.74,12.74,0,0,0,0-1.42,1.08,1.08,0,0,1-.46-.09,2.88,2.88,0,0,1-.39-.22,1.89,1.89,0,0,1-.28-.54,1.43,1.43,0,0,1-.06-.6l.28-.63A1.8,1.8,0,0,1,139.08,6h1.29V5.84l-.16-2.15.32-.63a2.38,2.38,0,0,1,.52-.3,1.18,1.18,0,0,1,.65,0l.63.32a3,3,0,0,1,.43,1.36q0,.73,0,1.48.69,0,1.39,0a1.85,1.85,0,0,1,1.2.41,1.58,1.58,0,0,1,.32.54,1.43,1.43,0,0,1,.06.6l-.32.63-.6.35-.6,2.9,2.24,0,0-2.21-.06-.38,0-.69a18.62,18.62,0,0,1-.28-2.45A23.33,23.33,0,0,0,146,3.13q.06-.44.09-.88a1.33,1.33,0,0,1,.28-.76,2.26,2.26,0,0,1,.54-.3,1.06,1.06,0,0,1,.6,0l.63.32a1.07,1.07,0,0,1,.35.76q0,.47,0,.92l-.06.25q.22,1.29.32,2.67t.25,2.7l-.06.19.09,1.83-.06.57q.92.06,1.8,0a3.73,3.73,0,0,1,1.64.33,1.39,1.39,0,0,1,.35.54,1.15,1.15,0,0,1,0,.6l-.32.63a1.25,1.25,0,0,1-.57.32,2.75,2.75,0,0,1-.73.09l-1.93-.09V14a9,9,0,0,0,.28,1.7q.22.82.44,1.58h.13A10.6,10.6,0,0,0,151.24,16l1-1.33a1.82,1.82,0,0,1,.54-.33,1.06,1.06,0,0,1,.6,0l.63.32a2.52,2.52,0,0,1,.28.55,1.34,1.34,0,0,1,.06.58,3.4,3.4,0,0,1-.49.85,4.67,4.67,0,0,0-.52.82l-2,2h-.13l-.25.38a.25.25,0,0,0-.19.25v.38a13.61,13.61,0,0,1,.66,1.56,12.7,12.7,0,0,0,1.1,2.16l.57.57v.13l.13,0a2.27,2.27,0,0,1,.3.54,1.38,1.38,0,0,1,.08.63l-.32.63a1.83,1.83,0,0,1-.54.33A1.05,1.05,0,0,1,152.18,27ZM140.31,25.6l-.73-.09a1,1,0,0,1-.6-.25,2.07,2.07,0,0,1-.38-1,9.37,9.37,0,0,1-.06-1.1q.19-1.61.36-3.24a23,23,0,0,0,.11-3.3l-.09-1,.32-.66a6.74,6.74,0,0,1,1.63-.44,8.15,8.15,0,0,1,1.75-.06l.76.14a1.64,1.64,0,0,1,.69.33l.19.19.79,1.45v2.65l-.06.57.09,2.46-.06.35.13,1.7-.32.63a1.89,1.89,0,0,1-.54.28,1.65,1.65,0,0,1-.66.06l-.25-.06Zm2.24-2.78v-.6l.06-1h-1.07l-.35.06-.06,1.23.06.51h.22Zm-.47-11.71-.13-.63.57-2.18h-1.2v.19a5.53,5.53,0,0,1,.16,1.34q0,.71.06,1.4h.32Zm.51,7.64V17.11a.53.53,0,0,0-.51-.22l-.57,0v1.83Zm10.07-9.5a3,3,0,0,1-.47-.16,2.53,2.53,0,0,1-.41-.22,8.48,8.48,0,0,0-1-1.77,3.6,3.6,0,0,1-.65-1.93l.32-.63a1.88,1.88,0,0,1,.54-.28,1.15,1.15,0,0,1,.6,0l.63.32a14.63,14.63,0,0,0,1,1.74,3.73,3.73,0,0,1,.65,1.93l-.32.63a1.07,1.07,0,0,1-.44.27Z"/><path class="cls-1" d="M170.78,25.38l-.63-.32a1.88,1.88,0,0,1-.28-.54,1.37,1.37,0,0,1,0-.66,45.35,45.35,0,0,0,2.34-6,35.08,35.08,0,0,0,1.33-6.28h-2l-4.67.25V12l.19,3.91-.32.63a1.88,1.88,0,0,1-.54.28,1.15,1.15,0,0,1-.6,0l-.63-.32a5.45,5.45,0,0,1-.44-2.21A21.19,21.19,0,0,0,164.4,12h-.13l-2.43.19-.63-.32a1.89,1.89,0,0,1-.28-.54,1.15,1.15,0,0,1,0-.6l.32-.63a2.5,2.5,0,0,1,1.47-.44,9.66,9.66,0,0,0,1.59-.13V8.18l-.06-.32a3.11,3.11,0,0,1,.16-.47,2.56,2.56,0,0,1,.22-.41,1.89,1.89,0,0,1,.54-.28,1.15,1.15,0,0,1,.6,0l.63.32a1.85,1.85,0,0,1,.38,1.14V9.38h.63q1.64-.13,3.28-.19t3.28-.06V7.23L173.74,6a3.11,3.11,0,0,1,.16-.47,2.56,2.56,0,0,1,.22-.41,1.89,1.89,0,0,1,.54-.28,1.15,1.15,0,0,1,.6,0l.63.32a4.6,4.6,0,0,1,.47,1.94q0,1.06,0,2.13.88,0,1.82,0a4,4,0,0,1,1.69.41,1.88,1.88,0,0,1,.28.54,1.38,1.38,0,0,1,0,.66l-.32.63a1.12,1.12,0,0,1-.62.32,2.19,2.19,0,0,1-.74,0l-2.46-.13a48,48,0,0,1-1.52,6.85,38.33,38.33,0,0,1-2.65,6.57,1.88,1.88,0,0,1-.54.28A1.15,1.15,0,0,1,170.78,25.38Z"/><path class="cls-1" d="M196.12,25.63l-.63-.32a2.74,2.74,0,0,1-.32-.54,1.14,1.14,0,0,1-.06-.66,4.61,4.61,0,0,0,.22-1.25q0-.68,0-1.31l-.06-.19.06-.82-.06-.06V16.64l-.06-.95.06-.38a8.62,8.62,0,0,1-.16-1.29,2.45,2.45,0,0,0-.28-1.1l-1.39,1.83-.32.13-.82,1-.32.32-.69.44-.13.32-.32.32-.63.51-.44.38a2.48,2.48,0,0,1-.57.32,1.27,1.27,0,0,1-.69.06l-.63-.32a1.87,1.87,0,0,1-.28-.54,1.15,1.15,0,0,1,0-.6l.32-.63,1.33-1.14.38-.38a11.91,11.91,0,0,0,1-.82,7.19,7.19,0,0,0,.85-.95q1.58-1.89,3.16-3.76a21.88,21.88,0,0,0,2.71-4,5.12,5.12,0,0,0,.32-.79,3,3,0,0,1,.38-.79,1.88,1.88,0,0,1,.54-.28,1.15,1.15,0,0,1,.6,0l.63.32a1.9,1.9,0,0,1,.28.54,1.15,1.15,0,0,1,0,.6,10.42,10.42,0,0,1-.32,1,6.22,6.22,0,0,1-.44,1l-.19.13-1.07,1.83H198a5.64,5.64,0,0,1-.6,1q-.35.47-.66,1L197,11a8.23,8.23,0,0,1,.57,2.3q.13,1.23.19,2.49l-.06.63.06.06V20.3l.06,2.43q-.06.69-.16,1.36a3.56,3.56,0,0,1-.41,1.23,1.9,1.9,0,0,1-.54.28A1.15,1.15,0,0,1,196.12,25.63Z"/><path class="cls-1" d="M218.92,25.38l-.63-.32a1.1,1.1,0,0,1-.35-.69q0-.38-.09-.76V20l-.13-1.58.06-.06v-7.2l-.06-.25.06-.06V6l-.19-1.58.32-.63a1.88,1.88,0,0,1,.54-.28,1.15,1.15,0,0,1,.6,0l.63.32a1.66,1.66,0,0,1,.41,1,5.68,5.68,0,0,0,.16,1.07v5l-.06.25.06.19.51.25,1.07.95.44.38.44.38,1,1,.19.19,1.33,1.26v.13h.13a1.9,1.9,0,0,1,.28.54,1.38,1.38,0,0,1,0,.66l-.32.63a1.88,1.88,0,0,1-.54.28,1.15,1.15,0,0,1-.6,0l-.69-.38L222,16.13l-1.77-1.64v4l-.06.63.13.88v3.38l.06,1.07-.32.63a1.88,1.88,0,0,1-.54.28A1.15,1.15,0,0,1,218.92,25.38Z"/><path class="cls-1" d="M247.9,23.23l-.63-.32a1.83,1.83,0,0,1-.28-.55,1.44,1.44,0,0,1,0-.68l.32-.63a10.42,10.42,0,0,0,.82-1.23q.38-.66.76-1.36a12.25,12.25,0,0,0,.51-1.64,6.05,6.05,0,0,0,.13-1.77,3.84,3.84,0,0,0-.51-1.7,7.2,7.2,0,0,0-1.14-1.45,4.25,4.25,0,0,0-1.83-.82,11.65,11.65,0,0,0-2.15-.19,13.44,13.44,0,0,1-.41,4.26,12.43,12.43,0,0,1-1.74,3.76h-.13l-.19.38-.51.57-.38.38-.38.19v.13a4,4,0,0,1-1.58.79,5.87,5.87,0,0,1-1.83.16,4.58,4.58,0,0,1-.95-.35,4.2,4.2,0,0,1-.82-.54,3.43,3.43,0,0,1-.77-1.74,13.81,13.81,0,0,1-.14-2,8.18,8.18,0,0,1,.84-3.06,13.36,13.36,0,0,1,1.78-2.68,8,8,0,0,1,2.84-2,12.53,12.53,0,0,1,3.28-.82,23.26,23.26,0,0,1,3.22.22,8.05,8.05,0,0,1,2.9,1l.76.63v.13h.13l.63.69a6.13,6.13,0,0,1,1.33,2.49,8.93,8.93,0,0,1,.22,2.94,11,11,0,0,1-1,3.28,24.41,24.41,0,0,1-1.75,3l-.19.19a1.89,1.89,0,0,1-.54.28A1.15,1.15,0,0,1,247.9,23.23Zm-9.41-4.58a5.74,5.74,0,0,0,1-1,9,9,0,0,0,.76-1.14,9.81,9.81,0,0,0,.92-2.53,11,11,0,0,0,.22-2.78h-.25l-.73.25a3.8,3.8,0,0,0-.66.32v.13l-1.39.95a10.48,10.48,0,0,0-1.42,2.43,5.94,5.94,0,0,0-.41,2.81l.19.76a1,1,0,0,0,.38.16,2.69,2.69,0,0,0,.44,0Z"/><path class="cls-1" d="M265,22.7l-.63-.32a31.43,31.43,0,0,1-1-6.6q-.16-3.38-.35-6.72a3.11,3.11,0,0,1,.16-.47,2.54,2.54,0,0,1,.22-.41A8.64,8.64,0,0,1,267.18,7q1.89-.13,4-.35h2.4a28.45,28.45,0,0,1,3.5.33,13.79,13.79,0,0,1,3.28,1,2.41,2.41,0,0,1,.51,1.29q.06.73.06,1.48-.06,3-.28,5.9a34.1,34.1,0,0,1-.92,5.71,1.84,1.84,0,0,1-.55.28,1.21,1.21,0,0,1-.62,0,9.21,9.21,0,0,0-2.75-.35,24.78,24.78,0,0,1-2.81-.09,35.66,35.66,0,0,1-3.79.19A30,30,0,0,0,265,22.7Zm12.69-2.84v-.19a34.16,34.16,0,0,0,.54-4.89q.09-2.49.22-5A19,19,0,0,0,276,9.28a20.85,20.85,0,0,0-2.59-.16h-2.08q-1.58.13-2.9.19a13.61,13.61,0,0,0-2.78.44v1.33q.06,2.27.22,4.48T266.3,20H267l6.88-.25Z"/><path class="cls-1" d="M294.46,21l-.63-.32a1.88,1.88,0,0,1-.28-.54,1.15,1.15,0,0,1,0-.6l.32-.63.88-.44h5.68l1.39-.19H305q.38-1.7.73-3.41a27.07,27.07,0,0,0,.47-3.47l-.25-2.46-.82-.19h-4.74a22.21,22.21,0,0,0-2.94.19,21.21,21.21,0,0,1-2.81.19L294,8.81a1.88,1.88,0,0,1-.28-.54,1.15,1.15,0,0,1,0-.6L294,7a13.37,13.37,0,0,1,3-.57q1.64-.13,3.35-.19h4.92q.63.13,1.26.19a2.23,2.23,0,0,1,1.14.44,5,5,0,0,1,.79,2.37q.09,1.29.16,2.62-.19,1.77-.54,3.54t-.73,3.47l.13.82-.32.63a2,2,0,0,1-1.14.41q-.63,0-1.26,0l-.06-.06-3,.13-1.39.06h-5.3Z"/><path class="cls-1" d="M327.73,23.68q-2.08-.76-4.2-1.56t-4.14-1.75a1.87,1.87,0,0,1-.28-.54,1.15,1.15,0,0,1,0-.6l.32-.63a1.89,1.89,0,0,1,.54-.28,1.15,1.15,0,0,1,.6,0l4.07,1.55q2.05.79,4.07,1.67A1.89,1.89,0,0,1,329,22a1.26,1.26,0,0,1,0,.63l-.32.63a.94.94,0,0,1-.44.25Zm-2.08-8.24q-1.33-.44-2.62-.95t-2.56-1.14a1.89,1.89,0,0,1-.28-.54,1.15,1.15,0,0,1,0-.6l.32-.63a1.89,1.89,0,0,1,.54-.28,1.37,1.37,0,0,1,.66,0l2.62,1q1.29.51,2.56,1.07a1.88,1.88,0,0,1,.28.54,1.15,1.15,0,0,1,0,.6l-.32.63a1.89,1.89,0,0,1-.54.28A1.37,1.37,0,0,1,325.65,15.44Zm1.33-5.3a17,17,0,0,0-2.24-1.45l-2.3-1.26V7.29a6.57,6.57,0,0,0-.95-.44,4.11,4.11,0,0,1-.95-.51,2.39,2.39,0,0,1-.28-.57,1.15,1.15,0,0,1,0-.6l.32-.63a1.87,1.87,0,0,1,.54-.28,1.37,1.37,0,0,1,.66,0,10.16,10.16,0,0,1,1.39.63q.69.38,1.33.76v.13a16.09,16.09,0,0,1,1.48.71,13,13,0,0,1,1.42.9l.57.51a2,2,0,0,1,.41.6,1.23,1.23,0,0,1,.09.73l-.32.63a1.89,1.89,0,0,1-.54.28A1.15,1.15,0,0,1,327,10.13Z"/><path class="cls-1" d="M339.85,10.26a3.1,3.1,0,0,1-.47-.16,2.54,2.54,0,0,1-.41-.22,1.58,1.58,0,0,1-.27-.55,1.35,1.35,0,0,1,0-.62l.6-.66a11.35,11.35,0,0,1,2.43-.43l2.62-.17,2.71,0,.6.19a1.89,1.89,0,0,1,.54.28,1.59,1.59,0,0,1,.27.55,1.36,1.36,0,0,1,0,.62l-.35.63a1.11,1.11,0,0,1-.6.32,1.7,1.7,0,0,1-.73,0l-2.4,0q-1.2,0-2.3.13A19.78,19.78,0,0,1,339.85,10.26ZM341.18,25l-.38-.19a1.88,1.88,0,0,1-.28-.54,1.15,1.15,0,0,1,0-.6,1,1,0,0,0,0-.41l-.09-.47q-.06-1-.19-1.93L340,19l.32-.63a1.88,1.88,0,0,1,.54-.28,1.15,1.15,0,0,1,.6,0l.63.06,4.32-.19.95.44a1.34,1.34,0,0,1,.28.76q0,.44,0,.88a13.39,13.39,0,0,0-.09,2.07,7.57,7.57,0,0,1-.22,2.07l-.47.44-.35.13a10.77,10.77,0,0,1-2.73.41A20.5,20.5,0,0,1,341.18,25Zm.57-8.14a2.27,2.27,0,0,1-.47-.17,3.72,3.72,0,0,1-.41-.24,2,2,0,0,1-.24-.55,1.6,1.6,0,0,1,0-.68l.35-.6a17.78,17.78,0,0,1,2.26-.36,15.91,15.91,0,0,1,2.35,0l.63.35a2,2,0,0,1,.24.55,1.63,1.63,0,0,1,0,.68l-.35.6a6.89,6.89,0,0,1-2.13.38Q342.82,16.79,341.75,16.86Zm-.06-3.31-.63-.32a1.88,1.88,0,0,1-.28-.54,1.15,1.15,0,0,1,0-.6l.32-.63A3.38,3.38,0,0,1,343,11q1.09,0,2.1,0l.63.32a1.88,1.88,0,0,1,.28.54,1.15,1.15,0,0,1,0,.6l-.32.63a4.28,4.28,0,0,1-1.94.44Q342.69,13.48,341.68,13.54Zm2.05-6.82-.66-.32A14.78,14.78,0,0,1,342.41,5,7.24,7.24,0,0,1,342,3.41l.32-.63a1.88,1.88,0,0,1,.54-.28,1.15,1.15,0,0,1,.6,0l.66.32a6.23,6.23,0,0,1,.73,1.39,5.74,5.74,0,0,1,.35,1.58l-.32.66a1.89,1.89,0,0,1-.54.28A1.15,1.15,0,0,1,343.74,6.72Zm1.33,15.75v-.85l.06-1.26h-.38l-2.11.13v.13l.19,2.05h.44ZM356.17,26a3.13,3.13,0,0,1-.47-.16,2.54,2.54,0,0,1-.41-.22,1.89,1.89,0,0,1-.28-.54,1.37,1.37,0,0,1,0-.66q0-1.26,0-2.57t.09-2.64L355,16l.06-.69H353.9q-1.26.19-2.56.28t-2.62.16l-.63-.32a1.88,1.88,0,0,1-.28-.54,1.15,1.15,0,0,1,0-.6l.32-.63a4.92,4.92,0,0,1,1.74-.44l1.86-.13V13q-.32-1-.57-2a16.42,16.42,0,0,1-.38-2.08l.32-.63A1.89,1.89,0,0,1,351.6,8a1.15,1.15,0,0,1,.6,0l.63.32a9.34,9.34,0,0,1,.73,2.24q.22,1.17.47,2.37h.88l.25-.06v-.13l-.25-3.85a3.11,3.11,0,0,1,.16-.47,2.56,2.56,0,0,1,.22-.41,1.89,1.89,0,0,1,.54-.28,1.15,1.15,0,0,1,.6,0l.63.32a5.79,5.79,0,0,1,.41,2.37,13.79,13.79,0,0,0,.16,2.49h1.2V12.6a.64.64,0,0,1-.19-.47v-.54l.51-2a9.54,9.54,0,0,1,.73-2,1.89,1.89,0,0,1,.54-.28,1.15,1.15,0,0,1,.6,0l.63.32a1.88,1.88,0,0,1,.28.54,1.38,1.38,0,0,1,0,.66q-.32,1-.54,2t-.54,2q1,.06,2.05.06a4.84,4.84,0,0,1,1.93.38,1.88,1.88,0,0,1,.28.54,1.15,1.15,0,0,1,0,.6l-.32.63a1.5,1.5,0,0,1-.73.32,5.56,5.56,0,0,1-.85.06l-3.47-.19-2.3.06-.06,2.46.13,2.59A19.43,19.43,0,0,0,357.5,23a6.61,6.61,0,0,1-.38,2.6.94.94,0,0,1-.44.25ZM351.63,6.6a3.1,3.1,0,0,1-.47-.16,1.64,1.64,0,0,1-.41-.25,1.88,1.88,0,0,1-.28-.54,1.15,1.15,0,0,1,0-.6l.32-.63A5.18,5.18,0,0,1,352.64,4a19.22,19.22,0,0,0,2-.16h3l.06.06h3.19l.63.32a1.88,1.88,0,0,1,.28.54,1.15,1.15,0,0,1,0,.6l-.32.63a1.06,1.06,0,0,1-.44.27l-.51.14H357.5l-.06-.06h-2.71Z"/><path class="cls-1" d="M374.89,25.92l-.63-.35a1.44,1.44,0,0,1-.25-.49q-.06-.24-.13-.55l.16-1.45.09-4.2L374,16l.06-3.19-.06-1h-.13l-.51.88a4.17,4.17,0,0,0-.88,1.09,12.69,12.69,0,0,1-.76,1.18,1.6,1.6,0,0,1-.54.27,1.53,1.53,0,0,1-.66,0l-.63-.32a2.38,2.38,0,0,1-.25-.55,1.33,1.33,0,0,1,0-.65q1.89-2.71,3.68-5.6A24.75,24.75,0,0,0,376,1.93a2,2,0,0,1,.58-.27,1.23,1.23,0,0,1,.58,0l.63.32a1.43,1.43,0,0,1,.28.73,4.62,4.62,0,0,1,0,.76q-.47,1.48-1.09,3t-1.37,2.89l.35.19a2,2,0,0,1,.52,1.58,7.85,7.85,0,0,0,0,1.8L376.5,16l.13,2.71-.09,4.58q-.06.63-.08,1.23a1.62,1.62,0,0,1-.39,1,1.84,1.84,0,0,1-.55.28A1.22,1.22,0,0,1,374.89,25.92Zm5.46-.95-.63-.32q-.38-3-.51-5.93a55.53,55.53,0,0,0-.57-5.9l.32-.63a1.61,1.61,0,0,1,.54-.27,1.28,1.28,0,0,1,.6,0l.95.38q.57-.16,1.17-.27l1.23-.24,0-.88q-.06-1-.09-2A8.54,8.54,0,0,0,383.1,7h-.19l-2.53.32a3.09,3.09,0,0,1-.47-.16,1.64,1.64,0,0,1-.41-.25,1.59,1.59,0,0,1-.27-.54,1.27,1.27,0,0,1,0-.6l.32-.66a40.42,40.42,0,0,1,7.18-.69q3.68,0,7.37-.09a3.33,3.33,0,0,0,.66.13,1,1,0,0,1,.6.28,1.61,1.61,0,0,1,.27.54,1.41,1.41,0,0,1,0,.63l-.32.63a1.54,1.54,0,0,1-.69.3,5.39,5.39,0,0,1-.73,0l-1.52-.09-1,.06A12.67,12.67,0,0,1,391.21,9a12.7,12.7,0,0,0-.19,2.21l2.68,0q.95.09,1.89.11a3,3,0,0,1,1.67.52,1.29,1.29,0,0,1,.32.63,1.71,1.71,0,0,1,0,.73Q397,16.1,396.67,19a41.2,41.2,0,0,1-1.1,5.78,1.89,1.89,0,0,1-.54.28,1.15,1.15,0,0,1-.6,0,3.31,3.31,0,0,0-1.91-.65l-2.19-.08q-2.27.09-4.58.24t-4.58.36l-.25-.09Zm3.38-2.65,0-1.17.09-2.08a20.41,20.41,0,0,0-.08-2.4q-.11-1.2-.14-2.4h-.28l-2,.47,0,.32q.28,1.83.41,3.66t.16,3.76h.44Zm4.83-11v-1.2q.09-.82.24-1.64a10,10,0,0,0,.14-1.7h-.38l-2.9.06V7a9.63,9.63,0,0,1,.25,2.21q0,1.14,0,2.27l.25,0Zm0,10.67v-.22l-.16-3.72,0-2.78-.09-1.42-1.33,0L386,14v.19q.16,1.74.22,3.5t0,3.6l-.09.85h1Zm5.21.09V22q.22-2.08.52-4.09t.65-4.06l-1.45-.09-2.68-.06V14l.09,1.39,0,2.65.09,3.95,1.44,0A6.23,6.23,0,0,1,393.8,22.13Z"/><path class="cls-1" d="M409.08,23.61l-.63-.32a1.88,1.88,0,0,1-.28-.54,1.26,1.26,0,0,1,0-.63,15,15,0,0,0,2.15-3.88,10.35,10.35,0,0,0,.57-4.45,5,5,0,0,0-.19-.76,1.22,1.22,0,0,0-.5-.63,1.19,1.19,0,0,0-.54-.13H409l-1.39.13q-.38,1.58-.66,3.19a16,16,0,0,1-.85,3.06,1.89,1.89,0,0,1-.54.28,1.37,1.37,0,0,1-.66,0l-.63-.32a2.24,2.24,0,0,1-.3-.54.9.9,0,0,1,0-.6,13.23,13.23,0,0,0,.57-2.18q.19-1.1.44-2.24h-.19q-.44.19-.93.35a2.5,2.5,0,0,1-1.06.09l-.63-.32a1.88,1.88,0,0,1-.28-.54,1.15,1.15,0,0,1,0-.6l.32-.63a12.08,12.08,0,0,1,1.69-.63q.87-.25,1.75-.44a7.69,7.69,0,0,0,.25-2,3.86,3.86,0,0,1,.44-1.86,2.25,2.25,0,0,1,.54-.3,1.06,1.06,0,0,1,.6,0l.63.35a1.8,1.8,0,0,1,.28.57,1.53,1.53,0,0,1,0,.69q-.06.57-.09,1.1a5.68,5.68,0,0,1-.16,1h.19L410,9.82a5.85,5.85,0,0,1,1,.22,2.14,2.14,0,0,1,.88.54l.51.51a4.59,4.59,0,0,1,.85,2.15,13.68,13.68,0,0,1,.09,2.46,12.52,12.52,0,0,1-.88,4,13.48,13.48,0,0,1-2.15,3.54,2.76,2.76,0,0,1-.54.32A1.14,1.14,0,0,1,409.08,23.61Zm14.43-7.42A3.08,3.08,0,0,1,423,16a2.5,2.5,0,0,1-.41-.22,23.23,23.23,0,0,0-1.39-2.3,20.24,20.24,0,0,0-1.74-2.18l-2.21-1.89A1.89,1.89,0,0,1,417,8.9a1.15,1.15,0,0,1,0-.6l.32-.63a1.88,1.88,0,0,1,.54-.28,1.15,1.15,0,0,1,.6,0A7.52,7.52,0,0,1,420,8.49q.74.69,1.5,1.33l.88,1,.19.38h.13l1.26,1.89a5.28,5.28,0,0,1,.82,2.08l-.32.63a.94.94,0,0,1-.44.25Z"/><path class="cls-1" d="M442.07,24.88a3.08,3.08,0,0,1-.47-.16,2.51,2.51,0,0,1-.41-.22,1.88,1.88,0,0,1-.28-.54,1.15,1.15,0,0,1,0-.6l.38-.76.38-.41a8.76,8.76,0,0,0,1-1.26q.47-.69.85-1.39l.06-1.2a3.36,3.36,0,0,0-.19-.54,1.56,1.56,0,0,0-.32-.47,1.38,1.38,0,0,0-.79-.28q-.47,0-.92,0a9.28,9.28,0,0,0-2.05.88,5.41,5.41,0,0,1-2.18.69,2.71,2.71,0,0,1-1.45-.76,3.1,3.1,0,0,1-.69-1.29q-.19-.73-.32-1.48V11.77q.13-.69.22-1.39a2,2,0,0,1,.6-1.2A1.89,1.89,0,0,1,436,8.9a1.15,1.15,0,0,1,.6,0l.63.32a1.89,1.89,0,0,1,.28.54,1.15,1.15,0,0,1,0,.6,2.66,2.66,0,0,0-.25.82,4.76,4.76,0,0,1-.19.82v3l.32,1h.32a10.11,10.11,0,0,1,2.3-1.1,6.61,6.61,0,0,1,2.68-.28,5.31,5.31,0,0,1,1.1.38,4.34,4.34,0,0,1,1,.63l.38.44a3.83,3.83,0,0,1,.73,1.64,8,8,0,0,1,.09,1.89,4.49,4.49,0,0,1-.6,1.74q-.47.79-1,1.58l-.38.44h-.13l-.38.63-.38.44H443v.13a.94.94,0,0,1-.44.25Zm-2.9-17a17.43,17.43,0,0,0-1.67-.79,17.14,17.14,0,0,1-1.67-.79,2.4,2.4,0,0,1-.28-.57,1.15,1.15,0,0,1,0-.6l.32-.63a1.87,1.87,0,0,1,.54-.28,1.37,1.37,0,0,1,.66,0q.76.32,1.55.6a5,5,0,0,1,1.48.85,2.62,2.62,0,0,1,.32.55,1.21,1.21,0,0,1,.06.68l-.32.63a.94.94,0,0,1-.44.25Z"/><path class="cls-1" d="M3.66,62.27a4,4,0,0,1-1.1-.43,4.43,4.43,0,0,1-1-.74,3,3,0,0,1-.63-1.17,7.33,7.33,0,0,1-.25-1.36q.19-.95.44-1.8A4.5,4.5,0,0,1,2,55.17a5.84,5.84,0,0,1,1.23-.95q.66-.38,1.29-.82l.76-.25v-.82L5.11,50H4.73a9.64,9.64,0,0,0-1.58.13l-1.52.25L1,50.21a2.15,2.15,0,0,1-.63-.28,1.89,1.89,0,0,1-.28-.54,1.15,1.15,0,0,1,0-.6l.32-.63a9.36,9.36,0,0,1,2.05-.41q1.07-.09,2.15-.16V47.4a3.73,3.73,0,0,0-.32-1.18A3,3,0,0,1,4,45l.32-.63a1.89,1.89,0,0,1,.54-.28,1.15,1.15,0,0,1,.6,0l.63.32a4.15,4.15,0,0,1,.63,1.4q.19.77.32,1.59h.51a7.34,7.34,0,0,1,1.23-.16q.66,0,1.29,0l.63.32a1.89,1.89,0,0,1,.28.54,1.15,1.15,0,0,1,0,.6l-.32.63a2.31,2.31,0,0,1-1.45.41,5.61,5.61,0,0,0-1.58.16l-.06.88.19,1.83h.32q.76-.13,1.52-.19t1.58-.06a9.25,9.25,0,0,1,1.83.57,9.72,9.72,0,0,1,1.7.95l.76.76a4.3,4.3,0,0,1,1,1.86,7.41,7.41,0,0,1,.21,2.24,7.25,7.25,0,0,1-.14,1.45A4.2,4.2,0,0,1,16,61.42a2.76,2.76,0,0,1-.54.32,1.14,1.14,0,0,1-.66.06l-.63-.32a1.87,1.87,0,0,1-.28-.54,1.37,1.37,0,0,1,0-.66A3,3,0,0,0,14.14,59a12.89,12.89,0,0,1,.06-1.29,3.15,3.15,0,0,0-.35-1.17,3.08,3.08,0,0,0-.85-1,6.59,6.59,0,0,0-1.45-.69,4.2,4.2,0,0,0-1.64-.19l-2,.25a12.39,12.39,0,0,1-.32,3.35,7.72,7.72,0,0,1-1.39,2.9l-.32.32a3.56,3.56,0,0,1-1,.55A3.77,3.77,0,0,1,3.66,62.27Zm.63-2.68a5,5,0,0,0,.88-1.74,7.46,7.46,0,0,0,.25-2H5.3l-.95.51v.13l-.44.38H3.78a6.26,6.26,0,0,0-.41,1A3.89,3.89,0,0,0,3.21,59l.19.51.69.19ZM16.69,51,16,50.68a3.23,3.23,0,0,0-.92-.63,6.23,6.23,0,0,1-1-.57,1.89,1.89,0,0,1-.28-.54,1.15,1.15,0,0,1,0-.6l.32-.63a1.89,1.89,0,0,1,.54-.28,1.38,1.38,0,0,1,.66,0l2.3,1.2a3.16,3.16,0,0,1,.41.66,1.4,1.4,0,0,1,.09.79l-.32.63a1.88,1.88,0,0,1-.54.28A1.15,1.15,0,0,1,16.69,51Z"/><path class="cls-1" d="M30.49,64.48l-.63-.35a2.41,2.41,0,0,1-.41-1.25q0-.68-.06-1.4l0-2.81-.09-.06,0-3.91h-.13a19.28,19.28,0,0,1-1.75,1.83q-.93.85-1.81,1.7a1.49,1.49,0,0,1-.6.32,1.41,1.41,0,0,1-.73,0l-.63-.28a2,2,0,0,1-.28-.52,1.08,1.08,0,0,1,0-.58l.35-.6a44.88,44.88,0,0,0,4.18-3.95,45.49,45.49,0,0,0,3.61-4.39H31.4q-1.33.44-2.67.82a20,20,0,0,1-2.73.57l-.82-.35a2,2,0,0,1-.28-.52.92.92,0,0,1,0-.58l.32-.6q2.34-.63,4.59-1.31a21,21,0,0,1,4.72-.84l.63.32a2,2,0,0,1,.28.52,1,1,0,0,1,0,.55,9.82,9.82,0,0,1-1.31,2.1q-.8,1-1.5,2l1.83.8q.92.4,1.8.87a2,2,0,0,1,.28.52,1.09,1.09,0,0,1,0,.58l-.35.6a2,2,0,0,1-.54.24,1.53,1.53,0,0,1-.66,0,7.59,7.59,0,0,1-1.59-.63,8.56,8.56,0,0,0-1.66-.66v.47l.06.06-.06,4.77.06.06,0,2.81.09,2.21-.32.57a1.89,1.89,0,0,1-.54.28A1.15,1.15,0,0,1,30.49,64.48Zm.85-20.08-.88-.57-2.4-2.49L28,40.58l.35-.63a1.89,1.89,0,0,1,.54-.28,1.15,1.15,0,0,1,.6,0l.66.35,1.93,1.83q.25.38.54.76a1.08,1.08,0,0,1,.19.88l-.32.63a1.89,1.89,0,0,1-.54.28A1.15,1.15,0,0,1,31.34,44.4Zm18.18,21a9.23,9.23,0,0,1-4.29-2.15l-.38-.44a6.07,6.07,0,0,1-1.53-3.11Q43,58,42.8,56.46l.13-1.2,0-2.71h-.44a23.11,23.11,0,0,1-2.24,6.12,41.54,41.54,0,0,1-3.54,5.56h-.13v.13a1.89,1.89,0,0,1-.54.28,1.18,1.18,0,0,1-.66,0l-.63-.32a1.94,1.94,0,0,1-.28-.52,1.08,1.08,0,0,1,0-.58l.32-.63a25.49,25.49,0,0,0,2.15-3q1-1.63,1.77-3.24a15.61,15.61,0,0,1,.74-1.74,7.14,7.14,0,0,0,.62-1.8h-.13l-.69.06a3.08,3.08,0,0,1-.47-.16,1.31,1.31,0,0,1-.41-.28l-.19-.19a33.52,33.52,0,0,1-.65-4.48,16.74,16.74,0,0,0-.93-4.39l.32-.63a3.06,3.06,0,0,1,.6-.28,1.15,1.15,0,0,1,.6,0l.44.06a28.54,28.54,0,0,1,4.14-.63q2.05-.16,4.36-.13a3.79,3.79,0,0,1,1,.13,2.83,2.83,0,0,1,.92.44,1.19,1.19,0,0,1,.36.69,3.1,3.1,0,0,1,0,.82q-.47,2.12-.74,4.17A26.28,26.28,0,0,1,47.66,52a2.14,2.14,0,0,1-1,.38,7.58,7.58,0,0,1-1.2,0l0,2.87.22,3a4.22,4.22,0,0,0,.19,1.25,4.71,4.71,0,0,0,.51,1.12h.13l.38.44.38.44a2.28,2.28,0,0,0,.58.57l.65.41,1.14.36a7,7,0,0,1,1.07.43,1.5,1.5,0,0,1,.28.51,1.15,1.15,0,0,1,0,.6l-.35.63a1.23,1.23,0,0,1-.51.24ZM45.8,50v-.44q.28-1.33.47-2.65t.35-2.75h-1.8q-1.33.06-2.65.21a17.09,17.09,0,0,0-2.53.46l-.06.19q.16,1.33.39,2.59a11.53,11.53,0,0,1,.17,2.65h.63L43.24,50Q44.5,50,45.8,50Z"/><path class="cls-1" d="M62.4,60.53a4.37,4.37,0,0,1-1.17-.69l-1-.88a20.08,20.08,0,0,1-2.42-4.55,31.66,31.66,0,0,1-1.4-4.92,3.12,3.12,0,0,1,.16-.47,2.52,2.52,0,0,1,.22-.41,1.87,1.87,0,0,1,.54-.28,1.15,1.15,0,0,1,.6,0l.66.32q.63,2.21,1.39,4.39a25,25,0,0,0,2,4.26l1.58,1.14a2.77,2.77,0,0,1,.32.54,1.15,1.15,0,0,1,.06.66l-.32.63a1.88,1.88,0,0,1-.54.28A1.15,1.15,0,0,1,62.4,60.53Zm12.66-5.11a3.75,3.75,0,0,1-.49-.16,2.29,2.29,0,0,1-.43-.22,15,15,0,0,0-.95-3,10.91,10.91,0,0,0-1.7-2.71l-.57-.38a1.89,1.89,0,0,1-.28-.54,1.15,1.15,0,0,1,0-.6l.32-.63a1.88,1.88,0,0,1,.54-.28,1.37,1.37,0,0,1,.66,0l.88.44.32.32.38.44a21,21,0,0,1,1.8,3,8.24,8.24,0,0,1,.82,3.38L76,55a.94.94,0,0,1-.44.25Z"/><path class="cls-1" d="M106,54.16a6.18,6.18,0,0,1-1.29-.95,7.9,7.9,0,0,0-1.33-1l-.19-.19-.19-.19-1.77-1.89-1.39-1.64-.88-.95-1.58-1.83a10.3,10.3,0,0,0-1.14-1.31q-.63-.62-1.26-1.18h-.19l-1,1.52-3,3.38h-.13l-.44.63L90,48.6l-.32.44-.76.76h-.13l-1.14,1.39-.19.06-.28.38-.19.06-.82.95-.32.32-.44.51-.32.13v.13a1.89,1.89,0,0,1-.54.28,1.15,1.15,0,0,1-.6,0l-.63-.32a1.89,1.89,0,0,1-.28-.54,1.37,1.37,0,0,1,0-.66l.32-.63.19-.19.38-.38L85.26,50l.44-.44L87,48.09l1.23-1.2.63-.69a20.22,20.22,0,0,0,2.3-2.45,31.48,31.48,0,0,0,1.93-2.7l.44-.82.32-.13V40a1.89,1.89,0,0,1,.54-.28,1.15,1.15,0,0,1,.6,0l.63.32.32.32.63.69.38.44.51.44V42h.13l.88.88.38.44.44.51.69.82.44.54.44.51.57.63.95,1,.57.88h.13v.13h.13l1,1.07.44.44.25.25.51.44v.13l.38.19.44.38v.13l.38.19.76.82.06.82-.32.63a1.88,1.88,0,0,1-.54.28A1.15,1.15,0,0,1,106,54.16ZM87.22,64.92a3.1,3.1,0,0,1-.47-.16,2.54,2.54,0,0,1-.41-.22A1.89,1.89,0,0,1,86,64a1.15,1.15,0,0,1,0-.6l.32-.63a5.37,5.37,0,0,1,1.88-.38q.87,0,2-.06V62.2a4.81,4.81,0,0,0-.85-1.72,3.57,3.57,0,0,1-.73-1.78l.32-.63a1.89,1.89,0,0,1,.54-.28,1.15,1.15,0,0,1,.6,0l.63.32q.63.88,1.17,1.8a4.44,4.44,0,0,1,.6,2l-.06.38H93.5v-.19l-.06-.57.06-.06V56.18h-.25l-.06.06H90.53l-2.34.25-.63-.32a2.24,2.24,0,0,1-.3-.54.9.9,0,0,1,0-.6l.32-.63A3.55,3.55,0,0,1,89,53.93l1.55-.16h2.59l.38-.06V51.12h-.19l-2.46.25-.63-.32a1.89,1.89,0,0,1-.28-.54,1.15,1.15,0,0,1,0-.6l.32-.63a5.84,5.84,0,0,1,2.37-.54,18.91,18.91,0,0,0,2.49-.22H97.6l.57-.06.63.32a1.9,1.9,0,0,1,.28.54,1.38,1.38,0,0,1,0,.66l-.32.63a2.34,2.34,0,0,1-1.33.38H96v2.71h.76l4-.19.69.38a1.88,1.88,0,0,1,.28.54,1.15,1.15,0,0,1,0,.6l-.32.63a7.05,7.05,0,0,1-2.62.41,25,25,0,0,0-2.81.09V61.7l-.06.5h.32l1.14-.06V62a1,1,0,0,1-.16-.41,3.35,3.35,0,0,1,0-.47q.57-1,1.07-2.08a10.52,10.52,0,0,1,1.26-2,1.88,1.88,0,0,1,.54-.28,1.15,1.15,0,0,1,.6,0l.63.32a1.88,1.88,0,0,1,.28.54,1.15,1.15,0,0,1,0,.6,17.35,17.35,0,0,0-1.14,2q-.51,1-1.07,2a15.93,15.93,0,0,1,2.24,0,5.54,5.54,0,0,1,2.08.6,2.79,2.79,0,0,1,.32.54,1.15,1.15,0,0,1,.06.66l-.32.63a1.83,1.83,0,0,1-.55.28,1.45,1.45,0,0,1-.68,0l-1.07-.06-5.11-.25-2.27.13H90.85Z"/><path class="cls-1" d="M128.85,62l-.63-.32a1.83,1.83,0,0,1-.28-.55,1.44,1.44,0,0,1,0-.68l.32-.63a10.42,10.42,0,0,0,.82-1.23q.38-.66.76-1.36a12.25,12.25,0,0,0,.51-1.64,6.05,6.05,0,0,0,.13-1.77,3.84,3.84,0,0,0-.51-1.7,7.2,7.2,0,0,0-1.14-1.45A4.25,4.25,0,0,0,127,49.8a11.65,11.65,0,0,0-2.15-.19,13.44,13.44,0,0,1-.41,4.26,12.43,12.43,0,0,1-1.74,3.76h-.13l-.19.38-.51.57-.38.38-.38.19v.13a4,4,0,0,1-1.58.79,5.87,5.87,0,0,1-1.83.16,4.58,4.58,0,0,1-.95-.35,4.2,4.2,0,0,1-.82-.54,3.43,3.43,0,0,1-.77-1.74,13.81,13.81,0,0,1-.14-2,8.18,8.18,0,0,1,.84-3.06,13.36,13.36,0,0,1,1.78-2.68,8,8,0,0,1,2.84-2,12.53,12.53,0,0,1,3.28-.82,23.26,23.26,0,0,1,3.22.22,8.05,8.05,0,0,1,2.9,1l.76.63V49h.13l.63.69a6.13,6.13,0,0,1,1.33,2.49,8.93,8.93,0,0,1,.22,2.94,11,11,0,0,1-1,3.28,24.41,24.41,0,0,1-1.75,3l-.19.19a1.89,1.89,0,0,1-.54.28A1.15,1.15,0,0,1,128.85,62Zm-9.41-4.58a5.74,5.74,0,0,0,1-1,9,9,0,0,0,.76-1.14,9.81,9.81,0,0,0,.92-2.53,11,11,0,0,0,.22-2.78h-.25l-.73.25a3.8,3.8,0,0,0-.66.32v.13l-1.39.95A10.48,10.48,0,0,0,117.9,54a5.94,5.94,0,0,0-.41,2.81l.19.76a1,1,0,0,0,.38.16,2.69,2.69,0,0,0,.44,0Z"/><path class="cls-1" d="M151.61,49.93q-1-.13-2.08-.22a5,5,0,0,1-2-.57,3.1,3.1,0,0,1-.69-1.31,6.17,6.17,0,0,1-.19-1.53V43.93h-.57l-1.26.06-.63-.32a1.33,1.33,0,0,1-.32-.47,1,1,0,0,1,0-.57l.35-.57a1.89,1.89,0,0,1,1.17-.38q.66,0,1.29,0,.06-.38.13-.71a1.48,1.48,0,0,1,.32-.65,2.51,2.51,0,0,1,.54-.25,1.15,1.15,0,0,1,.6,0l.63.28a2,2,0,0,1,.28.52,1.09,1.09,0,0,1,0,.58h.13l2.08-.06v-.51l-.06-.69.32-.6a1.89,1.89,0,0,1,.54-.28,1.15,1.15,0,0,1,.6,0l.63.32a1.84,1.84,0,0,1,.38.88,7,7,0,0,1,.06.92h2.78q0-.44,0-.92a1.31,1.31,0,0,1,.35-.82,1.87,1.87,0,0,1,.54-.28,1.15,1.15,0,0,1,.6,0l.63.32a1.18,1.18,0,0,1,.32.82,5.2,5.2,0,0,0,.06.85q.69.06,1.37.06a2.35,2.35,0,0,1,1.25.35,2,2,0,0,1,.28.52,1,1,0,0,1,0,.55l-.32.57a1.57,1.57,0,0,1-.57.27,2.86,2.86,0,0,1-.69.08l-1.29-.06V45a2.35,2.35,0,0,1-.38,1.28,1.84,1.84,0,0,1-.41.21,1.4,1.4,0,0,1-.47.08v.13a7.55,7.55,0,0,1-2.49.36q-1.36,0-2.68-.11a3.08,3.08,0,0,1-.47-.16,2.5,2.5,0,0,1-.41-.22,1.75,1.75,0,0,1-.41-.68,5.82,5.82,0,0,1-.16-.77l.06-1-.06-.51h-2l-.25.06v2.4a3.83,3.83,0,0,1,.06.68,1.73,1.73,0,0,0,.13.65l3.41.16,2,0,.06,0h3.66l.63.32a1.53,1.53,0,0,1,.28.49,1.09,1.09,0,0,1,0,.58l-.32.57a2.12,2.12,0,0,1-.66.32,2.75,2.75,0,0,1-.73.09l-1.14-.06-.38.06-3.22-.13Zm-4.1,16.7-.63-.32a1.54,1.54,0,0,1-.28-.49,1.08,1.08,0,0,1,0-.58l.47-.66a7.36,7.36,0,0,0,.71-.54,3.23,3.23,0,0,0,.58-.66l.38-.28a1.22,1.22,0,0,1,.54-.24,3.65,3.65,0,0,1,.6,0l.63.32a.86.86,0,0,1,.27.44,1,1,0,0,1,0,.54l-.57.85-.25.25-.66.69q-.38.28-.79.55A1.33,1.33,0,0,1,147.51,66.62Zm.88-4.1-.6-.28a1.88,1.88,0,0,1-.28-.54,1,1,0,0,1,0-.57l.28-.73a2.24,2.24,0,0,1-.17-1,6.13,6.13,0,0,0,0-1l.06-.06.06-2.78-.13-.76.09-1V51.66l.16-.44a1.23,1.23,0,0,1,.28-.44,14.33,14.33,0,0,1,2.67-.39q1.4-.08,2.89,0l1.93.09h2.21l.63.28.32.28a3.24,3.24,0,0,1,.47,1.59q0,.87,0,1.78L159,57.15l0,1.58-.06.51,0,.63-.25.6a.65.65,0,0,1,.21.43c0,.16,0,.33,0,.52l-.32.57a1.57,1.57,0,0,1-.57.27,2.11,2.11,0,0,1-.69,0l-.82-.09-4.12.08Q150.45,62.33,148.39,62.52Zm8.37-9.09,0-.38-.06-.38-1,0-2.34,0-1.1-.09-2.21.16,0,.85.95,0q1.39-.13,2.84-.21A24.93,24.93,0,0,1,156.76,53.43Zm-.13,6.44v-.16l-.09-.92H156l-5.9.19,0,.54.06.63h.13q1.58-.16,3.2-.21Zm-.06-3.44,0-.73-2.15,0-4.32.22,0,.82h.76Zm.22-11.68V43.61h-3v.25l.06.95h1.45Zm1.48,21.91-.76-.44-1-1.2q-.25-.32-.51-.66a1,1,0,0,1-.16-.82l.32-.54a1.39,1.39,0,0,1,.54-.25,1.18,1.18,0,0,1,.6,0L158,63l.57.54.66.88a3.3,3.3,0,0,1,.43.6,1.12,1.12,0,0,1,.11.73l-.32.6a1.61,1.61,0,0,1-.54.27A1.28,1.28,0,0,1,158.28,66.66Z"/><path class="cls-1" d="M177.63,60.53a4.37,4.37,0,0,1-1.17-.69l-1-.88A20.08,20.08,0,0,1,173,54.41a31.66,31.66,0,0,1-1.4-4.92,3.12,3.12,0,0,1,.16-.47,2.52,2.52,0,0,1,.22-.41,1.87,1.87,0,0,1,.54-.28,1.15,1.15,0,0,1,.6,0l.66.32q.63,2.21,1.39,4.39a25,25,0,0,0,2,4.26l1.58,1.14a2.77,2.77,0,0,1,.32.54,1.15,1.15,0,0,1,.06.66l-.32.63a1.88,1.88,0,0,1-.54.28A1.15,1.15,0,0,1,177.63,60.53Zm12.66-5.11a3.75,3.75,0,0,1-.49-.16,2.29,2.29,0,0,1-.43-.22,15,15,0,0,0-.95-3,10.91,10.91,0,0,0-1.7-2.71l-.57-.38a1.89,1.89,0,0,1-.28-.54,1.15,1.15,0,0,1,0-.6l.32-.63a1.88,1.88,0,0,1,.54-.28,1.37,1.37,0,0,1,.66,0l.88.44.32.32.38.44a21,21,0,0,1,1.8,3,8.24,8.24,0,0,1,.82,3.38l-.32.63a.94.94,0,0,1-.44.25Z"/><path class="cls-1" d="M209.92,64.35l-.6-.35a2.38,2.38,0,0,1-.25-.55,1.13,1.13,0,0,1,0-.65l.32-.63q.63-.28,1.29-.65a5.93,5.93,0,0,0,1.33-1,29.06,29.06,0,0,0,1.34-2.64,10,10,0,0,0,.84-3.27,3.59,3.59,0,0,0-.16-1.07,8.8,8.8,0,0,1-.25-1q-.57-.28-1.17-.52a4.74,4.74,0,0,1-1.07-.58l-.19-.13A27.11,27.11,0,0,1,209,55.05q-1.31,1.78-2.64,3.49l-1,1.1-.63.6-.6.54H204l-.13.19a1.78,1.78,0,0,1-.58.28,1.35,1.35,0,0,1-.71,0l-.6-.32a1.83,1.83,0,0,1-.28-.55,1,1,0,0,1,0-.62l.35-.63.85-.66a15.5,15.5,0,0,0,2-2.07,25.81,25.81,0,0,0,1.63-2.26,8.4,8.4,0,0,0,1.07-1.4l.95-1.53a15.07,15.07,0,0,0,1-2A5.74,5.74,0,0,0,210,47l-.69,0q-1.83.16-3.69.21l-3.72.11a2.27,2.27,0,0,1-.47-.17,3.74,3.74,0,0,1-.41-.24,2.38,2.38,0,0,1-.25-.55,1.21,1.21,0,0,1,0-.62l.38-.6a22.37,22.37,0,0,1,4-.41q2.05,0,4.1-.16l.06-.32a6.55,6.55,0,0,0-.41-1.72,5.23,5.23,0,0,1-.35-1.75l.35-.63a2.62,2.62,0,0,1,.57-.24,1.29,1.29,0,0,1,.6,0l.66.35a9.5,9.5,0,0,1,.76,2.1q.25,1.09.41,2.26l2.4.06,2.15,0,.25.06,2.56,0q.32.09.58.21a1.91,1.91,0,0,1,.52.33,1.69,1.69,0,0,1,.25.57,1.44,1.44,0,0,1,0,.6l-.32.6a1.18,1.18,0,0,1-.63.3,1.91,1.91,0,0,1-.73,0l-1.23-.09-1.52.06-1.83-.16-2,0v.19a1.58,1.58,0,0,1,.16.51,1.79,1.79,0,0,1,0,.57l-.22,1a5.27,5.27,0,0,1,1.67.39,8.68,8.68,0,0,1,1.45.77l.22.28a6.17,6.17,0,0,1,.9,2.19,8.82,8.82,0,0,1,.14,2.42,14.4,14.4,0,0,1-1,3.68,14.12,14.12,0,0,1-2,3.27l-.92.85-.19.19q-.57.32-1.2.63A2.79,2.79,0,0,1,209.92,64.35Z"/><path class="cls-1" d="M237.19,63.28a4.32,4.32,0,0,1-1.64-.44,5.33,5.33,0,0,1-1.39-1,2.82,2.82,0,0,1-.66-1.31,7.17,7.17,0,0,1-.16-1.5,2.61,2.61,0,0,1,.76-1.52,6.57,6.57,0,0,1,2.08-1.23,7.21,7.21,0,0,1,2.46-.41v-.44L238.27,53l-.88-.06H234.8l-.66-.16a1.32,1.32,0,0,1-.6-.35,1.88,1.88,0,0,1-.28-.54,1.15,1.15,0,0,1,0-.6l.32-.63a1.89,1.89,0,0,1,.54-.28,1.37,1.37,0,0,1,.66,0l.32.13h2.53l.38.06V50.3l-.51-2.65h-.82l-1.52.19a3.08,3.08,0,0,1-.47-.16,2.54,2.54,0,0,1-.41-.22,1.89,1.89,0,0,1-.28-.54,1.15,1.15,0,0,1,0-.6l.32-.63a4.42,4.42,0,0,1,1.48-.38l1.61-.13v-.54l-.13-1.45a3.12,3.12,0,0,1,.16-.47,2.57,2.57,0,0,1,.22-.41,1.88,1.88,0,0,1,.54-.28,1.15,1.15,0,0,1,.6,0l.63.32a3.52,3.52,0,0,1,.35,1.45q0,.82.09,1.61a10.75,10.75,0,0,1,1.14.19A3.41,3.41,0,0,1,242,46a1.89,1.89,0,0,1,.28.54,1.15,1.15,0,0,1,0,.6l-.32.63a1.11,1.11,0,0,1-.6.32,2.1,2.1,0,0,1-.73,0L240,48v.19l.38,2.08H241q.44-.13.95-.22a3.26,3.26,0,0,1,1,0l.63.32a1.89,1.89,0,0,1,.28.54,1.15,1.15,0,0,1,0,.6l-.32.63a4.89,4.89,0,0,1-1.36.44q-.73.13-1.48.19v.51a12.35,12.35,0,0,1,.28,1.58,12.31,12.31,0,0,0,.28,1.58q.76.38,1.45.76a12.82,12.82,0,0,1,1.39.88,2.5,2.5,0,0,1,.32.57,1.28,1.28,0,0,1,.06.69l-.32.63a1.88,1.88,0,0,1-.54.28,1.15,1.15,0,0,1-.6,0l-2-1.14a11.11,11.11,0,0,1-.35,1.47,4,4,0,0,1-.66,1.28l-.25.25-.38.19v.13a4.75,4.75,0,0,1-1,.6A4.13,4.13,0,0,1,237.19,63.28Zm.51-2.75.63-.69.32-1.52h-.32a5.08,5.08,0,0,0-1.29.28,4.36,4.36,0,0,0-1.17.66l-.06.19.25.76.63.38a1,1,0,0,0,.69.13Z"/><path class="cls-1" d="M265.73,62.62a2.22,2.22,0,0,1-1.1-.57,5.28,5.28,0,0,0-1-.76l-.19-.19-.57-.88h-.13a6.33,6.33,0,0,1-1.14-2.34,8.2,8.2,0,0,1-.19-2.71A15.8,15.8,0,0,1,262.2,52a18.4,18.4,0,0,1,1.39-2.9h-.82l-3.38.35q-1.67.16-3.47.22a3.09,3.09,0,0,1-.47-.16,2.5,2.5,0,0,1-.41-.22,1.87,1.87,0,0,1-.28-.54,1.15,1.15,0,0,1,0-.6l.32-.63q2.87-.44,5.81-.71t5.9-.33l.63.35a2.76,2.76,0,0,1,.32.54,1.15,1.15,0,0,1,.06.66l-.32.63-.69.44-.06.13h-.13a18.4,18.4,0,0,0-2,3.63,10,10,0,0,0-.73,4.14,3.39,3.39,0,0,0,.44,1.07l.63,1H265l.25.44,1.26.82v.13h.13A1.89,1.89,0,0,1,267,61a1.15,1.15,0,0,1,0,.6l-.32.63a.94.94,0,0,1-.44.25Zm5.11-11.68-.63-.32a16.28,16.28,0,0,0-.82-1.45,2.65,2.65,0,0,1-.38-1.64l.32-.63a1.57,1.57,0,0,1,.54-.32,1.15,1.15,0,0,1,.6,0l.63.35a6.44,6.44,0,0,0,.73,1.48A2.89,2.89,0,0,1,272.3,50l-.32.63a1.89,1.89,0,0,1-.54.28A1.15,1.15,0,0,1,270.85,50.94Zm3.06-1.58-.63-.32-.74-1.14a2.35,2.35,0,0,1-.36-1.29l.35-.63a1.88,1.88,0,0,1,.54-.28,1.15,1.15,0,0,1,.6,0l.63.32q.38.57.73,1.15a2.46,2.46,0,0,1,.35,1.28L275,49a1.89,1.89,0,0,1-.54.28A1.15,1.15,0,0,1,273.91,49.36Z"/><path class="cls-1" d="M285.75,60.53a4.37,4.37,0,0,1-1.17-.69l-1-.88a20.08,20.08,0,0,1-2.42-4.55,31.66,31.66,0,0,1-1.4-4.92,3.12,3.12,0,0,1,.16-.47,2.52,2.52,0,0,1,.22-.41,1.87,1.87,0,0,1,.54-.28,1.15,1.15,0,0,1,.6,0l.66.32q.63,2.21,1.39,4.39a25,25,0,0,0,2,4.26l1.58,1.14a2.77,2.77,0,0,1,.32.54,1.15,1.15,0,0,1,.06.66l-.32.63a1.88,1.88,0,0,1-.54.28A1.15,1.15,0,0,1,285.75,60.53Zm12.66-5.11a3.75,3.75,0,0,1-.49-.16,2.29,2.29,0,0,1-.43-.22,15,15,0,0,0-.95-3,10.91,10.91,0,0,0-1.7-2.71l-.57-.38a1.89,1.89,0,0,1-.28-.54,1.15,1.15,0,0,1,0-.6l.32-.63a1.88,1.88,0,0,1,.54-.28,1.37,1.37,0,0,1,.66,0l.88.44.32.32L297,48a21,21,0,0,1,1.8,3,8.24,8.24,0,0,1,.82,3.38l-.32.63a.94.94,0,0,1-.44.25Z"/><path class="cls-1" d="M316.78,62.52l-.63-.32a.94.94,0,0,1-.25-.47l-.13-.54a2.87,2.87,0,0,1,.16-.51,2.54,2.54,0,0,1,.22-.41l.38-.32,1.2-1.14a3.26,3.26,0,0,0,.63-.69,5.09,5.09,0,0,0,.44-.82,4.45,4.45,0,0,0,.25-1.07,5.14,5.14,0,0,0,0-1.14L318.36,54a2.57,2.57,0,0,0-1.26-.63,8.13,8.13,0,0,0-1.45-.13,5,5,0,0,0-2.49.92l-2.24,1.61-.13.19a.94.94,0,0,1-.47.25,2.74,2.74,0,0,1-.6.06l-.63-.32a1.88,1.88,0,0,1-.28-.54,1.37,1.37,0,0,1,0-.66l.32-.63.76-.51.13-.25.82-.82.69-.69q.76-.76,1.45-1.55a17.57,17.57,0,0,0,1.26-1.61,2.12,2.12,0,0,0,.54-.66l.41-.79.06-.51a2,2,0,0,0-.92-.16q-.47,0-1,0a11.32,11.32,0,0,0-1.77.54,7.79,7.79,0,0,1-1.83.47l-.63-.32a1.89,1.89,0,0,1-.28-.54,1.15,1.15,0,0,1,0-.6l.32-.63a10.28,10.28,0,0,1,3.09-1.2,12.57,12.57,0,0,1,3.47-.22,3.51,3.51,0,0,1,.69.32,5.82,5.82,0,0,1,.63.44,3,3,0,0,1,.6,1.17,4,4,0,0,1,.09,1.33,5.92,5.92,0,0,1-.57,1.52,12.75,12.75,0,0,1-.88,1.39l-.32.13-.13.38a9.75,9.75,0,0,1,2.08.22,4.58,4.58,0,0,1,1.83.85l.51.44a4.41,4.41,0,0,1,1.14,1.89,6.09,6.09,0,0,1,.19,2.34,8.38,8.38,0,0,1-.44,1.8,6.35,6.35,0,0,1-.88,1.61l-.57.63-.25.25-.5.54h-.13v.13l-.51.44-.69.57Z"/><path class="cls-1" d="M336.29,60.53a4.37,4.37,0,0,1-1.17-.69l-1-.88a20.08,20.08,0,0,1-2.42-4.55,31.66,31.66,0,0,1-1.4-4.92,3.12,3.12,0,0,1,.16-.47,2.52,2.52,0,0,1,.22-.41,1.87,1.87,0,0,1,.54-.28,1.15,1.15,0,0,1,.6,0l.66.32q.63,2.21,1.39,4.39a25,25,0,0,0,2,4.26l1.58,1.14a2.77,2.77,0,0,1,.32.54,1.15,1.15,0,0,1,.06.66l-.32.63a1.88,1.88,0,0,1-.54.28A1.15,1.15,0,0,1,336.29,60.53Zm12.66-5.11a3.75,3.75,0,0,1-.49-.16A2.29,2.29,0,0,1,348,55a15,15,0,0,0-.95-3,10.91,10.91,0,0,0-1.7-2.71l-.57-.38a1.89,1.89,0,0,1-.28-.54,1.15,1.15,0,0,1,0-.6l.32-.63a1.88,1.88,0,0,1,.54-.28,1.37,1.37,0,0,1,.66,0l.88.44.32.32.38.44a21,21,0,0,1,1.8,3,8.24,8.24,0,0,1,.82,3.38l-.32.63a.94.94,0,0,1-.44.25Z"/><path class="cls-1" d="M367.32,62.52l-.63-.32a.94.94,0,0,1-.25-.47l-.13-.54a2.87,2.87,0,0,1,.16-.51,2.54,2.54,0,0,1,.22-.41l.38-.32,1.2-1.14a3.26,3.26,0,0,0,.63-.69,5.09,5.09,0,0,0,.44-.82,4.45,4.45,0,0,0,.25-1.07,5.14,5.14,0,0,0,0-1.14L368.9,54a2.57,2.57,0,0,0-1.26-.63,8.13,8.13,0,0,0-1.45-.13,5,5,0,0,0-2.49.92l-2.24,1.61-.13.19a.94.94,0,0,1-.47.25,2.74,2.74,0,0,1-.6.06l-.63-.32a1.88,1.88,0,0,1-.28-.54,1.37,1.37,0,0,1,0-.66l.32-.63.76-.51.13-.25.82-.82.69-.69q.76-.76,1.45-1.55a17.57,17.57,0,0,0,1.26-1.61,2.12,2.12,0,0,0,.54-.66l.41-.79.06-.51a2,2,0,0,0-.92-.16q-.47,0-1,0a11.32,11.32,0,0,0-1.77.54,7.79,7.79,0,0,1-1.83.47l-.63-.32a1.89,1.89,0,0,1-.28-.54,1.15,1.15,0,0,1,0-.6l.32-.63a10.28,10.28,0,0,1,3.09-1.2,12.57,12.57,0,0,1,3.47-.22,3.51,3.51,0,0,1,.69.32,5.82,5.82,0,0,1,.63.44,3,3,0,0,1,.6,1.17,4,4,0,0,1,.09,1.33,5.92,5.92,0,0,1-.57,1.52,12.75,12.75,0,0,1-.88,1.39l-.32.13-.13.38a9.75,9.75,0,0,1,2.08.22,4.58,4.58,0,0,1,1.83.85l.51.44a4.41,4.41,0,0,1,1.14,1.89,6.09,6.09,0,0,1,.19,2.34,8.38,8.38,0,0,1-.44,1.8,6.35,6.35,0,0,1-.88,1.61l-.57.63-.25.25-.5.54h-.13v.13l-.51.44-.69.57Z"/><path class="cls-1" d="M388.4,65.55l-.66-.32a3.34,3.34,0,0,1-.25-.57,1,1,0,0,1,0-.6l.32-.57a1.38,1.38,0,0,0,.51-.54q.19-.35.38-.63l.25-1-.85,0a8.37,8.37,0,0,0-1.77.13,8.31,8.31,0,0,1-1.77.13l-.6-.32a2.39,2.39,0,0,1-.28-.57,1.07,1.07,0,0,1,0-.63l.32-.6a8.55,8.55,0,0,1,2.32-.51q1.22-.09,2.45-.09l.09-.51-.32-.73-.51-.32a1.58,1.58,0,0,1-.27-.55,1.35,1.35,0,0,1,0-.62l.32-.6,1.61-1,.57-.66-.51,0-2.81.32-.47-.16-.06.13-.77.52a2.36,2.36,0,0,0-.65.65l-1,.54v.13l-.87.55a1.5,1.5,0,0,1-1,.21l-.6-.35a1.89,1.89,0,0,1-.28-.54,1,1,0,0,1,0-.6l.32-.63q1.17-.79,2.3-1.67a15.64,15.64,0,0,0,2.12-2l1.14-1.1-1.17,0-3.22.25a3.08,3.08,0,0,1-.47-.16,1.64,1.64,0,0,1-.41-.25,2.48,2.48,0,0,1-.25-.54,1,1,0,0,1,0-.6l.32-.63a11.28,11.28,0,0,1,2.65-.44q1.36-.06,2.71-.19l.09-.63,0-1.45-.47,0-1.64.16-.6-.16a1.1,1.1,0,0,1-.54-.32,3.14,3.14,0,0,1-.25-.58,1,1,0,0,1,0-.62l.32-.6a2.38,2.38,0,0,1,.57-.28,1.18,1.18,0,0,1,.66,0l.25.06,1.67-.19.09-.82-.06-2.21.35-.63a1.58,1.58,0,0,1,.55-.27,1.35,1.35,0,0,1,.62,0l.63.35a3.22,3.22,0,0,1,.38,1.67q0,.92,0,1.8l.76,0,1.2-.09.63.35a2.51,2.51,0,0,1,.25.54,1.15,1.15,0,0,1,0,.6l-.35.66a2.22,2.22,0,0,1-1.2.41q-.66,0-1.36,0l0,1.39,0,.82.19,0a17,17,0,0,1,1.12-1.31,7.26,7.26,0,0,1,1.31-1.09l.76,0,.6.35a1.61,1.61,0,0,1,.27.54,1.28,1.28,0,0,1,0,.6l-.35.6h-.09l0,.25.85.08a1.4,1.4,0,0,1,.73.3,1.62,1.62,0,0,1,.27.54,1.28,1.28,0,0,1,0,.6l-.35.63a4.53,4.53,0,0,1-2.08.35,8.27,8.27,0,0,0-2.18.16l-.06.13-.44.47-1.1,1h2.4a3.93,3.93,0,0,1,.74.27,3.53,3.53,0,0,1,.68.43v.16h.13a1.65,1.65,0,0,1,.33.66,1.84,1.84,0,0,1,0,.79,2.71,2.71,0,0,1-.58,1,8.2,8.2,0,0,0-.74.93l-.51.51-.13,0v.13l-.32.32-.28.19v.19l.41,1.58,1,0a1.44,1.44,0,0,1,.9.33,1.6,1.6,0,0,1,.27.55,1.36,1.36,0,0,1,0,.62l-.35.63a1.81,1.81,0,0,1-.82.3,5.6,5.6,0,0,1-.95,0,8.28,8.28,0,0,1-.47,2.23,6.19,6.19,0,0,1-1.1,1.88l-.22.19a3.61,3.61,0,0,1-.57.28A1.11,1.11,0,0,1,388.4,65.55Zm17-.79a3.37,3.37,0,0,1-1.06-.58q-.49-.39-1-.84a6.83,6.83,0,0,1-1.2-1.26l-1-1.42h-.13l-.35.51-.32.32h-.13l-.51.82-.51.44a19.19,19.19,0,0,1-1.63,1.18,3.7,3.7,0,0,1-1.82.58l-.66-.32a2,2,0,0,1-.28-.52,1.08,1.08,0,0,1,0-.58l.32-.63q.76-.44,1.52-.85a5.27,5.27,0,0,0,1.39-1.1l.66-1a2.25,2.25,0,0,0,.54-.63,4.09,4.09,0,0,0,.35-.76,16.27,16.27,0,0,1-1.12-2.79,18.37,18.37,0,0,1-.62-3l.32-.63a1.57,1.57,0,0,1,.54-.32,1.15,1.15,0,0,1,.6,0l.63.32a5.2,5.2,0,0,1,.54,1.52,9.7,9.7,0,0,0,.44,1.58l.22.06a12.82,12.82,0,0,0,.82-2.49q.28-1.29.57-2.56a2.16,2.16,0,0,1,.55-.3,1.12,1.12,0,0,1,.62,0l.63.32a1.76,1.76,0,0,1,.35.79,6.07,6.07,0,0,1,.06.92,17.46,17.46,0,0,1-1,3.43q-.66,1.66-1.29,3.33l1,1.42h.13l.88,1.17.63.63.19.19a1.74,1.74,0,0,0,.51.54q.32.22.63.41a1.69,1.69,0,0,1,.38.57,1.28,1.28,0,0,1,.06.69l-.28.6a1.89,1.89,0,0,1-.54.28A1.15,1.15,0,0,1,405.36,64.76Zm-9.5-13.1-.6-.35a1.88,1.88,0,0,1-.28-.54,1.18,1.18,0,0,1,0-.66,22.52,22.52,0,0,0,2.27-4.7,38,38,0,0,0,1.36-5,2,2,0,0,1,.57-.27,1.28,1.28,0,0,1,.6,0l.6.32a1.43,1.43,0,0,1,.28.73,5.41,5.41,0,0,1,0,.82l-.46,2.13q-.24,1.09-.58,2.19h3.06l2.11.13.88,0a5.06,5.06,0,0,1,.6.16,1.29,1.29,0,0,1,.51.32,1.89,1.89,0,0,1,.28.54,1,1,0,0,1,0,.6l-.32.63a2.34,2.34,0,0,1-.57.25,1.52,1.52,0,0,1-.69,0l-.57-.09h-2.49l-1.86-.09-2,.25L397,51.38a1.58,1.58,0,0,1-.55.27A1.34,1.34,0,0,1,395.85,51.66Z"/><path class="cls-1" d="M428.46,62.3a4.59,4.59,0,0,1-2.3,0,4.19,4.19,0,0,1-1.36-.84,2,2,0,0,1-.54-.9,7.77,7.77,0,0,1-.19-1l.09-2.15H424a5.56,5.56,0,0,0-1.64.74q-.73.49-1.45,1.06l-.06.13-.69.44V60l-1.14.85-.38.19-.19.41q-.35.25-.69.47a1.39,1.39,0,0,1-.85.19l-.63-.32a1.53,1.53,0,0,1-.32-.55,1.22,1.22,0,0,1,0-.62,3.85,3.85,0,0,1,.74-1.17,8.13,8.13,0,0,0,.87-1.14l.76-.76h.13q1.23-1.61,2.51-3.22t2.48-3.19l-1.61,0-3.91.79-.63-.28a1.89,1.89,0,0,1-.28-.54,1.15,1.15,0,0,1,0-.6l.44-.76a28.27,28.27,0,0,1,3-.85,14.49,14.49,0,0,1,3.2-.25,9.84,9.84,0,0,1,1,.3,2.87,2.87,0,0,1,.85.49,3,3,0,0,1,.44.85,2.2,2.2,0,0,1,.09,1,7.72,7.72,0,0,1-.3.95,3,3,0,0,1-.49.82l-.38.44h-.13l-.19.38h-.13l-.19.41-.47.69h.19l1.26-.09.82.44v.13h.13a1.68,1.68,0,0,1,.49,1.28q0,.77,0,1.47-.16,1.39.16,1.59a1.91,1.91,0,0,0,1.2.08l1.45-.19.57-.09.63.19a4.72,4.72,0,0,1,.28.68,1.45,1.45,0,0,1,0,.68l-.28.63a2.56,2.56,0,0,1-1,.43A6.42,6.42,0,0,1,428.46,62.3Zm-5.15-15.72-2-.88q-1-.44-2-1a1.89,1.89,0,0,1-.28-.54,1.15,1.15,0,0,1,0-.6l.32-.63a1.87,1.87,0,0,1,.54-.28,1.37,1.37,0,0,1,.66,0l1.93.79a12.12,12.12,0,0,1,1.86,1,1.84,1.84,0,0,1,.28.55,1.22,1.22,0,0,1,0,.62l-.32.63a.94.94,0,0,1-.44.25Z"/><path class="cls-1" d="M446.39,63.28a4.32,4.32,0,0,1-1.64-.44,5.33,5.33,0,0,1-1.39-1,2.82,2.82,0,0,1-.66-1.31,7.17,7.17,0,0,1-.16-1.5,2.61,2.61,0,0,1,.76-1.52,6.57,6.57,0,0,1,2.08-1.23,7.21,7.21,0,0,1,2.46-.41v-.44L447.47,53l-.88-.06H444l-.66-.16a1.32,1.32,0,0,1-.6-.35,1.88,1.88,0,0,1-.28-.54,1.15,1.15,0,0,1,0-.6l.32-.63a1.89,1.89,0,0,1,.54-.28,1.37,1.37,0,0,1,.66,0l.32.13h2.53l.38.06V50.3l-.51-2.65h-.82l-1.52.19a3.08,3.08,0,0,1-.47-.16,2.54,2.54,0,0,1-.41-.22,1.89,1.89,0,0,1-.28-.54,1.15,1.15,0,0,1,0-.6l.32-.63a4.42,4.42,0,0,1,1.48-.38l1.61-.13v-.54l-.13-1.45a3.12,3.12,0,0,1,.16-.47,2.57,2.57,0,0,1,.22-.41,1.88,1.88,0,0,1,.54-.28,1.15,1.15,0,0,1,.6,0l.63.32a3.52,3.52,0,0,1,.35,1.45q0,.82.09,1.61a10.75,10.75,0,0,1,1.14.19,3.41,3.41,0,0,1,1.07.44,1.89,1.89,0,0,1,.28.54,1.15,1.15,0,0,1,0,.6l-.32.63a1.11,1.11,0,0,1-.6.32,2.1,2.1,0,0,1-.73,0l-.63-.13v.19l.38,2.08h.57q.44-.13.95-.22a3.26,3.26,0,0,1,1,0l.63.32a1.89,1.89,0,0,1,.28.54,1.15,1.15,0,0,1,0,.6l-.32.63a4.89,4.89,0,0,1-1.36.44q-.73.13-1.48.19v.51a12.35,12.35,0,0,1,.28,1.58,12.31,12.31,0,0,0,.28,1.58q.76.38,1.45.76a12.82,12.82,0,0,1,1.39.88,2.5,2.5,0,0,1,.32.57,1.28,1.28,0,0,1,.06.69l-.32.63a1.88,1.88,0,0,1-.54.28,1.15,1.15,0,0,1-.6,0l-2-1.14a11.11,11.11,0,0,1-.35,1.47,4,4,0,0,1-.66,1.28l-.25.25-.38.19v.13a4.75,4.75,0,0,1-1,.6A4.13,4.13,0,0,1,446.39,63.28Zm.51-2.75.63-.69.32-1.52h-.32a5.08,5.08,0,0,0-1.29.28,4.36,4.36,0,0,0-1.17.66l-.06.19.25.76.63.38a1,1,0,0,0,.69.13Z"/><path class="cls-1" d="M475.18,63a3.08,3.08,0,0,1-.47-.16,2.54,2.54,0,0,1-.41-.22,1.89,1.89,0,0,1-.28-.54,1.15,1.15,0,0,1,0-.6,8.68,8.68,0,0,0,.69-1.69,12.34,12.34,0,0,0,.38-1.82h-.19l-1.2.19a4.44,4.44,0,0,1-1.07-.25,3.15,3.15,0,0,1-.95-.57l-.38-.38a3.58,3.58,0,0,1-.69-1.45,7.56,7.56,0,0,1-.19-1.7,4.49,4.49,0,0,1,.28-1.14,3.46,3.46,0,0,1,.6-1,5.5,5.5,0,0,1,1.61-.95,4.12,4.12,0,0,1,1.93-.19l.5.13V48.85l-.06-.32h-.57q-2.59.19-5.11.54t-5,.92a2.83,2.83,0,0,1-.51-.16,2.5,2.5,0,0,1-.41-.22,1.89,1.89,0,0,1-.28-.54,1.15,1.15,0,0,1,0-.6l.32-.63a36.07,36.07,0,0,1,5.62-1.2q2.87-.38,5.78-.57v-.63l-.32-2.62.32-.63a1.88,1.88,0,0,1,.54-.28,1.15,1.15,0,0,1,.6,0l.63.32a4.37,4.37,0,0,1,.51,1.82,14.56,14.56,0,0,0,.25,1.94h1.64l.06-.06h3l.63.32a2.77,2.77,0,0,1,.32.54,1.15,1.15,0,0,1,.06.66L483,48a1.51,1.51,0,0,1-.73.32,5.56,5.56,0,0,1-.85.06l-2.05-.06-1.64.06v.13l.06.06v4L477.65,54l.13.51v2.84q-.25,1.39-.57,2.73a8.28,8.28,0,0,1-1.07,2.54.94.94,0,0,1-.44.25Zm-.76-7.48a3.46,3.46,0,0,0,.47-.92,3.28,3.28,0,0,0,.16-1,.67.67,0,0,0-.22-.32l-.35-.25h-.82l-.76.69-.06.69.13.54a.94.94,0,0,0,.25.47l.13.06v.13l.88.06Z"/><path class="cls-1" d="M492.51,64.86a16.39,16.39,0,0,0-1.67-.28,2.14,2.14,0,0,1-1.39-.73l-.25-.25a5,5,0,0,1-.76-1.55,6.29,6.29,0,0,1-.25-1.8,6.7,6.7,0,0,1,.44-1.61,5.84,5.84,0,0,1,.88-1.45l.44-.44a3.13,3.13,0,0,1,1.58-.79,7.74,7.74,0,0,1,1.86-.09,3.81,3.81,0,0,1,1.29.35,6.31,6.31,0,0,1,1.17.73l.32.32a4.2,4.2,0,0,1,.92,1.78,6.28,6.28,0,0,1,.09,2.1,3.17,3.17,0,0,1-.32,1.07,7.11,7.11,0,0,1-.57.95l-.76.63a5.33,5.33,0,0,1-1.45.76A6.59,6.59,0,0,1,492.51,64.86Zm1.26-2.9.88-.82.06-1.39-.32-.79-.19-.06v-.13a3.73,3.73,0,0,0-.95-.38,3.19,3.19,0,0,0-1.1-.06l-.51.25-.06.13h-.13v.13a.82.82,0,0,0-.38.38q-.13.25-.25.54l-.19.88.32.95a8.75,8.75,0,0,1,.88.44,2.54,2.54,0,0,0,1,.32Z"/></g></g></svg>